%TF.GenerationSoftware,KiCad,Pcbnew,9.0.0*%
%TF.CreationDate,2025-04-04T14:44:08+08:00*%
%TF.ProjectId,modwheel,6d6f6477-6865-4656-9c2e-6b696361645f,rev?*%
%TF.SameCoordinates,Original*%
%TF.FileFunction,Legend,Top*%
%TF.FilePolarity,Positive*%
%FSLAX46Y46*%
G04 Gerber Fmt 4.6, Leading zero omitted, Abs format (unit mm)*
G04 Created by KiCad (PCBNEW 9.0.0) date 2025-04-04 14:44:08*
%MOMM*%
%LPD*%
G01*
G04 APERTURE LIST*
G04 Aperture macros list*
%AMRoundRect*
0 Rectangle with rounded corners*
0 $1 Rounding radius*
0 $2 $3 $4 $5 $6 $7 $8 $9 X,Y pos of 4 corners*
0 Add a 4 corners polygon primitive as box body*
4,1,4,$2,$3,$4,$5,$6,$7,$8,$9,$2,$3,0*
0 Add four circle primitives for the rounded corners*
1,1,$1+$1,$2,$3*
1,1,$1+$1,$4,$5*
1,1,$1+$1,$6,$7*
1,1,$1+$1,$8,$9*
0 Add four rect primitives between the rounded corners*
20,1,$1+$1,$2,$3,$4,$5,0*
20,1,$1+$1,$4,$5,$6,$7,0*
20,1,$1+$1,$6,$7,$8,$9,0*
20,1,$1+$1,$8,$9,$2,$3,0*%
%AMOutline4P*
0 Free polygon, 4 corners , with rotation*
0 The origin of the aperture is its center*
0 number of corners: always 4*
0 $1 to $8 corner X, Y*
0 $9 Rotation angle, in degrees counterclockwise*
0 create outline with 4 corners*
4,1,4,$1,$2,$3,$4,$5,$6,$7,$8,$1,$2,$9*%
%AMFreePoly0*
4,1,14,0.354215,0.088284,0.450784,-0.008285,0.462500,-0.036569,0.462500,-0.060000,0.450784,-0.088284,0.422500,-0.100000,-0.422500,-0.100000,-0.450784,-0.088284,-0.462500,-0.060000,-0.462500,0.060000,-0.450784,0.088284,-0.422500,0.100000,0.325931,0.100000,0.354215,0.088284,0.354215,0.088284,$1*%
%AMFreePoly1*
4,1,14,0.450784,0.088284,0.462500,0.060000,0.462500,0.036569,0.450784,0.008285,0.354215,-0.088284,0.325931,-0.100000,-0.422500,-0.100000,-0.450784,-0.088284,-0.462500,-0.060000,-0.462500,0.060000,-0.450784,0.088284,-0.422500,0.100000,0.422500,0.100000,0.450784,0.088284,0.450784,0.088284,$1*%
%AMFreePoly2*
4,1,14,0.088284,0.450784,0.100000,0.422500,0.100000,-0.422500,0.088284,-0.450784,0.060000,-0.462500,-0.060000,-0.462500,-0.088284,-0.450784,-0.100000,-0.422500,-0.100000,0.325931,-0.088284,0.354215,0.008285,0.450784,0.036569,0.462500,0.060000,0.462500,0.088284,0.450784,0.088284,0.450784,$1*%
%AMFreePoly3*
4,1,14,-0.008285,0.450784,0.088284,0.354215,0.100000,0.325931,0.100000,-0.422500,0.088284,-0.450784,0.060000,-0.462500,-0.060000,-0.462500,-0.088284,-0.450784,-0.100000,-0.422500,-0.100000,0.422500,-0.088284,0.450784,-0.060000,0.462500,-0.036569,0.462500,-0.008285,0.450784,-0.008285,0.450784,$1*%
%AMFreePoly4*
4,1,14,0.450784,0.088284,0.462500,0.060000,0.462500,-0.060000,0.450784,-0.088284,0.422500,-0.100000,-0.325931,-0.100000,-0.354215,-0.088284,-0.450784,0.008285,-0.462500,0.036569,-0.462500,0.060000,-0.450784,0.088284,-0.422500,0.100000,0.422500,0.100000,0.450784,0.088284,0.450784,0.088284,$1*%
%AMFreePoly5*
4,1,14,0.450784,0.088284,0.462500,0.060000,0.462500,-0.060000,0.450784,-0.088284,0.422500,-0.100000,-0.422500,-0.100000,-0.450784,-0.088284,-0.462500,-0.060000,-0.462500,-0.036569,-0.450784,-0.008285,-0.354215,0.088284,-0.325931,0.100000,0.422500,0.100000,0.450784,0.088284,0.450784,0.088284,$1*%
%AMFreePoly6*
4,1,14,0.088284,0.450784,0.100000,0.422500,0.100000,-0.325931,0.088284,-0.354215,-0.008285,-0.450784,-0.036569,-0.462500,-0.060000,-0.462500,-0.088284,-0.450784,-0.100000,-0.422500,-0.100000,0.422500,-0.088284,0.450784,-0.060000,0.462500,0.060000,0.462500,0.088284,0.450784,0.088284,0.450784,$1*%
%AMFreePoly7*
4,1,14,0.088284,0.450784,0.100000,0.422500,0.100000,-0.422500,0.088284,-0.450784,0.060000,-0.462500,0.036569,-0.462500,0.008285,-0.450784,-0.088284,-0.354215,-0.100000,-0.325931,-0.100000,0.422500,-0.088284,0.450784,-0.060000,0.462500,0.060000,0.462500,0.088284,0.450784,0.088284,0.450784,$1*%
G04 Aperture macros list end*
%ADD10C,0.125000*%
%ADD11C,0.100000*%
%ADD12C,0.120000*%
%ADD13C,0.254000*%
%ADD14RoundRect,0.200000X0.275000X-0.200000X0.275000X0.200000X-0.275000X0.200000X-0.275000X-0.200000X0*%
%ADD15FreePoly0,270.000000*%
%ADD16RoundRect,0.050000X-0.050000X0.412500X-0.050000X-0.412500X0.050000X-0.412500X0.050000X0.412500X0*%
%ADD17FreePoly1,270.000000*%
%ADD18FreePoly2,270.000000*%
%ADD19RoundRect,0.050000X-0.412500X0.050000X-0.412500X-0.050000X0.412500X-0.050000X0.412500X0.050000X0*%
%ADD20FreePoly3,270.000000*%
%ADD21FreePoly4,270.000000*%
%ADD22FreePoly5,270.000000*%
%ADD23FreePoly6,270.000000*%
%ADD24FreePoly7,270.000000*%
%ADD25C,3.200000*%
%ADD26R,2.100000X2.000000*%
%ADD27R,5.000000X6.111111*%
%ADD28Outline4P,0.000000X-1.250000X0.000000X-1.250000X3.666666X1.250000X-3.666666X1.250000X90.000000*%
%ADD29Outline4P,-3.666666X-1.250000X3.666666X-1.250000X0.000000X1.250000X0.000000X1.250000X90.000000*%
%ADD30Outline4P,-1.833333X0.000000X1.833333X-2.500000X1.833333X2.500000X-1.833333X0.000000X90.000000*%
%ADD31R,5.000000X3.666666*%
%ADD32R,5.000000X6.111110*%
G04 APERTURE END LIST*
D10*
X107320331Y-74121119D02*
X107320331Y-73121119D01*
X107320331Y-73121119D02*
X107701283Y-73121119D01*
X107701283Y-73121119D02*
X107796521Y-73168738D01*
X107796521Y-73168738D02*
X107844140Y-73216357D01*
X107844140Y-73216357D02*
X107891759Y-73311595D01*
X107891759Y-73311595D02*
X107891759Y-73454452D01*
X107891759Y-73454452D02*
X107844140Y-73549690D01*
X107844140Y-73549690D02*
X107796521Y-73597309D01*
X107796521Y-73597309D02*
X107701283Y-73644928D01*
X107701283Y-73644928D02*
X107320331Y-73644928D01*
X108320331Y-74121119D02*
X108320331Y-73454452D01*
X108320331Y-73121119D02*
X108272712Y-73168738D01*
X108272712Y-73168738D02*
X108320331Y-73216357D01*
X108320331Y-73216357D02*
X108367950Y-73168738D01*
X108367950Y-73168738D02*
X108320331Y-73121119D01*
X108320331Y-73121119D02*
X108320331Y-73216357D01*
X108653664Y-73454452D02*
X109034616Y-73454452D01*
X108796521Y-73121119D02*
X108796521Y-73978261D01*
X108796521Y-73978261D02*
X108844140Y-74073500D01*
X108844140Y-74073500D02*
X108939378Y-74121119D01*
X108939378Y-74121119D02*
X109034616Y-74121119D01*
X109796521Y-74073500D02*
X109701283Y-74121119D01*
X109701283Y-74121119D02*
X109510807Y-74121119D01*
X109510807Y-74121119D02*
X109415569Y-74073500D01*
X109415569Y-74073500D02*
X109367950Y-74025880D01*
X109367950Y-74025880D02*
X109320331Y-73930642D01*
X109320331Y-73930642D02*
X109320331Y-73644928D01*
X109320331Y-73644928D02*
X109367950Y-73549690D01*
X109367950Y-73549690D02*
X109415569Y-73502071D01*
X109415569Y-73502071D02*
X109510807Y-73454452D01*
X109510807Y-73454452D02*
X109701283Y-73454452D01*
X109701283Y-73454452D02*
X109796521Y-73502071D01*
X110225093Y-74121119D02*
X110225093Y-73121119D01*
X110653664Y-74121119D02*
X110653664Y-73597309D01*
X110653664Y-73597309D02*
X110606045Y-73502071D01*
X110606045Y-73502071D02*
X110510807Y-73454452D01*
X110510807Y-73454452D02*
X110367950Y-73454452D01*
X110367950Y-73454452D02*
X110272712Y-73502071D01*
X110272712Y-73502071D02*
X110225093Y-73549690D01*
X111463188Y-73597309D02*
X111606045Y-73644928D01*
X111606045Y-73644928D02*
X111653664Y-73692547D01*
X111653664Y-73692547D02*
X111701283Y-73787785D01*
X111701283Y-73787785D02*
X111701283Y-73930642D01*
X111701283Y-73930642D02*
X111653664Y-74025880D01*
X111653664Y-74025880D02*
X111606045Y-74073500D01*
X111606045Y-74073500D02*
X111510807Y-74121119D01*
X111510807Y-74121119D02*
X111129855Y-74121119D01*
X111129855Y-74121119D02*
X111129855Y-73121119D01*
X111129855Y-73121119D02*
X111463188Y-73121119D01*
X111463188Y-73121119D02*
X111558426Y-73168738D01*
X111558426Y-73168738D02*
X111606045Y-73216357D01*
X111606045Y-73216357D02*
X111653664Y-73311595D01*
X111653664Y-73311595D02*
X111653664Y-73406833D01*
X111653664Y-73406833D02*
X111606045Y-73502071D01*
X111606045Y-73502071D02*
X111558426Y-73549690D01*
X111558426Y-73549690D02*
X111463188Y-73597309D01*
X111463188Y-73597309D02*
X111129855Y-73597309D01*
X112510807Y-74073500D02*
X112415569Y-74121119D01*
X112415569Y-74121119D02*
X112225093Y-74121119D01*
X112225093Y-74121119D02*
X112129855Y-74073500D01*
X112129855Y-74073500D02*
X112082236Y-73978261D01*
X112082236Y-73978261D02*
X112082236Y-73597309D01*
X112082236Y-73597309D02*
X112129855Y-73502071D01*
X112129855Y-73502071D02*
X112225093Y-73454452D01*
X112225093Y-73454452D02*
X112415569Y-73454452D01*
X112415569Y-73454452D02*
X112510807Y-73502071D01*
X112510807Y-73502071D02*
X112558426Y-73597309D01*
X112558426Y-73597309D02*
X112558426Y-73692547D01*
X112558426Y-73692547D02*
X112082236Y-73787785D01*
X112986998Y-73454452D02*
X112986998Y-74121119D01*
X112986998Y-73549690D02*
X113034617Y-73502071D01*
X113034617Y-73502071D02*
X113129855Y-73454452D01*
X113129855Y-73454452D02*
X113272712Y-73454452D01*
X113272712Y-73454452D02*
X113367950Y-73502071D01*
X113367950Y-73502071D02*
X113415569Y-73597309D01*
X113415569Y-73597309D02*
X113415569Y-74121119D01*
X114320331Y-74121119D02*
X114320331Y-73121119D01*
X114320331Y-74073500D02*
X114225093Y-74121119D01*
X114225093Y-74121119D02*
X114034617Y-74121119D01*
X114034617Y-74121119D02*
X113939379Y-74073500D01*
X113939379Y-74073500D02*
X113891760Y-74025880D01*
X113891760Y-74025880D02*
X113844141Y-73930642D01*
X113844141Y-73930642D02*
X113844141Y-73644928D01*
X113844141Y-73644928D02*
X113891760Y-73549690D01*
X113891760Y-73549690D02*
X113939379Y-73502071D01*
X113939379Y-73502071D02*
X114034617Y-73454452D01*
X114034617Y-73454452D02*
X114225093Y-73454452D01*
X114225093Y-73454452D02*
X114320331Y-73502071D01*
D11*
X91494360Y-136872419D02*
X91684836Y-136872419D01*
X91684836Y-136872419D02*
X91780074Y-136920038D01*
X91780074Y-136920038D02*
X91875312Y-137015276D01*
X91875312Y-137015276D02*
X91922931Y-137205752D01*
X91922931Y-137205752D02*
X91922931Y-137539085D01*
X91922931Y-137539085D02*
X91875312Y-137729561D01*
X91875312Y-137729561D02*
X91780074Y-137824800D01*
X91780074Y-137824800D02*
X91684836Y-137872419D01*
X91684836Y-137872419D02*
X91494360Y-137872419D01*
X91494360Y-137872419D02*
X91399122Y-137824800D01*
X91399122Y-137824800D02*
X91303884Y-137729561D01*
X91303884Y-137729561D02*
X91256265Y-137539085D01*
X91256265Y-137539085D02*
X91256265Y-137205752D01*
X91256265Y-137205752D02*
X91303884Y-137015276D01*
X91303884Y-137015276D02*
X91399122Y-136920038D01*
X91399122Y-136920038D02*
X91494360Y-136872419D01*
X92922931Y-137777180D02*
X92875312Y-137824800D01*
X92875312Y-137824800D02*
X92732455Y-137872419D01*
X92732455Y-137872419D02*
X92637217Y-137872419D01*
X92637217Y-137872419D02*
X92494360Y-137824800D01*
X92494360Y-137824800D02*
X92399122Y-137729561D01*
X92399122Y-137729561D02*
X92351503Y-137634323D01*
X92351503Y-137634323D02*
X92303884Y-137443847D01*
X92303884Y-137443847D02*
X92303884Y-137300990D01*
X92303884Y-137300990D02*
X92351503Y-137110514D01*
X92351503Y-137110514D02*
X92399122Y-137015276D01*
X92399122Y-137015276D02*
X92494360Y-136920038D01*
X92494360Y-136920038D02*
X92637217Y-136872419D01*
X92637217Y-136872419D02*
X92732455Y-136872419D01*
X92732455Y-136872419D02*
X92875312Y-136920038D01*
X92875312Y-136920038D02*
X92922931Y-136967657D01*
X93208646Y-136872419D02*
X93780074Y-136872419D01*
X93494360Y-137872419D02*
X93494360Y-136872419D01*
X94113408Y-137491466D02*
X94875313Y-137491466D01*
X103994360Y-136872419D02*
X104184836Y-136872419D01*
X104184836Y-136872419D02*
X104280074Y-136920038D01*
X104280074Y-136920038D02*
X104375312Y-137015276D01*
X104375312Y-137015276D02*
X104422931Y-137205752D01*
X104422931Y-137205752D02*
X104422931Y-137539085D01*
X104422931Y-137539085D02*
X104375312Y-137729561D01*
X104375312Y-137729561D02*
X104280074Y-137824800D01*
X104280074Y-137824800D02*
X104184836Y-137872419D01*
X104184836Y-137872419D02*
X103994360Y-137872419D01*
X103994360Y-137872419D02*
X103899122Y-137824800D01*
X103899122Y-137824800D02*
X103803884Y-137729561D01*
X103803884Y-137729561D02*
X103756265Y-137539085D01*
X103756265Y-137539085D02*
X103756265Y-137205752D01*
X103756265Y-137205752D02*
X103803884Y-137015276D01*
X103803884Y-137015276D02*
X103899122Y-136920038D01*
X103899122Y-136920038D02*
X103994360Y-136872419D01*
X105422931Y-137777180D02*
X105375312Y-137824800D01*
X105375312Y-137824800D02*
X105232455Y-137872419D01*
X105232455Y-137872419D02*
X105137217Y-137872419D01*
X105137217Y-137872419D02*
X104994360Y-137824800D01*
X104994360Y-137824800D02*
X104899122Y-137729561D01*
X104899122Y-137729561D02*
X104851503Y-137634323D01*
X104851503Y-137634323D02*
X104803884Y-137443847D01*
X104803884Y-137443847D02*
X104803884Y-137300990D01*
X104803884Y-137300990D02*
X104851503Y-137110514D01*
X104851503Y-137110514D02*
X104899122Y-137015276D01*
X104899122Y-137015276D02*
X104994360Y-136920038D01*
X104994360Y-136920038D02*
X105137217Y-136872419D01*
X105137217Y-136872419D02*
X105232455Y-136872419D01*
X105232455Y-136872419D02*
X105375312Y-136920038D01*
X105375312Y-136920038D02*
X105422931Y-136967657D01*
X105708646Y-136872419D02*
X106280074Y-136872419D01*
X105994360Y-137872419D02*
X105994360Y-136872419D01*
X106613408Y-137491466D02*
X107375313Y-137491466D01*
X106994360Y-137872419D02*
X106994360Y-137110514D01*
X84803884Y-74122419D02*
X84803884Y-73122419D01*
X84803884Y-73122419D02*
X85137217Y-73836704D01*
X85137217Y-73836704D02*
X85470550Y-73122419D01*
X85470550Y-73122419D02*
X85470550Y-74122419D01*
X86089598Y-74122419D02*
X85994360Y-74074800D01*
X85994360Y-74074800D02*
X85946741Y-74027180D01*
X85946741Y-74027180D02*
X85899122Y-73931942D01*
X85899122Y-73931942D02*
X85899122Y-73646228D01*
X85899122Y-73646228D02*
X85946741Y-73550990D01*
X85946741Y-73550990D02*
X85994360Y-73503371D01*
X85994360Y-73503371D02*
X86089598Y-73455752D01*
X86089598Y-73455752D02*
X86232455Y-73455752D01*
X86232455Y-73455752D02*
X86327693Y-73503371D01*
X86327693Y-73503371D02*
X86375312Y-73550990D01*
X86375312Y-73550990D02*
X86422931Y-73646228D01*
X86422931Y-73646228D02*
X86422931Y-73931942D01*
X86422931Y-73931942D02*
X86375312Y-74027180D01*
X86375312Y-74027180D02*
X86327693Y-74074800D01*
X86327693Y-74074800D02*
X86232455Y-74122419D01*
X86232455Y-74122419D02*
X86089598Y-74122419D01*
X87280074Y-74122419D02*
X87280074Y-73122419D01*
X87280074Y-74074800D02*
X87184836Y-74122419D01*
X87184836Y-74122419D02*
X86994360Y-74122419D01*
X86994360Y-74122419D02*
X86899122Y-74074800D01*
X86899122Y-74074800D02*
X86851503Y-74027180D01*
X86851503Y-74027180D02*
X86803884Y-73931942D01*
X86803884Y-73931942D02*
X86803884Y-73646228D01*
X86803884Y-73646228D02*
X86851503Y-73550990D01*
X86851503Y-73550990D02*
X86899122Y-73503371D01*
X86899122Y-73503371D02*
X86994360Y-73455752D01*
X86994360Y-73455752D02*
X87184836Y-73455752D01*
X87184836Y-73455752D02*
X87280074Y-73503371D01*
X87661027Y-73122419D02*
X87899122Y-74122419D01*
X87899122Y-74122419D02*
X88089598Y-73408133D01*
X88089598Y-73408133D02*
X88280074Y-74122419D01*
X88280074Y-74122419D02*
X88518170Y-73122419D01*
X88899122Y-74122419D02*
X88899122Y-73122419D01*
X89327693Y-74122419D02*
X89327693Y-73598609D01*
X89327693Y-73598609D02*
X89280074Y-73503371D01*
X89280074Y-73503371D02*
X89184836Y-73455752D01*
X89184836Y-73455752D02*
X89041979Y-73455752D01*
X89041979Y-73455752D02*
X88946741Y-73503371D01*
X88946741Y-73503371D02*
X88899122Y-73550990D01*
X90184836Y-74074800D02*
X90089598Y-74122419D01*
X90089598Y-74122419D02*
X89899122Y-74122419D01*
X89899122Y-74122419D02*
X89803884Y-74074800D01*
X89803884Y-74074800D02*
X89756265Y-73979561D01*
X89756265Y-73979561D02*
X89756265Y-73598609D01*
X89756265Y-73598609D02*
X89803884Y-73503371D01*
X89803884Y-73503371D02*
X89899122Y-73455752D01*
X89899122Y-73455752D02*
X90089598Y-73455752D01*
X90089598Y-73455752D02*
X90184836Y-73503371D01*
X90184836Y-73503371D02*
X90232455Y-73598609D01*
X90232455Y-73598609D02*
X90232455Y-73693847D01*
X90232455Y-73693847D02*
X89756265Y-73789085D01*
X91041979Y-74074800D02*
X90946741Y-74122419D01*
X90946741Y-74122419D02*
X90756265Y-74122419D01*
X90756265Y-74122419D02*
X90661027Y-74074800D01*
X90661027Y-74074800D02*
X90613408Y-73979561D01*
X90613408Y-73979561D02*
X90613408Y-73598609D01*
X90613408Y-73598609D02*
X90661027Y-73503371D01*
X90661027Y-73503371D02*
X90756265Y-73455752D01*
X90756265Y-73455752D02*
X90946741Y-73455752D01*
X90946741Y-73455752D02*
X91041979Y-73503371D01*
X91041979Y-73503371D02*
X91089598Y-73598609D01*
X91089598Y-73598609D02*
X91089598Y-73693847D01*
X91089598Y-73693847D02*
X90613408Y-73789085D01*
X91661027Y-74122419D02*
X91565789Y-74074800D01*
X91565789Y-74074800D02*
X91518170Y-73979561D01*
X91518170Y-73979561D02*
X91518170Y-73122419D01*
D12*
%TO.C,R6*%
X99421750Y-86190000D02*
X97821750Y-86190000D01*
X97821750Y-86190000D02*
X97821750Y-89190000D01*
X97821750Y-89190000D02*
X99421750Y-89190000D01*
X99421750Y-89190000D02*
X99421750Y-86190000D01*
%TO.C,R5*%
X101141750Y-86190000D02*
X99541750Y-86190000D01*
X99541750Y-86190000D02*
X99541750Y-89190000D01*
X99541750Y-89190000D02*
X101141750Y-89190000D01*
X101141750Y-89190000D02*
X101141750Y-86190000D01*
%TO.C,U1*%
X98035000Y-97030000D02*
X98485000Y-97030000D01*
X98035000Y-97480000D02*
X98035000Y-97030000D01*
X98035000Y-99800000D02*
X98035000Y-100250000D01*
X98035000Y-100250000D02*
X98485000Y-100250000D01*
X100805000Y-97030000D02*
X101015000Y-97030000D01*
X101255000Y-97480000D02*
X101255000Y-97330000D01*
X101255000Y-99800000D02*
X101255000Y-100250000D01*
X101255000Y-100250000D02*
X100805000Y-100250000D01*
X101585000Y-97270000D02*
X101255000Y-97030000D01*
X101585000Y-96790000D01*
X101585000Y-97270000D01*
G36*
X101585000Y-97270000D02*
G01*
X101255000Y-97030000D01*
X101585000Y-96790000D01*
X101585000Y-97270000D01*
G37*
D13*
%TO.C,SW1*%
X102550000Y-128877000D02*
X102550000Y-130646000D01*
X102550000Y-133108000D02*
X102550000Y-134877000D01*
X102550000Y-134877000D02*
X108550000Y-134877000D01*
X108550000Y-128877000D02*
X102550000Y-128877000D01*
X108550000Y-130646000D02*
X108550000Y-128877000D01*
X108550000Y-134877000D02*
X108550000Y-133108000D01*
X106255000Y-131828500D02*
G75*
G02*
X104757000Y-131828500I-749000J0D01*
G01*
X104757000Y-131828500D02*
G75*
G02*
X106255000Y-131828500I749000J0D01*
G01*
X107256000Y-131828500D02*
G75*
G02*
X103756000Y-131828500I-1750000J0D01*
G01*
X103756000Y-131828500D02*
G75*
G02*
X107256000Y-131828500I1750000J0D01*
G01*
%TO.C,SW2*%
X90050000Y-128881000D02*
X90050000Y-130650000D01*
X90050000Y-133112000D02*
X90050000Y-134881000D01*
X90050000Y-134881000D02*
X96050000Y-134881000D01*
X96050000Y-128881000D02*
X90050000Y-128881000D01*
X96050000Y-130650000D02*
X96050000Y-128881000D01*
X96050000Y-134881000D02*
X96050000Y-133112000D01*
X93755000Y-131832500D02*
G75*
G02*
X92257000Y-131832500I-749000J0D01*
G01*
X92257000Y-131832500D02*
G75*
G02*
X93755000Y-131832500I749000J0D01*
G01*
X94756000Y-131832500D02*
G75*
G02*
X91256000Y-131832500I-1750000J0D01*
G01*
X91256000Y-131832500D02*
G75*
G02*
X94756000Y-131832500I1750000J0D01*
G01*
%TD*%
%LPC*%
D14*
%TO.C,R6*%
X98621750Y-86865000D03*
X98621750Y-88515000D03*
%TD*%
%TO.C,R5*%
X100341750Y-86865000D03*
X100341750Y-88515000D03*
%TD*%
D15*
%TO.C,U1*%
X100445000Y-97252500D03*
D16*
X100045000Y-97252500D03*
X99645000Y-97252500D03*
X99245000Y-97252500D03*
D17*
X98845000Y-97252500D03*
D18*
X98257500Y-97840000D03*
D19*
X98257500Y-98240000D03*
X98257500Y-98640000D03*
X98257500Y-99040000D03*
D20*
X98257500Y-99440000D03*
D21*
X98845000Y-100027500D03*
D16*
X99245000Y-100027500D03*
X99645000Y-100027500D03*
X100045000Y-100027500D03*
D22*
X100445000Y-100027500D03*
D23*
X101032500Y-99440000D03*
D19*
X101032500Y-99040000D03*
X101032500Y-98640000D03*
X101032500Y-98240000D03*
D24*
X101032500Y-97840000D03*
%TD*%
D25*
%TO.C,H1*%
X80150000Y-69450000D03*
%TD*%
D26*
%TO.C,SW1*%
X102550000Y-131877000D03*
X108550000Y-131877000D03*
%TD*%
D25*
%TO.C,H3*%
X80150000Y-136450000D03*
%TD*%
%TO.C,H4*%
X122150000Y-136450000D03*
%TD*%
D27*
%TO.C,J2*%
X109750000Y-122097223D03*
X114750000Y-122097223D03*
D28*
X108500000Y-119041668D03*
D29*
X111000000Y-119041668D03*
D28*
X113500000Y-119041668D03*
D29*
X116000000Y-119041668D03*
D30*
X109750000Y-116208334D03*
X114750000Y-116208334D03*
D31*
X109750000Y-112541668D03*
X114750000Y-112541668D03*
D28*
X108500000Y-110708335D03*
D29*
X111000000Y-110708335D03*
D28*
X113500000Y-110708335D03*
D29*
X116000000Y-110708335D03*
D30*
X109750000Y-107875001D03*
X114750000Y-107875001D03*
D31*
X109750000Y-104208335D03*
X114750000Y-104208335D03*
D28*
X108500000Y-102375002D03*
D29*
X111000000Y-102375002D03*
D28*
X113500000Y-102375002D03*
D29*
X116000000Y-102375002D03*
D30*
X109750000Y-99541668D03*
X114750000Y-99541668D03*
D31*
X109750000Y-95875002D03*
X114750000Y-95875002D03*
D28*
X108500000Y-94041669D03*
D29*
X111000000Y-94041669D03*
D28*
X113500000Y-94041669D03*
D29*
X116000000Y-94041669D03*
D30*
X109750000Y-91208335D03*
X114750000Y-91208335D03*
D31*
X109750000Y-87541669D03*
X114750000Y-87541669D03*
D28*
X108500000Y-85708336D03*
D29*
X111000000Y-85708336D03*
D28*
X113500000Y-85708336D03*
D29*
X116000000Y-85708336D03*
D30*
X109750000Y-82875002D03*
X114750000Y-82875002D03*
D32*
X109750000Y-77986114D03*
X114750000Y-77986114D03*
%TD*%
D27*
%TO.C,J1*%
X85000000Y-122097223D03*
X90000000Y-122097223D03*
D28*
X83750000Y-119041668D03*
D29*
X86250000Y-119041668D03*
D28*
X88750000Y-119041668D03*
D29*
X91250000Y-119041668D03*
D30*
X85000000Y-116208334D03*
X90000000Y-116208334D03*
D31*
X85000000Y-112541668D03*
X90000000Y-112541668D03*
D28*
X83750000Y-110708335D03*
D29*
X86250000Y-110708335D03*
D28*
X88750000Y-110708335D03*
D29*
X91250000Y-110708335D03*
D30*
X85000000Y-107875001D03*
X90000000Y-107875001D03*
D31*
X85000000Y-104208335D03*
X90000000Y-104208335D03*
D28*
X83750000Y-102375002D03*
D29*
X86250000Y-102375002D03*
D28*
X88750000Y-102375002D03*
D29*
X91250000Y-102375002D03*
D30*
X85000000Y-99541668D03*
X90000000Y-99541668D03*
D31*
X85000000Y-95875002D03*
X90000000Y-95875002D03*
D28*
X83750000Y-94041669D03*
D29*
X86250000Y-94041669D03*
D28*
X88750000Y-94041669D03*
D29*
X91250000Y-94041669D03*
D30*
X85000000Y-91208335D03*
X90000000Y-91208335D03*
D31*
X85000000Y-87541669D03*
X90000000Y-87541669D03*
D28*
X83750000Y-85708336D03*
D29*
X86250000Y-85708336D03*
D28*
X88750000Y-85708336D03*
D29*
X91250000Y-85708336D03*
D30*
X85000000Y-82875002D03*
X90000000Y-82875002D03*
D32*
X85000000Y-77986114D03*
X90000000Y-77986114D03*
%TD*%
D26*
%TO.C,SW2*%
X90050000Y-131881000D03*
X96050000Y-131881000D03*
%TD*%
D25*
%TO.C,H2*%
X122150000Y-69450000D03*
%TD*%
%LPD*%
M02*
