%TF.GenerationSoftware,KiCad,Pcbnew,9.0.0*%
%TF.CreationDate,2025-04-04T14:44:08+08:00*%
%TF.ProjectId,modwheel,6d6f6477-6865-4656-9c2e-6b696361645f,rev?*%
%TF.SameCoordinates,Original*%
%TF.FileFunction,Legend,Bot*%
%TF.FilePolarity,Positive*%
%FSLAX46Y46*%
G04 Gerber Fmt 4.6, Leading zero omitted, Abs format (unit mm)*
G04 Created by KiCad (PCBNEW 9.0.0) date 2025-04-04 14:44:08*
%MOMM*%
%LPD*%
G01*
G04 APERTURE LIST*
G04 Aperture macros list*
%AMRoundRect*
0 Rectangle with rounded corners*
0 $1 Rounding radius*
0 $2 $3 $4 $5 $6 $7 $8 $9 X,Y pos of 4 corners*
0 Add a 4 corners polygon primitive as box body*
4,1,4,$2,$3,$4,$5,$6,$7,$8,$9,$2,$3,0*
0 Add four circle primitives for the rounded corners*
1,1,$1+$1,$2,$3*
1,1,$1+$1,$4,$5*
1,1,$1+$1,$6,$7*
1,1,$1+$1,$8,$9*
0 Add four rect primitives between the rounded corners*
20,1,$1+$1,$2,$3,$4,$5,0*
20,1,$1+$1,$4,$5,$6,$7,0*
20,1,$1+$1,$6,$7,$8,$9,0*
20,1,$1+$1,$8,$9,$2,$3,0*%
G04 Aperture macros list end*
%ADD10C,0.254000*%
%ADD11C,0.120000*%
%ADD12C,0.200000*%
%ADD13C,0.100000*%
%ADD14C,3.200000*%
%ADD15RoundRect,0.200000X0.275000X-0.200000X0.275000X0.200000X-0.275000X0.200000X-0.275000X-0.200000X0*%
%ADD16R,0.600000X1.550000*%
%ADD17R,1.200000X1.800000*%
%ADD18RoundRect,0.225000X0.225000X0.250000X-0.225000X0.250000X-0.225000X-0.250000X0.225000X-0.250000X0*%
%ADD19RoundRect,0.225000X0.250000X-0.225000X0.250000X0.225000X-0.250000X0.225000X-0.250000X-0.225000X0*%
%ADD20RoundRect,0.200000X-0.275000X0.200000X-0.275000X-0.200000X0.275000X-0.200000X0.275000X0.200000X0*%
%ADD21R,1.550000X0.600000*%
%ADD22R,1.800000X1.200000*%
%ADD23RoundRect,0.200000X0.200000X0.275000X-0.200000X0.275000X-0.200000X-0.275000X0.200000X-0.275000X0*%
G04 APERTURE END LIST*
D10*
X120566318Y-113939667D02*
X121473461Y-113939667D01*
X121473461Y-113939667D02*
X121654889Y-113879190D01*
X121654889Y-113879190D02*
X121775842Y-113758238D01*
X121775842Y-113758238D02*
X121836318Y-113576809D01*
X121836318Y-113576809D02*
X121836318Y-113455857D01*
X120566318Y-115149190D02*
X120566318Y-114544428D01*
X120566318Y-114544428D02*
X121171080Y-114483952D01*
X121171080Y-114483952D02*
X121110603Y-114544428D01*
X121110603Y-114544428D02*
X121050127Y-114665381D01*
X121050127Y-114665381D02*
X121050127Y-114967762D01*
X121050127Y-114967762D02*
X121110603Y-115088714D01*
X121110603Y-115088714D02*
X121171080Y-115149190D01*
X121171080Y-115149190D02*
X121292032Y-115209667D01*
X121292032Y-115209667D02*
X121594413Y-115209667D01*
X121594413Y-115209667D02*
X121715365Y-115149190D01*
X121715365Y-115149190D02*
X121775842Y-115088714D01*
X121775842Y-115088714D02*
X121836318Y-114967762D01*
X121836318Y-114967762D02*
X121836318Y-114665381D01*
X121836318Y-114665381D02*
X121775842Y-114544428D01*
X121775842Y-114544428D02*
X121715365Y-114483952D01*
D11*
%TO.C,R2*%
X96040000Y-90425000D02*
X97640000Y-90425000D01*
X96040000Y-93425000D02*
X96040000Y-90425000D01*
X97640000Y-90425000D02*
X97640000Y-93425000D01*
X97640000Y-93425000D02*
X96040000Y-93425000D01*
D12*
%TO.C,J3*%
X101570000Y-84922000D02*
X101570000Y-87285000D01*
X101570000Y-87285000D02*
X102370000Y-87285000D01*
D13*
X103070000Y-88722000D02*
X103070000Y-88722000D01*
X103070000Y-88822000D02*
X103070000Y-88822000D01*
D12*
X107570000Y-84922000D02*
X107570000Y-87285000D01*
X107570000Y-87285000D02*
X106770000Y-87285000D01*
D13*
X103070000Y-88722000D02*
G75*
G02*
X103070000Y-88822000I0J-50000D01*
G01*
X103070000Y-88822000D02*
G75*
G02*
X103070000Y-88722000I0J50000D01*
G01*
D11*
%TO.C,R1*%
X96010000Y-93675000D02*
X97610000Y-93675000D01*
X96010000Y-96675000D02*
X96010000Y-93675000D01*
X97610000Y-93675000D02*
X97610000Y-96675000D01*
X97610000Y-96675000D02*
X96010000Y-96675000D01*
%TO.C,C1*%
X100885061Y-95540000D02*
X103485061Y-95540002D01*
X103485061Y-97140004D02*
X100885061Y-97140002D01*
X100885061Y-97140002D02*
G75*
G02*
X100885061Y-95540000I840224J800001D01*
G01*
X103485061Y-95540002D02*
G75*
G02*
X103485061Y-97140004I-840224J-800001D01*
G01*
D12*
%TO.C,J4*%
X92200000Y-84963000D02*
X92200000Y-87326000D01*
X92200000Y-87326000D02*
X93000000Y-87326000D01*
D13*
X93700000Y-88763000D02*
X93700000Y-88763000D01*
X93700000Y-88863000D02*
X93700000Y-88863000D01*
D12*
X98200000Y-84963000D02*
X98200000Y-87326000D01*
X98200000Y-87326000D02*
X97400000Y-87326000D01*
D13*
X93700000Y-88763000D02*
G75*
G02*
X93700000Y-88863000I0J-50000D01*
G01*
X93700000Y-88863000D02*
G75*
G02*
X93700000Y-88763000I0J50000D01*
G01*
D11*
%TO.C,C2*%
X97885059Y-95975006D02*
X97885061Y-93375006D01*
X99485063Y-93375006D02*
X99485061Y-95975006D01*
X97885061Y-93375006D02*
G75*
G02*
X99485063Y-93375006I800001J-840224D01*
G01*
X99485061Y-95975006D02*
G75*
G02*
X97885059Y-95975006I-800001J840224D01*
G01*
%TO.C,R4*%
X97850000Y-89925000D02*
X99450000Y-89925000D01*
X97850000Y-92925000D02*
X97850000Y-89925000D01*
X99450000Y-89925000D02*
X99450000Y-92925000D01*
X99450000Y-92925000D02*
X97850000Y-92925000D01*
D13*
%TO.C,J5*%
X118050000Y-112863000D02*
X118050000Y-112863000D01*
X118150000Y-112863000D02*
X118150000Y-112863000D01*
D12*
X119587000Y-111363000D02*
X119587000Y-112163000D01*
X119587000Y-117363000D02*
X119587000Y-116563000D01*
X121950000Y-111363000D02*
X119587000Y-111363000D01*
X121950000Y-117363000D02*
X119587000Y-117363000D01*
D13*
X118050000Y-112863000D02*
G75*
G02*
X118150000Y-112863000I50000J0D01*
G01*
X118150000Y-112863000D02*
G75*
G02*
X118050000Y-112863000I-50000J0D01*
G01*
D11*
%TO.C,R3*%
X100630000Y-93775000D02*
X103630000Y-93775000D01*
X100630000Y-95375000D02*
X100630000Y-93775000D01*
X103630000Y-93775000D02*
X103630000Y-95375000D01*
X103630000Y-95375000D02*
X100630000Y-95375000D01*
%TD*%
%LPC*%
D14*
%TO.C,H1*%
X80150000Y-69450000D03*
%TD*%
%TO.C,H3*%
X80150000Y-136450000D03*
%TD*%
%TO.C,H4*%
X122150000Y-136450000D03*
%TD*%
%TO.C,H2*%
X122150000Y-69450000D03*
%TD*%
D15*
%TO.C,R2*%
X96840000Y-92750000D03*
X96840000Y-91100000D03*
%TD*%
D16*
%TO.C,J3*%
X103070000Y-87609000D03*
X104070000Y-87609000D03*
X105070000Y-87609000D03*
X106070000Y-87609000D03*
D17*
X101770000Y-83734000D03*
X107370000Y-83734000D03*
%TD*%
D15*
%TO.C,R1*%
X96810000Y-96000000D03*
X96810000Y-94350000D03*
%TD*%
D18*
%TO.C,C1*%
X102960061Y-96340002D03*
X101410061Y-96340002D03*
%TD*%
D16*
%TO.C,J4*%
X93700000Y-87650000D03*
X94700000Y-87650000D03*
X95700000Y-87650000D03*
X96700000Y-87650000D03*
D17*
X92400000Y-83775000D03*
X98000000Y-83775000D03*
%TD*%
D19*
%TO.C,C2*%
X98685061Y-95450006D03*
X98685061Y-93900006D03*
%TD*%
D20*
%TO.C,R4*%
X98650000Y-90600000D03*
X98650000Y-92250000D03*
%TD*%
D21*
%TO.C,J5*%
X119263000Y-112863000D03*
X119263000Y-113863000D03*
X119263000Y-114863000D03*
X119263000Y-115863000D03*
D22*
X123138000Y-111563000D03*
X123138000Y-117163000D03*
%TD*%
D23*
%TO.C,R3*%
X102955000Y-94575000D03*
X101305000Y-94575000D03*
%TD*%
%LPD*%
M02*
