%TF.GenerationSoftware,KiCad,Pcbnew,9.0.0*%
%TF.CreationDate,2025-04-04T14:44:08+08:00*%
%TF.ProjectId,modwheel,6d6f6477-6865-4656-9c2e-6b696361645f,rev?*%
%TF.SameCoordinates,Original*%
%TF.FileFunction,Copper,L1,Top*%
%TF.FilePolarity,Positive*%
%FSLAX46Y46*%
G04 Gerber Fmt 4.6, Leading zero omitted, Abs format (unit mm)*
G04 Created by KiCad (PCBNEW 9.0.0) date 2025-04-04 14:44:08*
%MOMM*%
%LPD*%
G01*
G04 APERTURE LIST*
G04 Aperture macros list*
%AMRoundRect*
0 Rectangle with rounded corners*
0 $1 Rounding radius*
0 $2 $3 $4 $5 $6 $7 $8 $9 X,Y pos of 4 corners*
0 Add a 4 corners polygon primitive as box body*
4,1,4,$2,$3,$4,$5,$6,$7,$8,$9,$2,$3,0*
0 Add four circle primitives for the rounded corners*
1,1,$1+$1,$2,$3*
1,1,$1+$1,$4,$5*
1,1,$1+$1,$6,$7*
1,1,$1+$1,$8,$9*
0 Add four rect primitives between the rounded corners*
20,1,$1+$1,$2,$3,$4,$5,0*
20,1,$1+$1,$4,$5,$6,$7,0*
20,1,$1+$1,$6,$7,$8,$9,0*
20,1,$1+$1,$8,$9,$2,$3,0*%
%AMOutline4P*
0 Free polygon, 4 corners , with rotation*
0 The origin of the aperture is its center*
0 number of corners: always 4*
0 $1 to $8 corner X, Y*
0 $9 Rotation angle, in degrees counterclockwise*
0 create outline with 4 corners*
4,1,4,$1,$2,$3,$4,$5,$6,$7,$8,$1,$2,$9*%
%AMFreePoly0*
4,1,14,0.354215,0.088284,0.450784,-0.008285,0.462500,-0.036569,0.462500,-0.060000,0.450784,-0.088284,0.422500,-0.100000,-0.422500,-0.100000,-0.450784,-0.088284,-0.462500,-0.060000,-0.462500,0.060000,-0.450784,0.088284,-0.422500,0.100000,0.325931,0.100000,0.354215,0.088284,0.354215,0.088284,$1*%
%AMFreePoly1*
4,1,14,0.450784,0.088284,0.462500,0.060000,0.462500,0.036569,0.450784,0.008285,0.354215,-0.088284,0.325931,-0.100000,-0.422500,-0.100000,-0.450784,-0.088284,-0.462500,-0.060000,-0.462500,0.060000,-0.450784,0.088284,-0.422500,0.100000,0.422500,0.100000,0.450784,0.088284,0.450784,0.088284,$1*%
%AMFreePoly2*
4,1,14,0.088284,0.450784,0.100000,0.422500,0.100000,-0.422500,0.088284,-0.450784,0.060000,-0.462500,-0.060000,-0.462500,-0.088284,-0.450784,-0.100000,-0.422500,-0.100000,0.325931,-0.088284,0.354215,0.008285,0.450784,0.036569,0.462500,0.060000,0.462500,0.088284,0.450784,0.088284,0.450784,$1*%
%AMFreePoly3*
4,1,14,-0.008285,0.450784,0.088284,0.354215,0.100000,0.325931,0.100000,-0.422500,0.088284,-0.450784,0.060000,-0.462500,-0.060000,-0.462500,-0.088284,-0.450784,-0.100000,-0.422500,-0.100000,0.422500,-0.088284,0.450784,-0.060000,0.462500,-0.036569,0.462500,-0.008285,0.450784,-0.008285,0.450784,$1*%
%AMFreePoly4*
4,1,14,0.450784,0.088284,0.462500,0.060000,0.462500,-0.060000,0.450784,-0.088284,0.422500,-0.100000,-0.325931,-0.100000,-0.354215,-0.088284,-0.450784,0.008285,-0.462500,0.036569,-0.462500,0.060000,-0.450784,0.088284,-0.422500,0.100000,0.422500,0.100000,0.450784,0.088284,0.450784,0.088284,$1*%
%AMFreePoly5*
4,1,14,0.450784,0.088284,0.462500,0.060000,0.462500,-0.060000,0.450784,-0.088284,0.422500,-0.100000,-0.422500,-0.100000,-0.450784,-0.088284,-0.462500,-0.060000,-0.462500,-0.036569,-0.450784,-0.008285,-0.354215,0.088284,-0.325931,0.100000,0.422500,0.100000,0.450784,0.088284,0.450784,0.088284,$1*%
%AMFreePoly6*
4,1,14,0.088284,0.450784,0.100000,0.422500,0.100000,-0.325931,0.088284,-0.354215,-0.008285,-0.450784,-0.036569,-0.462500,-0.060000,-0.462500,-0.088284,-0.450784,-0.100000,-0.422500,-0.100000,0.422500,-0.088284,0.450784,-0.060000,0.462500,0.060000,0.462500,0.088284,0.450784,0.088284,0.450784,$1*%
%AMFreePoly7*
4,1,14,0.088284,0.450784,0.100000,0.422500,0.100000,-0.422500,0.088284,-0.450784,0.060000,-0.462500,0.036569,-0.462500,0.008285,-0.450784,-0.088284,-0.354215,-0.100000,-0.325931,-0.100000,0.422500,-0.088284,0.450784,-0.060000,0.462500,0.060000,0.462500,0.088284,0.450784,0.088284,0.450784,$1*%
G04 Aperture macros list end*
%TA.AperFunction,SMDPad,CuDef*%
%ADD10RoundRect,0.200000X0.275000X-0.200000X0.275000X0.200000X-0.275000X0.200000X-0.275000X-0.200000X0*%
%TD*%
%TA.AperFunction,SMDPad,CuDef*%
%ADD11FreePoly0,270.000000*%
%TD*%
%TA.AperFunction,SMDPad,CuDef*%
%ADD12RoundRect,0.050000X-0.050000X0.412500X-0.050000X-0.412500X0.050000X-0.412500X0.050000X0.412500X0*%
%TD*%
%TA.AperFunction,SMDPad,CuDef*%
%ADD13FreePoly1,270.000000*%
%TD*%
%TA.AperFunction,SMDPad,CuDef*%
%ADD14FreePoly2,270.000000*%
%TD*%
%TA.AperFunction,SMDPad,CuDef*%
%ADD15RoundRect,0.050000X-0.412500X0.050000X-0.412500X-0.050000X0.412500X-0.050000X0.412500X0.050000X0*%
%TD*%
%TA.AperFunction,SMDPad,CuDef*%
%ADD16FreePoly3,270.000000*%
%TD*%
%TA.AperFunction,SMDPad,CuDef*%
%ADD17FreePoly4,270.000000*%
%TD*%
%TA.AperFunction,SMDPad,CuDef*%
%ADD18FreePoly5,270.000000*%
%TD*%
%TA.AperFunction,SMDPad,CuDef*%
%ADD19FreePoly6,270.000000*%
%TD*%
%TA.AperFunction,SMDPad,CuDef*%
%ADD20FreePoly7,270.000000*%
%TD*%
%TA.AperFunction,SMDPad,CuDef*%
%ADD21R,2.100000X2.000000*%
%TD*%
%TA.AperFunction,SMDPad,CuDef*%
%ADD22R,5.000000X6.111111*%
%TD*%
%TA.AperFunction,SMDPad,CuDef*%
%ADD23Outline4P,0.000000X-1.250000X0.000000X-1.250000X3.666666X1.250000X-3.666666X1.250000X90.000000*%
%TD*%
%TA.AperFunction,SMDPad,CuDef*%
%ADD24Outline4P,-3.666666X-1.250000X3.666666X-1.250000X0.000000X1.250000X0.000000X1.250000X90.000000*%
%TD*%
%TA.AperFunction,SMDPad,CuDef*%
%ADD25Outline4P,-1.833333X0.000000X1.833333X-2.500000X1.833333X2.500000X-1.833333X0.000000X90.000000*%
%TD*%
%TA.AperFunction,SMDPad,CuDef*%
%ADD26R,5.000000X3.666666*%
%TD*%
%TA.AperFunction,SMDPad,CuDef*%
%ADD27R,5.000000X6.111110*%
%TD*%
%TA.AperFunction,ViaPad*%
%ADD28C,0.600000*%
%TD*%
%TA.AperFunction,Conductor*%
%ADD29C,0.200000*%
%TD*%
%TA.AperFunction,Conductor*%
%ADD30C,0.254000*%
%TD*%
%TA.AperFunction,Conductor*%
%ADD31C,0.127000*%
%TD*%
G04 APERTURE END LIST*
D10*
%TO.P,R6,2*%
%TO.N,/SCL*%
X98621750Y-86865000D03*
%TO.P,R6,1*%
%TO.N,+3.3V*%
X98621750Y-88515000D03*
%TD*%
%TO.P,R5,2*%
%TO.N,/SDA*%
X100341750Y-86865000D03*
%TO.P,R5,1*%
%TO.N,+3.3V*%
X100341750Y-88515000D03*
%TD*%
D11*
%TO.P,U1,1,~{IRQ}*%
%TO.N,Net-(U1-~{IRQ})*%
X100445000Y-97252500D03*
D12*
%TO.P,U1,2,SCL*%
%TO.N,/SCL*%
X100045000Y-97252500D03*
%TO.P,U1,3,SDA*%
%TO.N,/SDA*%
X99645000Y-97252500D03*
%TO.P,U1,4,ADDR*%
%TO.N,Net-(U1-ADDR)*%
X99245000Y-97252500D03*
D13*
%TO.P,U1,5,VREG*%
%TO.N,Net-(U1-VREG)*%
X98845000Y-97252500D03*
D14*
%TO.P,U1,6,VSS*%
%TO.N,GND*%
X98257500Y-97840000D03*
D15*
%TO.P,U1,7,REXT*%
%TO.N,Net-(U1-REXT)*%
X98257500Y-98240000D03*
%TO.P,U1,8,ELE0*%
%TO.N,Net-(J1-Pin_6)*%
X98257500Y-98640000D03*
%TO.P,U1,9,ELE1*%
%TO.N,Net-(J1-Pin_5)*%
X98257500Y-99040000D03*
D16*
%TO.P,U1,10,ELE2*%
%TO.N,Net-(J1-Pin_4)*%
X98257500Y-99440000D03*
D17*
%TO.P,U1,11,ELE3*%
%TO.N,Net-(J1-Pin_3)*%
X98845000Y-100027500D03*
D12*
%TO.P,U1,12,LED0/ELE4*%
%TO.N,Net-(J1-Pin_2)*%
X99245000Y-100027500D03*
%TO.P,U1,13,LED1/ELE5*%
%TO.N,Net-(J1-Pin_1)*%
X99645000Y-100027500D03*
%TO.P,U1,14,LED2/ELE6*%
%TO.N,Net-(J2-Pin_1)*%
X100045000Y-100027500D03*
D18*
%TO.P,U1,15,LED3/ELE7*%
%TO.N,Net-(J2-Pin_2)*%
X100445000Y-100027500D03*
D19*
%TO.P,U1,16,LED4/ELE8*%
%TO.N,Net-(J2-Pin_3)*%
X101032500Y-99440000D03*
D15*
%TO.P,U1,17,LED5/ELE9*%
%TO.N,Net-(J2-Pin_4)*%
X101032500Y-99040000D03*
%TO.P,U1,18,LED6/ELE10*%
%TO.N,Net-(J2-Pin_5)*%
X101032500Y-98640000D03*
%TO.P,U1,19,LED7/ELE11*%
%TO.N,Net-(J2-Pin_6)*%
X101032500Y-98240000D03*
D20*
%TO.P,U1,20,VDD*%
%TO.N,+3.3V*%
X101032500Y-97840000D03*
%TD*%
D21*
%TO.P,SW1,1,1*%
%TO.N,GND*%
X102550000Y-131877000D03*
%TO.P,SW1,2,2*%
%TO.N,Net-(J5-Pin_1)*%
X108550000Y-131877000D03*
%TD*%
D22*
%TO.P,J2,1,Pin_1*%
%TO.N,Net-(J2-Pin_1)*%
X109750000Y-122097223D03*
X114750000Y-122097223D03*
D23*
X108500000Y-119041668D03*
D24*
X111000000Y-119041668D03*
D23*
X113500000Y-119041668D03*
D24*
X116000000Y-119041668D03*
D25*
%TO.P,J2,2,Pin_2*%
%TO.N,Net-(J2-Pin_2)*%
X109750000Y-116208334D03*
X114750000Y-116208334D03*
D26*
X109750000Y-112541668D03*
X114750000Y-112541668D03*
D23*
X108500000Y-110708335D03*
D24*
X111000000Y-110708335D03*
D23*
X113500000Y-110708335D03*
D24*
X116000000Y-110708335D03*
D25*
%TO.P,J2,3,Pin_3*%
%TO.N,Net-(J2-Pin_3)*%
X109750000Y-107875001D03*
X114750000Y-107875001D03*
D26*
X109750000Y-104208335D03*
X114750000Y-104208335D03*
D23*
X108500000Y-102375002D03*
D24*
X111000000Y-102375002D03*
D23*
X113500000Y-102375002D03*
D24*
X116000000Y-102375002D03*
D25*
%TO.P,J2,4,Pin_4*%
%TO.N,Net-(J2-Pin_4)*%
X109750000Y-99541668D03*
X114750000Y-99541668D03*
D26*
X109750000Y-95875002D03*
X114750000Y-95875002D03*
D23*
X108500000Y-94041669D03*
D24*
X111000000Y-94041669D03*
D23*
X113500000Y-94041669D03*
D24*
X116000000Y-94041669D03*
D25*
%TO.P,J2,5,Pin_5*%
%TO.N,Net-(J2-Pin_5)*%
X109750000Y-91208335D03*
X114750000Y-91208335D03*
D26*
X109750000Y-87541669D03*
X114750000Y-87541669D03*
D23*
X108500000Y-85708336D03*
D24*
X111000000Y-85708336D03*
D23*
X113500000Y-85708336D03*
D24*
X116000000Y-85708336D03*
D25*
%TO.P,J2,6,Pin_6*%
%TO.N,Net-(J2-Pin_6)*%
X109750000Y-82875002D03*
X114750000Y-82875002D03*
D27*
X109750000Y-77986114D03*
X114750000Y-77986114D03*
%TD*%
D22*
%TO.P,J1,1,Pin_1*%
%TO.N,Net-(J1-Pin_1)*%
X85000000Y-122097223D03*
X90000000Y-122097223D03*
D23*
X83750000Y-119041668D03*
D24*
X86250000Y-119041668D03*
D23*
X88750000Y-119041668D03*
D24*
X91250000Y-119041668D03*
D25*
%TO.P,J1,2,Pin_2*%
%TO.N,Net-(J1-Pin_2)*%
X85000000Y-116208334D03*
X90000000Y-116208334D03*
D26*
X85000000Y-112541668D03*
X90000000Y-112541668D03*
D23*
X83750000Y-110708335D03*
D24*
X86250000Y-110708335D03*
D23*
X88750000Y-110708335D03*
D24*
X91250000Y-110708335D03*
D25*
%TO.P,J1,3,Pin_3*%
%TO.N,Net-(J1-Pin_3)*%
X85000000Y-107875001D03*
X90000000Y-107875001D03*
D26*
X85000000Y-104208335D03*
X90000000Y-104208335D03*
D23*
X83750000Y-102375002D03*
D24*
X86250000Y-102375002D03*
D23*
X88750000Y-102375002D03*
D24*
X91250000Y-102375002D03*
D25*
%TO.P,J1,4,Pin_4*%
%TO.N,Net-(J1-Pin_4)*%
X85000000Y-99541668D03*
X90000000Y-99541668D03*
D26*
X85000000Y-95875002D03*
X90000000Y-95875002D03*
D23*
X83750000Y-94041669D03*
D24*
X86250000Y-94041669D03*
D23*
X88750000Y-94041669D03*
D24*
X91250000Y-94041669D03*
D25*
%TO.P,J1,5,Pin_5*%
%TO.N,Net-(J1-Pin_5)*%
X85000000Y-91208335D03*
X90000000Y-91208335D03*
D26*
X85000000Y-87541669D03*
X90000000Y-87541669D03*
D23*
X83750000Y-85708336D03*
D24*
X86250000Y-85708336D03*
D23*
X88750000Y-85708336D03*
D24*
X91250000Y-85708336D03*
D25*
%TO.P,J1,6,Pin_6*%
%TO.N,Net-(J1-Pin_6)*%
X85000000Y-82875002D03*
X90000000Y-82875002D03*
D27*
X85000000Y-77986114D03*
X90000000Y-77986114D03*
%TD*%
D21*
%TO.P,SW2,1,1*%
%TO.N,GND*%
X90050000Y-131881000D03*
%TO.P,SW2,2,2*%
%TO.N,Net-(J5-Pin_2)*%
X96050000Y-131881000D03*
%TD*%
D28*
%TO.N,/SDA*%
X99500000Y-87650000D03*
%TO.N,/SCL*%
X98500000Y-86000000D03*
%TO.N,+3.3V*%
X97750000Y-89750000D03*
%TO.N,GND*%
X90050000Y-131881000D03*
X98000000Y-97250000D03*
X102550000Y-131877000D03*
%TO.N,+3.3V*%
X101410061Y-96340002D03*
%TO.N,Net-(U1-VREG)*%
X98685061Y-95450006D03*
%TO.N,/SDA*%
X101250000Y-91250000D03*
%TO.N,/SCL*%
X101000000Y-92500000D03*
%TO.N,Net-(U1-REXT)*%
X96750000Y-97500000D03*
%TO.N,Net-(U1-~{IRQ})*%
X101305000Y-94575000D03*
%TO.N,Net-(U1-ADDR)*%
X98650000Y-92250000D03*
%TO.N,Net-(J5-Pin_1)*%
X108550000Y-131877000D03*
%TO.N,Net-(J5-Pin_2)*%
X96050000Y-131881000D03*
%TD*%
D29*
%TO.N,/SCL*%
X98500000Y-86743250D02*
X98621750Y-86865000D01*
X98500000Y-86000000D02*
X98500000Y-86743250D01*
D30*
%TO.N,/SDA*%
X100285000Y-86865000D02*
X100341750Y-86865000D01*
X99500000Y-87650000D02*
X100285000Y-86865000D01*
%TO.N,+3.3V*%
X97750000Y-89386750D02*
X98621750Y-88515000D01*
X97750000Y-89750000D02*
X97750000Y-89386750D01*
D29*
X98621750Y-88515000D02*
X100341750Y-88515000D01*
D31*
%TO.N,GND*%
X98000000Y-97582500D02*
X98000000Y-97250000D01*
X98257500Y-97840000D02*
X98000000Y-97582500D01*
%TO.N,+3.3V*%
X101032500Y-97840000D02*
X101410061Y-97462439D01*
X101410061Y-97462439D02*
X101410061Y-96340002D01*
%TO.N,Net-(U1-VREG)*%
X98845000Y-95609945D02*
X98685061Y-95450006D01*
X98845000Y-97252500D02*
X98845000Y-95609945D01*
%TO.N,Net-(J1-Pin_6)*%
X95750000Y-80250000D02*
X93486114Y-77986114D01*
X95890000Y-98640000D02*
X95750000Y-98500000D01*
X98257500Y-98640000D02*
X95890000Y-98640000D01*
X95750000Y-98500000D02*
X95750000Y-80250000D01*
X93486114Y-77986114D02*
X90000000Y-77986114D01*
%TO.N,Net-(J1-Pin_5)*%
X94750000Y-88750000D02*
X93541669Y-87541669D01*
X98257500Y-99040000D02*
X95040000Y-99040000D01*
X95040000Y-99040000D02*
X94750000Y-98750000D01*
X93541669Y-87541669D02*
X90000000Y-87541669D01*
X94750000Y-98750000D02*
X94750000Y-88750000D01*
%TO.N,Net-(J1-Pin_3)*%
X98845000Y-101655000D02*
X96291665Y-104208335D01*
X96291665Y-104208335D02*
X90000000Y-104208335D01*
X98845000Y-100027500D02*
X98845000Y-101655000D01*
%TO.N,Net-(J1-Pin_4)*%
X93750000Y-96250000D02*
X93750000Y-98750000D01*
X93375002Y-95875002D02*
X93750000Y-96250000D01*
X94440000Y-99440000D02*
X98257500Y-99440000D01*
X90000000Y-95875002D02*
X93375002Y-95875002D01*
X93750000Y-98750000D02*
X94440000Y-99440000D01*
%TO.N,Net-(J1-Pin_1)*%
X99645000Y-100027500D02*
X99645000Y-106355000D01*
X98500000Y-119250000D02*
X95652777Y-122097223D01*
X98500000Y-107500000D02*
X98500000Y-119250000D01*
X99645000Y-106355000D02*
X98500000Y-107500000D01*
X95652777Y-122097223D02*
X90000000Y-122097223D01*
%TO.N,Net-(J1-Pin_2)*%
X93958332Y-112541668D02*
X90000000Y-112541668D01*
X99245000Y-100027500D02*
X99245000Y-103255000D01*
X99245000Y-103255000D02*
X97000000Y-105500000D01*
X97000000Y-105500000D02*
X97000000Y-109500000D01*
X97000000Y-109500000D02*
X93958332Y-112541668D01*
%TO.N,Net-(J2-Pin_6)*%
X102500000Y-85236114D02*
X102500000Y-97750000D01*
X109750000Y-77986114D02*
X102500000Y-85236114D01*
X102010000Y-98240000D02*
X101032500Y-98240000D01*
X102500000Y-97750000D02*
X102010000Y-98240000D01*
%TO.N,Net-(J2-Pin_1)*%
X101500000Y-119250000D02*
X104347223Y-122097223D01*
X101500000Y-107750000D02*
X101500000Y-119250000D01*
X100045000Y-100027500D02*
X100045000Y-106295000D01*
X100045000Y-106295000D02*
X101500000Y-107750000D01*
X104347223Y-122097223D02*
X109750000Y-122097223D01*
%TO.N,Net-(J2-Pin_5)*%
X101032500Y-98640000D02*
X102360000Y-98640000D01*
X104000000Y-88500000D02*
X104958331Y-87541669D01*
X104958331Y-87541669D02*
X109750000Y-87541669D01*
X102360000Y-98640000D02*
X104000000Y-97000000D01*
X104000000Y-97000000D02*
X104000000Y-88500000D01*
%TO.N,Net-(J2-Pin_2)*%
X100500000Y-103250000D02*
X103500000Y-106250000D01*
X103500000Y-106250000D02*
X103500000Y-110750000D01*
X100445000Y-103250000D02*
X100500000Y-103250000D01*
X100445000Y-100027500D02*
X100445000Y-103250000D01*
X103500000Y-110750000D02*
X105291668Y-112541668D01*
X105291668Y-112541668D02*
X109750000Y-112541668D01*
%TO.N,Net-(J2-Pin_3)*%
X101032500Y-99440000D02*
X102190000Y-99440000D01*
X102190000Y-99440000D02*
X106958335Y-104208335D01*
X106958335Y-104208335D02*
X109750000Y-104208335D01*
%TO.N,Net-(J2-Pin_4)*%
X102960000Y-99040000D02*
X101032500Y-99040000D01*
X109750000Y-95875002D02*
X106124998Y-95875002D01*
X106124998Y-95875002D02*
X102960000Y-99040000D01*
%TO.N,/SDA*%
X99645000Y-92855000D02*
X99645000Y-97252500D01*
X101250000Y-91250000D02*
X99645000Y-92855000D01*
%TO.N,/SCL*%
X100045000Y-93455000D02*
X100045000Y-97252500D01*
X101000000Y-92500000D02*
X100045000Y-93455000D01*
%TO.N,Net-(U1-REXT)*%
X98257500Y-98240000D02*
X97490000Y-98240000D01*
X97490000Y-98240000D02*
X96750000Y-97500000D01*
%TO.N,Net-(U1-~{IRQ})*%
X100445000Y-95435000D02*
X101305000Y-94575000D01*
X100445000Y-97252500D02*
X100445000Y-95435000D01*
%TO.N,Net-(U1-ADDR)*%
X99249561Y-97247939D02*
X99249561Y-92849561D01*
X99245000Y-97252500D02*
X99249561Y-97247939D01*
X99249561Y-92849561D02*
X98650000Y-92250000D01*
%TD*%
M02*
