%TF.GenerationSoftware,KiCad,Pcbnew,9.0.0*%
%TF.CreationDate,2025-02-26T19:49:16+08:00*%
%TF.ProjectId,keyboard,6b657962-6f61-4726-942e-6b696361645f,rev?*%
%TF.SameCoordinates,Original*%
%TF.FileFunction,Legend,Bot*%
%TF.FilePolarity,Positive*%
%FSLAX46Y46*%
G04 Gerber Fmt 4.6, Leading zero omitted, Abs format (unit mm)*
G04 Created by KiCad (PCBNEW 9.0.0) date 2025-02-26 19:49:16*
%MOMM*%
%LPD*%
G01*
G04 APERTURE LIST*
G04 Aperture macros list*
%AMRoundRect*
0 Rectangle with rounded corners*
0 $1 Rounding radius*
0 $2 $3 $4 $5 $6 $7 $8 $9 X,Y pos of 4 corners*
0 Add a 4 corners polygon primitive as box body*
4,1,4,$2,$3,$4,$5,$6,$7,$8,$9,$2,$3,0*
0 Add four circle primitives for the rounded corners*
1,1,$1+$1,$2,$3*
1,1,$1+$1,$4,$5*
1,1,$1+$1,$6,$7*
1,1,$1+$1,$8,$9*
0 Add four rect primitives between the rounded corners*
20,1,$1+$1,$2,$3,$4,$5,0*
20,1,$1+$1,$4,$5,$6,$7,0*
20,1,$1+$1,$6,$7,$8,$9,0*
20,1,$1+$1,$8,$9,$2,$3,0*%
%AMOutline5P*
0 Free polygon, 5 corners , with rotation*
0 The origin of the aperture is its center*
0 number of corners: always 5*
0 $1 to $10 corner X, Y*
0 $11 Rotation angle, in degrees counterclockwise*
0 create outline with 5 corners*
4,1,5,$1,$2,$3,$4,$5,$6,$7,$8,$9,$10,$1,$2,$11*%
%AMOutline6P*
0 Free polygon, 6 corners , with rotation*
0 The origin of the aperture is its center*
0 number of corners: always 6*
0 $1 to $12 corner X, Y*
0 $13 Rotation angle, in degrees counterclockwise*
0 create outline with 6 corners*
4,1,6,$1,$2,$3,$4,$5,$6,$7,$8,$9,$10,$11,$12,$1,$2,$13*%
%AMOutline7P*
0 Free polygon, 7 corners , with rotation*
0 The origin of the aperture is its center*
0 number of corners: always 7*
0 $1 to $14 corner X, Y*
0 $15 Rotation angle, in degrees counterclockwise*
0 create outline with 7 corners*
4,1,7,$1,$2,$3,$4,$5,$6,$7,$8,$9,$10,$11,$12,$13,$14,$1,$2,$15*%
%AMOutline8P*
0 Free polygon, 8 corners , with rotation*
0 The origin of the aperture is its center*
0 number of corners: always 8*
0 $1 to $16 corner X, Y*
0 $17 Rotation angle, in degrees counterclockwise*
0 create outline with 8 corners*
4,1,8,$1,$2,$3,$4,$5,$6,$7,$8,$9,$10,$11,$12,$13,$14,$15,$16,$1,$2,$17*%
G04 Aperture macros list end*
%ADD10C,0.100000*%
%ADD11C,0.120000*%
%ADD12C,0.200000*%
%ADD13C,0.203200*%
%ADD14RoundRect,0.200000X0.200000X0.275000X-0.200000X0.275000X-0.200000X-0.275000X0.200000X-0.275000X0*%
%ADD15RoundRect,0.250000X0.475000X-0.250000X0.475000X0.250000X-0.475000X0.250000X-0.475000X-0.250000X0*%
%ADD16RoundRect,0.225000X0.225000X0.250000X-0.225000X0.250000X-0.225000X-0.250000X0.225000X-0.250000X0*%
%ADD17C,3.200000*%
%ADD18R,1.550000X0.600000*%
%ADD19R,1.800000X1.200000*%
%ADD20RoundRect,0.175000X0.325000X0.175000X-0.325000X0.175000X-0.325000X-0.175000X0.325000X-0.175000X0*%
%ADD21R,1.828800X0.558800*%
%ADD22Outline8P,-0.279400X0.774700X-0.139700X0.914400X0.139700X0.914400X0.279400X0.774700X0.279400X-0.774700X0.139700X-0.914400X-0.139700X-0.914400X-0.279400X-0.774700X270.000000*%
G04 APERTURE END LIST*
D10*
X168700877Y-104399561D02*
X168700877Y-105047180D01*
X168700877Y-105047180D02*
X168738972Y-105123371D01*
X168738972Y-105123371D02*
X168777068Y-105161466D01*
X168777068Y-105161466D02*
X168853258Y-105199561D01*
X168853258Y-105199561D02*
X168967544Y-105199561D01*
X168967544Y-105199561D02*
X169043734Y-105161466D01*
X168700877Y-104894800D02*
X168777068Y-104932895D01*
X168777068Y-104932895D02*
X168929449Y-104932895D01*
X168929449Y-104932895D02*
X169005639Y-104894800D01*
X169005639Y-104894800D02*
X169043734Y-104856704D01*
X169043734Y-104856704D02*
X169081830Y-104780514D01*
X169081830Y-104780514D02*
X169081830Y-104551942D01*
X169081830Y-104551942D02*
X169043734Y-104475752D01*
X169043734Y-104475752D02*
X169005639Y-104437657D01*
X169005639Y-104437657D02*
X168929449Y-104399561D01*
X168929449Y-104399561D02*
X168777068Y-104399561D01*
X168777068Y-104399561D02*
X168700877Y-104437657D01*
X168319924Y-104399561D02*
X168319924Y-104932895D01*
X168319924Y-104475752D02*
X168281829Y-104437657D01*
X168281829Y-104437657D02*
X168205639Y-104399561D01*
X168205639Y-104399561D02*
X168091353Y-104399561D01*
X168091353Y-104399561D02*
X168015162Y-104437657D01*
X168015162Y-104437657D02*
X167977067Y-104513847D01*
X167977067Y-104513847D02*
X167977067Y-104932895D01*
X167253257Y-104932895D02*
X167253257Y-104132895D01*
X167253257Y-104894800D02*
X167329448Y-104932895D01*
X167329448Y-104932895D02*
X167481829Y-104932895D01*
X167481829Y-104932895D02*
X167558019Y-104894800D01*
X167558019Y-104894800D02*
X167596114Y-104856704D01*
X167596114Y-104856704D02*
X167634210Y-104780514D01*
X167634210Y-104780514D02*
X167634210Y-104551942D01*
X167634210Y-104551942D02*
X167596114Y-104475752D01*
X167596114Y-104475752D02*
X167558019Y-104437657D01*
X167558019Y-104437657D02*
X167481829Y-104399561D01*
X167481829Y-104399561D02*
X167329448Y-104399561D01*
X167329448Y-104399561D02*
X167253257Y-104437657D01*
X168662782Y-105420850D02*
X169043734Y-105420850D01*
X169043734Y-105420850D02*
X169081830Y-105801802D01*
X169081830Y-105801802D02*
X169043734Y-105763707D01*
X169043734Y-105763707D02*
X168967544Y-105725612D01*
X168967544Y-105725612D02*
X168777068Y-105725612D01*
X168777068Y-105725612D02*
X168700877Y-105763707D01*
X168700877Y-105763707D02*
X168662782Y-105801802D01*
X168662782Y-105801802D02*
X168624687Y-105877993D01*
X168624687Y-105877993D02*
X168624687Y-106068469D01*
X168624687Y-106068469D02*
X168662782Y-106144659D01*
X168662782Y-106144659D02*
X168700877Y-106182755D01*
X168700877Y-106182755D02*
X168777068Y-106220850D01*
X168777068Y-106220850D02*
X168967544Y-106220850D01*
X168967544Y-106220850D02*
X169043734Y-106182755D01*
X169043734Y-106182755D02*
X169081830Y-106144659D01*
X168358020Y-105687516D02*
X168167544Y-106220850D01*
X168167544Y-106220850D02*
X167977067Y-105687516D01*
X168700877Y-107508805D02*
X168700877Y-106708805D01*
X168700877Y-107470710D02*
X168777068Y-107508805D01*
X168777068Y-107508805D02*
X168929449Y-107508805D01*
X168929449Y-107508805D02*
X169005639Y-107470710D01*
X169005639Y-107470710D02*
X169043734Y-107432614D01*
X169043734Y-107432614D02*
X169081830Y-107356424D01*
X169081830Y-107356424D02*
X169081830Y-107127852D01*
X169081830Y-107127852D02*
X169043734Y-107051662D01*
X169043734Y-107051662D02*
X169005639Y-107013567D01*
X169005639Y-107013567D02*
X168929449Y-106975471D01*
X168929449Y-106975471D02*
X168777068Y-106975471D01*
X168777068Y-106975471D02*
X168700877Y-107013567D01*
X168319924Y-107508805D02*
X168319924Y-106975471D01*
X168319924Y-107051662D02*
X168281829Y-107013567D01*
X168281829Y-107013567D02*
X168205639Y-106975471D01*
X168205639Y-106975471D02*
X168091353Y-106975471D01*
X168091353Y-106975471D02*
X168015162Y-107013567D01*
X168015162Y-107013567D02*
X167977067Y-107089757D01*
X167977067Y-107089757D02*
X167977067Y-107508805D01*
X167977067Y-107089757D02*
X167938972Y-107013567D01*
X167938972Y-107013567D02*
X167862781Y-106975471D01*
X167862781Y-106975471D02*
X167748496Y-106975471D01*
X167748496Y-106975471D02*
X167672305Y-107013567D01*
X167672305Y-107013567D02*
X167634210Y-107089757D01*
X167634210Y-107089757D02*
X167634210Y-107508805D01*
X168700877Y-108796760D02*
X168700877Y-107996760D01*
X168700877Y-108758665D02*
X168777068Y-108796760D01*
X168777068Y-108796760D02*
X168929449Y-108796760D01*
X168929449Y-108796760D02*
X169005639Y-108758665D01*
X169005639Y-108758665D02*
X169043734Y-108720569D01*
X169043734Y-108720569D02*
X169081830Y-108644379D01*
X169081830Y-108644379D02*
X169081830Y-108415807D01*
X169081830Y-108415807D02*
X169043734Y-108339617D01*
X169043734Y-108339617D02*
X169005639Y-108301522D01*
X169005639Y-108301522D02*
X168929449Y-108263426D01*
X168929449Y-108263426D02*
X168777068Y-108263426D01*
X168777068Y-108263426D02*
X168700877Y-108301522D01*
X168319924Y-108263426D02*
X168319924Y-109063426D01*
X168319924Y-108301522D02*
X168243734Y-108263426D01*
X168243734Y-108263426D02*
X168091353Y-108263426D01*
X168091353Y-108263426D02*
X168015162Y-108301522D01*
X168015162Y-108301522D02*
X167977067Y-108339617D01*
X167977067Y-108339617D02*
X167938972Y-108415807D01*
X167938972Y-108415807D02*
X167938972Y-108644379D01*
X167938972Y-108644379D02*
X167977067Y-108720569D01*
X167977067Y-108720569D02*
X168015162Y-108758665D01*
X168015162Y-108758665D02*
X168091353Y-108796760D01*
X168091353Y-108796760D02*
X168243734Y-108796760D01*
X168243734Y-108796760D02*
X168319924Y-108758665D01*
X169043734Y-110084715D02*
X169043734Y-109551381D01*
X169043734Y-109703762D02*
X169005639Y-109627572D01*
X169005639Y-109627572D02*
X168967544Y-109589477D01*
X168967544Y-109589477D02*
X168891353Y-109551381D01*
X168891353Y-109551381D02*
X168815163Y-109551381D01*
X168586592Y-110046620D02*
X168510401Y-110084715D01*
X168510401Y-110084715D02*
X168358020Y-110084715D01*
X168358020Y-110084715D02*
X168281830Y-110046620D01*
X168281830Y-110046620D02*
X168243734Y-109970429D01*
X168243734Y-109970429D02*
X168243734Y-109932334D01*
X168243734Y-109932334D02*
X168281830Y-109856143D01*
X168281830Y-109856143D02*
X168358020Y-109818048D01*
X168358020Y-109818048D02*
X168472306Y-109818048D01*
X168472306Y-109818048D02*
X168548496Y-109779953D01*
X168548496Y-109779953D02*
X168586592Y-109703762D01*
X168586592Y-109703762D02*
X168586592Y-109665667D01*
X168586592Y-109665667D02*
X168548496Y-109589477D01*
X168548496Y-109589477D02*
X168472306Y-109551381D01*
X168472306Y-109551381D02*
X168358020Y-109551381D01*
X168358020Y-109551381D02*
X168281830Y-109589477D01*
X168015163Y-109551381D02*
X167710401Y-109551381D01*
X167900877Y-109284715D02*
X167900877Y-109970429D01*
X167900877Y-109970429D02*
X167862782Y-110046620D01*
X167862782Y-110046620D02*
X167786592Y-110084715D01*
X167786592Y-110084715D02*
X167710401Y-110084715D01*
X169158020Y-110839336D02*
X168853258Y-110839336D01*
X169043734Y-110572670D02*
X169043734Y-111258384D01*
X169043734Y-111258384D02*
X169005639Y-111334575D01*
X169005639Y-111334575D02*
X168929449Y-111372670D01*
X168929449Y-111372670D02*
X168853258Y-111372670D01*
X168662782Y-111372670D02*
X168243734Y-110839336D01*
X168662782Y-110839336D02*
X168243734Y-111372670D01*
X169043734Y-112660625D02*
X169043734Y-112127291D01*
X169043734Y-112279672D02*
X169005639Y-112203482D01*
X169005639Y-112203482D02*
X168967544Y-112165387D01*
X168967544Y-112165387D02*
X168891353Y-112127291D01*
X168891353Y-112127291D02*
X168815163Y-112127291D01*
X168624687Y-112660625D02*
X168205639Y-112127291D01*
X168624687Y-112127291D02*
X168205639Y-112660625D01*
X166500000Y-103500000D02*
X169900000Y-103500000D01*
X169900000Y-113300000D01*
X166500000Y-113300000D01*
X166500000Y-103500000D01*
D11*
%TO.C,R5*%
X182060000Y-89440000D02*
X179060000Y-89440000D01*
X182060000Y-87840000D02*
X182060000Y-89440000D01*
X179060000Y-87840000D02*
X182060000Y-87840000D01*
X179060000Y-89440000D02*
X179060000Y-87840000D01*
%TO.C,C1*%
X173910000Y-92300894D02*
G75*
G02*
X171910000Y-92300894I-1000000J1122254D01*
G01*
X171910000Y-89300894D02*
G75*
G02*
X173910000Y-89300894I1000000J-1122254D01*
G01*
X173910000Y-92300894D02*
X173910000Y-89300894D01*
X171910000Y-89300894D02*
X171910000Y-92300894D01*
%TO.C,R4*%
X177160000Y-99871750D02*
X174160000Y-99871750D01*
X177160000Y-98271750D02*
X177160000Y-99871750D01*
X174160000Y-98271750D02*
X177160000Y-98271750D01*
X174160000Y-99871750D02*
X174160000Y-98271750D01*
%TO.C,R3*%
X177184500Y-98079000D02*
X174184500Y-98079000D01*
X177184500Y-96479000D02*
X177184500Y-98079000D01*
X174184500Y-96479000D02*
X177184500Y-96479000D01*
X174184500Y-98079000D02*
X174184500Y-96479000D01*
%TO.C,C3*%
X176259106Y-88930002D02*
X173659106Y-88930000D01*
X173659106Y-87329998D02*
X176259106Y-87330000D01*
X176259106Y-87330000D02*
G75*
G02*
X176259106Y-88930002I-840224J-800001D01*
G01*
X173659106Y-88930000D02*
G75*
G02*
X173659106Y-87329998I840224J800001D01*
G01*
D12*
%TO.C,J1*%
X165827330Y-94200000D02*
X165827330Y-101000000D01*
X167352330Y-93100000D02*
X170077330Y-93100000D01*
X167352330Y-102100000D02*
X170077330Y-102100000D01*
X170077330Y-93100000D02*
X170077330Y-94000000D01*
X170077330Y-102100000D02*
X170077330Y-101200000D01*
D10*
X171152330Y-100600000D02*
X171152330Y-100600000D01*
X171252330Y-100600000D02*
X171252330Y-100600000D01*
X171152330Y-100600000D02*
G75*
G02*
X171252330Y-100600000I50000J0D01*
G01*
X171252330Y-100600000D02*
G75*
G02*
X171152330Y-100600000I-50000J0D01*
G01*
D11*
%TO.C,C2*%
X174030000Y-89300894D02*
X174030000Y-92300894D01*
X176030000Y-92300894D02*
X176030000Y-89300894D01*
X174030000Y-89300894D02*
G75*
G02*
X176030000Y-89300894I1000000J-1122254D01*
G01*
X176030000Y-92300894D02*
G75*
G02*
X174030000Y-92300894I-1000000J1122254D01*
G01*
%TO.C,U1*%
X174125000Y-83897500D02*
X175725000Y-83897500D01*
X174125000Y-84807500D02*
X174125000Y-83897500D01*
X174125000Y-87117500D02*
X174125000Y-86207500D01*
X174125000Y-87117500D02*
X176275000Y-87117500D01*
X176225000Y-83947500D02*
X175985000Y-83617500D01*
X176465000Y-83617500D01*
X176225000Y-83947500D01*
G36*
X176225000Y-83947500D02*
G01*
X175985000Y-83617500D01*
X176465000Y-83617500D01*
X176225000Y-83947500D01*
G37*
D13*
%TO.C,U4*%
X174498000Y-93269000D02*
X175168000Y-93269000D01*
X174498000Y-103429000D02*
X174498000Y-93269000D01*
X174498000Y-103429000D02*
X177038000Y-103429000D01*
X176368000Y-93269000D02*
X177038000Y-93269000D01*
X177038000Y-103429000D02*
X177038000Y-93269000D01*
X176368000Y-93269000D02*
G75*
G02*
X175168000Y-93269000I-600000J0D01*
G01*
%TD*%
%LPC*%
D14*
%TO.C,R5*%
X181385000Y-88640000D03*
X179735000Y-88640000D03*
%TD*%
D15*
%TO.C,C1*%
X172910000Y-89850894D03*
X172910000Y-91750894D03*
%TD*%
D14*
%TO.C,R4*%
X176485000Y-99071750D03*
X174835000Y-99071750D03*
%TD*%
%TO.C,R3*%
X176509500Y-97279000D03*
X174859500Y-97279000D03*
%TD*%
D16*
%TO.C,C3*%
X175734106Y-88130000D03*
X174184106Y-88130000D03*
%TD*%
D17*
%TO.C,H2*%
X181200000Y-33800000D03*
%TD*%
%TO.C,H1*%
X169200000Y-33800000D03*
%TD*%
%TO.C,H3*%
X175275000Y-58775000D03*
%TD*%
D18*
%TO.C,J1*%
X169952330Y-100600000D03*
X169952330Y-99600000D03*
X169952330Y-98600000D03*
X169952330Y-97600000D03*
X169952330Y-96600000D03*
X169952330Y-95600000D03*
X169952330Y-94600000D03*
D19*
X166077330Y-101900000D03*
X166077330Y-93300000D03*
%TD*%
D15*
%TO.C,C2*%
X175030000Y-91750894D03*
X175030000Y-89850894D03*
%TD*%
D20*
%TO.C,U1*%
X176400000Y-84557500D03*
X176400000Y-86457500D03*
X174000000Y-85507500D03*
%TD*%
D21*
%TO.C,U4*%
X178562000Y-93904000D03*
D22*
X178562000Y-95174000D03*
X178562000Y-96444000D03*
X178562000Y-97714000D03*
X178562000Y-98984000D03*
X178562000Y-100254000D03*
X178562000Y-101524000D03*
X178562000Y-102794000D03*
X172974000Y-102794000D03*
X172974000Y-101524000D03*
X172974000Y-100254000D03*
X172974000Y-98984000D03*
X172974000Y-97714000D03*
X172974000Y-96444000D03*
X172974000Y-95174000D03*
X172974000Y-93904000D03*
%TD*%
%LPD*%
M02*
