%TF.GenerationSoftware,KiCad,Pcbnew,9.0.0*%
%TF.CreationDate,2025-02-26T19:49:16+08:00*%
%TF.ProjectId,keyboard,6b657962-6f61-4726-942e-6b696361645f,rev?*%
%TF.SameCoordinates,Original*%
%TF.FileFunction,Copper,L1,Top*%
%TF.FilePolarity,Positive*%
%FSLAX46Y46*%
G04 Gerber Fmt 4.6, Leading zero omitted, Abs format (unit mm)*
G04 Created by KiCad (PCBNEW 9.0.0) date 2025-02-26 19:49:16*
%MOMM*%
%LPD*%
G01*
G04 APERTURE LIST*
G04 Aperture macros list*
%AMRoundRect*
0 Rectangle with rounded corners*
0 $1 Rounding radius*
0 $2 $3 $4 $5 $6 $7 $8 $9 X,Y pos of 4 corners*
0 Add a 4 corners polygon primitive as box body*
4,1,4,$2,$3,$4,$5,$6,$7,$8,$9,$2,$3,0*
0 Add four circle primitives for the rounded corners*
1,1,$1+$1,$2,$3*
1,1,$1+$1,$4,$5*
1,1,$1+$1,$6,$7*
1,1,$1+$1,$8,$9*
0 Add four rect primitives between the rounded corners*
20,1,$1+$1,$2,$3,$4,$5,0*
20,1,$1+$1,$4,$5,$6,$7,0*
20,1,$1+$1,$6,$7,$8,$9,0*
20,1,$1+$1,$8,$9,$2,$3,0*%
%AMOutline4P*
0 Free polygon, 4 corners , with rotation*
0 The origin of the aperture is its center*
0 number of corners: always 4*
0 $1 to $8 corner X, Y*
0 $9 Rotation angle, in degrees counterclockwise*
0 create outline with 4 corners*
4,1,4,$1,$2,$3,$4,$5,$6,$7,$8,$1,$2,$9*%
G04 Aperture macros list end*
%TA.AperFunction,SMDPad,CuDef*%
%ADD10RoundRect,0.200000X0.200000X0.275000X-0.200000X0.275000X-0.200000X-0.275000X0.200000X-0.275000X0*%
%TD*%
%TA.AperFunction,SMDPad,CuDef*%
%ADD11RoundRect,0.200000X0.275000X-0.200000X0.275000X0.200000X-0.275000X0.200000X-0.275000X-0.200000X0*%
%TD*%
%TA.AperFunction,SMDPad,CuDef*%
%ADD12RoundRect,0.225000X-0.250000X0.225000X-0.250000X-0.225000X0.250000X-0.225000X0.250000X0.225000X0*%
%TD*%
%TA.AperFunction,SMDPad,CuDef*%
%ADD13O,0.279400X1.270000*%
%TD*%
%TA.AperFunction,SMDPad,CuDef*%
%ADD14R,0.279400X1.270000*%
%TD*%
%TA.AperFunction,SMDPad,CuDef*%
%ADD15R,0.600000X1.550000*%
%TD*%
%TA.AperFunction,SMDPad,CuDef*%
%ADD16R,1.200000X1.800000*%
%TD*%
%TA.AperFunction,SMDPad,CuDef*%
%ADD17R,3.611111X4.000000*%
%TD*%
%TA.AperFunction,SMDPad,CuDef*%
%ADD18Outline4P,0.000000X-1.000000X0.000000X-1.000000X2.166666X1.000000X-2.166666X1.000000X0.000000*%
%TD*%
%TA.AperFunction,SMDPad,CuDef*%
%ADD19Outline4P,-2.166666X-1.000000X2.166666X-1.000000X0.000000X1.000000X0.000000X1.000000X0.000000*%
%TD*%
%TA.AperFunction,SMDPad,CuDef*%
%ADD20Outline4P,-1.083333X0.000000X1.083333X-2.000000X1.083333X2.000000X-1.083333X0.000000X0.000000*%
%TD*%
%TA.AperFunction,SMDPad,CuDef*%
%ADD21R,2.166666X4.000000*%
%TD*%
%TA.AperFunction,SMDPad,CuDef*%
%ADD22R,3.611110X4.000000*%
%TD*%
%TA.AperFunction,ViaPad*%
%ADD23C,0.600000*%
%TD*%
%TA.AperFunction,Conductor*%
%ADD24C,0.254000*%
%TD*%
G04 APERTURE END LIST*
D10*
%TO.P,R1,2*%
%TO.N,/CS_PREV*%
X179835000Y-93991750D03*
%TO.P,R1,1*%
%TO.N,5V*%
X181485000Y-93991750D03*
%TD*%
D11*
%TO.P,R2,1*%
%TO.N,/OK_PREV*%
X168010000Y-100533250D03*
%TO.P,R2,2*%
%TO.N,GND*%
X168010000Y-98883250D03*
%TD*%
D12*
%TO.P,C4,1*%
%TO.N,5V*%
X173160894Y-93777750D03*
%TO.P,C4,2*%
%TO.N,GND*%
X173160894Y-95327750D03*
%TD*%
D13*
%TO.P,U3,10,VCC*%
%TO.N,5V*%
X174733332Y-94433750D03*
%TO.P,U3,9,EN#*%
%TO.N,GND*%
X175233332Y-94433750D03*
%TO.P,U3,8,S1C*%
%TO.N,/SDA_NEXT*%
X175733332Y-94433750D03*
%TO.P,U3,7,S2C*%
%TO.N,/SDA_PREV*%
X176233332Y-94433750D03*
%TO.P,U3,6,DC*%
%TO.N,/SDA*%
X176733332Y-94433750D03*
%TO.P,U3,5,GND*%
%TO.N,GND*%
X176733332Y-98751750D03*
%TO.P,U3,4,DB*%
%TO.N,/SCK*%
X176233332Y-98751750D03*
%TO.P,U3,3,S2B*%
%TO.N,/SCK_PREV*%
X175733332Y-98751750D03*
%TO.P,U3,2,S1B*%
%TO.N,/SCK_NEXT*%
X175233332Y-98751750D03*
D14*
%TO.P,U3,1,IN*%
%TO.N,/CS_NEXT*%
X174733332Y-98751750D03*
%TD*%
D15*
%TO.P,J2,1,Pin_1*%
%TO.N,/SDA_NEXT*%
X172905000Y-90925000D03*
%TO.P,J2,2,Pin_2*%
%TO.N,/SCK_NEXT*%
X171905000Y-90925000D03*
%TO.P,J2,3,Pin_3*%
%TO.N,/CS_NEXT*%
X170905000Y-90925000D03*
%TO.P,J2,4,Pin_4*%
%TO.N,/OK_NEXT*%
X169905000Y-90925000D03*
%TO.P,J2,5,Pin_5*%
%TO.N,GND*%
X168905000Y-90925000D03*
%TO.P,J2,6,Pin_6*%
%TO.N,5V*%
X167905000Y-90925000D03*
%TO.P,J2,7,Pin_7*%
%TO.N,/MCS*%
X166905000Y-90925000D03*
D16*
%TO.P,J2,MP1*%
%TO.N,N/C*%
X174205000Y-87050000D03*
%TO.P,J2,MP2*%
X165605000Y-87050000D03*
%TD*%
D15*
%TO.P,J3,1,Pin_1*%
%TO.N,/MCS*%
X183685000Y-90925000D03*
%TO.P,J3,2,Pin_2*%
%TO.N,5V*%
X182685000Y-90925000D03*
%TO.P,J3,3,Pin_3*%
%TO.N,GND*%
X181685000Y-90925000D03*
%TO.P,J3,4,Pin_4*%
%TO.N,/OK_PREV*%
X180685000Y-90925000D03*
%TO.P,J3,5,Pin_5*%
%TO.N,/CS_PREV*%
X179685000Y-90925000D03*
%TO.P,J3,6,Pin_6*%
%TO.N,/SCK_PREV*%
X178685000Y-90925000D03*
%TO.P,J3,7,Pin_7*%
%TO.N,/SDA_PREV*%
X177685000Y-90925000D03*
D16*
%TO.P,J3,MP1*%
%TO.N,N/C*%
X184985000Y-87050000D03*
%TO.P,J3,MP2*%
X176385000Y-87050000D03*
%TD*%
D17*
%TO.P,U2,1,1*%
%TO.N,/TIN0*%
X169196666Y-107800000D03*
X169196666Y-111800000D03*
D18*
X171002221Y-106800000D03*
D19*
X171002221Y-108800000D03*
D18*
X171002221Y-110800000D03*
D19*
X171002221Y-112800000D03*
D20*
%TO.P,U2,2,2*%
%TO.N,/TIN2*%
X173085555Y-107800000D03*
X173085555Y-111800000D03*
D21*
X175252221Y-107800000D03*
X175252221Y-111800000D03*
D18*
X176335554Y-106800000D03*
D19*
X176335554Y-108800000D03*
D18*
X176335554Y-110800000D03*
D19*
X176335554Y-112800000D03*
D20*
%TO.P,U2,3,3*%
%TO.N,/TIN1*%
X178418888Y-107800000D03*
X178418888Y-111800000D03*
D22*
X181307776Y-107800000D03*
X181307776Y-111800000D03*
%TD*%
D23*
%TO.N,/CS_PREV*%
X179685000Y-90925000D03*
%TO.N,/MCS*%
X181400000Y-88700000D03*
%TO.N,GND*%
X165400000Y-105000000D03*
X165400000Y-107000000D03*
X165400000Y-109000000D03*
X165400000Y-111000000D03*
X165400000Y-113000000D03*
X165400000Y-115000000D03*
X165500000Y-116800000D03*
X167000000Y-116800000D03*
X169000000Y-116800000D03*
X171000000Y-116800000D03*
X173000000Y-116800000D03*
X175000000Y-116800000D03*
X177000000Y-116800000D03*
X179000000Y-116800000D03*
X181000000Y-116800000D03*
X183000000Y-116800000D03*
X185000000Y-105000000D03*
X185000000Y-107000000D03*
X185000000Y-109000000D03*
X185000000Y-111000000D03*
X185000000Y-113000000D03*
X185000000Y-115000000D03*
X185000000Y-116800000D03*
X183400000Y-94000000D03*
X181685000Y-90925000D03*
X170400000Y-102400000D03*
X175400000Y-100000000D03*
%TO.N,/CS_PREV*%
X177000000Y-100100000D03*
%TO.N,GND*%
X168900000Y-93300000D03*
X174700000Y-96000000D03*
%TO.N,5V*%
X176400000Y-89500000D03*
X173700000Y-92800000D03*
X167905000Y-90925000D03*
%TO.N,/RESET*%
X171300000Y-99200000D03*
%TO.N,/OK_NEXT*%
X169952330Y-99600000D03*
%TO.N,/OK_PREV*%
X169952330Y-100600000D03*
X177000000Y-102794000D03*
%TO.N,/OK_NEXT*%
X177000000Y-101993997D03*
%TO.N,/RESET*%
X177000000Y-101100000D03*
%TO.N,/CS_NEXT*%
X172974000Y-100254000D03*
%TO.N,/TIN2*%
X175252221Y-107800000D03*
%TO.N,/TIN1*%
X181307776Y-107800000D03*
%TO.N,/SCK_PREV*%
X177300000Y-92600000D03*
X175733332Y-96000000D03*
%TO.N,/SCK*%
X178562000Y-98984000D03*
%TO.N,/SDA*%
X178562000Y-97714000D03*
%TO.N,/TIN0*%
X171002221Y-106800000D03*
%TD*%
D24*
%TO.N,/MCS*%
X181400000Y-88700000D02*
X168399000Y-88700000D01*
%TO.N,/OK_NEXT*%
X169905000Y-99552670D02*
X169952330Y-99600000D01*
X169905000Y-90925000D02*
X169905000Y-99552670D01*
%TO.N,/RESET*%
X171300000Y-100000000D02*
X172600000Y-101300000D01*
X171300000Y-99200000D02*
X171300000Y-100000000D01*
X172600000Y-101300000D02*
X176800000Y-101300000D01*
X176800000Y-101300000D02*
X177000000Y-101100000D01*
%TO.N,GND*%
X176141810Y-100000000D02*
X175400000Y-100000000D01*
X176733332Y-99408478D02*
X176141810Y-100000000D01*
X176733332Y-98751750D02*
X176733332Y-99408478D01*
%TO.N,/CS_PREV*%
X178850000Y-100450000D02*
X179685000Y-99615000D01*
X179685000Y-99615000D02*
X179685000Y-90925000D01*
X177000000Y-100100000D02*
X177350000Y-100450000D01*
X177350000Y-100450000D02*
X178850000Y-100450000D01*
%TO.N,/OK_NEXT*%
X177000000Y-101993997D02*
X175800000Y-101993997D01*
X175793997Y-102000000D02*
X172352330Y-102000000D01*
X175800000Y-101993997D02*
X175793997Y-102000000D01*
X172352330Y-102000000D02*
X169952330Y-99600000D01*
%TO.N,/OK_PREV*%
X178506000Y-102794000D02*
X180685000Y-100615000D01*
X172146330Y-102794000D02*
X169952330Y-100600000D01*
X177000000Y-102794000D02*
X178506000Y-102794000D01*
X180685000Y-100615000D02*
X180685000Y-90925000D01*
X177000000Y-102794000D02*
X172146330Y-102794000D01*
%TO.N,GND*%
X174823810Y-95876190D02*
X174823810Y-95500000D01*
X174700000Y-96000000D02*
X174823810Y-95876190D01*
%TO.N,5V*%
X182685000Y-89896000D02*
X182685000Y-90925000D01*
X182289000Y-89500000D02*
X182685000Y-89896000D01*
X176400000Y-89500000D02*
X182289000Y-89500000D01*
%TO.N,/MCS*%
X183685000Y-89896000D02*
X182489000Y-88700000D01*
X182489000Y-88700000D02*
X181400000Y-88700000D01*
X183685000Y-90925000D02*
X183685000Y-89896000D01*
X168399000Y-88700000D02*
X166905000Y-90194000D01*
X166905000Y-90194000D02*
X166905000Y-90925000D01*
%TO.N,5V*%
X173160894Y-93339106D02*
X173700000Y-92800000D01*
X173160894Y-93777750D02*
X173160894Y-93339106D01*
X182685000Y-92791750D02*
X181485000Y-93991750D01*
X182685000Y-90925000D02*
X182685000Y-92791750D01*
%TO.N,/OK_PREV*%
X169885580Y-100533250D02*
X169952330Y-100600000D01*
X168010000Y-100533250D02*
X169885580Y-100533250D01*
%TO.N,/SCK_PREV*%
X175733332Y-96000000D02*
X175733332Y-96766668D01*
X175733332Y-98751750D02*
X175733332Y-96000000D01*
X175733332Y-96766668D02*
X175700000Y-96800000D01*
%TO.N,GND*%
X173333144Y-95500000D02*
X173160894Y-95327750D01*
X175233332Y-94433750D02*
X175233332Y-95090478D01*
X175233332Y-95090478D02*
X174823810Y-95500000D01*
X174823810Y-95500000D02*
X173333144Y-95500000D01*
%TO.N,5V*%
X174077332Y-93777750D02*
X174733332Y-94433750D01*
X173160894Y-93777750D02*
X174077332Y-93777750D01*
%TO.N,/SCK_PREV*%
X178685000Y-91954000D02*
X178685000Y-90925000D01*
X178039000Y-92600000D02*
X178685000Y-91954000D01*
X177300000Y-92600000D02*
X178039000Y-92600000D01*
%TO.N,/CS_NEXT*%
X172974000Y-100254000D02*
X172974000Y-99029500D01*
X172974000Y-99029500D02*
X173251750Y-98751750D01*
%TO.N,/SCK_NEXT*%
X171905000Y-95805000D02*
X171905000Y-90925000D01*
X173100000Y-97000000D02*
X171905000Y-95805000D01*
X174400000Y-97000000D02*
X173100000Y-97000000D01*
X175233332Y-97833332D02*
X174400000Y-97000000D01*
X175233332Y-98751750D02*
X175233332Y-97833332D01*
%TO.N,/CS_NEXT*%
X173251750Y-98751750D02*
X174733332Y-98751750D01*
X170905000Y-96405000D02*
X173251750Y-98751750D01*
X170905000Y-90925000D02*
X170905000Y-96405000D01*
%TO.N,/SCK*%
X177028000Y-97450000D02*
X178562000Y-98984000D01*
X176233332Y-97666668D02*
X176450000Y-97450000D01*
X176450000Y-97450000D02*
X177028000Y-97450000D01*
X176233332Y-98751750D02*
X176233332Y-97666668D01*
%TO.N,/SDA*%
X176733332Y-95885332D02*
X176733332Y-94433750D01*
X178562000Y-97714000D02*
X176733332Y-95885332D01*
%TO.N,/SDA_NEXT*%
X175733332Y-93753332D02*
X175733332Y-94433750D01*
X172905000Y-90925000D02*
X175733332Y-93753332D01*
%TO.N,/SDA_PREV*%
X177685000Y-90925000D02*
X176233332Y-92376668D01*
X176233332Y-92376668D02*
X176233332Y-94433750D01*
%TD*%
%TA.AperFunction,Conductor*%
%TO.N,GND*%
G36*
X185699500Y-117576000D02*
G01*
X185679815Y-117643039D01*
X185627011Y-117688794D01*
X185575500Y-117700000D01*
X164824500Y-117700000D01*
X164757461Y-117680315D01*
X164711706Y-117627511D01*
X164700500Y-117576000D01*
X164700500Y-115800000D01*
X185699500Y-115800000D01*
X185699500Y-117576000D01*
G37*
%TD.AperFunction*%
%TD*%
%TA.AperFunction,Conductor*%
%TO.N,GND*%
G36*
X185699500Y-115800000D02*
G01*
X184300000Y-115800000D01*
X184300000Y-103600000D01*
X185699500Y-103600000D01*
X185699500Y-115800000D01*
G37*
%TD.AperFunction*%
%TD*%
%TA.AperFunction,Conductor*%
%TO.N,GND*%
G36*
X166200000Y-115800000D02*
G01*
X164700500Y-115800000D01*
X164700500Y-103600000D01*
X166200000Y-103600000D01*
X166200000Y-115800000D01*
G37*
%TD.AperFunction*%
%TD*%
%TA.AperFunction,Conductor*%
%TO.N,GND*%
G36*
X166368742Y-89919685D02*
G01*
X166414497Y-89972489D01*
X166424441Y-90041647D01*
X166416262Y-90071457D01*
X166416131Y-90071771D01*
X166404500Y-90130247D01*
X166404500Y-91719752D01*
X166416131Y-91778229D01*
X166416132Y-91778230D01*
X166460447Y-91844552D01*
X166526769Y-91888867D01*
X166526770Y-91888868D01*
X166585247Y-91900499D01*
X166585250Y-91900500D01*
X166585252Y-91900500D01*
X167224750Y-91900500D01*
X167224751Y-91900499D01*
X167239568Y-91897552D01*
X167283229Y-91888868D01*
X167283231Y-91888867D01*
X167336108Y-91853535D01*
X167402785Y-91832656D01*
X167470165Y-91851140D01*
X167473892Y-91853535D01*
X167526768Y-91888867D01*
X167526770Y-91888868D01*
X167585247Y-91900499D01*
X167585250Y-91900500D01*
X168068444Y-91900500D01*
X168135483Y-91920185D01*
X168167710Y-91950189D01*
X168247809Y-92057187D01*
X168247812Y-92057190D01*
X168362906Y-92143350D01*
X168362913Y-92143354D01*
X168497620Y-92193596D01*
X168497627Y-92193598D01*
X168557155Y-92199999D01*
X168557172Y-92200000D01*
X168655000Y-92200000D01*
X168655000Y-91124000D01*
X168674685Y-91056961D01*
X168727489Y-91011206D01*
X168779000Y-91000000D01*
X169031000Y-91000000D01*
X169098039Y-91019685D01*
X169143794Y-91072489D01*
X169155000Y-91124000D01*
X169155000Y-92200000D01*
X169252828Y-92200000D01*
X169252844Y-92199999D01*
X169312372Y-92193598D01*
X169312376Y-92193597D01*
X169410166Y-92157124D01*
X169479858Y-92152140D01*
X169541181Y-92185625D01*
X169574666Y-92246948D01*
X169577500Y-92273306D01*
X169577500Y-99217140D01*
X169557815Y-99284179D01*
X169551876Y-99292626D01*
X169551832Y-99292682D01*
X169485938Y-99406812D01*
X169451830Y-99534108D01*
X169451830Y-99665891D01*
X169485938Y-99793187D01*
X169488904Y-99798324D01*
X169551830Y-99907314D01*
X169551832Y-99907316D01*
X169638585Y-99994069D01*
X169672070Y-100055392D01*
X169667086Y-100125084D01*
X169625214Y-100181017D01*
X169559750Y-100205434D01*
X169550904Y-100205750D01*
X168745514Y-100205750D01*
X168678475Y-100186065D01*
X168635029Y-100138045D01*
X168613050Y-100094908D01*
X168613046Y-100094904D01*
X168613045Y-100094902D01*
X168523347Y-100005204D01*
X168523343Y-100005201D01*
X168523342Y-100005200D01*
X168514118Y-100000500D01*
X168474386Y-99980255D01*
X168423590Y-99932280D01*
X168406796Y-99864459D01*
X168429334Y-99798324D01*
X168484050Y-99754873D01*
X168493792Y-99751385D01*
X168574399Y-99726267D01*
X168719877Y-99638322D01*
X168840072Y-99518127D01*
X168928019Y-99372645D01*
X168978590Y-99210356D01*
X168985000Y-99139822D01*
X168985000Y-99133250D01*
X167035001Y-99133250D01*
X167035001Y-99139832D01*
X167041408Y-99210352D01*
X167041409Y-99210357D01*
X167091981Y-99372646D01*
X167179927Y-99518127D01*
X167300122Y-99638322D01*
X167445600Y-99726267D01*
X167526208Y-99751385D01*
X167584356Y-99790123D01*
X167612330Y-99854148D01*
X167601249Y-99923133D01*
X167554630Y-99975176D01*
X167545614Y-99980255D01*
X167496659Y-100005199D01*
X167496652Y-100005204D01*
X167406954Y-100094902D01*
X167406951Y-100094907D01*
X167406950Y-100094908D01*
X167390899Y-100126410D01*
X167349352Y-100207948D01*
X167334500Y-100301725D01*
X167334500Y-100764767D01*
X167342629Y-100816090D01*
X167349354Y-100858554D01*
X167406950Y-100971592D01*
X167406952Y-100971594D01*
X167406954Y-100971597D01*
X167496652Y-101061295D01*
X167496654Y-101061296D01*
X167496658Y-101061300D01*
X167609694Y-101118895D01*
X167609698Y-101118897D01*
X167703475Y-101133749D01*
X167703481Y-101133750D01*
X168316518Y-101133749D01*
X168410304Y-101118896D01*
X168523342Y-101061300D01*
X168613050Y-100971592D01*
X168635030Y-100928453D01*
X168683004Y-100877659D01*
X168745514Y-100860750D01*
X169454950Y-100860750D01*
X169521989Y-100880435D01*
X169545545Y-100902104D01*
X169546083Y-100901567D01*
X169551830Y-100907314D01*
X169645016Y-101000500D01*
X169759144Y-101066392D01*
X169886438Y-101100500D01*
X169938313Y-101100500D01*
X170005352Y-101120185D01*
X170025994Y-101136819D01*
X171884265Y-102995090D01*
X171945240Y-103056065D01*
X172019920Y-103099181D01*
X172103214Y-103121500D01*
X176568324Y-103121500D01*
X176635363Y-103141185D01*
X176656005Y-103157819D01*
X176692686Y-103194500D01*
X176806814Y-103260392D01*
X176934108Y-103294500D01*
X176934110Y-103294500D01*
X177065890Y-103294500D01*
X177065892Y-103294500D01*
X177193186Y-103260392D01*
X177307314Y-103194500D01*
X177343995Y-103157819D01*
X177405318Y-103124334D01*
X177431676Y-103121500D01*
X178549114Y-103121500D01*
X178549116Y-103121500D01*
X178632410Y-103099181D01*
X178707090Y-103056065D01*
X180947065Y-100816090D01*
X180990181Y-100741410D01*
X181012500Y-100658116D01*
X181012500Y-100571884D01*
X181012500Y-94774268D01*
X181032185Y-94707229D01*
X181084989Y-94661474D01*
X181154147Y-94651530D01*
X181155898Y-94651795D01*
X181245260Y-94665948D01*
X181253367Y-94667232D01*
X181253475Y-94667249D01*
X181253481Y-94667250D01*
X181716518Y-94667249D01*
X181810304Y-94652396D01*
X181923342Y-94594800D01*
X182013050Y-94505092D01*
X182070646Y-94392054D01*
X182070646Y-94392052D01*
X182070647Y-94392051D01*
X182085499Y-94298274D01*
X182085500Y-94298269D01*
X182085499Y-93905765D01*
X182105183Y-93838727D01*
X182121813Y-93818090D01*
X182947065Y-92992840D01*
X182990181Y-92918160D01*
X183012500Y-92834866D01*
X183012500Y-92748634D01*
X183012500Y-91989043D01*
X183014736Y-91981425D01*
X183013467Y-91973590D01*
X183024440Y-91948380D01*
X183032185Y-91922004D01*
X183038893Y-91915174D01*
X183041352Y-91909526D01*
X183067606Y-91885943D01*
X183116110Y-91853533D01*
X183182786Y-91832656D01*
X183250166Y-91851140D01*
X183253892Y-91853535D01*
X183306768Y-91888867D01*
X183306770Y-91888868D01*
X183365247Y-91900499D01*
X183365250Y-91900500D01*
X183365252Y-91900500D01*
X184004750Y-91900500D01*
X184004751Y-91900499D01*
X184019568Y-91897552D01*
X184063229Y-91888868D01*
X184063229Y-91888867D01*
X184063231Y-91888867D01*
X184129552Y-91844552D01*
X184173867Y-91778231D01*
X184173867Y-91778229D01*
X184173868Y-91778229D01*
X184185499Y-91719752D01*
X184185500Y-91719750D01*
X184185500Y-90130249D01*
X184185499Y-90130247D01*
X184173868Y-90071771D01*
X184173738Y-90071457D01*
X184173658Y-90070715D01*
X184171485Y-90059790D01*
X184172462Y-90059595D01*
X184166266Y-90001988D01*
X184197539Y-89939508D01*
X184257626Y-89903853D01*
X184288297Y-89900000D01*
X185575500Y-89900000D01*
X185642539Y-89919685D01*
X185688294Y-89972489D01*
X185699500Y-90024000D01*
X185699500Y-103600000D01*
X164700500Y-103600000D01*
X164700500Y-98626677D01*
X167035000Y-98626677D01*
X167035000Y-98633250D01*
X167760000Y-98633250D01*
X168260000Y-98633250D01*
X168984999Y-98633250D01*
X168984999Y-98626667D01*
X168978591Y-98556147D01*
X168978590Y-98556142D01*
X168928018Y-98393853D01*
X168840072Y-98248372D01*
X168719877Y-98128177D01*
X168574395Y-98040230D01*
X168574396Y-98040230D01*
X168412105Y-97989659D01*
X168412106Y-97989659D01*
X168341572Y-97983250D01*
X168260000Y-97983250D01*
X168260000Y-98633250D01*
X167760000Y-98633250D01*
X167760000Y-97983250D01*
X167759999Y-97983249D01*
X167678417Y-97983250D01*
X167607897Y-97989658D01*
X167607892Y-97989659D01*
X167445603Y-98040231D01*
X167300122Y-98128177D01*
X167179927Y-98248372D01*
X167091980Y-98393854D01*
X167041409Y-98556143D01*
X167035000Y-98626677D01*
X164700500Y-98626677D01*
X164700500Y-90024000D01*
X164720185Y-89956961D01*
X164772989Y-89911206D01*
X164824500Y-89900000D01*
X166301703Y-89900000D01*
X166368742Y-89919685D01*
G37*
%TD.AperFunction*%
%TD*%
M02*
