%TF.GenerationSoftware,KiCad,Pcbnew,9.0.0*%
%TF.CreationDate,2025-02-26T19:49:16+08:00*%
%TF.ProjectId,keyboard,6b657962-6f61-4726-942e-6b696361645f,rev?*%
%TF.SameCoordinates,Original*%
%TF.FileFunction,Copper,L2,Bot*%
%TF.FilePolarity,Positive*%
%FSLAX46Y46*%
G04 Gerber Fmt 4.6, Leading zero omitted, Abs format (unit mm)*
G04 Created by KiCad (PCBNEW 9.0.0) date 2025-02-26 19:49:16*
%MOMM*%
%LPD*%
G01*
G04 APERTURE LIST*
G04 Aperture macros list*
%AMRoundRect*
0 Rectangle with rounded corners*
0 $1 Rounding radius*
0 $2 $3 $4 $5 $6 $7 $8 $9 X,Y pos of 4 corners*
0 Add a 4 corners polygon primitive as box body*
4,1,4,$2,$3,$4,$5,$6,$7,$8,$9,$2,$3,0*
0 Add four circle primitives for the rounded corners*
1,1,$1+$1,$2,$3*
1,1,$1+$1,$4,$5*
1,1,$1+$1,$6,$7*
1,1,$1+$1,$8,$9*
0 Add four rect primitives between the rounded corners*
20,1,$1+$1,$2,$3,$4,$5,0*
20,1,$1+$1,$4,$5,$6,$7,0*
20,1,$1+$1,$6,$7,$8,$9,0*
20,1,$1+$1,$8,$9,$2,$3,0*%
%AMOutline5P*
0 Free polygon, 5 corners , with rotation*
0 The origin of the aperture is its center*
0 number of corners: always 5*
0 $1 to $10 corner X, Y*
0 $11 Rotation angle, in degrees counterclockwise*
0 create outline with 5 corners*
4,1,5,$1,$2,$3,$4,$5,$6,$7,$8,$9,$10,$1,$2,$11*%
%AMOutline6P*
0 Free polygon, 6 corners , with rotation*
0 The origin of the aperture is its center*
0 number of corners: always 6*
0 $1 to $12 corner X, Y*
0 $13 Rotation angle, in degrees counterclockwise*
0 create outline with 6 corners*
4,1,6,$1,$2,$3,$4,$5,$6,$7,$8,$9,$10,$11,$12,$1,$2,$13*%
%AMOutline7P*
0 Free polygon, 7 corners , with rotation*
0 The origin of the aperture is its center*
0 number of corners: always 7*
0 $1 to $14 corner X, Y*
0 $15 Rotation angle, in degrees counterclockwise*
0 create outline with 7 corners*
4,1,7,$1,$2,$3,$4,$5,$6,$7,$8,$9,$10,$11,$12,$13,$14,$1,$2,$15*%
%AMOutline8P*
0 Free polygon, 8 corners , with rotation*
0 The origin of the aperture is its center*
0 number of corners: always 8*
0 $1 to $16 corner X, Y*
0 $17 Rotation angle, in degrees counterclockwise*
0 create outline with 8 corners*
4,1,8,$1,$2,$3,$4,$5,$6,$7,$8,$9,$10,$11,$12,$13,$14,$15,$16,$1,$2,$17*%
G04 Aperture macros list end*
%TA.AperFunction,SMDPad,CuDef*%
%ADD10RoundRect,0.200000X0.200000X0.275000X-0.200000X0.275000X-0.200000X-0.275000X0.200000X-0.275000X0*%
%TD*%
%TA.AperFunction,SMDPad,CuDef*%
%ADD11RoundRect,0.250000X0.475000X-0.250000X0.475000X0.250000X-0.475000X0.250000X-0.475000X-0.250000X0*%
%TD*%
%TA.AperFunction,SMDPad,CuDef*%
%ADD12RoundRect,0.225000X0.225000X0.250000X-0.225000X0.250000X-0.225000X-0.250000X0.225000X-0.250000X0*%
%TD*%
%TA.AperFunction,SMDPad,CuDef*%
%ADD13R,1.550000X0.600000*%
%TD*%
%TA.AperFunction,SMDPad,CuDef*%
%ADD14R,1.800000X1.200000*%
%TD*%
%TA.AperFunction,SMDPad,CuDef*%
%ADD15RoundRect,0.175000X0.325000X0.175000X-0.325000X0.175000X-0.325000X-0.175000X0.325000X-0.175000X0*%
%TD*%
%TA.AperFunction,SMDPad,CuDef*%
%ADD16R,1.828800X0.558800*%
%TD*%
%TA.AperFunction,SMDPad,CuDef*%
%ADD17Outline8P,-0.279400X0.774700X-0.139700X0.914400X0.139700X0.914400X0.279400X0.774700X0.279400X-0.774700X0.139700X-0.914400X-0.139700X-0.914400X-0.279400X-0.774700X270.000000*%
%TD*%
%TA.AperFunction,ViaPad*%
%ADD18C,0.600000*%
%TD*%
%TA.AperFunction,Conductor*%
%ADD19C,0.254000*%
%TD*%
G04 APERTURE END LIST*
D10*
%TO.P,R5,1*%
%TO.N,/MCS*%
X181385000Y-88640000D03*
%TO.P,R5,2*%
%TO.N,/CS_PREV*%
X179735000Y-88640000D03*
%TD*%
D11*
%TO.P,C1,2*%
%TO.N,GND*%
X172910000Y-89850894D03*
%TO.P,C1,1*%
%TO.N,Net-(U4-V33)*%
X172910000Y-91750894D03*
%TD*%
D10*
%TO.P,R4,1*%
%TO.N,/SCK*%
X176485000Y-99071750D03*
%TO.P,R4,2*%
%TO.N,GND*%
X174835000Y-99071750D03*
%TD*%
%TO.P,R3,1*%
%TO.N,/SDA*%
X176509500Y-97279000D03*
%TO.P,R3,2*%
%TO.N,GND*%
X174859500Y-97279000D03*
%TD*%
D12*
%TO.P,C3,1*%
%TO.N,5V*%
X175734106Y-88130000D03*
%TO.P,C3,2*%
%TO.N,GND*%
X174184106Y-88130000D03*
%TD*%
D13*
%TO.P,J1,1,Pin_1*%
%TO.N,/OK_PREV*%
X169952330Y-100600000D03*
%TO.P,J1,2,Pin_2*%
%TO.N,/OK_NEXT*%
X169952330Y-99600000D03*
%TO.P,J1,3,Pin_3*%
%TO.N,/RESET*%
X169952330Y-98600000D03*
%TO.P,J1,4,Pin_4*%
%TO.N,/DP*%
X169952330Y-97600000D03*
%TO.P,J1,5,Pin_5*%
%TO.N,/DM*%
X169952330Y-96600000D03*
%TO.P,J1,6,Pin_6*%
%TO.N,5V*%
X169952330Y-95600000D03*
%TO.P,J1,7,Pin_7*%
%TO.N,GND*%
X169952330Y-94600000D03*
D14*
%TO.P,J1,MP1*%
%TO.N,N/C*%
X166077330Y-101900000D03*
%TO.P,J1,MP2*%
X166077330Y-93300000D03*
%TD*%
D11*
%TO.P,C2,1*%
%TO.N,5V*%
X175030000Y-91750894D03*
%TO.P,C2,2*%
%TO.N,GND*%
X175030000Y-89850894D03*
%TD*%
D15*
%TO.P,U1,1,VCC*%
%TO.N,5V*%
X176400000Y-84557500D03*
%TO.P,U1,2,VOUT*%
%TO.N,/AIN*%
X176400000Y-86457500D03*
%TO.P,U1,3,GND*%
%TO.N,GND*%
X174000000Y-85507500D03*
%TD*%
D16*
%TO.P,U4,1,P3.2/TXD1_/INT0/VBUS1/AIN3*%
%TO.N,/AIN*%
X178562000Y-93904000D03*
D17*
%TO.P,U4,2,P1.4/T2_/CAP1_/SCS/TIN2/UCC1/AIN1*%
%TO.N,/TIN1*%
X178562000Y-95174000D03*
%TO.P,U4,3,P1.5/MOSI/PWM1/TIN3/UCC2/AIN2*%
%TO.N,/TIN2*%
X178562000Y-96444000D03*
%TO.P,U4,4,P1.6/MISO/RXD1/TIN4*%
%TO.N,/SDA*%
X178562000Y-97714000D03*
%TO.P,U4,5,P1.7/SCK/TXD1/TIN5*%
%TO.N,/SCK*%
X178562000Y-98984000D03*
%TO.P,U4,6,RST/T2EX_/CAP2_*%
%TO.N,/RESET*%
X178562000Y-100254000D03*
%TO.P,U4,7,P3.1/PWM2_/TXD*%
%TO.N,/OK_NEXT*%
X178562000Y-101524000D03*
%TO.P,U4,8,P3.0/PWM1_/RXD*%
%TO.N,/OK_PREV*%
X178562000Y-102794000D03*
%TO.P,U4,9,P1.1/T2EX/CAP2/TIN1/VBUS2/AIN0*%
%TO.N,/TIN0*%
X172974000Y-102794000D03*
%TO.P,U4,10,P3.3/INT1*%
%TO.N,/CS_PREV*%
X172974000Y-101524000D03*
%TO.P,U4,11,P3.4/PWM2/RXD1_/T0*%
%TO.N,/CS_NEXT*%
X172974000Y-100254000D03*
%TO.P,U4,12,P3.6/UDP*%
%TO.N,/DP*%
X172974000Y-98984000D03*
%TO.P,U4,13,P3.7/UDM*%
%TO.N,/DM*%
X172974000Y-97714000D03*
%TO.P,U4,14,GND/VSS*%
%TO.N,GND*%
X172974000Y-96444000D03*
%TO.P,U4,15,VCC/VDD*%
%TO.N,5V*%
X172974000Y-95174000D03*
%TO.P,U4,16,V33*%
%TO.N,Net-(U4-V33)*%
X172974000Y-93904000D03*
%TD*%
D18*
%TO.N,/CS_PREV*%
X179685000Y-90925000D03*
%TO.N,/MCS*%
X181400000Y-88700000D03*
%TO.N,GND*%
X165400000Y-105000000D03*
X165400000Y-107000000D03*
X165400000Y-109000000D03*
X165400000Y-111000000D03*
X165400000Y-113000000D03*
X165400000Y-115000000D03*
X165500000Y-116800000D03*
X167000000Y-116800000D03*
X169000000Y-116800000D03*
X171000000Y-116800000D03*
X173000000Y-116800000D03*
X175000000Y-116800000D03*
X177000000Y-116800000D03*
X179000000Y-116800000D03*
X181000000Y-116800000D03*
X183000000Y-116800000D03*
X185000000Y-105000000D03*
X185000000Y-107000000D03*
X185000000Y-109000000D03*
X185000000Y-111000000D03*
X185000000Y-113000000D03*
X185000000Y-115000000D03*
X185000000Y-116800000D03*
X183400000Y-94000000D03*
X181685000Y-90925000D03*
X170400000Y-102400000D03*
X175400000Y-100000000D03*
%TO.N,/CS_PREV*%
X177000000Y-100100000D03*
%TO.N,GND*%
X168900000Y-93300000D03*
X174700000Y-96000000D03*
%TO.N,5V*%
X176400000Y-89500000D03*
X173700000Y-92800000D03*
X167905000Y-90925000D03*
%TO.N,/RESET*%
X171300000Y-99200000D03*
%TO.N,/OK_NEXT*%
X169952330Y-99600000D03*
%TO.N,/OK_PREV*%
X169952330Y-100600000D03*
X177000000Y-102794000D03*
%TO.N,/OK_NEXT*%
X177000000Y-101993997D03*
%TO.N,/RESET*%
X177000000Y-101100000D03*
%TO.N,/CS_NEXT*%
X172974000Y-100254000D03*
%TO.N,/TIN2*%
X175252221Y-107800000D03*
%TO.N,/TIN1*%
X181307776Y-107800000D03*
%TO.N,/SCK_PREV*%
X177300000Y-92600000D03*
X175733332Y-96000000D03*
%TO.N,/SCK*%
X178562000Y-98984000D03*
%TO.N,/SDA*%
X178562000Y-97714000D03*
%TO.N,/TIN0*%
X171002221Y-106800000D03*
%TD*%
D19*
%TO.N,/CS_PREV*%
X179685000Y-88690000D02*
X179735000Y-88640000D01*
X179685000Y-90925000D02*
X179685000Y-88690000D01*
%TO.N,GND*%
X174184106Y-88084106D02*
X174000000Y-87900000D01*
X174184106Y-88130000D02*
X174184106Y-88084106D01*
X174000000Y-87900000D02*
X174000000Y-85507500D01*
X175030000Y-88975894D02*
X174184106Y-88130000D01*
X175030000Y-89850894D02*
X175030000Y-88975894D01*
%TO.N,5V*%
X175572000Y-85385500D02*
X176400000Y-84557500D01*
X175572000Y-87967894D02*
X175572000Y-85385500D01*
X175734106Y-88130000D02*
X175572000Y-87967894D01*
X176400000Y-88795894D02*
X175734106Y-88130000D01*
X176400000Y-89500000D02*
X176400000Y-88795894D01*
%TO.N,GND*%
X181685000Y-92285000D02*
X183400000Y-94000000D01*
X181685000Y-90925000D02*
X181685000Y-92285000D01*
%TO.N,/CS_PREV*%
X175576000Y-101524000D02*
X172974000Y-101524000D01*
X177000000Y-100100000D02*
X175576000Y-101524000D01*
%TO.N,GND*%
X169460894Y-93300000D02*
X172910000Y-89850894D01*
X168900000Y-93300000D02*
X169460894Y-93300000D01*
X175030000Y-89850894D02*
X172910000Y-89850894D01*
%TO.N,/RESET*%
X170700000Y-98600000D02*
X169952330Y-98600000D01*
X171300000Y-99200000D02*
X170700000Y-98600000D01*
%TO.N,GND*%
X175400000Y-99636750D02*
X174835000Y-99071750D01*
X175400000Y-100000000D02*
X175400000Y-99636750D01*
X174835000Y-99071750D02*
X174835000Y-99135000D01*
%TO.N,/RESET*%
X177100000Y-101100000D02*
X177946000Y-100254000D01*
X177946000Y-100254000D02*
X178562000Y-100254000D01*
X177000000Y-101100000D02*
X177100000Y-101100000D01*
%TO.N,/OK_NEXT*%
X178092003Y-101993997D02*
X178562000Y-101524000D01*
X177000000Y-101993997D02*
X178092003Y-101993997D01*
%TO.N,/OK_PREV*%
X177000000Y-102794000D02*
X178562000Y-102794000D01*
%TO.N,/SDA*%
X178127000Y-97279000D02*
X178562000Y-97714000D01*
X176509500Y-97279000D02*
X178127000Y-97279000D01*
%TO.N,/SCK*%
X178474250Y-99071750D02*
X178562000Y-98984000D01*
X176485000Y-99071750D02*
X178474250Y-99071750D01*
%TO.N,GND*%
X169952330Y-94352330D02*
X168900000Y-93300000D01*
X169952330Y-94600000D02*
X169952330Y-94352330D01*
X174256000Y-96444000D02*
X174700000Y-96000000D01*
X172974000Y-96444000D02*
X174256000Y-96444000D01*
X174024500Y-96444000D02*
X172974000Y-96444000D01*
X174859500Y-97279000D02*
X174024500Y-96444000D01*
X174835000Y-99071750D02*
X174835000Y-97303500D01*
X174835000Y-97303500D02*
X174859500Y-97279000D01*
%TO.N,5V*%
X176400000Y-90380894D02*
X175030000Y-91750894D01*
X176400000Y-89500000D02*
X176400000Y-90380894D01*
X173980894Y-92800000D02*
X175030000Y-91750894D01*
X173700000Y-92800000D02*
X173980894Y-92800000D01*
X168923330Y-95600000D02*
X169952330Y-95600000D01*
X167905000Y-94581670D02*
X168923330Y-95600000D01*
X167905000Y-90925000D02*
X167905000Y-94581670D01*
%TO.N,/TIN2*%
X180500000Y-103400000D02*
X176100000Y-107800000D01*
X179344000Y-96444000D02*
X180500000Y-97600000D01*
X180500000Y-97600000D02*
X180500000Y-103400000D01*
X178562000Y-96444000D02*
X179344000Y-96444000D01*
X176100000Y-107800000D02*
X175252221Y-107800000D01*
%TO.N,/TIN1*%
X181307776Y-96207776D02*
X181307776Y-107800000D01*
X178562000Y-95174000D02*
X180274000Y-95174000D01*
X180274000Y-95174000D02*
X181307776Y-96207776D01*
%TO.N,/SCK_PREV*%
X177010000Y-92600000D02*
X177300000Y-92600000D01*
X175733332Y-93876668D02*
X177010000Y-92600000D01*
X175733332Y-96000000D02*
X175733332Y-93876668D01*
%TO.N,5V*%
X175030000Y-94070000D02*
X175030000Y-91750894D01*
X173926000Y-95174000D02*
X175030000Y-94070000D01*
X172974000Y-95174000D02*
X173926000Y-95174000D01*
%TO.N,Net-(U4-V33)*%
X172974000Y-93904000D02*
X172974000Y-91814894D01*
X172974000Y-91814894D02*
X172910000Y-91750894D01*
%TO.N,5V*%
X172548000Y-95600000D02*
X172974000Y-95174000D01*
X169952330Y-95600000D02*
X172548000Y-95600000D01*
%TO.N,/AIN*%
X178562000Y-88619500D02*
X176400000Y-86457500D01*
X178562000Y-93904000D02*
X178562000Y-88619500D01*
%TO.N,/TIN0*%
X172974000Y-104828221D02*
X172974000Y-102794000D01*
X171002221Y-106800000D02*
X172974000Y-104828221D01*
%TO.N,/DP*%
X171039862Y-97600000D02*
X172423862Y-98984000D01*
X169952330Y-97600000D02*
X171039862Y-97600000D01*
X172423862Y-98984000D02*
X172974000Y-98984000D01*
%TO.N,/DM*%
X170683330Y-96600000D02*
X169952330Y-96600000D01*
X171797330Y-97714000D02*
X170683330Y-96600000D01*
X172974000Y-97714000D02*
X171797330Y-97714000D01*
%TO.N,GND*%
X171400000Y-101400000D02*
X170400000Y-102400000D01*
X171400000Y-101000000D02*
X171400000Y-101400000D01*
X171400000Y-100310036D02*
X171400000Y-101000000D01*
X172110036Y-99600000D02*
X171400000Y-100310036D01*
X174306750Y-99600000D02*
X172110036Y-99600000D01*
X174835000Y-99071750D02*
X174306750Y-99600000D01*
%TD*%
%TA.AperFunction,Conductor*%
%TO.N,GND*%
G36*
X172289539Y-103619685D02*
G01*
X172335294Y-103672489D01*
X172346500Y-103724000D01*
X172346500Y-104516939D01*
X172326815Y-104583978D01*
X172310181Y-104604620D01*
X170939893Y-105974907D01*
X170878570Y-106008392D01*
X170876404Y-106008843D01*
X170768729Y-106030261D01*
X170768719Y-106030264D01*
X170623048Y-106090602D01*
X170623035Y-106090609D01*
X170491932Y-106178210D01*
X170491928Y-106178213D01*
X170380434Y-106289707D01*
X170380431Y-106289711D01*
X170292830Y-106420814D01*
X170292823Y-106420827D01*
X170232485Y-106566498D01*
X170232482Y-106566510D01*
X170201721Y-106721153D01*
X170201721Y-106878846D01*
X170232482Y-107033489D01*
X170232485Y-107033501D01*
X170292823Y-107179172D01*
X170292830Y-107179185D01*
X170380431Y-107310288D01*
X170380434Y-107310292D01*
X170491928Y-107421786D01*
X170491932Y-107421789D01*
X170623035Y-107509390D01*
X170623048Y-107509397D01*
X170760904Y-107566498D01*
X170768724Y-107569737D01*
X170906442Y-107597131D01*
X170923374Y-107600499D01*
X170923377Y-107600500D01*
X170923379Y-107600500D01*
X171081065Y-107600500D01*
X171081066Y-107600499D01*
X171235718Y-107569737D01*
X171381400Y-107509394D01*
X171512510Y-107421789D01*
X171624010Y-107310289D01*
X171711615Y-107179179D01*
X171718095Y-107163536D01*
X171730230Y-107134239D01*
X171771958Y-107033497D01*
X171793377Y-106925812D01*
X171825760Y-106863906D01*
X171827255Y-106862383D01*
X172014893Y-106674745D01*
X172719170Y-106674745D01*
X173395965Y-107351540D01*
X174104486Y-106643019D01*
X174006266Y-106544799D01*
X174906983Y-106544799D01*
X174909573Y-106544218D01*
X175088218Y-106508683D01*
X175094218Y-106507642D01*
X175106362Y-106505841D01*
X175112401Y-106505096D01*
X175136742Y-106502699D01*
X175142811Y-106502251D01*
X175155068Y-106501649D01*
X175161151Y-106501500D01*
X175343291Y-106501500D01*
X175349374Y-106501649D01*
X175361631Y-106502251D01*
X175367700Y-106502699D01*
X175392041Y-106505096D01*
X175398080Y-106505841D01*
X175410224Y-106507642D01*
X175416224Y-106508683D01*
X175594869Y-106544218D01*
X175600819Y-106545554D01*
X175612727Y-106548538D01*
X175618582Y-106550159D01*
X175641987Y-106557259D01*
X175647768Y-106559168D01*
X175659321Y-106563302D01*
X175664996Y-106565492D01*
X175720018Y-106588282D01*
X175945544Y-106362756D01*
X175517285Y-105934497D01*
X174906983Y-106544799D01*
X174006266Y-106544799D01*
X173427691Y-105966224D01*
X172719170Y-106674745D01*
X172014893Y-106674745D01*
X173075552Y-105614087D01*
X173779832Y-105614087D01*
X174456625Y-106290880D01*
X175165147Y-105582358D01*
X175869424Y-105582358D01*
X176297682Y-106010617D01*
X177006204Y-105302095D01*
X176577946Y-104873837D01*
X175869424Y-105582358D01*
X175165147Y-105582358D01*
X174456625Y-104873836D01*
X173968163Y-105362298D01*
X173963521Y-105370985D01*
X173960516Y-105376290D01*
X173954204Y-105386820D01*
X173950950Y-105391957D01*
X173868689Y-105515070D01*
X173865186Y-105520045D01*
X173857875Y-105529903D01*
X173854129Y-105534704D01*
X173838613Y-105553610D01*
X173834644Y-105558211D01*
X173826401Y-105567307D01*
X173822198Y-105571722D01*
X173779832Y-105614087D01*
X173075552Y-105614087D01*
X173461411Y-105228229D01*
X173530083Y-105125454D01*
X173549676Y-105078151D01*
X173577386Y-105011255D01*
X173601500Y-104890024D01*
X173601500Y-104766417D01*
X173601500Y-104521698D01*
X174808764Y-104521698D01*
X175517285Y-105230220D01*
X176225807Y-104521698D01*
X176930084Y-104521698D01*
X177358343Y-104949957D01*
X178066865Y-104241436D01*
X178049429Y-104224000D01*
X177227783Y-104224000D01*
X176930084Y-104521698D01*
X176225807Y-104521698D01*
X175928109Y-104224000D01*
X175106463Y-104224000D01*
X174808764Y-104521698D01*
X173601500Y-104521698D01*
X173601500Y-103724000D01*
X173621185Y-103656961D01*
X173673989Y-103611206D01*
X173725500Y-103600000D01*
X179113219Y-103600000D01*
X179180258Y-103619685D01*
X179226013Y-103672489D01*
X179235957Y-103741647D01*
X179206932Y-103805203D01*
X179200900Y-103811681D01*
X175877545Y-107135035D01*
X175816222Y-107168520D01*
X175746530Y-107163536D01*
X175720973Y-107150456D01*
X175631406Y-107090609D01*
X175631393Y-107090602D01*
X175485722Y-107030264D01*
X175485710Y-107030261D01*
X175331066Y-106999500D01*
X175331063Y-106999500D01*
X175173379Y-106999500D01*
X175173376Y-106999500D01*
X175018731Y-107030261D01*
X175018719Y-107030264D01*
X174873048Y-107090602D01*
X174873035Y-107090609D01*
X174741932Y-107178210D01*
X174741928Y-107178213D01*
X174630434Y-107289707D01*
X174630431Y-107289711D01*
X174542830Y-107420814D01*
X174542823Y-107420827D01*
X174482485Y-107566498D01*
X174482482Y-107566510D01*
X174451721Y-107721153D01*
X174451721Y-107878846D01*
X174482482Y-108033489D01*
X174482485Y-108033501D01*
X174542823Y-108179172D01*
X174542830Y-108179185D01*
X174630431Y-108310288D01*
X174630434Y-108310292D01*
X174741928Y-108421786D01*
X174741932Y-108421789D01*
X174873035Y-108509390D01*
X174873048Y-108509397D01*
X175018719Y-108569735D01*
X175018724Y-108569737D01*
X175156442Y-108597131D01*
X175173374Y-108600499D01*
X175173377Y-108600500D01*
X175173379Y-108600500D01*
X175331065Y-108600500D01*
X175331066Y-108600499D01*
X175485718Y-108569737D01*
X175631400Y-108509394D01*
X175722687Y-108448398D01*
X175789364Y-108427520D01*
X175791578Y-108427500D01*
X176161804Y-108427500D01*
X176161805Y-108427499D01*
X176283035Y-108403386D01*
X176363784Y-108369937D01*
X176397233Y-108356083D01*
X176500008Y-108287411D01*
X176587411Y-108200008D01*
X177083740Y-107703679D01*
X177990744Y-107703679D01*
X178699266Y-108412200D01*
X179407787Y-107703679D01*
X178699266Y-106995157D01*
X177990744Y-107703679D01*
X177083740Y-107703679D01*
X178144400Y-106643019D01*
X179051404Y-106643019D01*
X179759926Y-107351540D01*
X180182276Y-106929191D01*
X180182276Y-106356847D01*
X179759926Y-105934497D01*
X179051404Y-106643019D01*
X178144400Y-106643019D01*
X180468595Y-104318824D01*
X180529918Y-104285339D01*
X180599610Y-104290323D01*
X180655543Y-104332195D01*
X180679960Y-104397659D01*
X180680276Y-104406505D01*
X180680276Y-107260642D01*
X180660591Y-107327681D01*
X180659378Y-107329533D01*
X180598385Y-107420814D01*
X180598378Y-107420827D01*
X180538040Y-107566498D01*
X180538037Y-107566510D01*
X180507276Y-107721153D01*
X180507276Y-107878846D01*
X180538037Y-108033489D01*
X180538040Y-108033501D01*
X180598378Y-108179172D01*
X180598385Y-108179185D01*
X180685986Y-108310288D01*
X180685989Y-108310292D01*
X180797483Y-108421786D01*
X180797487Y-108421789D01*
X180928590Y-108509390D01*
X180928603Y-108509397D01*
X181074274Y-108569735D01*
X181074279Y-108569737D01*
X181211997Y-108597131D01*
X181228929Y-108600499D01*
X181228932Y-108600500D01*
X181228934Y-108600500D01*
X181386620Y-108600500D01*
X181386621Y-108600499D01*
X181541273Y-108569737D01*
X181686955Y-108509394D01*
X181818065Y-108421789D01*
X181929565Y-108310289D01*
X182017170Y-108179179D01*
X182077513Y-108033497D01*
X182108276Y-107878842D01*
X182108276Y-107721158D01*
X182108276Y-107721155D01*
X182108275Y-107721153D01*
X182099915Y-107679125D01*
X182077513Y-107566503D01*
X182053856Y-107509390D01*
X182017173Y-107420827D01*
X182017166Y-107420814D01*
X181998365Y-107392676D01*
X182544387Y-107392676D01*
X182544474Y-107392900D01*
X182548608Y-107404453D01*
X182550517Y-107410234D01*
X182557617Y-107433639D01*
X182559238Y-107439494D01*
X182562222Y-107451402D01*
X182563558Y-107457352D01*
X182599093Y-107635997D01*
X182600134Y-107641997D01*
X182601935Y-107654141D01*
X182602680Y-107660180D01*
X182605077Y-107684521D01*
X182605525Y-107690590D01*
X182606127Y-107702847D01*
X182606276Y-107708930D01*
X182606276Y-107891070D01*
X182606127Y-107897153D01*
X182605525Y-107909410D01*
X182605077Y-107915479D01*
X182602680Y-107939820D01*
X182601935Y-107945859D01*
X182600134Y-107958003D01*
X182599093Y-107964004D01*
X182581608Y-108051901D01*
X182941907Y-108412200D01*
X183650428Y-107703679D01*
X183650427Y-107703678D01*
X184354705Y-107703678D01*
X184884780Y-108233754D01*
X184911791Y-108228382D01*
X184935981Y-108226000D01*
X185064019Y-108226000D01*
X185088210Y-108228383D01*
X185201500Y-108250917D01*
X185201500Y-107749082D01*
X185088210Y-107771617D01*
X185064019Y-107774000D01*
X184935981Y-107774000D01*
X184911790Y-107771617D01*
X184786211Y-107746638D01*
X184762949Y-107739582D01*
X184644657Y-107690583D01*
X184623220Y-107679125D01*
X184516759Y-107607991D01*
X184497968Y-107592569D01*
X184481891Y-107576492D01*
X184354705Y-107703678D01*
X183650427Y-107703678D01*
X182941906Y-106995157D01*
X182544387Y-107392676D01*
X181998365Y-107392676D01*
X181956174Y-107329533D01*
X181935296Y-107262855D01*
X181935276Y-107260642D01*
X181935276Y-106643019D01*
X183294045Y-106643019D01*
X184002566Y-107351540D01*
X184234606Y-107119500D01*
X184228383Y-107088210D01*
X184226000Y-107064019D01*
X184226000Y-106935981D01*
X184228383Y-106911790D01*
X184253362Y-106786211D01*
X184260418Y-106762949D01*
X184309417Y-106644657D01*
X184320875Y-106623220D01*
X184392009Y-106516759D01*
X184407431Y-106497968D01*
X184486734Y-106418664D01*
X184002567Y-105934497D01*
X183294045Y-106643019D01*
X181935276Y-106643019D01*
X181935276Y-105382468D01*
X182433276Y-105382468D01*
X182433276Y-105782249D01*
X182941907Y-106290880D01*
X183650428Y-105582358D01*
X184354705Y-105582358D01*
X184998347Y-106226000D01*
X185064019Y-106226000D01*
X185088210Y-106228383D01*
X185119498Y-106234606D01*
X185201500Y-106152605D01*
X185201500Y-105749082D01*
X185088210Y-105771617D01*
X185064019Y-105774000D01*
X184935981Y-105774000D01*
X184911790Y-105771617D01*
X184786211Y-105746638D01*
X184762949Y-105739582D01*
X184644657Y-105690583D01*
X184623220Y-105679125D01*
X184516759Y-105607991D01*
X184497968Y-105592569D01*
X184421231Y-105515832D01*
X184354705Y-105582358D01*
X183650428Y-105582358D01*
X182941906Y-104873837D01*
X182433276Y-105382468D01*
X181935276Y-105382468D01*
X181935276Y-104521698D01*
X183294045Y-104521698D01*
X184002567Y-105230220D01*
X184226000Y-105006787D01*
X184226000Y-104935981D01*
X184228383Y-104911790D01*
X184253362Y-104786211D01*
X184260418Y-104762949D01*
X184309417Y-104644657D01*
X184320875Y-104623220D01*
X184392009Y-104516759D01*
X184407431Y-104497968D01*
X184497968Y-104407431D01*
X184516759Y-104392009D01*
X184555508Y-104366118D01*
X184413390Y-104224000D01*
X183591744Y-104224000D01*
X183294045Y-104521698D01*
X181935276Y-104521698D01*
X181935276Y-103724000D01*
X181954961Y-103656961D01*
X182007765Y-103611206D01*
X182059276Y-103600000D01*
X185575500Y-103600000D01*
X185642539Y-103619685D01*
X185688294Y-103672489D01*
X185699500Y-103724000D01*
X185699500Y-115800000D01*
X164700500Y-115800000D01*
X164700500Y-115128300D01*
X166323482Y-115128300D01*
X166371182Y-115176000D01*
X167692827Y-115176000D01*
X167740526Y-115128301D01*
X168444803Y-115128301D01*
X168492502Y-115176000D01*
X169814147Y-115176000D01*
X169861846Y-115128300D01*
X170566123Y-115128300D01*
X170613823Y-115176000D01*
X171935468Y-115176000D01*
X171983167Y-115128301D01*
X171983166Y-115128300D01*
X172687443Y-115128300D01*
X172735143Y-115176000D01*
X174056788Y-115176000D01*
X174104487Y-115128301D01*
X174808764Y-115128301D01*
X174856463Y-115176000D01*
X176178108Y-115176000D01*
X176225807Y-115128300D01*
X176930084Y-115128300D01*
X176977784Y-115176000D01*
X178299429Y-115176000D01*
X178347128Y-115128301D01*
X178347127Y-115128300D01*
X179051404Y-115128300D01*
X179099104Y-115176000D01*
X180420749Y-115176000D01*
X180468448Y-115128301D01*
X181172725Y-115128301D01*
X181220424Y-115176000D01*
X182542069Y-115176000D01*
X182589768Y-115128300D01*
X183294045Y-115128300D01*
X183341745Y-115176000D01*
X184245845Y-115176000D01*
X184228383Y-115088210D01*
X184226000Y-115064019D01*
X184226000Y-114935981D01*
X184228383Y-114911790D01*
X184253362Y-114786211D01*
X184260418Y-114762949D01*
X184285407Y-114702619D01*
X184002567Y-114419779D01*
X183294045Y-115128300D01*
X182589768Y-115128300D01*
X181881246Y-114419779D01*
X181172725Y-115128301D01*
X180468448Y-115128301D01*
X179759926Y-114419779D01*
X179051404Y-115128300D01*
X178347127Y-115128300D01*
X177638606Y-114419779D01*
X176930084Y-115128300D01*
X176225807Y-115128300D01*
X175517285Y-114419779D01*
X174808764Y-115128301D01*
X174104487Y-115128301D01*
X173395965Y-114419779D01*
X172687443Y-115128300D01*
X171983166Y-115128300D01*
X171274645Y-114419779D01*
X170566123Y-115128300D01*
X169861846Y-115128300D01*
X169153324Y-114419779D01*
X168444803Y-115128301D01*
X167740526Y-115128301D01*
X167032004Y-114419779D01*
X166323482Y-115128300D01*
X164700500Y-115128300D01*
X164700500Y-114067639D01*
X165262822Y-114067639D01*
X165421183Y-114226000D01*
X165464019Y-114226000D01*
X165488210Y-114228383D01*
X165613789Y-114253362D01*
X165637051Y-114260418D01*
X165755343Y-114309417D01*
X165776780Y-114320875D01*
X165883241Y-114392009D01*
X165902032Y-114407431D01*
X165992569Y-114497968D01*
X166007991Y-114516759D01*
X166079125Y-114623220D01*
X166090583Y-114644657D01*
X166094175Y-114653329D01*
X166679864Y-114067640D01*
X167384143Y-114067640D01*
X168092664Y-114776161D01*
X168801186Y-114067640D01*
X169505463Y-114067640D01*
X170213984Y-114776161D01*
X170922506Y-114067640D01*
X171626783Y-114067640D01*
X172335305Y-114776161D01*
X173043826Y-114067640D01*
X173748104Y-114067640D01*
X174456625Y-114776161D01*
X175165147Y-114067640D01*
X175869424Y-114067640D01*
X176577945Y-114776161D01*
X177286467Y-114067640D01*
X177990744Y-114067640D01*
X178699266Y-114776161D01*
X179407787Y-114067640D01*
X180112065Y-114067640D01*
X180820586Y-114776161D01*
X181529108Y-114067640D01*
X182233385Y-114067640D01*
X182941907Y-114776161D01*
X183650428Y-114067640D01*
X183650427Y-114067639D01*
X184354705Y-114067639D01*
X184614061Y-114326995D01*
X184623221Y-114320875D01*
X184644657Y-114309417D01*
X184762949Y-114260418D01*
X184786211Y-114253362D01*
X184911790Y-114228383D01*
X184935981Y-114226000D01*
X185064019Y-114226000D01*
X185088210Y-114228383D01*
X185201500Y-114250917D01*
X185201500Y-113749082D01*
X185088210Y-113771617D01*
X185064019Y-113774000D01*
X184935981Y-113774000D01*
X184911790Y-113771617D01*
X184786211Y-113746638D01*
X184762949Y-113739582D01*
X184706249Y-113716095D01*
X184354705Y-114067639D01*
X183650427Y-114067639D01*
X182941907Y-113359119D01*
X182233385Y-114067640D01*
X181529108Y-114067640D01*
X180820586Y-113359118D01*
X180112065Y-114067640D01*
X179407787Y-114067640D01*
X178699266Y-113359118D01*
X177990744Y-114067640D01*
X177286467Y-114067640D01*
X176577945Y-113359118D01*
X175869424Y-114067640D01*
X175165147Y-114067640D01*
X174456625Y-113359118D01*
X173748104Y-114067640D01*
X173043826Y-114067640D01*
X172335305Y-113359118D01*
X171626783Y-114067640D01*
X170922506Y-114067640D01*
X170213984Y-113359118D01*
X169505463Y-114067640D01*
X168801186Y-114067640D01*
X168092664Y-113359118D01*
X167384143Y-114067640D01*
X166679864Y-114067640D01*
X166679865Y-114067639D01*
X166043028Y-113430802D01*
X166007991Y-113483241D01*
X165992569Y-113502032D01*
X165902032Y-113592569D01*
X165883241Y-113607991D01*
X165776780Y-113679125D01*
X165755343Y-113690583D01*
X165637051Y-113739582D01*
X165613788Y-113746639D01*
X165576383Y-113754079D01*
X165262822Y-114067639D01*
X164700500Y-114067639D01*
X164700500Y-113006980D01*
X166323482Y-113006980D01*
X167032004Y-113715501D01*
X167740525Y-113006980D01*
X168444803Y-113006980D01*
X169153324Y-113715501D01*
X169861846Y-113006980D01*
X170566123Y-113006980D01*
X171274645Y-113715501D01*
X171983166Y-113006980D01*
X172687443Y-113006980D01*
X173395965Y-113715501D01*
X174104486Y-113006980D01*
X174808764Y-113006980D01*
X175517285Y-113715501D01*
X176225807Y-113006980D01*
X176930084Y-113006980D01*
X177638606Y-113715501D01*
X178347127Y-113006980D01*
X179051404Y-113006980D01*
X179759926Y-113715501D01*
X180468447Y-113006980D01*
X181172725Y-113006980D01*
X181881246Y-113715501D01*
X182589768Y-113006980D01*
X183294045Y-113006980D01*
X184002566Y-113715501D01*
X184329051Y-113389016D01*
X184320875Y-113376780D01*
X184309417Y-113355343D01*
X184260418Y-113237051D01*
X184253362Y-113213789D01*
X184228383Y-113088210D01*
X184226000Y-113064019D01*
X184226000Y-112935981D01*
X184228383Y-112911790D01*
X184253362Y-112786211D01*
X184260418Y-112762949D01*
X184309417Y-112644657D01*
X184320875Y-112623221D01*
X184323460Y-112619352D01*
X184002567Y-112298459D01*
X183294045Y-113006980D01*
X182589768Y-113006980D01*
X181881246Y-112298458D01*
X181172725Y-113006980D01*
X180468447Y-113006980D01*
X179759926Y-112298458D01*
X179051404Y-113006980D01*
X178347127Y-113006980D01*
X177638606Y-112298458D01*
X176930084Y-113006980D01*
X176225807Y-113006980D01*
X175517285Y-112298458D01*
X174808764Y-113006980D01*
X174104486Y-113006980D01*
X173395965Y-112298458D01*
X172687443Y-113006980D01*
X171983166Y-113006980D01*
X171274645Y-112298458D01*
X170566123Y-113006980D01*
X169861846Y-113006980D01*
X169153324Y-112298458D01*
X168444803Y-113006980D01*
X167740525Y-113006980D01*
X167032004Y-112298458D01*
X166323482Y-113006980D01*
X164700500Y-113006980D01*
X164700500Y-111946320D01*
X165262823Y-111946320D01*
X165558958Y-112242455D01*
X165613789Y-112253362D01*
X165637051Y-112260418D01*
X165755343Y-112309417D01*
X165776780Y-112320875D01*
X165883241Y-112392009D01*
X165902032Y-112407431D01*
X165992569Y-112497968D01*
X166007991Y-112516759D01*
X166048619Y-112577564D01*
X166679864Y-111946320D01*
X167384143Y-111946320D01*
X168092664Y-112654841D01*
X168801186Y-111946320D01*
X169505463Y-111946320D01*
X170213984Y-112654841D01*
X170922506Y-111946320D01*
X171626784Y-111946320D01*
X172335305Y-112654841D01*
X173043826Y-111946320D01*
X173748104Y-111946320D01*
X174456625Y-112654841D01*
X175165147Y-111946320D01*
X175869424Y-111946320D01*
X176577945Y-112654841D01*
X177286467Y-111946320D01*
X177990745Y-111946320D01*
X178699266Y-112654841D01*
X179407787Y-111946320D01*
X180112065Y-111946320D01*
X180820586Y-112654841D01*
X181529108Y-111946320D01*
X182233386Y-111946320D01*
X182941907Y-112654841D01*
X183650428Y-111946320D01*
X183650427Y-111946319D01*
X184354705Y-111946319D01*
X184696378Y-112287992D01*
X184762949Y-112260418D01*
X184786211Y-112253362D01*
X184911790Y-112228383D01*
X184935981Y-112226000D01*
X185064019Y-112226000D01*
X185088210Y-112228383D01*
X185201500Y-112250917D01*
X185201500Y-111749082D01*
X185088210Y-111771617D01*
X185064019Y-111774000D01*
X184935981Y-111774000D01*
X184911790Y-111771617D01*
X184786211Y-111746638D01*
X184762949Y-111739582D01*
X184644657Y-111690583D01*
X184623219Y-111679124D01*
X184622429Y-111678596D01*
X184354705Y-111946319D01*
X183650427Y-111946319D01*
X182941907Y-111237799D01*
X182233386Y-111946320D01*
X181529108Y-111946320D01*
X180820586Y-111237798D01*
X180112065Y-111946320D01*
X179407787Y-111946320D01*
X178699266Y-111237798D01*
X177990745Y-111946320D01*
X177286467Y-111946320D01*
X176577945Y-111237798D01*
X175869424Y-111946320D01*
X175165147Y-111946320D01*
X174456625Y-111237798D01*
X173748104Y-111946320D01*
X173043826Y-111946320D01*
X172335305Y-111237798D01*
X171626784Y-111946320D01*
X170922506Y-111946320D01*
X170213984Y-111237798D01*
X169505463Y-111946320D01*
X168801186Y-111946320D01*
X168092664Y-111237798D01*
X167384143Y-111946320D01*
X166679864Y-111946320D01*
X166679865Y-111946319D01*
X166089992Y-111356447D01*
X166079125Y-111376780D01*
X166007991Y-111483241D01*
X165992569Y-111502032D01*
X165902032Y-111592569D01*
X165883241Y-111607991D01*
X165776780Y-111679125D01*
X165755343Y-111690583D01*
X165637051Y-111739582D01*
X165613789Y-111746638D01*
X165488210Y-111771617D01*
X165464019Y-111774000D01*
X165435143Y-111774000D01*
X165262823Y-111946320D01*
X164700500Y-111946320D01*
X164700500Y-110885659D01*
X166323482Y-110885659D01*
X167032004Y-111594181D01*
X167740525Y-110885659D01*
X168444803Y-110885659D01*
X169153324Y-111594181D01*
X169861846Y-110885659D01*
X170566123Y-110885659D01*
X171274645Y-111594181D01*
X171983166Y-110885659D01*
X172687443Y-110885659D01*
X173395965Y-111594181D01*
X174104486Y-110885659D01*
X174808764Y-110885659D01*
X175517285Y-111594181D01*
X176225807Y-110885659D01*
X176930084Y-110885659D01*
X177638606Y-111594181D01*
X178347127Y-110885659D01*
X179051404Y-110885659D01*
X179759926Y-111594181D01*
X180468447Y-110885659D01*
X181172725Y-110885659D01*
X181881246Y-111594181D01*
X182589768Y-110885659D01*
X183294045Y-110885659D01*
X184002566Y-111594180D01*
X184289496Y-111307250D01*
X184260418Y-111237051D01*
X184253362Y-111213789D01*
X184228383Y-111088210D01*
X184226000Y-111064019D01*
X184226000Y-110935981D01*
X184228383Y-110911790D01*
X184253362Y-110786211D01*
X184260418Y-110762949D01*
X184309417Y-110644657D01*
X184320875Y-110623220D01*
X184372053Y-110546624D01*
X184002567Y-110177138D01*
X183294045Y-110885659D01*
X182589768Y-110885659D01*
X181881246Y-110177138D01*
X181172725Y-110885659D01*
X180468447Y-110885659D01*
X179759926Y-110177138D01*
X179051404Y-110885659D01*
X178347127Y-110885659D01*
X177638606Y-110177138D01*
X176930084Y-110885659D01*
X176225807Y-110885659D01*
X175517285Y-110177138D01*
X174808764Y-110885659D01*
X174104486Y-110885659D01*
X173395965Y-110177138D01*
X172687443Y-110885659D01*
X171983166Y-110885659D01*
X171274645Y-110177138D01*
X170566123Y-110885659D01*
X169861846Y-110885659D01*
X169153324Y-110177138D01*
X168444803Y-110885659D01*
X167740525Y-110885659D01*
X167032004Y-110177138D01*
X166323482Y-110885659D01*
X164700500Y-110885659D01*
X164700500Y-109824999D01*
X165262822Y-109824999D01*
X165741509Y-110303686D01*
X165755344Y-110309417D01*
X165776780Y-110320875D01*
X165883241Y-110392009D01*
X165902032Y-110407431D01*
X165992569Y-110497968D01*
X165999027Y-110505837D01*
X166679865Y-109824999D01*
X167384143Y-109824999D01*
X168092664Y-110533521D01*
X168801186Y-109824999D01*
X169505463Y-109824999D01*
X170213984Y-110533521D01*
X170922506Y-109824999D01*
X171626783Y-109824999D01*
X172335305Y-110533521D01*
X173043826Y-109824999D01*
X173748104Y-109824999D01*
X174456625Y-110533521D01*
X175165147Y-109824999D01*
X175869424Y-109824999D01*
X176577945Y-110533521D01*
X177286467Y-109824999D01*
X177990744Y-109824999D01*
X178699266Y-110533521D01*
X179407787Y-109824999D01*
X180112065Y-109824999D01*
X180820586Y-110533521D01*
X181529108Y-109824999D01*
X182233385Y-109824999D01*
X182941907Y-110533521D01*
X183650428Y-109824999D01*
X184354705Y-109824999D01*
X184783799Y-110254093D01*
X184786211Y-110253362D01*
X184911790Y-110228383D01*
X184935981Y-110226000D01*
X185064019Y-110226000D01*
X185088210Y-110228383D01*
X185201500Y-110250917D01*
X185201500Y-109749082D01*
X185088210Y-109771617D01*
X185064019Y-109774000D01*
X184935981Y-109774000D01*
X184911790Y-109771617D01*
X184786211Y-109746638D01*
X184762949Y-109739582D01*
X184644657Y-109690583D01*
X184623220Y-109679125D01*
X184549702Y-109630002D01*
X184354705Y-109824999D01*
X183650428Y-109824999D01*
X182941907Y-109116478D01*
X182233385Y-109824999D01*
X181529108Y-109824999D01*
X180820586Y-109116478D01*
X180112065Y-109824999D01*
X179407787Y-109824999D01*
X178699266Y-109116478D01*
X177990744Y-109824999D01*
X177286467Y-109824999D01*
X176577945Y-109116478D01*
X175869424Y-109824999D01*
X175165147Y-109824999D01*
X174456625Y-109116478D01*
X173748104Y-109824999D01*
X173043826Y-109824999D01*
X172335305Y-109116478D01*
X171626783Y-109824999D01*
X170922506Y-109824999D01*
X170213984Y-109116478D01*
X169505463Y-109824999D01*
X168801186Y-109824999D01*
X168092664Y-109116478D01*
X167384143Y-109824999D01*
X166679865Y-109824999D01*
X166125621Y-109270755D01*
X166090583Y-109355343D01*
X166079125Y-109376780D01*
X166007991Y-109483241D01*
X165992569Y-109502032D01*
X165902032Y-109592569D01*
X165883241Y-109607991D01*
X165776780Y-109679125D01*
X165755343Y-109690583D01*
X165637051Y-109739582D01*
X165613789Y-109746638D01*
X165488210Y-109771617D01*
X165464019Y-109774000D01*
X165335981Y-109774000D01*
X165315809Y-109772012D01*
X165262822Y-109824999D01*
X164700500Y-109824999D01*
X164700500Y-108764339D01*
X166323482Y-108764339D01*
X167032004Y-109472860D01*
X167740525Y-108764339D01*
X168444803Y-108764339D01*
X169153324Y-109472860D01*
X169861846Y-108764339D01*
X169861845Y-108764338D01*
X170566123Y-108764338D01*
X171274645Y-109472860D01*
X171983166Y-108764339D01*
X172687443Y-108764339D01*
X173395965Y-109472860D01*
X173771127Y-109097698D01*
X175142123Y-109097698D01*
X175517285Y-109472860D01*
X176064646Y-108925500D01*
X175905030Y-108925500D01*
X175897906Y-108930260D01*
X175892763Y-108933517D01*
X175882232Y-108939829D01*
X175876936Y-108942829D01*
X175855366Y-108954358D01*
X175849930Y-108957094D01*
X175838836Y-108962341D01*
X175833272Y-108964807D01*
X175664996Y-109034508D01*
X175659321Y-109036698D01*
X175647768Y-109040832D01*
X175641987Y-109042741D01*
X175618582Y-109049841D01*
X175612727Y-109051462D01*
X175600819Y-109054446D01*
X175594869Y-109055782D01*
X175416224Y-109091317D01*
X175410224Y-109092358D01*
X175398080Y-109094159D01*
X175392041Y-109094904D01*
X175367700Y-109097301D01*
X175361631Y-109097749D01*
X175349374Y-109098351D01*
X175343291Y-109098500D01*
X175161151Y-109098500D01*
X175155068Y-109098351D01*
X175142811Y-109097749D01*
X175142123Y-109097698D01*
X173771127Y-109097698D01*
X174104486Y-108764339D01*
X176930084Y-108764339D01*
X177638606Y-109472860D01*
X178347127Y-108764339D01*
X179051404Y-108764339D01*
X179759925Y-109472860D01*
X180146101Y-109086684D01*
X181495070Y-109086684D01*
X181881246Y-109472860D01*
X182589768Y-108764339D01*
X183294045Y-108764339D01*
X184002566Y-109472860D01*
X184255288Y-109220139D01*
X184253362Y-109213789D01*
X184228383Y-109088210D01*
X184226000Y-109064019D01*
X184226000Y-108935981D01*
X184228383Y-108911790D01*
X184253362Y-108786211D01*
X184260418Y-108762949D01*
X184309417Y-108644657D01*
X184320875Y-108623220D01*
X184392009Y-108516759D01*
X184407431Y-108497968D01*
X184426074Y-108479325D01*
X184002567Y-108055818D01*
X183294045Y-108764339D01*
X182589768Y-108764339D01*
X182371176Y-108545747D01*
X182336843Y-108597131D01*
X182333340Y-108602105D01*
X182326029Y-108611963D01*
X182322283Y-108616764D01*
X182306767Y-108635670D01*
X182302798Y-108640271D01*
X182294555Y-108649367D01*
X182290352Y-108653781D01*
X182161557Y-108782576D01*
X182157143Y-108786779D01*
X182148047Y-108795022D01*
X182143446Y-108798991D01*
X182124540Y-108814507D01*
X182119739Y-108818253D01*
X182109881Y-108825564D01*
X182104907Y-108829067D01*
X181953461Y-108930261D01*
X181948311Y-108933522D01*
X181937780Y-108939833D01*
X181932491Y-108942829D01*
X181910921Y-108954358D01*
X181905485Y-108957094D01*
X181894391Y-108962341D01*
X181888827Y-108964807D01*
X181720551Y-109034508D01*
X181714876Y-109036698D01*
X181703323Y-109040832D01*
X181697542Y-109042741D01*
X181674137Y-109049841D01*
X181668282Y-109051462D01*
X181656374Y-109054446D01*
X181650424Y-109055782D01*
X181495070Y-109086684D01*
X180146101Y-109086684D01*
X180452102Y-108780683D01*
X180325200Y-108653781D01*
X180320997Y-108649367D01*
X180312754Y-108640271D01*
X180308785Y-108635670D01*
X180293269Y-108616764D01*
X180289523Y-108611963D01*
X180282212Y-108602105D01*
X180278709Y-108597131D01*
X180233338Y-108529229D01*
X179759926Y-108055817D01*
X179051404Y-108764339D01*
X178347127Y-108764339D01*
X177638606Y-108055817D01*
X176930084Y-108764339D01*
X174104486Y-108764339D01*
X173395965Y-108055817D01*
X172687443Y-108764339D01*
X171983166Y-108764339D01*
X171286265Y-108067438D01*
X171257252Y-108073209D01*
X170566123Y-108764338D01*
X169861845Y-108764338D01*
X169153324Y-108055817D01*
X168444803Y-108764339D01*
X167740525Y-108764339D01*
X167032004Y-108055817D01*
X166323482Y-108764339D01*
X164700500Y-108764339D01*
X164700500Y-107773689D01*
X165332833Y-107773689D01*
X165971344Y-108412200D01*
X166679865Y-107703679D01*
X167384143Y-107703679D01*
X168092664Y-108412200D01*
X168801186Y-107703679D01*
X168801185Y-107703678D01*
X169505462Y-107703678D01*
X170213984Y-108412200D01*
X170591055Y-108035129D01*
X170589446Y-108034508D01*
X170421170Y-107964807D01*
X170415606Y-107962341D01*
X170404512Y-107957094D01*
X170399076Y-107954358D01*
X170377506Y-107942829D01*
X170372217Y-107939833D01*
X170361686Y-107933522D01*
X170356536Y-107930261D01*
X170233371Y-107847964D01*
X171771069Y-107847964D01*
X172335305Y-108412200D01*
X173043826Y-107703679D01*
X172367031Y-107026883D01*
X172259675Y-107134239D01*
X172258004Y-107142643D01*
X172256671Y-107148582D01*
X172253687Y-107160496D01*
X172252061Y-107166371D01*
X172244960Y-107189775D01*
X172243051Y-107195550D01*
X172238918Y-107207100D01*
X172236729Y-107212775D01*
X172167028Y-107381050D01*
X172164562Y-107386614D01*
X172159315Y-107397708D01*
X172156580Y-107403141D01*
X172145051Y-107424712D01*
X172142054Y-107430004D01*
X172135743Y-107440535D01*
X172132482Y-107445685D01*
X172031288Y-107597131D01*
X172027785Y-107602105D01*
X172020474Y-107611963D01*
X172016728Y-107616764D01*
X172001212Y-107635670D01*
X171997243Y-107640271D01*
X171989000Y-107649367D01*
X171984797Y-107653781D01*
X171856002Y-107782576D01*
X171851588Y-107786779D01*
X171842492Y-107795022D01*
X171837891Y-107798991D01*
X171818985Y-107814507D01*
X171814184Y-107818253D01*
X171804326Y-107825564D01*
X171799352Y-107829067D01*
X171771069Y-107847964D01*
X170233371Y-107847964D01*
X170205090Y-107829067D01*
X170200116Y-107825564D01*
X170190258Y-107818253D01*
X170185457Y-107814507D01*
X170166551Y-107798991D01*
X170161950Y-107795022D01*
X170152854Y-107786779D01*
X170148440Y-107782576D01*
X170019645Y-107653781D01*
X170015442Y-107649367D01*
X170007199Y-107640271D01*
X170003230Y-107635670D01*
X169987714Y-107616764D01*
X169983968Y-107611963D01*
X169976657Y-107602105D01*
X169973154Y-107597131D01*
X169871960Y-107445685D01*
X169868699Y-107440535D01*
X169862388Y-107430004D01*
X169859392Y-107424715D01*
X169847863Y-107403145D01*
X169845127Y-107397709D01*
X169839880Y-107386615D01*
X169837414Y-107381051D01*
X169834683Y-107374458D01*
X169505462Y-107703678D01*
X168801185Y-107703678D01*
X168092664Y-106995157D01*
X167384143Y-107703679D01*
X166679865Y-107703679D01*
X166153828Y-107177641D01*
X166146638Y-107213789D01*
X166139582Y-107237051D01*
X166090583Y-107355343D01*
X166079125Y-107376780D01*
X166007991Y-107483241D01*
X165992569Y-107502032D01*
X165902032Y-107592569D01*
X165883241Y-107607991D01*
X165776780Y-107679125D01*
X165755343Y-107690583D01*
X165637051Y-107739582D01*
X165613789Y-107746638D01*
X165488210Y-107771617D01*
X165464019Y-107774000D01*
X165335981Y-107774000D01*
X165332833Y-107773689D01*
X164700500Y-107773689D01*
X164700500Y-106643019D01*
X166323482Y-106643019D01*
X167032004Y-107351540D01*
X167740525Y-106643019D01*
X168444803Y-106643019D01*
X169153324Y-107351540D01*
X169703721Y-106801144D01*
X169703721Y-106708930D01*
X169703870Y-106702847D01*
X169704472Y-106690590D01*
X169704920Y-106684521D01*
X169707317Y-106660180D01*
X169708062Y-106654141D01*
X169709863Y-106641997D01*
X169710904Y-106635997D01*
X169734782Y-106515955D01*
X169153324Y-105934497D01*
X168444803Y-106643019D01*
X167740525Y-106643019D01*
X167032004Y-105934497D01*
X166323482Y-106643019D01*
X164700500Y-106643019D01*
X164700500Y-105774000D01*
X165454464Y-105774000D01*
X165971344Y-106290880D01*
X166679865Y-105582358D01*
X167384143Y-105582358D01*
X168092664Y-106290880D01*
X168801186Y-105582358D01*
X169505463Y-105582358D01*
X169954256Y-106031151D01*
X169973154Y-106002869D01*
X169976657Y-105997895D01*
X169983968Y-105988037D01*
X169987714Y-105983236D01*
X170003230Y-105964330D01*
X170007199Y-105959729D01*
X170015442Y-105950633D01*
X170019645Y-105946219D01*
X170148440Y-105817424D01*
X170152854Y-105813221D01*
X170161950Y-105804978D01*
X170166551Y-105801009D01*
X170185457Y-105785493D01*
X170190258Y-105781747D01*
X170200116Y-105774436D01*
X170205090Y-105770933D01*
X170356536Y-105669739D01*
X170361686Y-105666478D01*
X170372217Y-105660167D01*
X170377506Y-105657171D01*
X170399076Y-105645642D01*
X170404512Y-105642906D01*
X170415606Y-105637659D01*
X170421170Y-105635193D01*
X170589446Y-105565492D01*
X170595121Y-105563302D01*
X170606674Y-105559168D01*
X170612453Y-105557259D01*
X170635857Y-105550159D01*
X170641726Y-105548535D01*
X170653635Y-105545552D01*
X170659569Y-105544219D01*
X170667974Y-105542546D01*
X170775334Y-105435186D01*
X170213984Y-104873837D01*
X169505463Y-105582358D01*
X168801186Y-105582358D01*
X168092664Y-104873837D01*
X167384143Y-105582358D01*
X166679865Y-105582358D01*
X166172881Y-105075374D01*
X166171617Y-105088210D01*
X166146638Y-105213789D01*
X166139582Y-105237051D01*
X166090583Y-105355343D01*
X166079125Y-105376780D01*
X166007991Y-105483241D01*
X165992569Y-105502032D01*
X165902032Y-105592569D01*
X165883241Y-105607991D01*
X165776780Y-105679125D01*
X165755343Y-105690583D01*
X165637051Y-105739582D01*
X165613789Y-105746638D01*
X165488210Y-105771617D01*
X165464019Y-105774000D01*
X165454464Y-105774000D01*
X164700500Y-105774000D01*
X164700500Y-104521698D01*
X166323482Y-104521698D01*
X167032004Y-105230220D01*
X167740525Y-104521698D01*
X168444803Y-104521698D01*
X169153324Y-105230220D01*
X169861846Y-104521698D01*
X170566123Y-104521698D01*
X171127473Y-105083048D01*
X171835994Y-104374526D01*
X171685468Y-104224000D01*
X170863822Y-104224000D01*
X170566123Y-104521698D01*
X169861846Y-104521698D01*
X169564148Y-104224000D01*
X168742502Y-104224000D01*
X168444803Y-104521698D01*
X167740525Y-104521698D01*
X167442827Y-104224000D01*
X166621181Y-104224000D01*
X166323482Y-104521698D01*
X164700500Y-104521698D01*
X164700500Y-103724000D01*
X164720185Y-103656961D01*
X164772989Y-103611206D01*
X164824500Y-103600000D01*
X172222500Y-103600000D01*
X172289539Y-103619685D01*
G37*
%TD.AperFunction*%
%TD*%
%TA.AperFunction,Conductor*%
%TO.N,GND*%
G36*
X185699500Y-117576000D02*
G01*
X185679815Y-117643039D01*
X185627011Y-117688794D01*
X185575500Y-117700000D01*
X164824500Y-117700000D01*
X164757461Y-117680315D01*
X164711706Y-117627511D01*
X164700500Y-117576000D01*
X164700500Y-115800000D01*
X185699500Y-115800000D01*
X185699500Y-117576000D01*
G37*
%TD.AperFunction*%
%TD*%
M02*
