M48
; DRILL file {KiCad 9.0.0} date 2025-02-26T19:49:16+0800
; FORMAT={-:-/ absolute / inch / decimal}
; #@! TF.CreationDate,2025-02-26T19:49:16+08:00
; #@! TF.GenerationSoftware,Kicad,Pcbnew,9.0.0
; #@! TF.FileFunction,Plated,1,2,PTH
FMAT,2
INCH
; #@! TA.AperFunction,Plated,PTH,ViaDrill
T1C0.0118
%
G90
G05
T1
X6.5118Y-4.1339
X6.5118Y-4.2126
X6.5118Y-4.2913
X6.5118Y-4.3701
X6.5118Y-4.4488
X6.5118Y-4.5276
X6.5157Y-4.5984
X6.5748Y-4.5984
X6.6104Y-3.5797
X6.6496Y-3.6732
X6.6535Y-4.5984
X6.691Y-3.9213
X6.691Y-3.9606
X6.7087Y-4.0315
X6.7323Y-4.5984
X6.7324Y-4.2047
X6.7441Y-3.9055
X6.81Y-3.947
X6.811Y-4.5984
X6.8386Y-3.6535
X6.878Y-3.7795
X6.8898Y-4.5984
X6.8997Y-4.2441
X6.9055Y-3.937
X6.9186Y-3.7795
X6.9449Y-3.5236
X6.9685Y-3.9409
X6.9685Y-3.9803
X6.9685Y-4.0155
X6.9685Y-4.047
X6.9685Y-4.5984
X6.9803Y-3.6457
X7.03Y-3.847
X7.03Y-3.897
X7.0472Y-4.5984
X7.0742Y-3.5797
X7.126Y-4.5984
X7.1381Y-4.2441
X7.1417Y-3.4921
X7.153Y-3.5797
X7.2047Y-4.5984
X7.2205Y-3.7008
X7.2835Y-4.1339
X7.2835Y-4.2126
X7.2835Y-4.2913
X7.2835Y-4.3701
X7.2835Y-4.4488
X7.2835Y-4.5276
X7.2835Y-4.5984
M30
