%TF.GenerationSoftware,KiCad,Pcbnew,9.0.0*%
%TF.CreationDate,2025-02-26T19:49:16+08:00*%
%TF.ProjectId,keyboard,6b657962-6f61-4726-942e-6b696361645f,rev?*%
%TF.SameCoordinates,Original*%
%TF.FileFunction,Soldermask,Top*%
%TF.FilePolarity,Negative*%
%FSLAX46Y46*%
G04 Gerber Fmt 4.6, Leading zero omitted, Abs format (unit mm)*
G04 Created by KiCad (PCBNEW 9.0.0) date 2025-02-26 19:49:16*
%MOMM*%
%LPD*%
G01*
G04 APERTURE LIST*
G04 Aperture macros list*
%AMRoundRect*
0 Rectangle with rounded corners*
0 $1 Rounding radius*
0 $2 $3 $4 $5 $6 $7 $8 $9 X,Y pos of 4 corners*
0 Add a 4 corners polygon primitive as box body*
4,1,4,$2,$3,$4,$5,$6,$7,$8,$9,$2,$3,0*
0 Add four circle primitives for the rounded corners*
1,1,$1+$1,$2,$3*
1,1,$1+$1,$4,$5*
1,1,$1+$1,$6,$7*
1,1,$1+$1,$8,$9*
0 Add four rect primitives between the rounded corners*
20,1,$1+$1,$2,$3,$4,$5,0*
20,1,$1+$1,$4,$5,$6,$7,0*
20,1,$1+$1,$6,$7,$8,$9,0*
20,1,$1+$1,$8,$9,$2,$3,0*%
%AMOutline4P*
0 Free polygon, 4 corners , with rotation*
0 The origin of the aperture is its center*
0 number of corners: always 4*
0 $1 to $8 corner X, Y*
0 $9 Rotation angle, in degrees counterclockwise*
0 create outline with 4 corners*
4,1,4,$1,$2,$3,$4,$5,$6,$7,$8,$1,$2,$9*%
G04 Aperture macros list end*
%ADD10RoundRect,0.200000X0.200000X0.275000X-0.200000X0.275000X-0.200000X-0.275000X0.200000X-0.275000X0*%
%ADD11RoundRect,0.200000X0.275000X-0.200000X0.275000X0.200000X-0.275000X0.200000X-0.275000X-0.200000X0*%
%ADD12RoundRect,0.225000X-0.250000X0.225000X-0.250000X-0.225000X0.250000X-0.225000X0.250000X0.225000X0*%
%ADD13O,0.381000X1.371600*%
%ADD14RoundRect,0.050800X0.139700X-0.635000X0.139700X0.635000X-0.139700X0.635000X-0.139700X-0.635000X0*%
%ADD15R,0.600000X1.550000*%
%ADD16R,1.200000X1.800000*%
%ADD17R,3.611111X4.000000*%
%ADD18Outline4P,0.000000X-1.000000X0.000000X-1.000000X2.166666X1.000000X-2.166666X1.000000X0.000000*%
%ADD19Outline4P,-2.166666X-1.000000X2.166666X-1.000000X0.000000X1.000000X0.000000X1.000000X0.000000*%
%ADD20Outline4P,-1.083333X0.000000X1.083333X-2.000000X1.083333X2.000000X-1.083333X0.000000X0.000000*%
%ADD21R,2.166666X4.000000*%
%ADD22R,3.611110X4.000000*%
%ADD23C,3.200000*%
G04 APERTURE END LIST*
D10*
%TO.C,R1*%
X179835000Y-93991750D03*
X181485000Y-93991750D03*
%TD*%
D11*
%TO.C,R2*%
X168010000Y-100533250D03*
X168010000Y-98883250D03*
%TD*%
D12*
%TO.C,C4*%
X173160894Y-93777750D03*
X173160894Y-95327750D03*
%TD*%
D13*
%TO.C,U3*%
X174733332Y-94433750D03*
X175233332Y-94433750D03*
X175733332Y-94433750D03*
X176233332Y-94433750D03*
X176733332Y-94433750D03*
X176733332Y-98751750D03*
X176233332Y-98751750D03*
X175733332Y-98751750D03*
X175233332Y-98751750D03*
D14*
X174733332Y-98751750D03*
%TD*%
D15*
%TO.C,J2*%
X172905000Y-90925000D03*
X171905000Y-90925000D03*
X170905000Y-90925000D03*
X169905000Y-90925000D03*
X168905000Y-90925000D03*
X167905000Y-90925000D03*
X166905000Y-90925000D03*
D16*
X174205000Y-87050000D03*
X165605000Y-87050000D03*
%TD*%
D15*
%TO.C,J3*%
X183685000Y-90925000D03*
X182685000Y-90925000D03*
X181685000Y-90925000D03*
X180685000Y-90925000D03*
X179685000Y-90925000D03*
X178685000Y-90925000D03*
X177685000Y-90925000D03*
D16*
X184985000Y-87050000D03*
X176385000Y-87050000D03*
%TD*%
D17*
%TO.C,U2*%
X169196666Y-107800000D03*
X169196666Y-111800000D03*
D18*
X171002221Y-106800000D03*
D19*
X171002221Y-108800000D03*
D18*
X171002221Y-110800000D03*
D19*
X171002221Y-112800000D03*
D20*
X173085555Y-107800000D03*
X173085555Y-111800000D03*
D21*
X175252221Y-107800000D03*
X175252221Y-111800000D03*
D18*
X176335554Y-106800000D03*
D19*
X176335554Y-108800000D03*
D18*
X176335554Y-110800000D03*
D19*
X176335554Y-112800000D03*
D20*
X178418888Y-107800000D03*
X178418888Y-111800000D03*
D22*
X181307776Y-107800000D03*
X181307776Y-111800000D03*
%TD*%
D23*
%TO.C,H3*%
X175275000Y-58775000D03*
%TD*%
M02*
