M48
; DRILL file {KiCad 9.0.0} date 2025-04-21T19:22:59+0800
; FORMAT={-:-/ absolute / inch / decimal}
; #@! TF.CreationDate,2025-04-21T19:22:59+08:00
; #@! TF.GenerationSoftware,Kicad,Pcbnew,9.0.0
; #@! TF.FileFunction,Plated,1,2,PTH
FMAT,2
INCH
; #@! TA.AperFunction,Plated,PTH,ViaDrill
T1C0.0118
%
G90
G05
T1
X1.7323Y-3.2913
X1.7323Y-3.3386
X1.7323Y-3.3937
X1.7402Y-3.2362
X1.8504Y-3.1102
X1.8912Y-3.6046
X1.8912Y-3.6833
X1.8944Y-4.0219
X1.8944Y-4.1007
X1.8951Y-4.8543
X1.8951Y-4.9331
X1.8975Y-4.4393
X1.8975Y-4.518
X1.9087Y-3.2854
X1.9213Y-3.1181
X1.9449Y-3.7953
X1.9449Y-3.9055
X1.9449Y-4.063
X1.9606Y-3.3701
X1.9606Y-3.6457
X1.9606Y-4.4803
X1.9606Y-4.8425
X1.9764Y-3.2205
X1.9843Y-5.0433
X1.9921Y-3.7953
X1.9921Y-3.9055
X2.0Y-3.1102
X2.0Y-3.6142
X2.0079Y-3.378
X2.0079Y-4.0315
X2.0079Y-4.0866
X2.0157Y-4.14
X2.0157Y-3.9843
X2.0236Y-4.748
X2.0315Y-4.6535
X2.0315Y-4.2677
X2.0315Y-4.3307
X2.0315Y-4.4016
X2.0393Y-4.2126
X2.0393Y-4.4689
X2.0394Y-3.378
X2.063Y-3.1339
X2.063Y-3.6772
X2.063Y-3.8031
X2.0945Y-4.5406
X2.1024Y-4.7165
X2.126Y-4.1811
X2.1339Y-3.6927
X2.1431Y-3.8957
X2.1575Y-5.126
X2.1654Y-4.1087
X2.2047Y-3.3858
X2.2047Y-3.8957
X2.2047Y-4.1339
X2.2126Y-4.748
X2.2126Y-5.063
X2.2283Y-5.126
X2.2362Y-4.1654
X2.2362Y-4.2126
X2.2362Y-4.4724
X2.2598Y-4.126
X2.2677Y-4.2362
X2.2795Y-5.2114
X2.2835Y-3.622
X2.2913Y-5.0472
X2.3228Y-5.0472
X2.3257Y-3.2817
X2.3276Y-4.3039
X2.3307Y-3.4409
X2.3543Y-3.4803
X2.3543Y-5.0472
X2.3543Y-5.1496
X2.3622Y-3.3543
X2.3701Y-5.1102
X2.378Y-3.4331
X2.3858Y-3.5433
X2.3858Y-4.7717
X2.3937Y-5.1496
X2.3967Y-4.7117
X2.4016Y-5.1102
X2.4045Y-3.2817
X2.4173Y-4.6617
X2.4449Y-3.9803
X2.4488Y-3.9192
X2.4803Y-3.5118
X2.4882Y-4.3701
X2.5039Y-4.9449
X2.5039Y-5.0709
X2.5217Y-4.5117
X2.5217Y-4.5617
X2.5217Y-4.6117
X2.5217Y-4.7617
X2.5354Y-4.3228
X2.5512Y-3.5512
X2.5748Y-4.2913
X2.5984Y-3.6063
X2.5984Y-3.7192
X2.5984Y-3.7692
X2.6063Y-3.8268
X2.6063Y-4.7638
X2.6063Y-4.937
X2.6063Y-5.1024
X2.6169Y-4.126
X2.622Y-3.4094
X2.622Y-4.2283
X2.6693Y-5.0866
X2.6929Y-3.4409
X2.6929Y-3.6142
X2.6937Y-4.3039
X2.6961Y-4.7551
X2.7362Y-5.0984
X2.7392Y-3.2808
X2.748Y-3.5512
X2.7638Y-5.0551
X2.7717Y-4.1732
X2.7795Y-3.3543
X2.7795Y-3.5512
X2.7874Y-3.9606
X2.7874Y-3.9921
X2.7874Y-4.0236
X2.7874Y-4.0551
X2.7953Y-5.1024
X2.8031Y-4.6614
X2.8031Y-4.6929
X2.8031Y-4.7244
X2.8031Y-4.7559
X2.811Y-4.4039
X2.811Y-5.1417
X2.8189Y-3.4331
X2.8189Y-4.9449
X2.8189Y-5.0394
X2.8268Y-3.9213
X2.8268Y-4.0787
X2.8268Y-4.126
X2.8268Y-4.1811
X2.8268Y-4.2362
X2.8346Y-3.6063
X2.8346Y-3.9921
X2.8346Y-4.3539
X2.8346Y-4.4539
X2.8583Y-3.3543
X2.8898Y-3.5512
X2.8967Y-3.4419
X2.8976Y-3.6535
X2.9213Y-4.6614
X2.9213Y-4.7717
X2.9213Y-4.8268
X2.9291Y-4.1281
X2.9409Y-4.524
X2.9528Y-3.7266
X2.9528Y-4.0315
X2.9606Y-3.9291
X2.9606Y-3.9843
X2.9606Y-4.685
X2.9685Y-3.6457
X2.9685Y-3.7795
X2.9685Y-3.8346
X2.9685Y-3.8898
X2.9843Y-4.8268
X2.9921Y-4.7323
X3.0Y-4.0551
X3.0Y-4.1654
X3.0Y-4.4173
X3.0079Y-3.8268
X3.0236Y-3.7795
X3.0315Y-3.6535
X3.0315Y-4.4488
X3.0315Y-4.6772
X3.0315Y-4.9764
X3.0394Y-4.2441
X3.0394Y-4.2835
X3.0394Y-4.8583
X3.0472Y-3.8583
X3.0472Y-4.1811
X3.0866Y-3.8031
X3.0866Y-4.2047
X3.0866Y-4.5984
X3.0866Y-4.9921
X3.0866Y-5.0551
X3.0945Y-5.0945
X3.126Y-3.6457
X3.1417Y-3.3858
X3.1487Y-3.277
X3.157Y-4.5713
X3.1573Y-3.7659
X3.1607Y-4.9785
X3.161Y-4.1675
X3.1654Y-3.4646
X3.1654Y-3.6457
X3.2047Y-3.4173
X3.2283Y-3.3543
X3.2283Y-3.4724
X3.2283Y-3.5512
M30
