%TF.GenerationSoftware,KiCad,Pcbnew,9.0.0*%
%TF.CreationDate,2025-04-21T19:22:59+08:00*%
%TF.ProjectId,transform,7472616e-7366-46f7-926d-2e6b69636164,rev?*%
%TF.SameCoordinates,Original*%
%TF.FileFunction,Soldermask,Top*%
%TF.FilePolarity,Negative*%
%FSLAX46Y46*%
G04 Gerber Fmt 4.6, Leading zero omitted, Abs format (unit mm)*
G04 Created by KiCad (PCBNEW 9.0.0) date 2025-04-21 19:22:59*
%MOMM*%
%LPD*%
G01*
G04 APERTURE LIST*
G04 Aperture macros list*
%AMRoundRect*
0 Rectangle with rounded corners*
0 $1 Rounding radius*
0 $2 $3 $4 $5 $6 $7 $8 $9 X,Y pos of 4 corners*
0 Add a 4 corners polygon primitive as box body*
4,1,4,$2,$3,$4,$5,$6,$7,$8,$9,$2,$3,0*
0 Add four circle primitives for the rounded corners*
1,1,$1+$1,$2,$3*
1,1,$1+$1,$4,$5*
1,1,$1+$1,$6,$7*
1,1,$1+$1,$8,$9*
0 Add four rect primitives between the rounded corners*
20,1,$1+$1,$2,$3,$4,$5,0*
20,1,$1+$1,$4,$5,$6,$7,0*
20,1,$1+$1,$6,$7,$8,$9,0*
20,1,$1+$1,$8,$9,$2,$3,0*%
G04 Aperture macros list end*
%ADD10R,1.200000X1.800000*%
%ADD11R,0.600000X1.550000*%
%ADD12R,1.550000X0.600000*%
%ADD13R,1.800000X1.200000*%
%ADD14RoundRect,0.150000X-0.875000X-0.150000X0.875000X-0.150000X0.875000X0.150000X-0.875000X0.150000X0*%
%ADD15RoundRect,0.225000X-0.225000X-0.250000X0.225000X-0.250000X0.225000X0.250000X-0.225000X0.250000X0*%
G04 APERTURE END LIST*
D10*
%TO.C,J17*%
X76676000Y-79360990D03*
X85276000Y-79360990D03*
D11*
X77976000Y-83235990D03*
X78976000Y-83235990D03*
X79976000Y-83235990D03*
X80976000Y-83235990D03*
X81976000Y-83235990D03*
X82976000Y-83235990D03*
X83976000Y-83235990D03*
%TD*%
D12*
%TO.C,J11*%
X48134320Y-121300000D03*
X48134320Y-122300000D03*
X48134320Y-123300000D03*
X48134320Y-124300000D03*
X48134320Y-125300000D03*
X48134320Y-126300000D03*
X48134320Y-127300000D03*
D13*
X44259320Y-120000000D03*
X44259320Y-128600000D03*
%TD*%
D12*
%TO.C,J14*%
X48037330Y-89556990D03*
X48037330Y-90556990D03*
X48037330Y-91556990D03*
X48037330Y-92556990D03*
X48037330Y-93556990D03*
X48037330Y-94556990D03*
X48037330Y-95556990D03*
D13*
X44162330Y-88256990D03*
X44162330Y-96856990D03*
%TD*%
%TO.C,J22*%
X84157670Y-123154660D03*
X84157670Y-131754660D03*
D12*
X80282670Y-124454660D03*
X80282670Y-125454660D03*
X80282670Y-126454660D03*
X80282670Y-127454660D03*
X80282670Y-128454660D03*
X80282670Y-129454660D03*
X80282670Y-130454660D03*
%TD*%
D13*
%TO.C,J12*%
X44322330Y-118056990D03*
X44322330Y-109456990D03*
D12*
X48197330Y-116756990D03*
X48197330Y-115756990D03*
X48197330Y-114756990D03*
X48197330Y-113756990D03*
X48197330Y-112756990D03*
X48197330Y-111756990D03*
X48197330Y-110756990D03*
%TD*%
D13*
%TO.C,J13*%
X44242330Y-107456990D03*
X44242330Y-98856990D03*
D12*
X48117330Y-106156990D03*
X48117330Y-105156990D03*
X48117330Y-104156990D03*
X48117330Y-103156990D03*
X48117330Y-102156990D03*
X48117330Y-101156990D03*
X48117330Y-100156990D03*
%TD*%
D10*
%TO.C,J15*%
X45173670Y-79560990D03*
X53773670Y-79560990D03*
D11*
X46473670Y-83435990D03*
X47473670Y-83435990D03*
X48473670Y-83435990D03*
X49473670Y-83435990D03*
X50473670Y-83435990D03*
X51473670Y-83435990D03*
X52473670Y-83435990D03*
%TD*%
D10*
%TO.C,J16*%
X55773670Y-79480990D03*
X64373670Y-79480990D03*
D11*
X57073670Y-83355990D03*
X58073670Y-83355990D03*
X59073670Y-83355990D03*
X60073670Y-83355990D03*
X61073670Y-83355990D03*
X62073670Y-83355990D03*
X63073670Y-83355990D03*
%TD*%
D14*
%TO.C,U8*%
X68405000Y-93400000D03*
X68405000Y-94670000D03*
X68405000Y-95940000D03*
X68405000Y-97210000D03*
X68405000Y-98480000D03*
X68405000Y-99750000D03*
X68405000Y-101020000D03*
X68405000Y-102290000D03*
X68405000Y-103560000D03*
X68405000Y-104830000D03*
X68405000Y-106100000D03*
X68405000Y-107370000D03*
X59105000Y-107370000D03*
X59105000Y-106100000D03*
X59105000Y-104830000D03*
X59105000Y-103560000D03*
X59105000Y-102290000D03*
X59105000Y-101020000D03*
X59105000Y-99750000D03*
X59105000Y-98480000D03*
X59105000Y-97210000D03*
X59105000Y-95940000D03*
X59105000Y-94670000D03*
X59105000Y-93400000D03*
%TD*%
D12*
%TO.C,J21*%
X80186670Y-120110485D03*
X80186670Y-119110485D03*
X80186670Y-118110485D03*
X80186670Y-117110485D03*
X80186670Y-116110485D03*
X80186670Y-115110485D03*
X80186670Y-114110485D03*
D13*
X84061670Y-121410485D03*
X84061670Y-112810485D03*
%TD*%
D12*
%TO.C,J20*%
X80290670Y-109854660D03*
X80290670Y-108854660D03*
X80290670Y-107854660D03*
X80290670Y-106854660D03*
X80290670Y-105854660D03*
X80290670Y-104854660D03*
X80290670Y-103854660D03*
D13*
X84165670Y-111154660D03*
X84165670Y-102554660D03*
%TD*%
D12*
%TO.C,J19*%
X80194670Y-99654660D03*
X80194670Y-98654660D03*
X80194670Y-97654660D03*
X80194670Y-96654660D03*
X80194670Y-95654660D03*
X80194670Y-94654660D03*
X80194670Y-93654660D03*
D13*
X84069670Y-100954660D03*
X84069670Y-92354660D03*
%TD*%
D11*
%TO.C,J18*%
X73576000Y-83331990D03*
X72576000Y-83331990D03*
X71576000Y-83331990D03*
X70576000Y-83331990D03*
X69576000Y-83331990D03*
X68576000Y-83331990D03*
X67576000Y-83331990D03*
D10*
X74876000Y-79456990D03*
X66276000Y-79456990D03*
%TD*%
D11*
%TO.C,J10*%
X66700000Y-132472670D03*
X67700000Y-132472670D03*
X68700000Y-132472670D03*
X69700000Y-132472670D03*
X70700000Y-132472670D03*
X71700000Y-132472670D03*
X72700000Y-132472670D03*
D10*
X65400000Y-136347670D03*
X74000000Y-136347670D03*
%TD*%
D11*
%TO.C,J6*%
X55900000Y-132370340D03*
X56900000Y-132370340D03*
X57900000Y-132370340D03*
X58900000Y-132370340D03*
X59900000Y-132370340D03*
X60900000Y-132370340D03*
X61900000Y-132370340D03*
D10*
X54600000Y-136245340D03*
X63200000Y-136245340D03*
%TD*%
D14*
%TO.C,U9*%
X59120000Y-109320000D03*
X59120000Y-110590000D03*
X59120000Y-111860000D03*
X59120000Y-113130000D03*
X59120000Y-114400000D03*
X59120000Y-115670000D03*
X59120000Y-116940000D03*
X59120000Y-118210000D03*
X59120000Y-119480000D03*
X59120000Y-120750000D03*
X59120000Y-122020000D03*
X59120000Y-123290000D03*
X68420000Y-123290000D03*
X68420000Y-122020000D03*
X68420000Y-120750000D03*
X68420000Y-119480000D03*
X68420000Y-118210000D03*
X68420000Y-116940000D03*
X68420000Y-115670000D03*
X68420000Y-114400000D03*
X68420000Y-113130000D03*
X68420000Y-111860000D03*
X68420000Y-110590000D03*
X68420000Y-109320000D03*
%TD*%
D15*
%TO.C,C43*%
X70504939Y-109320006D03*
X72054939Y-109320006D03*
%TD*%
%TO.C,C42*%
X70504939Y-93400002D03*
X72054939Y-93400002D03*
%TD*%
M02*
