%TF.GenerationSoftware,KiCad,Pcbnew,9.0.0*%
%TF.CreationDate,2025-04-21T19:22:59+08:00*%
%TF.ProjectId,transform,7472616e-7366-46f7-926d-2e6b69636164,rev?*%
%TF.SameCoordinates,Original*%
%TF.FileFunction,Legend,Top*%
%TF.FilePolarity,Positive*%
%FSLAX46Y46*%
G04 Gerber Fmt 4.6, Leading zero omitted, Abs format (unit mm)*
G04 Created by KiCad (PCBNEW 9.0.0) date 2025-04-21 19:22:59*
%MOMM*%
%LPD*%
G01*
G04 APERTURE LIST*
G04 Aperture macros list*
%AMRoundRect*
0 Rectangle with rounded corners*
0 $1 Rounding radius*
0 $2 $3 $4 $5 $6 $7 $8 $9 X,Y pos of 4 corners*
0 Add a 4 corners polygon primitive as box body*
4,1,4,$2,$3,$4,$5,$6,$7,$8,$9,$2,$3,0*
0 Add four circle primitives for the rounded corners*
1,1,$1+$1,$2,$3*
1,1,$1+$1,$4,$5*
1,1,$1+$1,$6,$7*
1,1,$1+$1,$8,$9*
0 Add four rect primitives between the rounded corners*
20,1,$1+$1,$2,$3,$4,$5,0*
20,1,$1+$1,$4,$5,$6,$7,0*
20,1,$1+$1,$6,$7,$8,$9,0*
20,1,$1+$1,$8,$9,$2,$3,0*%
G04 Aperture macros list end*
%ADD10C,0.254000*%
%ADD11C,0.120000*%
%ADD12R,1.200000X1.800000*%
%ADD13R,0.600000X1.550000*%
%ADD14R,1.550000X0.600000*%
%ADD15R,1.800000X1.200000*%
%ADD16RoundRect,0.150000X-0.875000X-0.150000X0.875000X-0.150000X0.875000X0.150000X-0.875000X0.150000X0*%
%ADD17RoundRect,0.225000X-0.225000X-0.250000X0.225000X-0.250000X0.225000X0.250000X-0.225000X0.250000X0*%
G04 APERTURE END LIST*
D10*
%TO.C,J17*%
X76476000Y-82758660D02*
X76476000Y-80558660D01*
X76476000Y-82758660D02*
X77458000Y-82758660D01*
X84481670Y-78358660D02*
X77514670Y-78358660D01*
X85476000Y-82758660D02*
X84496000Y-82758660D01*
X85476000Y-82758660D02*
X85476000Y-80558660D01*
%TO.C,J11*%
X47656990Y-119800000D02*
X45456990Y-119800000D01*
X47656990Y-119800000D02*
X47656990Y-120780000D01*
X43256990Y-120794330D02*
X43256990Y-127761330D01*
X47656990Y-128800000D02*
X47656990Y-127818000D01*
X47656990Y-128800000D02*
X45456990Y-128800000D01*
%TO.C,J14*%
X47560000Y-88056990D02*
X45360000Y-88056990D01*
X47560000Y-88056990D02*
X47560000Y-89036990D01*
X43160000Y-89051320D02*
X43160000Y-96018320D01*
X47560000Y-97056990D02*
X47560000Y-96074990D01*
X47560000Y-97056990D02*
X45360000Y-97056990D01*
%TO.C,J22*%
X80760000Y-122954660D02*
X82960000Y-122954660D01*
X80760000Y-122954660D02*
X80760000Y-123936660D01*
X85160000Y-130960330D02*
X85160000Y-123993330D01*
X80760000Y-131954660D02*
X80760000Y-130974660D01*
X80760000Y-131954660D02*
X82960000Y-131954660D01*
%TO.C,J12*%
X47720000Y-118256990D02*
X45520000Y-118256990D01*
X47720000Y-118256990D02*
X47720000Y-117274990D01*
X43320000Y-110251320D02*
X43320000Y-117218320D01*
X47720000Y-109256990D02*
X47720000Y-110236990D01*
X47720000Y-109256990D02*
X45520000Y-109256990D01*
%TO.C,J13*%
X47640000Y-107656990D02*
X45440000Y-107656990D01*
X47640000Y-107656990D02*
X47640000Y-106674990D01*
X43240000Y-99651320D02*
X43240000Y-106618320D01*
X47640000Y-98656990D02*
X47640000Y-99636990D01*
X47640000Y-98656990D02*
X45440000Y-98656990D01*
%TO.C,J15*%
X44973670Y-82958660D02*
X44973670Y-80758660D01*
X44973670Y-82958660D02*
X45955670Y-82958660D01*
X52979340Y-78558660D02*
X46012340Y-78558660D01*
X53973670Y-82958660D02*
X52993670Y-82958660D01*
X53973670Y-82958660D02*
X53973670Y-80758660D01*
%TO.C,J16*%
X55573670Y-82878660D02*
X55573670Y-80678660D01*
X55573670Y-82878660D02*
X56555670Y-82878660D01*
X63579340Y-78478660D02*
X56612340Y-78478660D01*
X64573670Y-82878660D02*
X63593670Y-82878660D01*
X64573670Y-82878660D02*
X64573670Y-80678660D01*
D11*
%TO.C,U8*%
X59042500Y-92840000D02*
X58702500Y-92370000D01*
X59382500Y-92370000D01*
X59042500Y-92840000D01*
G36*
X59042500Y-92840000D02*
G01*
X58702500Y-92370000D01*
X59382500Y-92370000D01*
X59042500Y-92840000D01*
G37*
X67615000Y-108195000D02*
X67615000Y-107930000D01*
X67615000Y-92575000D02*
X67615000Y-92840000D01*
X63755000Y-108195000D02*
X67615000Y-108195000D01*
X63755000Y-108195000D02*
X59895000Y-108195000D01*
X63755000Y-92575000D02*
X67615000Y-92575000D01*
X63755000Y-92575000D02*
X59895000Y-92575000D01*
X59895000Y-108195000D02*
X59895000Y-107930000D01*
X59895000Y-92575000D02*
X59895000Y-92840000D01*
D10*
%TO.C,J21*%
X80664000Y-121610485D02*
X82864000Y-121610485D01*
X80664000Y-121610485D02*
X80664000Y-120630485D01*
X85064000Y-120616155D02*
X85064000Y-113649155D01*
X80664000Y-112610485D02*
X80664000Y-113592485D01*
X80664000Y-112610485D02*
X82864000Y-112610485D01*
%TO.C,J20*%
X80768000Y-111354660D02*
X82968000Y-111354660D01*
X80768000Y-111354660D02*
X80768000Y-110374660D01*
X85168000Y-110360330D02*
X85168000Y-103393330D01*
X80768000Y-102354660D02*
X80768000Y-103336660D01*
X80768000Y-102354660D02*
X82968000Y-102354660D01*
%TO.C,J19*%
X80672000Y-101154660D02*
X82872000Y-101154660D01*
X80672000Y-101154660D02*
X80672000Y-100174660D01*
X85072000Y-100160330D02*
X85072000Y-93193330D01*
X80672000Y-92154660D02*
X80672000Y-93136660D01*
X80672000Y-92154660D02*
X82872000Y-92154660D01*
%TO.C,J18*%
X75076000Y-82854660D02*
X75076000Y-80654660D01*
X75076000Y-82854660D02*
X74096000Y-82854660D01*
X74081670Y-78454660D02*
X67114670Y-78454660D01*
X66076000Y-82854660D02*
X67058000Y-82854660D01*
X66076000Y-82854660D02*
X66076000Y-80654660D01*
%TO.C,J10*%
X65200000Y-132950000D02*
X65200000Y-135150000D01*
X65200000Y-132950000D02*
X66180000Y-132950000D01*
X66194330Y-137350000D02*
X73161330Y-137350000D01*
X74200000Y-132950000D02*
X73218000Y-132950000D01*
X74200000Y-132950000D02*
X74200000Y-135150000D01*
%TO.C,J6*%
X54400000Y-132847670D02*
X54400000Y-135047670D01*
X54400000Y-132847670D02*
X55380000Y-132847670D01*
X55394330Y-137247670D02*
X62361330Y-137247670D01*
X63400000Y-132847670D02*
X62418000Y-132847670D01*
X63400000Y-132847670D02*
X63400000Y-135047670D01*
D11*
%TO.C,U9*%
X59910000Y-108495000D02*
X59910000Y-108760000D01*
X59910000Y-124115000D02*
X59910000Y-123850000D01*
X63770000Y-108495000D02*
X59910000Y-108495000D01*
X63770000Y-108495000D02*
X67630000Y-108495000D01*
X63770000Y-124115000D02*
X59910000Y-124115000D01*
X63770000Y-124115000D02*
X67630000Y-124115000D01*
X67630000Y-108495000D02*
X67630000Y-108760000D01*
X67630000Y-124115000D02*
X67630000Y-123850000D01*
X59057500Y-108760000D02*
X58717500Y-108290000D01*
X59397500Y-108290000D01*
X59057500Y-108760000D01*
G36*
X59057500Y-108760000D02*
G01*
X58717500Y-108290000D01*
X59397500Y-108290000D01*
X59057500Y-108760000D01*
G37*
%TO.C,C43*%
X69979939Y-110120008D02*
X72579939Y-110120006D01*
X72579939Y-108520004D02*
X69979939Y-108520006D01*
X69979939Y-110120008D02*
G75*
G02*
X69979939Y-108520006I840224J800001D01*
G01*
X72579939Y-108520004D02*
G75*
G02*
X72579939Y-110120006I-840224J-800001D01*
G01*
%TO.C,C42*%
X69979939Y-94200004D02*
X72579939Y-94200002D01*
X72579939Y-92600000D02*
X69979939Y-92600002D01*
X69979939Y-94200004D02*
G75*
G02*
X69979939Y-92600002I840224J800001D01*
G01*
X72579939Y-92600000D02*
G75*
G02*
X72579939Y-94200002I-840224J-800001D01*
G01*
%TD*%
%LPC*%
D12*
%TO.C,J17*%
X76676000Y-79360990D03*
X85276000Y-79360990D03*
D13*
X77976000Y-83235990D03*
X78976000Y-83235990D03*
X79976000Y-83235990D03*
X80976000Y-83235990D03*
X81976000Y-83235990D03*
X82976000Y-83235990D03*
X83976000Y-83235990D03*
%TD*%
D14*
%TO.C,J11*%
X48134320Y-121300000D03*
X48134320Y-122300000D03*
X48134320Y-123300000D03*
X48134320Y-124300000D03*
X48134320Y-125300000D03*
X48134320Y-126300000D03*
X48134320Y-127300000D03*
D15*
X44259320Y-120000000D03*
X44259320Y-128600000D03*
%TD*%
D14*
%TO.C,J14*%
X48037330Y-89556990D03*
X48037330Y-90556990D03*
X48037330Y-91556990D03*
X48037330Y-92556990D03*
X48037330Y-93556990D03*
X48037330Y-94556990D03*
X48037330Y-95556990D03*
D15*
X44162330Y-88256990D03*
X44162330Y-96856990D03*
%TD*%
%TO.C,J22*%
X84157670Y-123154660D03*
X84157670Y-131754660D03*
D14*
X80282670Y-124454660D03*
X80282670Y-125454660D03*
X80282670Y-126454660D03*
X80282670Y-127454660D03*
X80282670Y-128454660D03*
X80282670Y-129454660D03*
X80282670Y-130454660D03*
%TD*%
D15*
%TO.C,J12*%
X44322330Y-118056990D03*
X44322330Y-109456990D03*
D14*
X48197330Y-116756990D03*
X48197330Y-115756990D03*
X48197330Y-114756990D03*
X48197330Y-113756990D03*
X48197330Y-112756990D03*
X48197330Y-111756990D03*
X48197330Y-110756990D03*
%TD*%
D15*
%TO.C,J13*%
X44242330Y-107456990D03*
X44242330Y-98856990D03*
D14*
X48117330Y-106156990D03*
X48117330Y-105156990D03*
X48117330Y-104156990D03*
X48117330Y-103156990D03*
X48117330Y-102156990D03*
X48117330Y-101156990D03*
X48117330Y-100156990D03*
%TD*%
D12*
%TO.C,J15*%
X45173670Y-79560990D03*
X53773670Y-79560990D03*
D13*
X46473670Y-83435990D03*
X47473670Y-83435990D03*
X48473670Y-83435990D03*
X49473670Y-83435990D03*
X50473670Y-83435990D03*
X51473670Y-83435990D03*
X52473670Y-83435990D03*
%TD*%
D12*
%TO.C,J16*%
X55773670Y-79480990D03*
X64373670Y-79480990D03*
D13*
X57073670Y-83355990D03*
X58073670Y-83355990D03*
X59073670Y-83355990D03*
X60073670Y-83355990D03*
X61073670Y-83355990D03*
X62073670Y-83355990D03*
X63073670Y-83355990D03*
%TD*%
D16*
%TO.C,U8*%
X68405000Y-93400000D03*
X68405000Y-94670000D03*
X68405000Y-95940000D03*
X68405000Y-97210000D03*
X68405000Y-98480000D03*
X68405000Y-99750000D03*
X68405000Y-101020000D03*
X68405000Y-102290000D03*
X68405000Y-103560000D03*
X68405000Y-104830000D03*
X68405000Y-106100000D03*
X68405000Y-107370000D03*
X59105000Y-107370000D03*
X59105000Y-106100000D03*
X59105000Y-104830000D03*
X59105000Y-103560000D03*
X59105000Y-102290000D03*
X59105000Y-101020000D03*
X59105000Y-99750000D03*
X59105000Y-98480000D03*
X59105000Y-97210000D03*
X59105000Y-95940000D03*
X59105000Y-94670000D03*
X59105000Y-93400000D03*
%TD*%
D14*
%TO.C,J21*%
X80186670Y-120110485D03*
X80186670Y-119110485D03*
X80186670Y-118110485D03*
X80186670Y-117110485D03*
X80186670Y-116110485D03*
X80186670Y-115110485D03*
X80186670Y-114110485D03*
D15*
X84061670Y-121410485D03*
X84061670Y-112810485D03*
%TD*%
D14*
%TO.C,J20*%
X80290670Y-109854660D03*
X80290670Y-108854660D03*
X80290670Y-107854660D03*
X80290670Y-106854660D03*
X80290670Y-105854660D03*
X80290670Y-104854660D03*
X80290670Y-103854660D03*
D15*
X84165670Y-111154660D03*
X84165670Y-102554660D03*
%TD*%
D14*
%TO.C,J19*%
X80194670Y-99654660D03*
X80194670Y-98654660D03*
X80194670Y-97654660D03*
X80194670Y-96654660D03*
X80194670Y-95654660D03*
X80194670Y-94654660D03*
X80194670Y-93654660D03*
D15*
X84069670Y-100954660D03*
X84069670Y-92354660D03*
%TD*%
D13*
%TO.C,J18*%
X73576000Y-83331990D03*
X72576000Y-83331990D03*
X71576000Y-83331990D03*
X70576000Y-83331990D03*
X69576000Y-83331990D03*
X68576000Y-83331990D03*
X67576000Y-83331990D03*
D12*
X74876000Y-79456990D03*
X66276000Y-79456990D03*
%TD*%
D13*
%TO.C,J10*%
X66700000Y-132472670D03*
X67700000Y-132472670D03*
X68700000Y-132472670D03*
X69700000Y-132472670D03*
X70700000Y-132472670D03*
X71700000Y-132472670D03*
X72700000Y-132472670D03*
D12*
X65400000Y-136347670D03*
X74000000Y-136347670D03*
%TD*%
D13*
%TO.C,J6*%
X55900000Y-132370340D03*
X56900000Y-132370340D03*
X57900000Y-132370340D03*
X58900000Y-132370340D03*
X59900000Y-132370340D03*
X60900000Y-132370340D03*
X61900000Y-132370340D03*
D12*
X54600000Y-136245340D03*
X63200000Y-136245340D03*
%TD*%
D16*
%TO.C,U9*%
X59120000Y-109320000D03*
X59120000Y-110590000D03*
X59120000Y-111860000D03*
X59120000Y-113130000D03*
X59120000Y-114400000D03*
X59120000Y-115670000D03*
X59120000Y-116940000D03*
X59120000Y-118210000D03*
X59120000Y-119480000D03*
X59120000Y-120750000D03*
X59120000Y-122020000D03*
X59120000Y-123290000D03*
X68420000Y-123290000D03*
X68420000Y-122020000D03*
X68420000Y-120750000D03*
X68420000Y-119480000D03*
X68420000Y-118210000D03*
X68420000Y-116940000D03*
X68420000Y-115670000D03*
X68420000Y-114400000D03*
X68420000Y-113130000D03*
X68420000Y-111860000D03*
X68420000Y-110590000D03*
X68420000Y-109320000D03*
%TD*%
D17*
%TO.C,C43*%
X70504939Y-109320006D03*
X72054939Y-109320006D03*
%TD*%
%TO.C,C42*%
X70504939Y-93400002D03*
X72054939Y-93400002D03*
%TD*%
%LPD*%
M02*
