%TF.GenerationSoftware,KiCad,Pcbnew,9.0.0*%
%TF.CreationDate,2025-03-14T15:54:35+08:00*%
%TF.ProjectId,xypad,78797061-642e-46b6-9963-61645f706362,rev?*%
%TF.SameCoordinates,Original*%
%TF.FileFunction,Copper,L1,Top*%
%TF.FilePolarity,Positive*%
%FSLAX46Y46*%
G04 Gerber Fmt 4.6, Leading zero omitted, Abs format (unit mm)*
G04 Created by KiCad (PCBNEW 9.0.0) date 2025-03-14 15:54:35*
%MOMM*%
%LPD*%
G01*
G04 APERTURE LIST*
G04 Aperture macros list*
%AMRotRect*
0 Rectangle, with rotation*
0 The origin of the aperture is its center*
0 $1 length*
0 $2 width*
0 $3 Rotation angle, in degrees counterclockwise*
0 Add horizontal line*
21,1,$1,$2,0,0,$3*%
%AMFreePoly0*
4,1,4,1.500000,-1.646447,-3.500000,-1.646447,1.500000,3.353553,1.500000,-1.646447,1.500000,-1.646447,$1*%
G04 Aperture macros list end*
%TA.AperFunction,SMDPad,CuDef*%
%ADD10FreePoly0,135.000000*%
%TD*%
%TA.AperFunction,SMDPad,CuDef*%
%ADD11RotRect,5.000000X5.000000X315.000000*%
%TD*%
%TA.AperFunction,SMDPad,CuDef*%
%ADD12FreePoly0,315.000000*%
%TD*%
%TA.AperFunction,SMDPad,CuDef*%
%ADD13RotRect,5.000000X5.000000X135.000000*%
%TD*%
%TA.AperFunction,SMDPad,CuDef*%
%ADD14FreePoly0,45.000000*%
%TD*%
%TA.AperFunction,SMDPad,CuDef*%
%ADD15FreePoly0,225.000000*%
%TD*%
%TA.AperFunction,ViaPad*%
%ADD16C,0.600000*%
%TD*%
%TA.AperFunction,Conductor*%
%ADD17C,0.127000*%
%TD*%
G04 APERTURE END LIST*
D10*
%TO.P,U2,1,1*%
%TO.N,/ELE0*%
X157301010Y-83180489D03*
D11*
X157404563Y-45600275D03*
X157404563Y-53378450D03*
X157404563Y-61156625D03*
X157404563Y-68934799D03*
X157404563Y-76712974D03*
D12*
X157508116Y-39132762D03*
D10*
%TO.P,U2,2,2*%
%TO.N,/ELE1*%
X165079184Y-83180489D03*
D11*
X165182738Y-45600275D03*
X165182738Y-61156625D03*
D13*
X165182738Y-76712974D03*
D11*
X165182739Y-53378449D03*
X165182739Y-68934800D03*
D12*
X165286291Y-39132761D03*
D10*
%TO.P,U2,3,3*%
%TO.N,/ELE2*%
X172857359Y-83180489D03*
D11*
X172960912Y-45600275D03*
X172960912Y-53378450D03*
X172960912Y-61156625D03*
D13*
X172960912Y-68934799D03*
X172960912Y-76712974D03*
D12*
X173064465Y-39132762D03*
D10*
%TO.P,U2,4,4*%
%TO.N,/ELE3*%
X180635533Y-83180489D03*
D11*
X180739087Y-45600275D03*
X180739087Y-53378450D03*
D13*
X180739087Y-61156625D03*
X180739087Y-68934799D03*
X180739087Y-76712974D03*
D12*
X180842641Y-39132761D03*
D10*
%TO.P,U2,5,5*%
%TO.N,/LED0{slash}ELE4*%
X188413708Y-83180489D03*
D11*
X188517262Y-45600275D03*
D13*
X188517262Y-53378450D03*
X188517262Y-61156625D03*
X188517262Y-68934799D03*
X188517262Y-76712974D03*
D12*
X188620815Y-39132761D03*
D10*
%TO.P,U2,6,6*%
%TO.N,/LED1{slash}ELE5*%
X196191883Y-83180489D03*
D13*
X196295436Y-45600275D03*
X196295436Y-53378450D03*
X196295436Y-61156625D03*
X196295436Y-68934799D03*
X196295436Y-76712974D03*
D12*
X196398990Y-39132761D03*
D14*
%TO.P,U2,7,7*%
%TO.N,/LED2{slash}ELE6*%
X154826136Y-80498507D03*
D13*
X161293651Y-80602061D03*
X169071825Y-80602061D03*
X176850000Y-80602061D03*
X184628174Y-80602061D03*
X192406349Y-80602061D03*
D15*
X198873864Y-80705615D03*
D14*
%TO.P,U2,8,8*%
%TO.N,/LED3{slash}ELE7*%
X154826136Y-72720333D03*
D11*
X161293651Y-72823887D03*
D13*
X169071825Y-72823887D03*
X176850000Y-72823887D03*
X184628174Y-72823887D03*
X192406349Y-72823887D03*
D15*
X198873864Y-72927440D03*
D14*
%TO.P,U2,9,9*%
%TO.N,/LED4{slash}ELE8*%
X154826136Y-64942158D03*
D11*
X161293651Y-65045712D03*
X169071825Y-65045712D03*
D13*
X176850000Y-65045712D03*
X184628174Y-65045712D03*
X192406349Y-65045712D03*
D15*
X198873864Y-65149266D03*
D14*
%TO.P,U2,10,10*%
%TO.N,/LED5{slash}ELE9*%
X154826136Y-57163984D03*
D11*
X161293651Y-57267537D03*
X169071825Y-57267537D03*
X176849999Y-57267538D03*
D13*
X184628174Y-57267537D03*
X192406349Y-57267537D03*
D15*
X198873864Y-57371091D03*
D14*
%TO.P,U2,11,11*%
%TO.N,/LED6{slash}ELE10*%
X154826136Y-49385809D03*
D11*
X161293651Y-49489363D03*
X169071825Y-49489363D03*
X176850000Y-49489363D03*
X184628174Y-49489363D03*
D13*
X192406349Y-49489363D03*
D15*
X198873864Y-49592916D03*
D14*
%TO.P,U2,12,12*%
%TO.N,/LED7{slash}ELE11*%
X154826136Y-41607635D03*
D11*
X161293650Y-41711189D03*
X169071825Y-41711188D03*
X176849999Y-41711189D03*
X184628174Y-41711188D03*
X192406350Y-41711189D03*
D15*
X198873864Y-41814742D03*
%TD*%
D16*
%TO.N,/LED0{slash}ELE4*%
X188517262Y-79100000D03*
X188517262Y-74400000D03*
%TO.N,/LED2{slash}ELE6*%
X182200000Y-80602061D03*
X179200000Y-80602061D03*
%TO.N,/LED5{slash}ELE9*%
X179600000Y-57400000D03*
X182100000Y-57400000D03*
%TO.N,/LED4{slash}ELE8*%
X182200000Y-65000000D03*
X176898456Y-65094168D03*
X179200000Y-65094168D03*
%TO.N,/LED6{slash}ELE10*%
X192406349Y-49489363D03*
%TO.N,/LED1{slash}ELE5*%
X196295436Y-66600000D03*
X196295436Y-48000000D03*
X196295436Y-56000000D03*
X196295436Y-51000000D03*
X196295436Y-63600000D03*
X196295436Y-58800000D03*
X196398990Y-39132761D03*
X196295436Y-53378450D03*
X196295436Y-76712974D03*
X196398990Y-43400000D03*
X196295436Y-71400000D03*
X196191883Y-83180489D03*
%TO.N,/ELE2*%
X172960912Y-53378450D03*
X172857359Y-83180489D03*
X172960912Y-59000000D03*
X172960912Y-76712974D03*
X172960912Y-68934799D03*
X172960912Y-45600275D03*
X173200000Y-63600000D03*
X173064465Y-39132762D03*
%TO.N,/ELE3*%
X180739087Y-50800000D03*
X180842641Y-39132761D03*
X180739087Y-45600275D03*
%TO.N,/ELE1*%
X165182738Y-66600000D03*
X165200000Y-71200000D03*
X165079184Y-83180489D03*
X165182738Y-45600275D03*
X165286291Y-39132761D03*
X165182738Y-61156625D03*
X165182738Y-76712974D03*
X165182739Y-53378449D03*
%TO.N,/LED7{slash}ELE11*%
X176849999Y-41711189D03*
%TO.N,/ELE0*%
X157508116Y-39132762D03*
X157404563Y-76712974D03*
X157404563Y-53378450D03*
X157404563Y-61156625D03*
X157301010Y-83180489D03*
X157404563Y-68934799D03*
X157404563Y-45600275D03*
%TO.N,/LED3{slash}ELE7*%
X175600000Y-72800000D03*
X178200000Y-72000000D03*
X183400000Y-74000000D03*
%TO.N,/LED0{slash}ELE4*%
X188413708Y-83180489D03*
X188620815Y-39132761D03*
X188600000Y-51200000D03*
X188517262Y-63600000D03*
X188517262Y-58800000D03*
X188517262Y-66600000D03*
X188517262Y-71400000D03*
X188517262Y-45600275D03*
X188517262Y-55600000D03*
%TD*%
D17*
%TO.N,/LED5{slash}ELE9*%
X192406349Y-57267537D02*
X184628174Y-57267537D01*
X198770310Y-57267537D02*
X192406349Y-57267537D01*
X198873864Y-57371091D02*
X198770310Y-57267537D01*
X169071825Y-57267537D02*
X161293651Y-57267537D01*
X161293651Y-57267537D02*
X154929689Y-57267537D01*
X154929689Y-57267537D02*
X154826136Y-57163984D01*
X176849999Y-57267538D02*
X169071825Y-57267537D01*
%TO.N,/LED4{slash}ELE8*%
X184628174Y-65045712D02*
X187400000Y-65045712D01*
X192406349Y-65045712D02*
X198770310Y-65045712D01*
X198770310Y-65045712D02*
X198873864Y-65149266D01*
X187400000Y-65045712D02*
X192406349Y-65045712D01*
X161293651Y-65045712D02*
X154929690Y-65045712D01*
X154929690Y-65045712D02*
X154826136Y-64942158D01*
X169071825Y-65045712D02*
X176850000Y-65045712D01*
X169071825Y-65045712D02*
X161293651Y-65045712D01*
X155018743Y-65134765D02*
X154826136Y-64942158D01*
%TO.N,/LED6{slash}ELE10*%
X155018743Y-49578416D02*
X154826136Y-49385809D01*
X198859364Y-49578416D02*
X155018743Y-49578416D01*
X198873864Y-49592916D02*
X198859364Y-49578416D01*
%TO.N,/ELE3*%
X180739087Y-83076935D02*
X180739087Y-76712974D01*
X180739087Y-68934799D02*
X180739087Y-61156625D01*
X180739087Y-76712974D02*
X180739087Y-68934799D01*
X180635533Y-83180489D02*
X180739087Y-83076935D01*
X180739087Y-61156625D02*
X180739087Y-53378450D01*
%TO.N,/LED2{slash}ELE6*%
X169071825Y-80602061D02*
X176850000Y-80602061D01*
X192406349Y-80602061D02*
X198770310Y-80602061D01*
X154929690Y-80602061D02*
X161293651Y-80602061D01*
X184628174Y-80602061D02*
X192406349Y-80602061D01*
X161293651Y-80602061D02*
X169071825Y-80602061D01*
X154826136Y-80498507D02*
X154929690Y-80602061D01*
X198770310Y-80602061D02*
X198873864Y-80705615D01*
X155013744Y-80686115D02*
X154826136Y-80498507D01*
%TO.N,/LED7{slash}ELE11*%
X154845637Y-41627136D02*
X198686258Y-41627136D01*
X198686258Y-41627136D02*
X198873864Y-41814742D01*
X154826136Y-41607635D02*
X154845637Y-41627136D01*
%TO.N,/LED3{slash}ELE7*%
X175576113Y-72823887D02*
X175600000Y-72800000D01*
X198770311Y-72823887D02*
X192406349Y-72823887D01*
X198873864Y-72927440D02*
X198770311Y-72823887D01*
X157272559Y-72720333D02*
X154826136Y-72720333D01*
X161293651Y-72823887D02*
X157376113Y-72823887D01*
X169071825Y-72823887D02*
X161293651Y-72823887D01*
X154826136Y-72720333D02*
X154929690Y-72823887D01*
X157376113Y-72823887D02*
X157272559Y-72720333D01*
X169071825Y-72823887D02*
X175576113Y-72823887D01*
X192406349Y-72823887D02*
X184628174Y-72823887D01*
%TD*%
M02*
