M48
; DRILL file {KiCad 9.0.0} date 2025-03-14T15:54:35+0800
; FORMAT={-:-/ absolute / inch / decimal}
; #@! TF.CreationDate,2025-03-14T15:54:35+08:00
; #@! TF.GenerationSoftware,Kicad,Pcbnew,9.0.0
; #@! TF.FileFunction,Plated,1,2,PTH
FMAT,2
INCH
; #@! TA.AperFunction,Plated,PTH,ViaDrill
T1C0.0118
%
G90
G05
T1
X6.193Y-3.2748
X6.197Y-1.7953
X6.197Y-2.1015
X6.197Y-2.4077
X6.197Y-2.714
X6.197Y-3.0202
X6.2011Y-1.5407
X6.4992Y-3.2748
X6.5033Y-1.7953
X6.5033Y-2.4077
X6.5033Y-2.622
X6.5033Y-3.0202
X6.5033Y-2.1015
X6.5039Y-2.8031
X6.5073Y-1.5407
X6.8054Y-3.2748
X6.8095Y-1.7953
X6.8095Y-2.1015
X6.8095Y-2.3228
X6.8095Y-2.714
X6.8095Y-3.0202
X6.8136Y-1.5407
X6.8189Y-2.5039
X6.9134Y-2.8661
X6.9626Y-1.6422
X6.9645Y-2.5628
X7.0157Y-2.8346
X7.0551Y-2.5628
X7.0551Y-3.1733
X7.0709Y-2.2598
X7.1157Y-1.7953
X7.1157Y-2.0
X7.1198Y-1.5407
X7.1693Y-2.2598
X7.1732Y-2.5591
X7.1732Y-3.1733
X7.2205Y-2.9134
X7.4179Y-3.2748
X7.4219Y-1.7953
X7.4219Y-2.189
X7.4219Y-2.315
X7.4219Y-2.5039
X7.4219Y-2.622
X7.4219Y-2.811
X7.4219Y-2.9291
X7.4219Y-3.1142
X7.4252Y-2.0157
X7.426Y-1.5407
X7.5751Y-1.9484
X7.7241Y-3.2748
X7.7282Y-1.8898
X7.7282Y-2.0079
X7.7282Y-2.1015
X7.7282Y-2.2047
X7.7282Y-2.315
X7.7282Y-2.5039
X7.7282Y-2.622
X7.7282Y-2.811
X7.7282Y-3.0202
X7.7322Y-1.5407
X7.7322Y-1.7087
M30
