%TF.GenerationSoftware,KiCad,Pcbnew,9.0.0*%
%TF.CreationDate,2025-03-14T15:54:35+08:00*%
%TF.ProjectId,xypad,78797061-642e-46b6-9963-61645f706362,rev?*%
%TF.SameCoordinates,Original*%
%TF.FileFunction,Soldermask,Top*%
%TF.FilePolarity,Negative*%
%FSLAX46Y46*%
G04 Gerber Fmt 4.6, Leading zero omitted, Abs format (unit mm)*
G04 Created by KiCad (PCBNEW 9.0.0) date 2025-03-14 15:54:35*
%MOMM*%
%LPD*%
G01*
G04 APERTURE LIST*
G04 Aperture macros list*
%AMRotRect*
0 Rectangle, with rotation*
0 The origin of the aperture is its center*
0 $1 length*
0 $2 width*
0 $3 Rotation angle, in degrees counterclockwise*
0 Add horizontal line*
21,1,$1,$2,0,0,$3*%
%AMFreePoly0*
4,1,4,1.500000,-1.646447,-3.500000,-1.646447,1.500000,3.353553,1.500000,-1.646447,1.500000,-1.646447,$1*%
G04 Aperture macros list end*
%ADD10FreePoly0,135.000000*%
%ADD11RotRect,5.000000X5.000000X315.000000*%
%ADD12FreePoly0,315.000000*%
%ADD13RotRect,5.000000X5.000000X135.000000*%
%ADD14FreePoly0,45.000000*%
%ADD15FreePoly0,225.000000*%
G04 APERTURE END LIST*
D10*
%TO.C,U2*%
X157301010Y-83180489D03*
D11*
X157404563Y-45600275D03*
X157404563Y-53378450D03*
X157404563Y-61156625D03*
X157404563Y-68934799D03*
X157404563Y-76712974D03*
D12*
X157508116Y-39132762D03*
D10*
X165079184Y-83180489D03*
D11*
X165182738Y-45600275D03*
X165182738Y-61156625D03*
D13*
X165182738Y-76712974D03*
D11*
X165182739Y-53378449D03*
X165182739Y-68934800D03*
D12*
X165286291Y-39132761D03*
D10*
X172857359Y-83180489D03*
D11*
X172960912Y-45600275D03*
X172960912Y-53378450D03*
X172960912Y-61156625D03*
D13*
X172960912Y-68934799D03*
X172960912Y-76712974D03*
D12*
X173064465Y-39132762D03*
D10*
X180635533Y-83180489D03*
D11*
X180739087Y-45600275D03*
X180739087Y-53378450D03*
D13*
X180739087Y-61156625D03*
X180739087Y-68934799D03*
X180739087Y-76712974D03*
D12*
X180842641Y-39132761D03*
D10*
X188413708Y-83180489D03*
D11*
X188517262Y-45600275D03*
D13*
X188517262Y-53378450D03*
X188517262Y-61156625D03*
X188517262Y-68934799D03*
X188517262Y-76712974D03*
D12*
X188620815Y-39132761D03*
D10*
X196191883Y-83180489D03*
D13*
X196295436Y-45600275D03*
X196295436Y-53378450D03*
X196295436Y-61156625D03*
X196295436Y-68934799D03*
X196295436Y-76712974D03*
D12*
X196398990Y-39132761D03*
D14*
X154826136Y-80498507D03*
D13*
X161293651Y-80602061D03*
X169071825Y-80602061D03*
X176850000Y-80602061D03*
X184628174Y-80602061D03*
X192406349Y-80602061D03*
D15*
X198873864Y-80705615D03*
D14*
X154826136Y-72720333D03*
D11*
X161293651Y-72823887D03*
D13*
X169071825Y-72823887D03*
X176850000Y-72823887D03*
X184628174Y-72823887D03*
X192406349Y-72823887D03*
D15*
X198873864Y-72927440D03*
D14*
X154826136Y-64942158D03*
D11*
X161293651Y-65045712D03*
X169071825Y-65045712D03*
D13*
X176850000Y-65045712D03*
X184628174Y-65045712D03*
X192406349Y-65045712D03*
D15*
X198873864Y-65149266D03*
D14*
X154826136Y-57163984D03*
D11*
X161293651Y-57267537D03*
X169071825Y-57267537D03*
X176849999Y-57267538D03*
D13*
X184628174Y-57267537D03*
X192406349Y-57267537D03*
D15*
X198873864Y-57371091D03*
D14*
X154826136Y-49385809D03*
D11*
X161293651Y-49489363D03*
X169071825Y-49489363D03*
X176850000Y-49489363D03*
X184628174Y-49489363D03*
D13*
X192406349Y-49489363D03*
D15*
X198873864Y-49592916D03*
D14*
X154826136Y-41607635D03*
D11*
X161293650Y-41711189D03*
X169071825Y-41711188D03*
X176849999Y-41711189D03*
X184628174Y-41711188D03*
X192406350Y-41711189D03*
D15*
X198873864Y-41814742D03*
%TD*%
M02*
