%TF.GenerationSoftware,KiCad,Pcbnew,9.0.0*%
%TF.CreationDate,2025-03-14T15:54:35+08:00*%
%TF.ProjectId,xypad,78797061-642e-46b6-9963-61645f706362,rev?*%
%TF.SameCoordinates,Original*%
%TF.FileFunction,Legend,Bot*%
%TF.FilePolarity,Positive*%
%FSLAX46Y46*%
G04 Gerber Fmt 4.6, Leading zero omitted, Abs format (unit mm)*
G04 Created by KiCad (PCBNEW 9.0.0) date 2025-03-14 15:54:35*
%MOMM*%
%LPD*%
G01*
G04 APERTURE LIST*
G04 Aperture macros list*
%AMRoundRect*
0 Rectangle with rounded corners*
0 $1 Rounding radius*
0 $2 $3 $4 $5 $6 $7 $8 $9 X,Y pos of 4 corners*
0 Add a 4 corners polygon primitive as box body*
4,1,4,$2,$3,$4,$5,$6,$7,$8,$9,$2,$3,0*
0 Add four circle primitives for the rounded corners*
1,1,$1+$1,$2,$3*
1,1,$1+$1,$4,$5*
1,1,$1+$1,$6,$7*
1,1,$1+$1,$8,$9*
0 Add four rect primitives between the rounded corners*
20,1,$1+$1,$2,$3,$4,$5,0*
20,1,$1+$1,$4,$5,$6,$7,0*
20,1,$1+$1,$6,$7,$8,$9,0*
20,1,$1+$1,$8,$9,$2,$3,0*%
%AMFreePoly0*
4,1,14,0.450784,0.088284,0.462500,0.060000,0.462500,0.036569,0.450784,0.008285,0.354215,-0.088284,0.325931,-0.100000,-0.422500,-0.100000,-0.450784,-0.088284,-0.462500,-0.060000,-0.462500,0.060000,-0.450784,0.088284,-0.422500,0.100000,0.422500,0.100000,0.450784,0.088284,0.450784,0.088284,$1*%
%AMFreePoly1*
4,1,14,0.354215,0.088284,0.450784,-0.008285,0.462500,-0.036569,0.462500,-0.060000,0.450784,-0.088284,0.422500,-0.100000,-0.422500,-0.100000,-0.450784,-0.088284,-0.462500,-0.060000,-0.462500,0.060000,-0.450784,0.088284,-0.422500,0.100000,0.325931,0.100000,0.354215,0.088284,0.354215,0.088284,$1*%
%AMFreePoly2*
4,1,14,0.088284,0.450784,0.100000,0.422500,0.100000,-0.422500,0.088284,-0.450784,0.060000,-0.462500,0.036569,-0.462500,0.008285,-0.450784,-0.088284,-0.354215,-0.100000,-0.325931,-0.100000,0.422500,-0.088284,0.450784,-0.060000,0.462500,0.060000,0.462500,0.088284,0.450784,0.088284,0.450784,$1*%
%AMFreePoly3*
4,1,14,0.088284,0.450784,0.100000,0.422500,0.100000,-0.325931,0.088284,-0.354215,-0.008285,-0.450784,-0.036569,-0.462500,-0.060000,-0.462500,-0.088284,-0.450784,-0.100000,-0.422500,-0.100000,0.422500,-0.088284,0.450784,-0.060000,0.462500,0.060000,0.462500,0.088284,0.450784,0.088284,0.450784,$1*%
%AMFreePoly4*
4,1,14,0.450784,0.088284,0.462500,0.060000,0.462500,-0.060000,0.450784,-0.088284,0.422500,-0.100000,-0.422500,-0.100000,-0.450784,-0.088284,-0.462500,-0.060000,-0.462500,-0.036569,-0.450784,-0.008285,-0.354215,0.088284,-0.325931,0.100000,0.422500,0.100000,0.450784,0.088284,0.450784,0.088284,$1*%
%AMFreePoly5*
4,1,14,0.450784,0.088284,0.462500,0.060000,0.462500,-0.060000,0.450784,-0.088284,0.422500,-0.100000,-0.325931,-0.100000,-0.354215,-0.088284,-0.450784,0.008285,-0.462500,0.036569,-0.462500,0.060000,-0.450784,0.088284,-0.422500,0.100000,0.422500,0.100000,0.450784,0.088284,0.450784,0.088284,$1*%
%AMFreePoly6*
4,1,14,-0.008285,0.450784,0.088284,0.354215,0.100000,0.325931,0.100000,-0.422500,0.088284,-0.450784,0.060000,-0.462500,-0.060000,-0.462500,-0.088284,-0.450784,-0.100000,-0.422500,-0.100000,0.422500,-0.088284,0.450784,-0.060000,0.462500,-0.036569,0.462500,-0.008285,0.450784,-0.008285,0.450784,$1*%
%AMFreePoly7*
4,1,14,0.088284,0.450784,0.100000,0.422500,0.100000,-0.422500,0.088284,-0.450784,0.060000,-0.462500,-0.060000,-0.462500,-0.088284,-0.450784,-0.100000,-0.422500,-0.100000,0.325931,-0.088284,0.354215,0.008285,0.450784,0.036569,0.462500,0.060000,0.462500,0.088284,0.450784,0.088284,0.450784,$1*%
G04 Aperture macros list end*
%ADD10C,0.254000*%
%ADD11C,0.120000*%
%ADD12C,0.200000*%
%ADD13C,0.100000*%
%ADD14C,3.200000*%
%ADD15RoundRect,0.250000X0.262500X0.450000X-0.262500X0.450000X-0.262500X-0.450000X0.262500X-0.450000X0*%
%ADD16R,0.600000X1.550000*%
%ADD17R,1.200000X1.800000*%
%ADD18FreePoly0,180.000000*%
%ADD19RoundRect,0.050000X0.412500X0.050000X-0.412500X0.050000X-0.412500X-0.050000X0.412500X-0.050000X0*%
%ADD20FreePoly1,180.000000*%
%ADD21FreePoly2,180.000000*%
%ADD22RoundRect,0.050000X0.050000X0.412500X-0.050000X0.412500X-0.050000X-0.412500X0.050000X-0.412500X0*%
%ADD23FreePoly3,180.000000*%
%ADD24FreePoly4,180.000000*%
%ADD25FreePoly5,180.000000*%
%ADD26FreePoly6,180.000000*%
%ADD27FreePoly7,180.000000*%
%ADD28RoundRect,0.250000X-0.250000X-0.475000X0.250000X-0.475000X0.250000X0.475000X-0.250000X0.475000X0*%
%ADD29RoundRect,0.250000X0.475000X-0.250000X0.475000X0.250000X-0.475000X0.250000X-0.475000X-0.250000X0*%
G04 APERTURE END LIST*
D10*
X182970445Y-71082212D02*
X182970445Y-71989355D01*
X182970445Y-71989355D02*
X183030922Y-72170783D01*
X183030922Y-72170783D02*
X183151874Y-72291736D01*
X183151874Y-72291736D02*
X183333303Y-72352212D01*
X183333303Y-72352212D02*
X183454255Y-72352212D01*
X182426160Y-71203164D02*
X182365684Y-71142688D01*
X182365684Y-71142688D02*
X182244731Y-71082212D01*
X182244731Y-71082212D02*
X181942350Y-71082212D01*
X181942350Y-71082212D02*
X181821398Y-71142688D01*
X181821398Y-71142688D02*
X181760922Y-71203164D01*
X181760922Y-71203164D02*
X181700445Y-71324116D01*
X181700445Y-71324116D02*
X181700445Y-71445069D01*
X181700445Y-71445069D02*
X181760922Y-71626497D01*
X181760922Y-71626497D02*
X182486636Y-72352212D01*
X182486636Y-72352212D02*
X181700445Y-72352212D01*
D11*
%TO.C,R3*%
X178790894Y-65810000D02*
X178790894Y-67810000D01*
X178790894Y-67810000D02*
X182190894Y-67810000D01*
X182190894Y-65810000D02*
X178790894Y-65810000D01*
X182190894Y-67810000D02*
X182190894Y-65810000D01*
D12*
%TO.C,J2*%
X179547113Y-70102894D02*
X180347113Y-70102894D01*
X179547113Y-72465894D02*
X179547113Y-70102894D01*
D13*
X184047113Y-68565894D02*
X184047113Y-68565894D01*
X184047113Y-68665894D02*
X184047113Y-68665894D01*
D12*
X185547113Y-70102894D02*
X184747113Y-70102894D01*
X185547113Y-72465894D02*
X185547113Y-70102894D01*
D13*
X184047113Y-68565894D02*
G75*
G02*
X184047113Y-68665894I0J-50000D01*
G01*
X184047113Y-68665894D02*
G75*
G02*
X184047113Y-68565894I0J50000D01*
G01*
D11*
%TO.C,U1*%
X175290000Y-59490000D02*
X175290000Y-59940000D01*
X175290000Y-62710000D02*
X175290000Y-62260000D01*
X175740000Y-59490000D02*
X175290000Y-59490000D01*
X175740000Y-62710000D02*
X175290000Y-62710000D01*
X178060000Y-59490000D02*
X178210000Y-59490000D01*
X178060000Y-62710000D02*
X178510000Y-62710000D01*
X178510000Y-59940000D02*
X178510000Y-59730000D01*
X178510000Y-62710000D02*
X178510000Y-62260000D01*
X178510000Y-59490000D02*
X178270000Y-59160000D01*
X178750000Y-59160000D01*
X178510000Y-59490000D01*
G36*
X178510000Y-59490000D02*
G01*
X178270000Y-59160000D01*
X178750000Y-59160000D01*
X178510000Y-59490000D01*
G37*
%TO.C,C2*%
X179660000Y-63700000D02*
X182660000Y-63700000D01*
X182660000Y-61700000D02*
X179660000Y-61700000D01*
X179660000Y-63700000D02*
G75*
G02*
X179660000Y-61700000I1122254J1000000D01*
G01*
X182660000Y-61700000D02*
G75*
G02*
X182660000Y-63700000I-1122254J-1000000D01*
G01*
%TO.C,C1*%
X184920000Y-60190894D02*
X184920000Y-57190894D01*
X182920000Y-57190894D02*
X182920000Y-60190894D01*
X184920000Y-60190894D02*
G75*
G02*
X182920000Y-60190894I-1000000J1122254D01*
G01*
X182920000Y-57190894D02*
G75*
G02*
X184920000Y-57190894I1000000J-1122254D01*
G01*
%TD*%
%LPC*%
D14*
%TO.C,H4*%
X201875000Y-86075000D03*
%TD*%
%TO.C,H3*%
X151875000Y-86075000D03*
%TD*%
%TO.C,H2*%
X201875000Y-36075000D03*
%TD*%
%TO.C,H1*%
X151875000Y-36075000D03*
%TD*%
D15*
%TO.C,R3*%
X181403394Y-66810000D03*
X179578394Y-66810000D03*
%TD*%
D16*
%TO.C,J2*%
X184047113Y-69778894D03*
X183047113Y-69778894D03*
X182047113Y-69778894D03*
X181047113Y-69778894D03*
D17*
X185347113Y-73653894D03*
X179747113Y-73653894D03*
%TD*%
D18*
%TO.C,U1*%
X178287500Y-60300000D03*
D19*
X178287500Y-60700000D03*
X178287500Y-61100000D03*
X178287500Y-61500000D03*
D20*
X178287500Y-61900000D03*
D21*
X177700000Y-62487500D03*
D22*
X177300000Y-62487500D03*
X176900000Y-62487500D03*
X176500000Y-62487500D03*
D23*
X176100000Y-62487500D03*
D24*
X175512500Y-61900000D03*
D19*
X175512500Y-61500000D03*
X175512500Y-61100000D03*
X175512500Y-60700000D03*
D25*
X175512500Y-60300000D03*
D26*
X176100000Y-59712500D03*
D22*
X176500000Y-59712500D03*
X176900000Y-59712500D03*
X177300000Y-59712500D03*
D27*
X177700000Y-59712500D03*
%TD*%
D28*
%TO.C,C2*%
X180210001Y-62700000D03*
X182109999Y-62700000D03*
%TD*%
D29*
%TO.C,C1*%
X183920000Y-59640893D03*
X183920000Y-57740895D03*
%TD*%
%LPD*%
M02*
