%TF.GenerationSoftware,KiCad,Pcbnew,9.0.0*%
%TF.CreationDate,2025-04-11T20:43:28+08:00*%
%TF.ProjectId,wgr,7767722e-6b69-4636-9164-5f7063625858,rev?*%
%TF.SameCoordinates,Original*%
%TF.FileFunction,Legend,Bot*%
%TF.FilePolarity,Positive*%
%FSLAX46Y46*%
G04 Gerber Fmt 4.6, Leading zero omitted, Abs format (unit mm)*
G04 Created by KiCad (PCBNEW 9.0.0) date 2025-04-11 20:43:28*
%MOMM*%
%LPD*%
G01*
G04 APERTURE LIST*
G04 Aperture macros list*
%AMRoundRect*
0 Rectangle with rounded corners*
0 $1 Rounding radius*
0 $2 $3 $4 $5 $6 $7 $8 $9 X,Y pos of 4 corners*
0 Add a 4 corners polygon primitive as box body*
4,1,4,$2,$3,$4,$5,$6,$7,$8,$9,$2,$3,0*
0 Add four circle primitives for the rounded corners*
1,1,$1+$1,$2,$3*
1,1,$1+$1,$4,$5*
1,1,$1+$1,$6,$7*
1,1,$1+$1,$8,$9*
0 Add four rect primitives between the rounded corners*
20,1,$1+$1,$2,$3,$4,$5,0*
20,1,$1+$1,$4,$5,$6,$7,0*
20,1,$1+$1,$6,$7,$8,$9,0*
20,1,$1+$1,$8,$9,$2,$3,0*%
G04 Aperture macros list end*
%ADD10C,0.100000*%
%ADD11C,0.120000*%
%ADD12C,0.254000*%
%ADD13C,0.200000*%
%ADD14C,0.250000*%
%ADD15C,0.152500*%
%ADD16C,0.300000*%
%ADD17R,0.760000X6.000000*%
%ADD18RoundRect,0.250000X-0.262500X-0.450000X0.262500X-0.450000X0.262500X0.450000X-0.262500X0.450000X0*%
%ADD19RoundRect,0.225000X0.225000X0.250000X-0.225000X0.250000X-0.225000X-0.250000X0.225000X-0.250000X0*%
%ADD20RoundRect,0.225000X-0.225000X-0.250000X0.225000X-0.250000X0.225000X0.250000X-0.225000X0.250000X0*%
%ADD21RoundRect,0.100000X0.637500X0.100000X-0.637500X0.100000X-0.637500X-0.100000X0.637500X-0.100000X0*%
%ADD22RoundRect,0.250000X0.450000X-0.262500X0.450000X0.262500X-0.450000X0.262500X-0.450000X-0.262500X0*%
%ADD23RoundRect,0.200000X-0.200000X-0.275000X0.200000X-0.275000X0.200000X0.275000X-0.200000X0.275000X0*%
%ADD24RoundRect,0.200000X0.200000X-0.250000X0.200000X0.250000X-0.200000X0.250000X-0.200000X-0.250000X0*%
%ADD25RoundRect,0.243750X-0.243750X-0.456250X0.243750X-0.456250X0.243750X0.456250X-0.243750X0.456250X0*%
%ADD26RoundRect,0.243750X0.243750X0.456250X-0.243750X0.456250X-0.243750X-0.456250X0.243750X-0.456250X0*%
%ADD27R,0.600000X1.550000*%
%ADD28R,1.200000X1.800000*%
%ADD29C,3.200000*%
%ADD30O,2.300000X4.000000*%
%ADD31C,1.800000*%
%ADD32R,1.550000X0.600000*%
%ADD33R,1.800000X1.200000*%
%ADD34RoundRect,0.225000X-0.250000X0.225000X-0.250000X-0.225000X0.250000X-0.225000X0.250000X0.225000X0*%
%ADD35RoundRect,0.237500X-0.237500X0.250000X-0.237500X-0.250000X0.237500X-0.250000X0.237500X0.250000X0*%
%ADD36RoundRect,0.225000X0.250000X-0.225000X0.250000X0.225000X-0.250000X0.225000X-0.250000X-0.225000X0*%
%ADD37RoundRect,0.250000X-0.250000X-0.475000X0.250000X-0.475000X0.250000X0.475000X-0.250000X0.475000X0*%
%ADD38RoundRect,0.250000X0.250000X0.475000X-0.250000X0.475000X-0.250000X-0.475000X0.250000X-0.475000X0*%
%ADD39RoundRect,0.250000X-0.475000X0.250000X-0.475000X-0.250000X0.475000X-0.250000X0.475000X0.250000X0*%
%ADD40RoundRect,0.250000X-0.450000X0.262500X-0.450000X-0.262500X0.450000X-0.262500X0.450000X0.262500X0*%
%ADD41RoundRect,0.250000X0.262500X0.450000X-0.262500X0.450000X-0.262500X-0.450000X0.262500X-0.450000X0*%
%ADD42RoundRect,0.250000X0.475000X-0.250000X0.475000X0.250000X-0.475000X0.250000X-0.475000X-0.250000X0*%
%ADD43R,0.300000X1.300000*%
%ADD44R,1.800000X2.200000*%
%ADD45RoundRect,0.250000X0.325000X0.650000X-0.325000X0.650000X-0.325000X-0.650000X0.325000X-0.650000X0*%
%ADD46RoundRect,0.125000X0.275000X0.125000X-0.275000X0.125000X-0.275000X-0.125000X0.275000X-0.125000X0*%
%ADD47RoundRect,0.100000X0.300000X0.100000X-0.300000X0.100000X-0.300000X-0.100000X0.300000X-0.100000X0*%
%ADD48RoundRect,0.162500X0.162500X-0.650000X0.162500X0.650000X-0.162500X0.650000X-0.162500X-0.650000X0*%
%ADD49R,1.000000X2.500000*%
%ADD50C,0.650000*%
%ADD51R,0.600000X1.240000*%
%ADD52R,0.300000X1.240000*%
%ADD53O,1.000000X1.800000*%
%ADD54O,1.000000X2.100000*%
%ADD55R,3.000000X1.500000*%
%ADD56RoundRect,0.125000X0.125000X-0.275000X0.125000X0.275000X-0.125000X0.275000X-0.125000X-0.275000X0*%
%ADD57RoundRect,0.100000X0.100000X-0.300000X0.100000X0.300000X-0.100000X0.300000X-0.100000X-0.300000X0*%
%ADD58R,0.900000X1.400000*%
%ADD59RoundRect,0.250001X-0.499999X-0.999999X0.499999X-0.999999X0.499999X0.999999X-0.499999X0.999999X0*%
%ADD60RoundRect,0.200000X-0.250000X-0.200000X0.250000X-0.200000X0.250000X0.200000X-0.250000X0.200000X0*%
%ADD61R,1.475000X0.300000*%
%ADD62R,0.300000X1.475000*%
%ADD63RoundRect,0.250000X0.650000X-1.000000X0.650000X1.000000X-0.650000X1.000000X-0.650000X-1.000000X0*%
%ADD64RoundRect,0.100000X-0.100000X0.637500X-0.100000X-0.637500X0.100000X-0.637500X0.100000X0.637500X0*%
%ADD65RoundRect,0.218750X0.256250X-0.218750X0.256250X0.218750X-0.256250X0.218750X-0.256250X-0.218750X0*%
%ADD66RoundRect,0.250000X-0.350000X0.450000X-0.350000X-0.450000X0.350000X-0.450000X0.350000X0.450000X0*%
%ADD67RoundRect,0.200000X0.200000X0.275000X-0.200000X0.275000X-0.200000X-0.275000X0.200000X-0.275000X0*%
%ADD68R,1.072000X0.532000*%
%ADD69RoundRect,0.218750X-0.218750X-0.256250X0.218750X-0.256250X0.218750X0.256250X-0.218750X0.256250X0*%
G04 APERTURE END LIST*
D10*
X157803258Y-32622419D02*
X157898496Y-32574800D01*
X157898496Y-32574800D02*
X157946115Y-32527180D01*
X157946115Y-32527180D02*
X157993734Y-32431942D01*
X157993734Y-32431942D02*
X157993734Y-32146228D01*
X157993734Y-32146228D02*
X157946115Y-32050990D01*
X157946115Y-32050990D02*
X157898496Y-32003371D01*
X157898496Y-32003371D02*
X157803258Y-31955752D01*
X157803258Y-31955752D02*
X157660401Y-31955752D01*
X157660401Y-31955752D02*
X157565163Y-32003371D01*
X157565163Y-32003371D02*
X157517544Y-32050990D01*
X157517544Y-32050990D02*
X157469925Y-32146228D01*
X157469925Y-32146228D02*
X157469925Y-32431942D01*
X157469925Y-32431942D02*
X157517544Y-32527180D01*
X157517544Y-32527180D02*
X157565163Y-32574800D01*
X157565163Y-32574800D02*
X157660401Y-32622419D01*
X157660401Y-32622419D02*
X157803258Y-32622419D01*
X156612782Y-32574800D02*
X156708020Y-32622419D01*
X156708020Y-32622419D02*
X156898496Y-32622419D01*
X156898496Y-32622419D02*
X156993734Y-32574800D01*
X156993734Y-32574800D02*
X157041353Y-32527180D01*
X157041353Y-32527180D02*
X157088972Y-32431942D01*
X157088972Y-32431942D02*
X157088972Y-32146228D01*
X157088972Y-32146228D02*
X157041353Y-32050990D01*
X157041353Y-32050990D02*
X156993734Y-32003371D01*
X156993734Y-32003371D02*
X156898496Y-31955752D01*
X156898496Y-31955752D02*
X156708020Y-31955752D01*
X156708020Y-31955752D02*
X156612782Y-32003371D01*
X156327067Y-31955752D02*
X155946115Y-31955752D01*
X156184210Y-31622419D02*
X156184210Y-32479561D01*
X156184210Y-32479561D02*
X156136591Y-32574800D01*
X156136591Y-32574800D02*
X156041353Y-32622419D01*
X156041353Y-32622419D02*
X155946115Y-32622419D01*
X154850876Y-32622419D02*
X154850876Y-31622419D01*
X154850876Y-32003371D02*
X154755638Y-31955752D01*
X154755638Y-31955752D02*
X154565162Y-31955752D01*
X154565162Y-31955752D02*
X154469924Y-32003371D01*
X154469924Y-32003371D02*
X154422305Y-32050990D01*
X154422305Y-32050990D02*
X154374686Y-32146228D01*
X154374686Y-32146228D02*
X154374686Y-32431942D01*
X154374686Y-32431942D02*
X154422305Y-32527180D01*
X154422305Y-32527180D02*
X154469924Y-32574800D01*
X154469924Y-32574800D02*
X154565162Y-32622419D01*
X154565162Y-32622419D02*
X154755638Y-32622419D01*
X154755638Y-32622419D02*
X154850876Y-32574800D01*
X153517543Y-31955752D02*
X153517543Y-32622419D01*
X153946114Y-31955752D02*
X153946114Y-32479561D01*
X153946114Y-32479561D02*
X153898495Y-32574800D01*
X153898495Y-32574800D02*
X153803257Y-32622419D01*
X153803257Y-32622419D02*
X153660400Y-32622419D01*
X153660400Y-32622419D02*
X153565162Y-32574800D01*
X153565162Y-32574800D02*
X153517543Y-32527180D01*
X153184209Y-31955752D02*
X152803257Y-31955752D01*
X153041352Y-31622419D02*
X153041352Y-32479561D01*
X153041352Y-32479561D02*
X152993733Y-32574800D01*
X152993733Y-32574800D02*
X152898495Y-32622419D01*
X152898495Y-32622419D02*
X152803257Y-32622419D01*
X152612780Y-31955752D02*
X152231828Y-31955752D01*
X152469923Y-31622419D02*
X152469923Y-32479561D01*
X152469923Y-32479561D02*
X152422304Y-32574800D01*
X152422304Y-32574800D02*
X152327066Y-32622419D01*
X152327066Y-32622419D02*
X152231828Y-32622419D01*
X151755637Y-32622419D02*
X151850875Y-32574800D01*
X151850875Y-32574800D02*
X151898494Y-32527180D01*
X151898494Y-32527180D02*
X151946113Y-32431942D01*
X151946113Y-32431942D02*
X151946113Y-32146228D01*
X151946113Y-32146228D02*
X151898494Y-32050990D01*
X151898494Y-32050990D02*
X151850875Y-32003371D01*
X151850875Y-32003371D02*
X151755637Y-31955752D01*
X151755637Y-31955752D02*
X151612780Y-31955752D01*
X151612780Y-31955752D02*
X151517542Y-32003371D01*
X151517542Y-32003371D02*
X151469923Y-32050990D01*
X151469923Y-32050990D02*
X151422304Y-32146228D01*
X151422304Y-32146228D02*
X151422304Y-32431942D01*
X151422304Y-32431942D02*
X151469923Y-32527180D01*
X151469923Y-32527180D02*
X151517542Y-32574800D01*
X151517542Y-32574800D02*
X151612780Y-32622419D01*
X151612780Y-32622419D02*
X151755637Y-32622419D01*
X150993732Y-31955752D02*
X150993732Y-32622419D01*
X150993732Y-32050990D02*
X150946113Y-32003371D01*
X150946113Y-32003371D02*
X150850875Y-31955752D01*
X150850875Y-31955752D02*
X150708018Y-31955752D01*
X150708018Y-31955752D02*
X150612780Y-32003371D01*
X150612780Y-32003371D02*
X150565161Y-32098609D01*
X150565161Y-32098609D02*
X150565161Y-32622419D01*
X156041353Y-6122419D02*
X155517544Y-5455752D01*
X156041353Y-5455752D02*
X155517544Y-6122419D01*
X155231829Y-5455752D02*
X154993734Y-6122419D01*
X154755639Y-5455752D02*
X154993734Y-6122419D01*
X154993734Y-6122419D02*
X155088972Y-6360514D01*
X155088972Y-6360514D02*
X155136591Y-6408133D01*
X155136591Y-6408133D02*
X155231829Y-6455752D01*
X154374686Y-5455752D02*
X154374686Y-6455752D01*
X154374686Y-5503371D02*
X154279448Y-5455752D01*
X154279448Y-5455752D02*
X154088972Y-5455752D01*
X154088972Y-5455752D02*
X153993734Y-5503371D01*
X153993734Y-5503371D02*
X153946115Y-5550990D01*
X153946115Y-5550990D02*
X153898496Y-5646228D01*
X153898496Y-5646228D02*
X153898496Y-5931942D01*
X153898496Y-5931942D02*
X153946115Y-6027180D01*
X153946115Y-6027180D02*
X153993734Y-6074800D01*
X153993734Y-6074800D02*
X154088972Y-6122419D01*
X154088972Y-6122419D02*
X154279448Y-6122419D01*
X154279448Y-6122419D02*
X154374686Y-6074800D01*
X153041353Y-6122419D02*
X153041353Y-5598609D01*
X153041353Y-5598609D02*
X153088972Y-5503371D01*
X153088972Y-5503371D02*
X153184210Y-5455752D01*
X153184210Y-5455752D02*
X153374686Y-5455752D01*
X153374686Y-5455752D02*
X153469924Y-5503371D01*
X153041353Y-6074800D02*
X153136591Y-6122419D01*
X153136591Y-6122419D02*
X153374686Y-6122419D01*
X153374686Y-6122419D02*
X153469924Y-6074800D01*
X153469924Y-6074800D02*
X153517543Y-5979561D01*
X153517543Y-5979561D02*
X153517543Y-5884323D01*
X153517543Y-5884323D02*
X153469924Y-5789085D01*
X153469924Y-5789085D02*
X153374686Y-5741466D01*
X153374686Y-5741466D02*
X153136591Y-5741466D01*
X153136591Y-5741466D02*
X153041353Y-5693847D01*
X152136591Y-6122419D02*
X152136591Y-5122419D01*
X152136591Y-6074800D02*
X152231829Y-6122419D01*
X152231829Y-6122419D02*
X152422305Y-6122419D01*
X152422305Y-6122419D02*
X152517543Y-6074800D01*
X152517543Y-6074800D02*
X152565162Y-6027180D01*
X152565162Y-6027180D02*
X152612781Y-5931942D01*
X152612781Y-5931942D02*
X152612781Y-5646228D01*
X152612781Y-5646228D02*
X152565162Y-5550990D01*
X152565162Y-5550990D02*
X152517543Y-5503371D01*
X152517543Y-5503371D02*
X152422305Y-5455752D01*
X152422305Y-5455752D02*
X152231829Y-5455752D01*
X152231829Y-5455752D02*
X152136591Y-5503371D01*
X249196115Y-5872419D02*
X249196115Y-4872419D01*
X249196115Y-5253371D02*
X249100877Y-5205752D01*
X249100877Y-5205752D02*
X248910401Y-5205752D01*
X248910401Y-5205752D02*
X248815163Y-5253371D01*
X248815163Y-5253371D02*
X248767544Y-5300990D01*
X248767544Y-5300990D02*
X248719925Y-5396228D01*
X248719925Y-5396228D02*
X248719925Y-5681942D01*
X248719925Y-5681942D02*
X248767544Y-5777180D01*
X248767544Y-5777180D02*
X248815163Y-5824800D01*
X248815163Y-5824800D02*
X248910401Y-5872419D01*
X248910401Y-5872419D02*
X249100877Y-5872419D01*
X249100877Y-5872419D02*
X249196115Y-5824800D01*
X248148496Y-5872419D02*
X248243734Y-5824800D01*
X248243734Y-5824800D02*
X248291353Y-5777180D01*
X248291353Y-5777180D02*
X248338972Y-5681942D01*
X248338972Y-5681942D02*
X248338972Y-5396228D01*
X248338972Y-5396228D02*
X248291353Y-5300990D01*
X248291353Y-5300990D02*
X248243734Y-5253371D01*
X248243734Y-5253371D02*
X248148496Y-5205752D01*
X248148496Y-5205752D02*
X248005639Y-5205752D01*
X248005639Y-5205752D02*
X247910401Y-5253371D01*
X247910401Y-5253371D02*
X247862782Y-5300990D01*
X247862782Y-5300990D02*
X247815163Y-5396228D01*
X247815163Y-5396228D02*
X247815163Y-5681942D01*
X247815163Y-5681942D02*
X247862782Y-5777180D01*
X247862782Y-5777180D02*
X247910401Y-5824800D01*
X247910401Y-5824800D02*
X248005639Y-5872419D01*
X248005639Y-5872419D02*
X248148496Y-5872419D01*
X247243734Y-5872419D02*
X247338972Y-5824800D01*
X247338972Y-5824800D02*
X247386591Y-5777180D01*
X247386591Y-5777180D02*
X247434210Y-5681942D01*
X247434210Y-5681942D02*
X247434210Y-5396228D01*
X247434210Y-5396228D02*
X247386591Y-5300990D01*
X247386591Y-5300990D02*
X247338972Y-5253371D01*
X247338972Y-5253371D02*
X247243734Y-5205752D01*
X247243734Y-5205752D02*
X247100877Y-5205752D01*
X247100877Y-5205752D02*
X247005639Y-5253371D01*
X247005639Y-5253371D02*
X246958020Y-5300990D01*
X246958020Y-5300990D02*
X246910401Y-5396228D01*
X246910401Y-5396228D02*
X246910401Y-5681942D01*
X246910401Y-5681942D02*
X246958020Y-5777180D01*
X246958020Y-5777180D02*
X247005639Y-5824800D01*
X247005639Y-5824800D02*
X247100877Y-5872419D01*
X247100877Y-5872419D02*
X247243734Y-5872419D01*
X246624686Y-5205752D02*
X246243734Y-5205752D01*
X246481829Y-4872419D02*
X246481829Y-5729561D01*
X246481829Y-5729561D02*
X246434210Y-5824800D01*
X246434210Y-5824800D02*
X246338972Y-5872419D01*
X246338972Y-5872419D02*
X246243734Y-5872419D01*
X177696115Y13877580D02*
X177696115Y14544247D01*
X177696115Y14353771D02*
X177648496Y14449009D01*
X177648496Y14449009D02*
X177600877Y14496628D01*
X177600877Y14496628D02*
X177505639Y14544247D01*
X177505639Y14544247D02*
X177410401Y14544247D01*
X177172305Y13877580D02*
X176648496Y14544247D01*
X177172305Y14544247D02*
X176648496Y13877580D01*
X175648495Y14544247D02*
X175267543Y14544247D01*
X175505638Y14877580D02*
X175505638Y14020438D01*
X175505638Y14020438D02*
X175458019Y13925200D01*
X175458019Y13925200D02*
X175362781Y13877580D01*
X175362781Y13877580D02*
X175267543Y13877580D01*
X175029447Y13877580D02*
X174505638Y14544247D01*
X175029447Y14544247D02*
X174505638Y13877580D01*
X172934209Y14544247D02*
X172934209Y13734723D01*
X172934209Y13734723D02*
X172981828Y13639485D01*
X172981828Y13639485D02*
X173029447Y13591866D01*
X173029447Y13591866D02*
X173124685Y13544247D01*
X173124685Y13544247D02*
X173267542Y13544247D01*
X173267542Y13544247D02*
X173362780Y13591866D01*
X172934209Y13925200D02*
X173029447Y13877580D01*
X173029447Y13877580D02*
X173219923Y13877580D01*
X173219923Y13877580D02*
X173315161Y13925200D01*
X173315161Y13925200D02*
X173362780Y13972819D01*
X173362780Y13972819D02*
X173410399Y14068057D01*
X173410399Y14068057D02*
X173410399Y14353771D01*
X173410399Y14353771D02*
X173362780Y14449009D01*
X173362780Y14449009D02*
X173315161Y14496628D01*
X173315161Y14496628D02*
X173219923Y14544247D01*
X173219923Y14544247D02*
X173029447Y14544247D01*
X173029447Y14544247D02*
X172934209Y14496628D01*
X172458018Y14544247D02*
X172458018Y13877580D01*
X172458018Y14449009D02*
X172410399Y14496628D01*
X172410399Y14496628D02*
X172315161Y14544247D01*
X172315161Y14544247D02*
X172172304Y14544247D01*
X172172304Y14544247D02*
X172077066Y14496628D01*
X172077066Y14496628D02*
X172029447Y14401390D01*
X172029447Y14401390D02*
X172029447Y13877580D01*
X171124685Y13877580D02*
X171124685Y14877580D01*
X171124685Y13925200D02*
X171219923Y13877580D01*
X171219923Y13877580D02*
X171410399Y13877580D01*
X171410399Y13877580D02*
X171505637Y13925200D01*
X171505637Y13925200D02*
X171553256Y13972819D01*
X171553256Y13972819D02*
X171600875Y14068057D01*
X171600875Y14068057D02*
X171600875Y14353771D01*
X171600875Y14353771D02*
X171553256Y14449009D01*
X171553256Y14449009D02*
X171505637Y14496628D01*
X171505637Y14496628D02*
X171410399Y14544247D01*
X171410399Y14544247D02*
X171219923Y14544247D01*
X171219923Y14544247D02*
X171124685Y14496628D01*
X176517544Y-42324800D02*
X176612782Y-42372419D01*
X176612782Y-42372419D02*
X176803258Y-42372419D01*
X176803258Y-42372419D02*
X176898496Y-42324800D01*
X176898496Y-42324800D02*
X176946115Y-42277180D01*
X176946115Y-42277180D02*
X176993734Y-42181942D01*
X176993734Y-42181942D02*
X176993734Y-41896228D01*
X176993734Y-41896228D02*
X176946115Y-41800990D01*
X176946115Y-41800990D02*
X176898496Y-41753371D01*
X176898496Y-41753371D02*
X176803258Y-41705752D01*
X176803258Y-41705752D02*
X176612782Y-41705752D01*
X176612782Y-41705752D02*
X176517544Y-41753371D01*
X176088972Y-42372419D02*
X176088972Y-41372419D01*
X175660401Y-42372419D02*
X175660401Y-41848609D01*
X175660401Y-41848609D02*
X175708020Y-41753371D01*
X175708020Y-41753371D02*
X175803258Y-41705752D01*
X175803258Y-41705752D02*
X175946115Y-41705752D01*
X175946115Y-41705752D02*
X176041353Y-41753371D01*
X176041353Y-41753371D02*
X176088972Y-41800990D01*
X174708020Y-41372419D02*
X175184210Y-41372419D01*
X175184210Y-41372419D02*
X175231829Y-41848609D01*
X175231829Y-41848609D02*
X175184210Y-41800990D01*
X175184210Y-41800990D02*
X175088972Y-41753371D01*
X175088972Y-41753371D02*
X174850877Y-41753371D01*
X174850877Y-41753371D02*
X174755639Y-41800990D01*
X174755639Y-41800990D02*
X174708020Y-41848609D01*
X174708020Y-41848609D02*
X174660401Y-41943847D01*
X174660401Y-41943847D02*
X174660401Y-42181942D01*
X174660401Y-42181942D02*
X174708020Y-42277180D01*
X174708020Y-42277180D02*
X174755639Y-42324800D01*
X174755639Y-42324800D02*
X174850877Y-42372419D01*
X174850877Y-42372419D02*
X175088972Y-42372419D01*
X175088972Y-42372419D02*
X175184210Y-42324800D01*
X175184210Y-42324800D02*
X175231829Y-42277180D01*
X173755639Y-41372419D02*
X174231829Y-41372419D01*
X174231829Y-41372419D02*
X174279448Y-41848609D01*
X174279448Y-41848609D02*
X174231829Y-41800990D01*
X174231829Y-41800990D02*
X174136591Y-41753371D01*
X174136591Y-41753371D02*
X173898496Y-41753371D01*
X173898496Y-41753371D02*
X173803258Y-41800990D01*
X173803258Y-41800990D02*
X173755639Y-41848609D01*
X173755639Y-41848609D02*
X173708020Y-41943847D01*
X173708020Y-41943847D02*
X173708020Y-42181942D01*
X173708020Y-42181942D02*
X173755639Y-42277180D01*
X173755639Y-42277180D02*
X173803258Y-42324800D01*
X173803258Y-42324800D02*
X173898496Y-42372419D01*
X173898496Y-42372419D02*
X174136591Y-42372419D01*
X174136591Y-42372419D02*
X174231829Y-42324800D01*
X174231829Y-42324800D02*
X174279448Y-42277180D01*
X173327067Y-41467657D02*
X173279448Y-41420038D01*
X173279448Y-41420038D02*
X173184210Y-41372419D01*
X173184210Y-41372419D02*
X172946115Y-41372419D01*
X172946115Y-41372419D02*
X172850877Y-41420038D01*
X172850877Y-41420038D02*
X172803258Y-41467657D01*
X172803258Y-41467657D02*
X172755639Y-41562895D01*
X172755639Y-41562895D02*
X172755639Y-41658133D01*
X172755639Y-41658133D02*
X172803258Y-41800990D01*
X172803258Y-41800990D02*
X173374686Y-42372419D01*
X173374686Y-42372419D02*
X172755639Y-42372419D01*
X171898496Y-41705752D02*
X171898496Y-42515276D01*
X171898496Y-42515276D02*
X171946115Y-42610514D01*
X171946115Y-42610514D02*
X171993734Y-42658133D01*
X171993734Y-42658133D02*
X172088972Y-42705752D01*
X172088972Y-42705752D02*
X172231829Y-42705752D01*
X172231829Y-42705752D02*
X172327067Y-42658133D01*
X171898496Y-42324800D02*
X171993734Y-42372419D01*
X171993734Y-42372419D02*
X172184210Y-42372419D01*
X172184210Y-42372419D02*
X172279448Y-42324800D01*
X172279448Y-42324800D02*
X172327067Y-42277180D01*
X172327067Y-42277180D02*
X172374686Y-42181942D01*
X172374686Y-42181942D02*
X172374686Y-41896228D01*
X172374686Y-41896228D02*
X172327067Y-41800990D01*
X172327067Y-41800990D02*
X172279448Y-41753371D01*
X172279448Y-41753371D02*
X172184210Y-41705752D01*
X172184210Y-41705752D02*
X171993734Y-41705752D01*
X171993734Y-41705752D02*
X171898496Y-41753371D01*
X157446115Y-12372419D02*
X157446115Y-11705752D01*
X157446115Y-11800990D02*
X157398496Y-11753371D01*
X157398496Y-11753371D02*
X157303258Y-11705752D01*
X157303258Y-11705752D02*
X157160401Y-11705752D01*
X157160401Y-11705752D02*
X157065163Y-11753371D01*
X157065163Y-11753371D02*
X157017544Y-11848609D01*
X157017544Y-11848609D02*
X157017544Y-12372419D01*
X157017544Y-11848609D02*
X156969925Y-11753371D01*
X156969925Y-11753371D02*
X156874687Y-11705752D01*
X156874687Y-11705752D02*
X156731830Y-11705752D01*
X156731830Y-11705752D02*
X156636591Y-11753371D01*
X156636591Y-11753371D02*
X156588972Y-11848609D01*
X156588972Y-11848609D02*
X156588972Y-12372419D01*
X155969925Y-12372419D02*
X156065163Y-12324800D01*
X156065163Y-12324800D02*
X156112782Y-12277180D01*
X156112782Y-12277180D02*
X156160401Y-12181942D01*
X156160401Y-12181942D02*
X156160401Y-11896228D01*
X156160401Y-11896228D02*
X156112782Y-11800990D01*
X156112782Y-11800990D02*
X156065163Y-11753371D01*
X156065163Y-11753371D02*
X155969925Y-11705752D01*
X155969925Y-11705752D02*
X155827068Y-11705752D01*
X155827068Y-11705752D02*
X155731830Y-11753371D01*
X155731830Y-11753371D02*
X155684211Y-11800990D01*
X155684211Y-11800990D02*
X155636592Y-11896228D01*
X155636592Y-11896228D02*
X155636592Y-12181942D01*
X155636592Y-12181942D02*
X155684211Y-12277180D01*
X155684211Y-12277180D02*
X155731830Y-12324800D01*
X155731830Y-12324800D02*
X155827068Y-12372419D01*
X155827068Y-12372419D02*
X155969925Y-12372419D01*
X154779449Y-12372419D02*
X154779449Y-11372419D01*
X154779449Y-12324800D02*
X154874687Y-12372419D01*
X154874687Y-12372419D02*
X155065163Y-12372419D01*
X155065163Y-12372419D02*
X155160401Y-12324800D01*
X155160401Y-12324800D02*
X155208020Y-12277180D01*
X155208020Y-12277180D02*
X155255639Y-12181942D01*
X155255639Y-12181942D02*
X155255639Y-11896228D01*
X155255639Y-11896228D02*
X155208020Y-11800990D01*
X155208020Y-11800990D02*
X155160401Y-11753371D01*
X155160401Y-11753371D02*
X155065163Y-11705752D01*
X155065163Y-11705752D02*
X154874687Y-11705752D01*
X154874687Y-11705752D02*
X154779449Y-11753371D01*
X154398496Y-11705752D02*
X154208020Y-12372419D01*
X154208020Y-12372419D02*
X154017544Y-11896228D01*
X154017544Y-11896228D02*
X153827068Y-12372419D01*
X153827068Y-12372419D02*
X153636592Y-11705752D01*
X153255639Y-12372419D02*
X153255639Y-11372419D01*
X152827068Y-12372419D02*
X152827068Y-11848609D01*
X152827068Y-11848609D02*
X152874687Y-11753371D01*
X152874687Y-11753371D02*
X152969925Y-11705752D01*
X152969925Y-11705752D02*
X153112782Y-11705752D01*
X153112782Y-11705752D02*
X153208020Y-11753371D01*
X153208020Y-11753371D02*
X153255639Y-11800990D01*
X151969925Y-12324800D02*
X152065163Y-12372419D01*
X152065163Y-12372419D02*
X152255639Y-12372419D01*
X152255639Y-12372419D02*
X152350877Y-12324800D01*
X152350877Y-12324800D02*
X152398496Y-12229561D01*
X152398496Y-12229561D02*
X152398496Y-11848609D01*
X152398496Y-11848609D02*
X152350877Y-11753371D01*
X152350877Y-11753371D02*
X152255639Y-11705752D01*
X152255639Y-11705752D02*
X152065163Y-11705752D01*
X152065163Y-11705752D02*
X151969925Y-11753371D01*
X151969925Y-11753371D02*
X151922306Y-11848609D01*
X151922306Y-11848609D02*
X151922306Y-11943847D01*
X151922306Y-11943847D02*
X152398496Y-12039085D01*
X151112782Y-12324800D02*
X151208020Y-12372419D01*
X151208020Y-12372419D02*
X151398496Y-12372419D01*
X151398496Y-12372419D02*
X151493734Y-12324800D01*
X151493734Y-12324800D02*
X151541353Y-12229561D01*
X151541353Y-12229561D02*
X151541353Y-11848609D01*
X151541353Y-11848609D02*
X151493734Y-11753371D01*
X151493734Y-11753371D02*
X151398496Y-11705752D01*
X151398496Y-11705752D02*
X151208020Y-11705752D01*
X151208020Y-11705752D02*
X151112782Y-11753371D01*
X151112782Y-11753371D02*
X151065163Y-11848609D01*
X151065163Y-11848609D02*
X151065163Y-11943847D01*
X151065163Y-11943847D02*
X151541353Y-12039085D01*
X150493734Y-12372419D02*
X150588972Y-12324800D01*
X150588972Y-12324800D02*
X150636591Y-12229561D01*
X150636591Y-12229561D02*
X150636591Y-11372419D01*
X249446115Y-24872419D02*
X249446115Y-24205752D01*
X249446115Y-24396228D02*
X249398496Y-24300990D01*
X249398496Y-24300990D02*
X249350877Y-24253371D01*
X249350877Y-24253371D02*
X249255639Y-24205752D01*
X249255639Y-24205752D02*
X249160401Y-24205752D01*
X248446115Y-24824800D02*
X248541353Y-24872419D01*
X248541353Y-24872419D02*
X248731829Y-24872419D01*
X248731829Y-24872419D02*
X248827067Y-24824800D01*
X248827067Y-24824800D02*
X248874686Y-24729561D01*
X248874686Y-24729561D02*
X248874686Y-24348609D01*
X248874686Y-24348609D02*
X248827067Y-24253371D01*
X248827067Y-24253371D02*
X248731829Y-24205752D01*
X248731829Y-24205752D02*
X248541353Y-24205752D01*
X248541353Y-24205752D02*
X248446115Y-24253371D01*
X248446115Y-24253371D02*
X248398496Y-24348609D01*
X248398496Y-24348609D02*
X248398496Y-24443847D01*
X248398496Y-24443847D02*
X248874686Y-24539085D01*
X248017543Y-24824800D02*
X247922305Y-24872419D01*
X247922305Y-24872419D02*
X247731829Y-24872419D01*
X247731829Y-24872419D02*
X247636591Y-24824800D01*
X247636591Y-24824800D02*
X247588972Y-24729561D01*
X247588972Y-24729561D02*
X247588972Y-24681942D01*
X247588972Y-24681942D02*
X247636591Y-24586704D01*
X247636591Y-24586704D02*
X247731829Y-24539085D01*
X247731829Y-24539085D02*
X247874686Y-24539085D01*
X247874686Y-24539085D02*
X247969924Y-24491466D01*
X247969924Y-24491466D02*
X248017543Y-24396228D01*
X248017543Y-24396228D02*
X248017543Y-24348609D01*
X248017543Y-24348609D02*
X247969924Y-24253371D01*
X247969924Y-24253371D02*
X247874686Y-24205752D01*
X247874686Y-24205752D02*
X247731829Y-24205752D01*
X247731829Y-24205752D02*
X247636591Y-24253371D01*
X246779448Y-24824800D02*
X246874686Y-24872419D01*
X246874686Y-24872419D02*
X247065162Y-24872419D01*
X247065162Y-24872419D02*
X247160400Y-24824800D01*
X247160400Y-24824800D02*
X247208019Y-24729561D01*
X247208019Y-24729561D02*
X247208019Y-24348609D01*
X247208019Y-24348609D02*
X247160400Y-24253371D01*
X247160400Y-24253371D02*
X247065162Y-24205752D01*
X247065162Y-24205752D02*
X246874686Y-24205752D01*
X246874686Y-24205752D02*
X246779448Y-24253371D01*
X246779448Y-24253371D02*
X246731829Y-24348609D01*
X246731829Y-24348609D02*
X246731829Y-24443847D01*
X246731829Y-24443847D02*
X247208019Y-24539085D01*
X246446114Y-24205752D02*
X246065162Y-24205752D01*
X246303257Y-23872419D02*
X246303257Y-24729561D01*
X246303257Y-24729561D02*
X246255638Y-24824800D01*
X246255638Y-24824800D02*
X246160400Y-24872419D01*
X246160400Y-24872419D02*
X246065162Y-24872419D01*
D11*
%TO.C,R3*%
X224278212Y-14910000D02*
X220878212Y-14910000D01*
X220878212Y-12910000D02*
X224278212Y-12910000D01*
X224278212Y-12910000D02*
X224278212Y-14910000D01*
X220878212Y-14910000D02*
X220878212Y-12910000D01*
%TO.C,C40*%
X183309106Y-28980002D02*
X180709106Y-28980000D01*
X180709106Y-27379998D02*
X183309106Y-27380000D01*
X183309106Y-27380000D02*
G75*
G02*
X183309106Y-28980002I-840224J-800001D01*
G01*
X180709106Y-28980000D02*
G75*
G02*
X180709106Y-27379998I840224J800001D01*
G01*
%TO.C,C41*%
X173440894Y-30399998D02*
X176040894Y-30400000D01*
X176040894Y-32000002D02*
X173440894Y-32000000D01*
X173440894Y-32000000D02*
G75*
G02*
X173440894Y-30399998I840224J800001D01*
G01*
X176040894Y-30400000D02*
G75*
G02*
X176040894Y-32000002I-840224J-800001D01*
G01*
%TO.C,U4*%
X180400000Y-29320000D02*
X182600000Y-29320000D01*
X180400000Y-29320000D02*
X178200000Y-29320000D01*
X180400000Y-36090000D02*
X182600000Y-36090000D01*
X180400000Y-36090000D02*
X178200000Y-36090000D01*
X184590000Y-30020000D02*
X184260000Y-29780000D01*
X184590000Y-29540000D01*
X184590000Y-30020000D01*
G36*
X184590000Y-30020000D02*
G01*
X184260000Y-29780000D01*
X184590000Y-29540000D01*
X184590000Y-30020000D01*
G37*
%TO.C,R29*%
X180080000Y-27810000D02*
X176680000Y-27810000D01*
X176680000Y-25810000D02*
X180080000Y-25810000D01*
X180080000Y-25810000D02*
X180080000Y-27810000D01*
X176680000Y-27810000D02*
X176680000Y-25810000D01*
%TO.C,R28*%
X204080000Y1320000D02*
X200680000Y1320000D01*
X200680000Y3320000D02*
X204080000Y3320000D01*
X204080000Y3320000D02*
X204080000Y1320000D01*
X200680000Y1320000D02*
X200680000Y3320000D01*
%TO.C,R27*%
X194380000Y-31100000D02*
X194380000Y-34500000D01*
X192380000Y-34500000D02*
X192380000Y-31100000D01*
X192380000Y-31100000D02*
X194380000Y-31100000D01*
X194380000Y-34500000D02*
X192380000Y-34500000D01*
%TO.C,R26*%
X188630000Y-30970000D02*
X188630000Y-34370000D01*
X186630000Y-34370000D02*
X186630000Y-30970000D01*
X186630000Y-30970000D02*
X188630000Y-30970000D01*
X188630000Y-34370000D02*
X186630000Y-34370000D01*
%TO.C,R16*%
X184360000Y-35270000D02*
X187360000Y-35270000D01*
X184360000Y-36870000D02*
X184360000Y-35270000D01*
X187360000Y-36870000D02*
X184360000Y-36870000D01*
X187360000Y-35270000D02*
X187360000Y-36870000D01*
%TO.C,Q2*%
X188700000Y-34480000D02*
X188700000Y-30880000D01*
X192300000Y-34480000D02*
X188700000Y-34480000D01*
X188700000Y-30880000D02*
X192300000Y-30880000D01*
X192300000Y-30880000D02*
X192300000Y-34480000D01*
%TO.C,LED2*%
X173200000Y-27900000D02*
X176600000Y-27900000D01*
X176600000Y-25900000D01*
X173200000Y-25900000D01*
X173200000Y-27900000D01*
X173600000Y-28200000D02*
X174400000Y-28200000D01*
X174400000Y-27900000D01*
X173600000Y-27900000D01*
X173600000Y-28200000D01*
G36*
X173600000Y-28200000D02*
G01*
X174400000Y-28200000D01*
X174400000Y-27900000D01*
X173600000Y-27900000D01*
X173600000Y-28200000D01*
G37*
X173600000Y-25900000D02*
X174400000Y-25900000D01*
X174400000Y-25600000D01*
X173600000Y-25600000D01*
X173600000Y-25900000D01*
G36*
X173600000Y-25900000D02*
G01*
X174400000Y-25900000D01*
X174400000Y-25600000D01*
X173600000Y-25600000D01*
X173600000Y-25900000D01*
G37*
%TO.C,LED1*%
X207600000Y3380000D02*
X204200000Y3380000D01*
X204200000Y1380000D01*
X207600000Y1380000D01*
X207600000Y3380000D01*
X207200000Y3680000D02*
X206400000Y3680000D01*
X206400000Y3380000D01*
X207200000Y3380000D01*
X207200000Y3680000D01*
G36*
X207200000Y3680000D02*
G01*
X206400000Y3680000D01*
X206400000Y3380000D01*
X207200000Y3380000D01*
X207200000Y3680000D01*
G37*
X207200000Y1380000D02*
X206400000Y1380000D01*
X206400000Y1080000D01*
X207200000Y1080000D01*
X207200000Y1380000D01*
G36*
X207200000Y1380000D02*
G01*
X206400000Y1380000D01*
X206400000Y1080000D01*
X207200000Y1080000D01*
X207200000Y1380000D01*
G37*
D12*
%TO.C,J5*%
X186155670Y-42977670D02*
X179188670Y-42977670D01*
X187150000Y-38577670D02*
X187150000Y-40777670D01*
X178150000Y-38577670D02*
X178150000Y-40777670D01*
X178150000Y-38577670D02*
X179132000Y-38577670D01*
X187150000Y-38577670D02*
X186170000Y-38577670D01*
D11*
%TO.C,R13*%
X172586499Y514713D02*
X172586499Y-1085287D01*
X172586499Y-1085287D02*
X175586499Y-1085287D01*
X175586499Y514713D02*
X172586499Y514713D01*
X175586499Y-1085287D02*
X175586499Y514713D01*
D13*
%TO.C,J7*%
X153150000Y6887000D02*
X155513000Y6887000D01*
X153150000Y887000D02*
X155513000Y887000D01*
X155513000Y6887000D02*
X155513000Y6087000D01*
X155513000Y887000D02*
X155513000Y1687000D01*
D10*
X156950000Y2387000D02*
X156950000Y2387000D01*
X157050000Y2387000D02*
X157050000Y2387000D01*
X156950000Y2387000D02*
G75*
G02*
X157050000Y2387000I50000J0D01*
G01*
X157050000Y2387000D02*
G75*
G02*
X156950000Y2387000I-50000J0D01*
G01*
D11*
%TO.C,C34*%
X200349693Y-13040018D02*
X200349695Y-10440018D01*
X201949697Y-10440018D02*
X201949695Y-13040018D01*
X200349695Y-10440018D02*
G75*
G02*
X201949697Y-10440018I800001J-840224D01*
G01*
X201949695Y-13040018D02*
G75*
G02*
X200349693Y-13040018I-800001J840224D01*
G01*
%TO.C,R22*%
X242750000Y-9000000D02*
X244350000Y-9000000D01*
X242750000Y-12400000D02*
X242750000Y-9000000D01*
X244350000Y-9000000D02*
X244350000Y-12400000D01*
X244350000Y-12400000D02*
X242750000Y-12400000D01*
%TO.C,C30*%
X203739815Y-20350010D02*
X203739817Y-17750010D01*
X205339819Y-17750010D02*
X205339817Y-20350010D01*
X203739817Y-17750010D02*
G75*
G02*
X205339819Y-17750010I800001J-840224D01*
G01*
X205339817Y-20350010D02*
G75*
G02*
X203739815Y-20350010I-800001J840224D01*
G01*
%TO.C,C17*%
X235682262Y-22500000D02*
X238682262Y-22500000D01*
X238682262Y-20500000D02*
X235682262Y-20500000D01*
X235682262Y-22500000D02*
G75*
G02*
X235682262Y-20500000I1122254J1000000D01*
G01*
X238682262Y-20500000D02*
G75*
G02*
X238682262Y-22500000I-1122254J-1000000D01*
G01*
%TO.C,C36*%
X208190894Y2940000D02*
X211190894Y2940000D01*
X211190894Y940000D02*
X208190894Y940000D01*
X208190894Y940000D02*
G75*
G02*
X208190894Y2940000I1122254J1000000D01*
G01*
X211190894Y2940000D02*
G75*
G02*
X211190894Y940000I-1122254J-1000000D01*
G01*
%TO.C,C38*%
X203440894Y-2550000D02*
X203440894Y450000D01*
X205440894Y450000D02*
X205440894Y-2550000D01*
X203440894Y450000D02*
G75*
G02*
X205440894Y450000I1000000J-1122254D01*
G01*
X205440894Y-2550000D02*
G75*
G02*
X203440894Y-2550000I-1000000J1122254D01*
G01*
%TO.C,C23*%
X185729939Y-24070016D02*
X183129939Y-24070014D01*
X183129939Y-22470012D02*
X185729939Y-22470014D01*
X185729939Y-22470014D02*
G75*
G02*
X185729939Y-24070016I-840224J-800001D01*
G01*
X183129939Y-24070014D02*
G75*
G02*
X183129939Y-22470012I840224J800001D01*
G01*
%TO.C,R12*%
X184687045Y7215382D02*
X184687045Y3815382D01*
X184687045Y3815382D02*
X186687045Y3815382D01*
X186687045Y7215382D02*
X184687045Y7215382D01*
X186687045Y3815382D02*
X186687045Y7215382D01*
%TO.C,R20*%
X168330998Y2911426D02*
X171730998Y2911426D01*
X168330998Y911426D02*
X168330998Y2911426D01*
X171730998Y2911426D02*
X171730998Y911426D01*
X171730998Y911426D02*
X168330998Y911426D01*
%TO.C,R11*%
X182487044Y7135381D02*
X182487044Y3735381D01*
X182487044Y3735381D02*
X184487044Y3735381D01*
X184487044Y7135381D02*
X182487044Y7135381D01*
X184487044Y3735381D02*
X184487044Y7135381D01*
%TO.C,C18*%
X218620000Y-17104470D02*
X221620000Y-17104470D01*
X221620000Y-15104470D02*
X218620000Y-15104470D01*
X218620000Y-17104470D02*
G75*
G02*
X218620000Y-15104470I1122254J1000000D01*
G01*
X221620000Y-15104470D02*
G75*
G02*
X221620000Y-17104470I-1122254J-1000000D01*
G01*
%TO.C,C16*%
X239682262Y-22420000D02*
X242682262Y-22420000D01*
X242682262Y-20420000D02*
X239682262Y-20420000D01*
X239682262Y-22420000D02*
G75*
G02*
X239682262Y-20420000I1122254J1000000D01*
G01*
X242682262Y-20420000D02*
G75*
G02*
X242682262Y-22420000I-1122254J-1000000D01*
G01*
%TO.C,R2*%
X225680000Y-400000D02*
X225680000Y-3800000D01*
X225680000Y-3800000D02*
X227680000Y-3800000D01*
X227680000Y-400000D02*
X225680000Y-400000D01*
X227680000Y-3800000D02*
X227680000Y-400000D01*
%TO.C,R1*%
X223430000Y-330000D02*
X223430000Y-3730000D01*
X223430000Y-3730000D02*
X225430000Y-3730000D01*
X225430000Y-330000D02*
X223430000Y-330000D01*
X225430000Y-3730000D02*
X225430000Y-330000D01*
%TO.C,R21*%
X167426316Y-33125000D02*
X169426316Y-33125000D01*
X167426316Y-36525000D02*
X167426316Y-33125000D01*
X169426316Y-33125000D02*
X169426316Y-36525000D01*
X169426316Y-36525000D02*
X167426316Y-36525000D01*
D13*
%TO.C,J9*%
X153300000Y-23663000D02*
X155663000Y-23663000D01*
X153300000Y-29663000D02*
X155663000Y-29663000D01*
X155663000Y-23663000D02*
X155663000Y-24463000D01*
X155663000Y-29663000D02*
X155663000Y-28863000D01*
D10*
X157100000Y-28163000D02*
X157100000Y-28163000D01*
X157200000Y-28163000D02*
X157200000Y-28163000D01*
X157100000Y-28163000D02*
G75*
G02*
X157200000Y-28163000I50000J0D01*
G01*
X157200000Y-28163000D02*
G75*
G02*
X157100000Y-28163000I-50000J0D01*
G01*
D11*
%TO.C,C9*%
X196574618Y6584363D02*
X196574618Y3584363D01*
X198574618Y3584363D02*
X198574618Y6584363D01*
X196574618Y6584363D02*
G75*
G02*
X198574618Y6584363I1000000J-1122254D01*
G01*
X198574618Y3584363D02*
G75*
G02*
X196574618Y3584363I-1000000J1122254D01*
G01*
%TO.C,LCD1*%
X180600056Y15955382D02*
X180600056Y14215382D01*
X180600056Y11495382D02*
X180600056Y10155382D01*
X180600056Y10155382D02*
X182090056Y10155382D01*
X182090056Y8955382D02*
X182090056Y10155382D01*
X199900056Y15955382D02*
X180600056Y15955382D01*
X199900056Y14215382D02*
X199900056Y15955382D01*
X199900056Y11495382D02*
X199900056Y10155382D01*
X199900056Y10155382D02*
X198410056Y10155382D01*
%TO.C,C6*%
X221810000Y-40894D02*
X224810000Y-40894D01*
X224810000Y1959106D02*
X221810000Y1959106D01*
X221810000Y-40894D02*
G75*
G02*
X221810000Y1959106I1122254J1000000D01*
G01*
X224810000Y1959106D02*
G75*
G02*
X224810000Y-40894I-1122254J-1000000D01*
G01*
%TO.C,R24*%
X216900000Y11370000D02*
X218500000Y11370000D01*
X216900000Y7970000D02*
X216900000Y11370000D01*
X218500000Y11370000D02*
X218500000Y7970000D01*
X218500000Y7970000D02*
X216900000Y7970000D01*
%TO.C,C31*%
X201989815Y-20380006D02*
X201989817Y-17780006D01*
X203589819Y-17780006D02*
X203589817Y-20380006D01*
X201989817Y-17780006D02*
G75*
G02*
X203589819Y-17780006I800001J-840224D01*
G01*
X203589817Y-20380006D02*
G75*
G02*
X201989815Y-20380006I-800001J840224D01*
G01*
%TO.C,C33*%
X200349693Y-16260022D02*
X200349695Y-13660022D01*
X201949697Y-13660022D02*
X201949695Y-16260022D01*
X200349695Y-13660022D02*
G75*
G02*
X201949697Y-13660022I800001J-840224D01*
G01*
X201949695Y-16260022D02*
G75*
G02*
X200349693Y-16260022I-800001J840224D01*
G01*
%TO.C,C19*%
X167294395Y5345287D02*
X171494395Y5345287D01*
X171494395Y2945287D02*
X167294395Y2945287D01*
X167294395Y2945287D02*
G75*
G02*
X167294395Y5345287I1408120J1200000D01*
G01*
X171494395Y5345287D02*
G75*
G02*
X171494395Y2945287I-1474352J-1200000D01*
G01*
%TO.C,RN1*%
X218660000Y-17460000D02*
X221860000Y-17460000D01*
X218660000Y-21260000D02*
X218660000Y-17460000D01*
X218672700Y-18585300D02*
X218787000Y-18585300D01*
X218672700Y-20134700D02*
X218787000Y-20134700D01*
X218787000Y-19360000D02*
X218660000Y-19360000D01*
X221733000Y-19360000D02*
X221860000Y-19360000D01*
X221847300Y-18585300D02*
X221733000Y-18585300D01*
X221847300Y-20134700D02*
X221733000Y-20134700D01*
X221860000Y-17460000D02*
X221860000Y-21260000D01*
X221860000Y-21260000D02*
X218660000Y-21260000D01*
%TO.C,C10*%
X193494619Y2984362D02*
X193494619Y-15638D01*
X195494619Y-15638D02*
X195494619Y2984362D01*
X193494619Y2984362D02*
G75*
G02*
X195494619Y2984362I1000000J-1122254D01*
G01*
X195494619Y-15638D02*
G75*
G02*
X193494619Y-15638I-1000000J1122254D01*
G01*
%TO.C,Q1*%
X169626316Y-33065000D02*
X173226316Y-33065000D01*
X169626316Y-36665000D02*
X169626316Y-33065000D01*
X173226316Y-33065000D02*
X173226316Y-36665000D01*
X173226316Y-36665000D02*
X169626316Y-36665000D01*
%TO.C,C11*%
X193534361Y6585382D02*
X193534361Y3585382D01*
X195534361Y3585382D02*
X195534361Y6585382D01*
X193534361Y6585382D02*
G75*
G02*
X195534361Y6585382I1000000J-1122254D01*
G01*
X195534361Y3585382D02*
G75*
G02*
X193534361Y3585382I-1000000J1122254D01*
G01*
%TO.C,C24*%
X200250008Y-20370061D02*
X200250010Y-17770061D01*
X201850012Y-17770061D02*
X201850010Y-20370061D01*
X200250010Y-17770061D02*
G75*
G02*
X201850012Y-17770061I800001J-840224D01*
G01*
X201850010Y-20370061D02*
G75*
G02*
X200250008Y-20370061I-800001J840224D01*
G01*
%TO.C,U5*%
X170915000Y-17215000D02*
X171185000Y-17215000D01*
X170915000Y-19975000D02*
X170915000Y-17215000D01*
X170915000Y-19975000D02*
X170915000Y-22735000D01*
X170915000Y-22735000D02*
X171185000Y-22735000D01*
X176435000Y-17215000D02*
X176165000Y-17215000D01*
X176435000Y-19975000D02*
X176435000Y-17215000D01*
X176435000Y-19975000D02*
X176435000Y-22735000D01*
X176435000Y-22735000D02*
X176165000Y-22735000D01*
X176495000Y-23740000D02*
X176165000Y-23500000D01*
X176495000Y-23260000D01*
X176495000Y-23740000D01*
G36*
X176495000Y-23740000D02*
G01*
X176165000Y-23500000D01*
X176495000Y-23260000D01*
X176495000Y-23740000D01*
G37*
%TO.C,C29*%
X180739815Y-7570014D02*
X180739817Y-4970014D01*
X182339819Y-4970014D02*
X182339817Y-7570014D01*
X180739817Y-4970014D02*
G75*
G02*
X182339819Y-4970014I800001J-840224D01*
G01*
X182339817Y-7570014D02*
G75*
G02*
X180739815Y-7570014I-800001J840224D01*
G01*
%TO.C,C27*%
X183160183Y-24239976D02*
X185760183Y-24239978D01*
X185760183Y-25839980D02*
X183160183Y-25839978D01*
X183160183Y-25839978D02*
G75*
G02*
X183160183Y-24239976I840224J800001D01*
G01*
X185760183Y-24239978D02*
G75*
G02*
X185760183Y-25839980I-840224J-800001D01*
G01*
%TO.C,C28*%
X200619817Y-6690016D02*
X203219817Y-6690018D01*
X203219817Y-8290020D02*
X200619817Y-8290018D01*
X200619817Y-8290018D02*
G75*
G02*
X200619817Y-6690016I840224J800001D01*
G01*
X203219817Y-6690018D02*
G75*
G02*
X203219817Y-8290020I-840224J-800001D01*
G01*
%TO.C,J3*%
X157310000Y19995000D02*
X157310000Y17255000D01*
X157310000Y17255000D02*
X170250000Y17255000D01*
X158260000Y25995000D02*
X158260000Y19995000D01*
X158260000Y15145000D02*
X158260000Y17255000D01*
X159140000Y25995000D02*
X158260000Y25995000D01*
X159140000Y19995000D02*
X159140000Y25995000D01*
X159140000Y15145000D02*
X159140000Y17255000D01*
X160800000Y25995000D02*
X160800000Y19995000D01*
X160800000Y15145000D02*
X160800000Y17255000D01*
X161680000Y25995000D02*
X160800000Y25995000D01*
X161680000Y19995000D02*
X161680000Y25995000D01*
X161680000Y15145000D02*
X161680000Y17255000D01*
X163340000Y25995000D02*
X163340000Y19995000D01*
X163340000Y15145000D02*
X163340000Y17255000D01*
X164220000Y25995000D02*
X163340000Y25995000D01*
X164220000Y19995000D02*
X164220000Y25995000D01*
X164220000Y15145000D02*
X164220000Y17255000D01*
X165880000Y25995000D02*
X165880000Y19995000D01*
X165880000Y15145000D02*
X165880000Y17255000D01*
X166760000Y25995000D02*
X165880000Y25995000D01*
X166760000Y19995000D02*
X166760000Y25995000D01*
X166760000Y15145000D02*
X166760000Y17255000D01*
X168420000Y25995000D02*
X168420000Y19995000D01*
X168420000Y15145000D02*
X168420000Y17255000D01*
X168860000Y12005000D02*
X169680000Y12005000D01*
X169300000Y25995000D02*
X168420000Y25995000D01*
X169300000Y19995000D02*
X169300000Y25995000D01*
X169300000Y15145000D02*
X169300000Y17255000D01*
X169680000Y12005000D02*
X169680000Y13575000D01*
X170250000Y19995000D02*
X157310000Y19995000D01*
X170250000Y17255000D02*
X170250000Y19995000D01*
%TO.C,C15*%
X239717738Y-4460000D02*
X242717738Y-4460000D01*
X242717738Y-2460000D02*
X239717738Y-2460000D01*
X239717738Y-4460000D02*
G75*
G02*
X239717738Y-2460000I1122254J1000000D01*
G01*
X242717738Y-2460000D02*
G75*
G02*
X242717738Y-4460000I-1122254J-1000000D01*
G01*
%TO.C,C26*%
X178879937Y-7660002D02*
X178879939Y-5060002D01*
X180479941Y-5060002D02*
X180479939Y-7660002D01*
X178879939Y-5060002D02*
G75*
G02*
X180479941Y-5060002I800001J-840224D01*
G01*
X180479939Y-7660002D02*
G75*
G02*
X178879937Y-7660002I-800001J840224D01*
G01*
%TO.C,J1*%
X206765000Y16660000D02*
X206765000Y14955000D01*
X206765000Y11025000D02*
X206765000Y12945000D01*
X215925000Y16660000D02*
X206765000Y16660000D01*
X215925000Y14955000D02*
X215925000Y16660000D01*
X215925000Y12945000D02*
X215925000Y11025000D01*
D12*
%TO.C,PJ1*%
X222112000Y15123000D02*
X222660000Y15123000D01*
X222112000Y14456000D02*
X222112000Y15063000D01*
X222112000Y10856000D02*
X222112000Y12494000D01*
X222112000Y4756000D02*
X222112000Y8894000D01*
X222112000Y2744000D02*
X222112000Y2794000D01*
X222660000Y15123000D02*
X222660000Y17063000D01*
X227660000Y17063000D02*
X222660000Y17063000D01*
X227660000Y15123000D02*
X227660000Y17063000D01*
X228208000Y15123000D02*
X227660000Y15123000D01*
X228208000Y15063000D02*
X228208000Y13556000D01*
X228208000Y11594000D02*
X228208000Y6556000D01*
X228208000Y4594000D02*
X228208000Y2744000D01*
X228208000Y2744000D02*
X222112000Y2744000D01*
D11*
%TO.C,C7*%
X225940894Y30000D02*
X228940894Y30000D01*
X228940894Y2030000D02*
X225940894Y2030000D01*
X225940894Y30000D02*
G75*
G02*
X225940894Y2030000I1122254J1000000D01*
G01*
X228940894Y2030000D02*
G75*
G02*
X228940894Y30000I-1122254J-1000000D01*
G01*
%TO.C,R23*%
X173536316Y-33065000D02*
X175536316Y-33065000D01*
X173536316Y-36465000D02*
X173536316Y-33065000D01*
X175536316Y-33065000D02*
X175536316Y-36465000D01*
X175536316Y-36465000D02*
X173536316Y-36465000D01*
%TO.C,RN2*%
X227942208Y-7210000D02*
X231742208Y-7210000D01*
X227942208Y-10410000D02*
X227942208Y-7210000D01*
X229067508Y-7222700D02*
X229067508Y-7337000D01*
X229067508Y-10397300D02*
X229067508Y-10283000D01*
X229842208Y-7337000D02*
X229842208Y-7210000D01*
X229842208Y-10283000D02*
X229842208Y-10410000D01*
X230616908Y-7222700D02*
X230616908Y-7337000D01*
X230616908Y-10397300D02*
X230616908Y-10283000D01*
X231742208Y-7210000D02*
X231742208Y-10410000D01*
X231742208Y-10410000D02*
X227942208Y-10410000D01*
D12*
%TO.C,SW7*%
X244940000Y-17183000D02*
X244940000Y-21683000D01*
X244940000Y-21683000D02*
X249440000Y-21683000D01*
X249440000Y-17183000D02*
X244940000Y-17183000D01*
X249440000Y-21683000D02*
X249440000Y-17183000D01*
X246150500Y-18033000D02*
G75*
G02*
X245429500Y-18033000I-360500J0D01*
G01*
X245429500Y-18033000D02*
G75*
G02*
X246150500Y-18033000I360500J0D01*
G01*
X246150500Y-20833000D02*
G75*
G02*
X245429500Y-20833000I-360500J0D01*
G01*
X245429500Y-20833000D02*
G75*
G02*
X246150500Y-20833000I360500J0D01*
G01*
X248112000Y-19433000D02*
G75*
G02*
X246268000Y-19433000I-922000J0D01*
G01*
X246268000Y-19433000D02*
G75*
G02*
X248112000Y-19433000I922000J0D01*
G01*
X248950500Y-18033000D02*
G75*
G02*
X248229500Y-18033000I-360500J0D01*
G01*
X248229500Y-18033000D02*
G75*
G02*
X248950500Y-18033000I360500J0D01*
G01*
X248950500Y-20833000D02*
G75*
G02*
X248229500Y-20833000I-360500J0D01*
G01*
X248229500Y-20833000D02*
G75*
G02*
X248950500Y-20833000I360500J0D01*
G01*
D11*
%TO.C,C14*%
X235399526Y-4380000D02*
X238399526Y-4380000D01*
X238399526Y-2380000D02*
X235399526Y-2380000D01*
X235399526Y-4380000D02*
G75*
G02*
X235399526Y-2380000I1122254J1000000D01*
G01*
X238399526Y-2380000D02*
G75*
G02*
X238399526Y-4380000I-1122254J-1000000D01*
G01*
%TO.C,C25*%
X197379939Y-22280004D02*
X199979939Y-22280006D01*
X199979939Y-23880008D02*
X197379939Y-23880006D01*
X197379939Y-23880006D02*
G75*
G02*
X197379939Y-22280004I840224J800001D01*
G01*
X199979939Y-22280006D02*
G75*
G02*
X199979939Y-23880008I-840224J-800001D01*
G01*
%TO.C,L1*%
X171783501Y9840287D02*
X171783501Y10690287D01*
X171783501Y6820287D02*
X171783501Y5970287D01*
X176503501Y10690287D02*
X171783501Y10690287D01*
X176503501Y9840287D02*
X176503501Y10690287D01*
X176503501Y6820287D02*
X176503501Y5970287D01*
X176503501Y5970287D02*
X171783501Y5970287D01*
D12*
%TO.C,J4*%
X161900000Y-38352330D02*
X161900000Y-40552330D01*
X161900000Y-38352330D02*
X162882000Y-38352330D01*
X169905670Y-42752330D02*
X162938670Y-42752330D01*
X170900000Y-38352330D02*
X169920000Y-38352330D01*
X170900000Y-38352330D02*
X170900000Y-40552330D01*
D11*
%TO.C,C32*%
X242989815Y-18160002D02*
X242989817Y-15560002D01*
X244589819Y-15560002D02*
X244589817Y-18160002D01*
X242989817Y-15560002D02*
G75*
G02*
X244589819Y-15560002I800001J-840224D01*
G01*
X244589817Y-18160002D02*
G75*
G02*
X242989815Y-18160002I-800001J840224D01*
G01*
D12*
%TO.C,SW8*%
X244929000Y-8310000D02*
X244929000Y-12810000D01*
X244929000Y-12810000D02*
X249429000Y-12810000D01*
X249429000Y-8310000D02*
X244929000Y-8310000D01*
X249429000Y-12810000D02*
X249429000Y-8310000D01*
X246139500Y-9160000D02*
G75*
G02*
X245418500Y-9160000I-360500J0D01*
G01*
X245418500Y-9160000D02*
G75*
G02*
X246139500Y-9160000I360500J0D01*
G01*
X246139500Y-11960000D02*
G75*
G02*
X245418500Y-11960000I-360500J0D01*
G01*
X245418500Y-11960000D02*
G75*
G02*
X246139500Y-11960000I360500J0D01*
G01*
X248101000Y-10560000D02*
G75*
G02*
X246257000Y-10560000I-922000J0D01*
G01*
X246257000Y-10560000D02*
G75*
G02*
X248101000Y-10560000I922000J0D01*
G01*
X248939500Y-9160000D02*
G75*
G02*
X248218500Y-9160000I-360500J0D01*
G01*
X248218500Y-9160000D02*
G75*
G02*
X248939500Y-9160000I360500J0D01*
G01*
X248939500Y-11960000D02*
G75*
G02*
X248218500Y-11960000I-360500J0D01*
G01*
X248218500Y-11960000D02*
G75*
G02*
X248939500Y-11960000I360500J0D01*
G01*
D11*
%TO.C,U3*%
X207895000Y900000D02*
X211495000Y900000D01*
X207895000Y-2700000D02*
X207895000Y900000D01*
X211495000Y900000D02*
X211495000Y-2700000D01*
X211495000Y-2700000D02*
X207895000Y-2700000D01*
%TO.C,R15*%
X180168724Y7200764D02*
X182168724Y7200764D01*
X180168724Y3800764D02*
X180168724Y7200764D01*
X182168724Y7200764D02*
X182168724Y3800764D01*
X182168724Y3800764D02*
X180168724Y3800764D01*
%TO.C,C4*%
X217370000Y-14940894D02*
X220370000Y-14940894D01*
X220370000Y-12940894D02*
X217370000Y-12940894D01*
X217370000Y-14940894D02*
G75*
G02*
X217370000Y-12940894I1122254J1000000D01*
G01*
X220370000Y-12940894D02*
G75*
G02*
X220370000Y-14940894I-1122254J-1000000D01*
G01*
%TO.C,C20*%
X174252607Y-1444713D02*
X178452607Y-1444713D01*
X178452607Y-3844713D02*
X174252607Y-3844713D01*
X174252607Y-3844713D02*
G75*
G02*
X174252607Y-1444713I1408120J1200000D01*
G01*
X178452607Y-1444713D02*
G75*
G02*
X178452607Y-3844713I-1474352J-1200000D01*
G01*
%TO.C,C35*%
X173849695Y-13720012D02*
X176449695Y-13720014D01*
X176449695Y-15320016D02*
X173849695Y-15320014D01*
X173849695Y-15320014D02*
G75*
G02*
X173849695Y-13720012I840224J800001D01*
G01*
X176449695Y-13720014D02*
G75*
G02*
X176449695Y-15320016I-840224J-800001D01*
G01*
%TO.C,C8*%
X196634362Y3095381D02*
X196634362Y95381D01*
X198634362Y95381D02*
X198634362Y3095381D01*
X196634362Y3095381D02*
G75*
G02*
X198634362Y3095381I1000000J-1122254D01*
G01*
X198634362Y95381D02*
G75*
G02*
X196634362Y95381I-1000000J1122254D01*
G01*
%TO.C,C22*%
X196770061Y-2959980D02*
X199370061Y-2959982D01*
X199370061Y-4559984D02*
X196770061Y-4559982D01*
X196770061Y-4559982D02*
G75*
G02*
X196770061Y-2959980I840224J800001D01*
G01*
X199370061Y-2959982D02*
G75*
G02*
X199370061Y-4559984I-840224J-800001D01*
G01*
%TO.C,R18*%
X154260000Y-580000D02*
X157660000Y-580000D01*
X154260000Y-2580000D02*
X154260000Y-580000D01*
X157660000Y-580000D02*
X157660000Y-2580000D01*
X157660000Y-2580000D02*
X154260000Y-2580000D01*
D13*
%TO.C,J8*%
X153240000Y-14447000D02*
X155603000Y-14447000D01*
X153240000Y-20447000D02*
X155603000Y-20447000D01*
X155603000Y-14447000D02*
X155603000Y-15247000D01*
X155603000Y-20447000D02*
X155603000Y-19647000D01*
D10*
X157040000Y-18947000D02*
X157040000Y-18947000D01*
X157140000Y-18947000D02*
X157140000Y-18947000D01*
X157040000Y-18947000D02*
G75*
G02*
X157140000Y-18947000I50000J0D01*
G01*
X157140000Y-18947000D02*
G75*
G02*
X157040000Y-18947000I-50000J0D01*
G01*
D13*
%TO.C,IC1*%
X184600000Y-6770000D02*
X184600000Y-20070000D01*
X184600000Y-20070000D02*
X197900000Y-20070000D01*
X197900000Y-6770000D02*
X184600000Y-6770000D01*
X197900000Y-20070000D02*
X197900000Y-6770000D01*
D14*
X199600000Y-6670000D02*
G75*
G02*
X199350000Y-6670000I-125000J0D01*
G01*
X199350000Y-6670000D02*
G75*
G02*
X199600000Y-6670000I125000J0D01*
G01*
D11*
%TO.C,R25*%
X204150000Y11340000D02*
X205750000Y11340000D01*
X204150000Y7940000D02*
X204150000Y11340000D01*
X205750000Y11340000D02*
X205750000Y7940000D01*
X205750000Y7940000D02*
X204150000Y7940000D01*
%TO.C,C3*%
X219200000Y-540894D02*
X219200000Y-3540894D01*
X221200000Y-3540894D02*
X221200000Y-540894D01*
X219200000Y-540894D02*
G75*
G02*
X221200000Y-540894I1000000J-1122254D01*
G01*
X221200000Y-3540894D02*
G75*
G02*
X219200000Y-3540894I-1000000J1122254D01*
G01*
%TO.C,D1*%
X176083501Y5735287D02*
X179683501Y5735287D01*
X176083501Y-1464713D02*
X176083501Y5735287D01*
X179683501Y5735287D02*
X179683501Y-1464713D01*
X179683501Y-1464713D02*
X176083501Y-1464713D01*
D10*
X176083501Y-164713D02*
X175683501Y-164713D01*
X175683501Y935287D01*
X176083501Y935287D01*
X176083501Y-164713D01*
G36*
X176083501Y-164713D02*
G01*
X175683501Y-164713D01*
X175683501Y935287D01*
X176083501Y935287D01*
X176083501Y-164713D01*
G37*
X180083501Y-164713D02*
X179683501Y-164713D01*
X179683501Y935287D01*
X180083501Y935287D01*
X180083501Y-164713D01*
G36*
X180083501Y-164713D02*
G01*
X179683501Y-164713D01*
X179683501Y935287D01*
X180083501Y935287D01*
X180083501Y-164713D01*
G37*
D11*
%TO.C,C12*%
X188834362Y2545382D02*
X191834362Y2545382D01*
X191834362Y4545382D02*
X188834362Y4545382D01*
X188834362Y2545382D02*
G75*
G02*
X188834362Y4545382I1122254J1000000D01*
G01*
X191834362Y4545382D02*
G75*
G02*
X191834362Y2545382I-1122254J-1000000D01*
G01*
%TO.C,C13*%
X188934363Y4715382D02*
X191934363Y4715382D01*
X191934363Y6715382D02*
X188934363Y6715382D01*
X188934363Y4715382D02*
G75*
G02*
X188934363Y6715382I1122254J1000000D01*
G01*
X191934363Y6715382D02*
G75*
G02*
X191934363Y4715382I-1122254J-1000000D01*
G01*
%TO.C,C2*%
X221280000Y-540894D02*
X221280000Y-3540894D01*
X223280000Y-3540894D02*
X223280000Y-540894D01*
X221280000Y-540894D02*
G75*
G02*
X223280000Y-540894I1000000J-1122254D01*
G01*
X223280000Y-3540894D02*
G75*
G02*
X221280000Y-3540894I-1000000J1122254D01*
G01*
%TO.C,C21*%
X200629939Y-8410020D02*
X203229939Y-8410022D01*
X203229939Y-10010024D02*
X200629939Y-10010022D01*
X200629939Y-10010022D02*
G75*
G02*
X200629939Y-8410020I840224J800001D01*
G01*
X203229939Y-8410022D02*
G75*
G02*
X203229939Y-10010024I-840224J-800001D01*
G01*
%TO.C,C39*%
X201759937Y-2410002D02*
X201759939Y189998D01*
X203359941Y189998D02*
X203359939Y-2410002D01*
X201759939Y189998D02*
G75*
G02*
X203359941Y189998I800001J-840224D01*
G01*
X203359939Y-2410002D02*
G75*
G02*
X201759937Y-2410002I-800001J840224D01*
G01*
%TO.C,C37*%
X205690894Y-2430000D02*
X205690894Y570000D01*
X207690894Y570000D02*
X207690894Y-2430000D01*
X205690894Y570000D02*
G75*
G02*
X207690894Y570000I1000000J-1122254D01*
G01*
X207690894Y-2430000D02*
G75*
G02*
X205690894Y-2430000I-1000000J1122254D01*
G01*
%TO.C,C1*%
X216910000Y-540894D02*
X216910000Y-3540894D01*
X218910000Y-3540894D02*
X218910000Y-540894D01*
X216910000Y-540894D02*
G75*
G02*
X218910000Y-540894I1000000J-1122254D01*
G01*
X218910000Y-3540894D02*
G75*
G02*
X216910000Y-3540894I-1000000J1122254D01*
G01*
%TO.C,U1*%
X220790000Y-6720000D02*
X220790000Y-8920000D01*
X220790000Y-11120000D02*
X220790000Y-8920000D01*
X227560000Y-6720000D02*
X227560000Y-8920000D01*
X227560000Y-11120000D02*
X227560000Y-8920000D01*
X221250000Y-5060000D02*
X221010000Y-4730000D01*
X221490000Y-4730000D01*
X221250000Y-5060000D01*
G36*
X221250000Y-5060000D02*
G01*
X221010000Y-4730000D01*
X221490000Y-4730000D01*
X221250000Y-5060000D01*
G37*
%TO.C,L2*%
X205580000Y-17320000D02*
X207180000Y-17320000D01*
X205580000Y-20520000D02*
X205580000Y-17320000D01*
X207180000Y-17320000D02*
X207180000Y-20520000D01*
X207180000Y-20520000D02*
X205580000Y-20520000D01*
%TO.C,X1*%
X202400000Y-10950000D02*
X202400000Y-15350000D01*
X202400000Y-15350000D02*
X206000000Y-15350000D01*
X205500000Y-10950000D02*
X202400000Y-10950000D01*
X206000000Y-15350000D02*
X206000000Y-11450000D01*
D13*
X205863500Y-11150000D02*
G75*
G02*
X205736500Y-11150000I-63500J0D01*
G01*
X205736500Y-11150000D02*
G75*
G02*
X205863500Y-11150000I63500J0D01*
G01*
D11*
%TO.C,R14*%
X172723501Y2345287D02*
X172723501Y745287D01*
X172723501Y745287D02*
X175723501Y745287D01*
X175723501Y2345287D02*
X172723501Y2345287D01*
X175723501Y745287D02*
X175723501Y2345287D01*
%TO.C,C5*%
X227790000Y-490894D02*
X227790000Y-3490894D01*
X229790000Y-3490894D02*
X229790000Y-490894D01*
X227790000Y-490894D02*
G75*
G02*
X229790000Y-490894I1000000J-1122254D01*
G01*
X229790000Y-3490894D02*
G75*
G02*
X227790000Y-3490894I-1000000J1122254D01*
G01*
%TO.C,R19*%
X154260000Y-2860000D02*
X157660000Y-2860000D01*
X154260000Y-4860000D02*
X154260000Y-2860000D01*
X157660000Y-2860000D02*
X157660000Y-4860000D01*
X157660000Y-4860000D02*
X154260000Y-4860000D01*
D15*
%TO.C,U2*%
X173165501Y5639287D02*
X174943501Y5639287D01*
X173165501Y2561287D02*
X174943501Y2561287D01*
D16*
X175506500Y5768787D02*
G75*
G02*
X175205502Y5768787I-150499J0D01*
G01*
X175205502Y5768787D02*
G75*
G02*
X175506500Y5768787I150499J0D01*
G01*
D11*
%TO.C,F1*%
X208150000Y4750000D02*
X211350000Y4750000D01*
X208150000Y3150000D02*
X208150000Y4750000D01*
X211350000Y4750000D02*
X211350000Y3150000D01*
X211350000Y3150000D02*
X208150000Y3150000D01*
%TD*%
D17*
%TO.C,J3*%
X168860000Y22995000D03*
%TD*%
%LPC*%
D18*
%TO.C,R3*%
X221665712Y-13910000D03*
X223490712Y-13910000D03*
%TD*%
D19*
%TO.C,C40*%
X182784106Y-28180000D03*
X181234106Y-28180000D03*
%TD*%
D20*
%TO.C,C41*%
X175515894Y-31200000D03*
X173965894Y-31200000D03*
%TD*%
D21*
%TO.C,U4*%
X177537500Y-30430000D03*
X183262500Y-29780000D03*
X183262500Y-30430000D03*
X183262500Y-31080000D03*
X183262500Y-31730000D03*
X183262500Y-32380000D03*
X183262500Y-33030000D03*
X183262500Y-33680000D03*
X183262500Y-34330000D03*
X183262500Y-34980000D03*
X183262500Y-35630000D03*
X177537500Y-35630000D03*
X177537500Y-34980000D03*
X177537500Y-34330000D03*
X177537500Y-33680000D03*
X177537500Y-33030000D03*
X177537500Y-32380000D03*
X177537500Y-31730000D03*
X177537500Y-31080000D03*
X177537500Y-29780000D03*
%TD*%
D18*
%TO.C,R29*%
X177467500Y-26810000D03*
X179292500Y-26810000D03*
%TD*%
%TO.C,R28*%
X201467500Y2320000D03*
X203292500Y2320000D03*
%TD*%
D22*
%TO.C,R27*%
X193380000Y-33712500D03*
X193380000Y-31887500D03*
%TD*%
%TO.C,R26*%
X187630000Y-33582500D03*
X187630000Y-31757500D03*
%TD*%
D23*
%TO.C,R16*%
X185035000Y-36070000D03*
X186685000Y-36070000D03*
%TD*%
D24*
%TO.C,Q2*%
X191450000Y-33680000D03*
X189550000Y-33680000D03*
X190500000Y-31680000D03*
%TD*%
D25*
%TO.C,LED2*%
X173962500Y-26900000D03*
X175837500Y-26900000D03*
%TD*%
D26*
%TO.C,LED1*%
X206837500Y2380000D03*
X204962500Y2380000D03*
%TD*%
D27*
%TO.C,J5*%
X184650000Y-38100340D03*
X185650000Y-38100340D03*
X183650000Y-38100340D03*
X182650000Y-38100340D03*
X181650000Y-38100340D03*
X180650000Y-38100340D03*
X179650000Y-38100340D03*
D28*
X186950000Y-41975340D03*
X178350000Y-41975340D03*
%TD*%
D29*
%TO.C,H2*%
X246475000Y13575000D03*
%TD*%
D30*
%TO.C,SW9*%
X244675500Y1570000D03*
X233675500Y1570000D03*
D31*
X236635500Y-5930000D03*
X241715500Y-5930000D03*
X239175500Y-5930000D03*
X236635500Y8570000D03*
X241715500Y8570000D03*
%TD*%
D29*
%TO.C,H4*%
X153475000Y-39325000D03*
%TD*%
D30*
%TO.C,SW10*%
X233724500Y-26370000D03*
X244724500Y-26370000D03*
D31*
X241764500Y-18870000D03*
X236684500Y-18870000D03*
X239224500Y-18870000D03*
X241764500Y-33370000D03*
X236684500Y-33370000D03*
%TD*%
D29*
%TO.C,H3*%
X153475000Y13625000D03*
%TD*%
%TO.C,H1*%
X246475000Y-39275000D03*
%TD*%
D23*
%TO.C,R13*%
X173261499Y-285287D03*
X174911499Y-285287D03*
%TD*%
D32*
%TO.C,J7*%
X155837000Y2387000D03*
X155837000Y3387000D03*
X155837000Y4387000D03*
X155837000Y5387000D03*
D33*
X151962000Y1087000D03*
X151962000Y6687000D03*
%TD*%
D34*
%TO.C,C34*%
X201149695Y-10965018D03*
X201149695Y-12515018D03*
%TD*%
D35*
%TO.C,R22*%
X243550000Y-9787500D03*
X243550000Y-11612500D03*
%TD*%
D36*
%TO.C,C30*%
X204539817Y-19825010D03*
X204539817Y-18275010D03*
%TD*%
D37*
%TO.C,C17*%
X236232262Y-21500000D03*
X238132262Y-21500000D03*
%TD*%
D38*
%TO.C,C36*%
X210640894Y1940000D03*
X208740894Y1940000D03*
%TD*%
D39*
%TO.C,C38*%
X204440894Y-100000D03*
X204440894Y-2000000D03*
%TD*%
D19*
%TO.C,C23*%
X185204939Y-23270014D03*
X183654939Y-23270014D03*
%TD*%
D40*
%TO.C,R12*%
X185687045Y6427882D03*
X185687045Y4602882D03*
%TD*%
D41*
%TO.C,R20*%
X170943498Y1911426D03*
X169118498Y1911426D03*
%TD*%
D40*
%TO.C,R11*%
X183487044Y6347881D03*
X183487044Y4522881D03*
%TD*%
D38*
%TO.C,C18*%
X221070000Y-16104470D03*
X219170000Y-16104470D03*
%TD*%
%TO.C,C16*%
X242132262Y-21420000D03*
X240232262Y-21420000D03*
%TD*%
D22*
%TO.C,R2*%
X226680000Y-3012500D03*
X226680000Y-1187500D03*
%TD*%
%TO.C,R1*%
X224430000Y-2942500D03*
X224430000Y-1117500D03*
%TD*%
%TO.C,R21*%
X168426316Y-35737500D03*
X168426316Y-33912500D03*
%TD*%
D32*
%TO.C,J9*%
X155987000Y-28163000D03*
X155987000Y-27163000D03*
X155987000Y-26163000D03*
X155987000Y-25163000D03*
D33*
X152112000Y-29463000D03*
X152112000Y-23863000D03*
%TD*%
D42*
%TO.C,C9*%
X197574618Y4134364D03*
X197574618Y6034362D03*
%TD*%
D43*
%TO.C,LCD1*%
X198000056Y9605382D03*
X197500056Y9605382D03*
X197000056Y9605382D03*
X196500056Y9605382D03*
X196000056Y9605382D03*
X195500056Y9605382D03*
X195000056Y9605382D03*
X194500056Y9605382D03*
X194000056Y9605382D03*
X193500056Y9605382D03*
X193000056Y9605382D03*
X192500056Y9605382D03*
X192000056Y9605382D03*
X191500056Y9605382D03*
X191000056Y9605382D03*
X190500056Y9605382D03*
X190000056Y9605382D03*
X189500056Y9605382D03*
X189000056Y9605382D03*
X188500056Y9605382D03*
X188000056Y9605382D03*
X187500056Y9605382D03*
X187000056Y9605382D03*
X186500056Y9605382D03*
X186000056Y9605382D03*
X185500056Y9605382D03*
X185000056Y9605382D03*
X184500056Y9605382D03*
X184000056Y9605382D03*
X183500056Y9605382D03*
X183000056Y9605382D03*
X182500056Y9605382D03*
D44*
X180600056Y12855382D03*
X199900056Y12855382D03*
%TD*%
D37*
%TO.C,C6*%
X222360000Y959106D03*
X224260000Y959106D03*
%TD*%
D35*
%TO.C,R24*%
X217700000Y10582500D03*
X217700000Y8757500D03*
%TD*%
D36*
%TO.C,C31*%
X202789817Y-19855006D03*
X202789817Y-18305006D03*
%TD*%
%TO.C,C33*%
X201149695Y-15735022D03*
X201149695Y-14185022D03*
%TD*%
D45*
%TO.C,C19*%
X170869395Y4145287D03*
X167919395Y4145287D03*
%TD*%
D46*
%TO.C,RN1*%
X221160000Y-18160000D03*
D47*
X221160000Y-18960000D03*
X221160000Y-19760000D03*
D46*
X221160000Y-20560000D03*
X219360000Y-20560000D03*
D47*
X219360000Y-19760000D03*
X219360000Y-18960000D03*
D46*
X219360000Y-18160000D03*
%TD*%
D42*
%TO.C,C10*%
X194494619Y534363D03*
X194494619Y2434361D03*
%TD*%
D24*
%TO.C,Q1*%
X172376316Y-35865000D03*
X170476316Y-35865000D03*
X171426316Y-33865000D03*
%TD*%
D42*
%TO.C,C11*%
X194534361Y4135383D03*
X194534361Y6035381D03*
%TD*%
D36*
%TO.C,C24*%
X201050010Y-19845061D03*
X201050010Y-18295061D03*
%TD*%
D48*
%TO.C,U5*%
X175580000Y-23562500D03*
X174310000Y-23562500D03*
X173040000Y-23562500D03*
X171770000Y-23562500D03*
X171770000Y-16387500D03*
X173040000Y-16387500D03*
X174310000Y-16387500D03*
X175580000Y-16387500D03*
%TD*%
D36*
%TO.C,C29*%
X181539817Y-7045014D03*
X181539817Y-5495014D03*
%TD*%
D19*
%TO.C,C27*%
X185235183Y-25039978D03*
X183685183Y-25039978D03*
%TD*%
D20*
%TO.C,C28*%
X201144817Y-7490018D03*
X202694817Y-7490018D03*
%TD*%
D49*
%TO.C,J3*%
X168860000Y13575000D03*
X166320000Y13575000D03*
X163780000Y13575000D03*
X161240000Y13575000D03*
X158700000Y13575000D03*
%TD*%
D38*
%TO.C,C15*%
X242167738Y-3460000D03*
X240267738Y-3460000D03*
%TD*%
D36*
%TO.C,C26*%
X179679939Y-7135002D03*
X179679939Y-5585002D03*
%TD*%
D50*
%TO.C,J1*%
X208455000Y10270000D03*
X214235000Y10270000D03*
D51*
X208145000Y9150000D03*
X208945000Y9150000D03*
D52*
X210095000Y9150000D03*
X211095000Y9150000D03*
X211595000Y9150000D03*
X212595000Y9150000D03*
D51*
X213745000Y9150000D03*
X214545000Y9150000D03*
X214545000Y9150000D03*
X213745000Y9150000D03*
D52*
X213095000Y9150000D03*
X212095000Y9150000D03*
X210595000Y9150000D03*
X209595000Y9150000D03*
D51*
X208945000Y9150000D03*
X208145000Y9150000D03*
D53*
X207025000Y13950000D03*
D54*
X207025000Y9750000D03*
D53*
X215665000Y13950000D03*
D54*
X215665000Y9750000D03*
%TD*%
D55*
%TO.C,PJ1*%
X221660000Y13475000D03*
X221660000Y9875000D03*
X228660000Y5575000D03*
X221660000Y3775000D03*
X228660000Y12575000D03*
%TD*%
D38*
%TO.C,C7*%
X228390894Y1030000D03*
X226490894Y1030000D03*
%TD*%
D22*
%TO.C,R23*%
X174536316Y-35677500D03*
X174536316Y-33852500D03*
%TD*%
D56*
%TO.C,RN2*%
X231042208Y-9710000D03*
D57*
X230242208Y-9710000D03*
X229442208Y-9710000D03*
D56*
X228642208Y-9710000D03*
X228642208Y-7910000D03*
D57*
X229442208Y-7910000D03*
X230242208Y-7910000D03*
D56*
X231042208Y-7910000D03*
%TD*%
D58*
%TO.C,SW7*%
X245690000Y-16033000D03*
X245690000Y-22833000D03*
X248690000Y-16033000D03*
X248690000Y-22833000D03*
%TD*%
D37*
%TO.C,C14*%
X235949526Y-3380000D03*
X237849526Y-3380000D03*
%TD*%
D19*
%TO.C,C25*%
X199454939Y-23080006D03*
X197904939Y-23080006D03*
%TD*%
D59*
%TO.C,L1*%
X172293501Y8330287D03*
X175993501Y8330287D03*
%TD*%
D27*
%TO.C,J4*%
X168400000Y-37875000D03*
X169400000Y-37875000D03*
X167400000Y-37875000D03*
X166400000Y-37875000D03*
X165400000Y-37875000D03*
X164400000Y-37875000D03*
X163400000Y-37875000D03*
D28*
X170700000Y-41750000D03*
X162100000Y-41750000D03*
%TD*%
D34*
%TO.C,C32*%
X243789817Y-16085002D03*
X243789817Y-17635002D03*
%TD*%
D58*
%TO.C,SW8*%
X248679000Y-13960000D03*
X248679000Y-7160000D03*
X245679000Y-13960000D03*
X245679000Y-7160000D03*
%TD*%
D60*
%TO.C,U3*%
X210695000Y-900000D03*
X208695000Y-1850000D03*
X208695000Y50000D03*
%TD*%
D40*
%TO.C,R15*%
X181168724Y6413264D03*
X181168724Y4588264D03*
%TD*%
D38*
%TO.C,C4*%
X219820000Y-13940894D03*
X217920000Y-13940894D03*
%TD*%
D45*
%TO.C,C20*%
X177827607Y-2644713D03*
X174877607Y-2644713D03*
%TD*%
D20*
%TO.C,C35*%
X174374695Y-14520014D03*
X175924695Y-14520014D03*
%TD*%
D42*
%TO.C,C8*%
X197634362Y645382D03*
X197634362Y2545380D03*
%TD*%
D19*
%TO.C,C22*%
X198845061Y-3759982D03*
X197295061Y-3759982D03*
%TD*%
D41*
%TO.C,R18*%
X156872500Y-1580000D03*
X155047500Y-1580000D03*
%TD*%
D32*
%TO.C,J8*%
X155927000Y-18947000D03*
X155927000Y-17947000D03*
X155927000Y-16947000D03*
X155927000Y-15947000D03*
D33*
X152052000Y-20247000D03*
X152052000Y-14647000D03*
%TD*%
D61*
%TO.C,IC1*%
X198988000Y-7420000D03*
X198988000Y-7920000D03*
X198988000Y-8420000D03*
X198988000Y-8920000D03*
X198988000Y-9420000D03*
X198988000Y-9920000D03*
X198988000Y-10420000D03*
X198988000Y-10920000D03*
X198988000Y-11420000D03*
X198988000Y-11920000D03*
X198988000Y-12420000D03*
X198988000Y-12920000D03*
X198988000Y-13420000D03*
X198988000Y-13920000D03*
X198988000Y-14420000D03*
X198988000Y-14920000D03*
X198988000Y-15420000D03*
X198988000Y-15920000D03*
X198988000Y-16420000D03*
X198988000Y-16920000D03*
X198988000Y-17420000D03*
X198988000Y-17920000D03*
X198988000Y-18420000D03*
X198988000Y-18920000D03*
X198988000Y-19420000D03*
D62*
X197250000Y-21158000D03*
X196750000Y-21158000D03*
X196250000Y-21158000D03*
X195750000Y-21158000D03*
X195250000Y-21158000D03*
X194750000Y-21158000D03*
X194250000Y-21158000D03*
X193750000Y-21158000D03*
X193250000Y-21158000D03*
X192750000Y-21158000D03*
X192250000Y-21158000D03*
X191750000Y-21158000D03*
X191250000Y-21158000D03*
X190750000Y-21158000D03*
X190250000Y-21158000D03*
X189750000Y-21158000D03*
X189250000Y-21158000D03*
X188750000Y-21158000D03*
X188250000Y-21158000D03*
X187750000Y-21158000D03*
X187250000Y-21158000D03*
X186750000Y-21158000D03*
X186250000Y-21158000D03*
X185750000Y-21158000D03*
X185250000Y-21158000D03*
D61*
X183512000Y-19420000D03*
X183512000Y-18920000D03*
X183512000Y-18420000D03*
X183512000Y-17920000D03*
X183512000Y-17420000D03*
X183512000Y-16920000D03*
X183512000Y-16420000D03*
X183512000Y-15920000D03*
X183512000Y-15420000D03*
X183512000Y-14920000D03*
X183512000Y-14420000D03*
X183512000Y-13920000D03*
X183512000Y-13420000D03*
X183512000Y-12920000D03*
X183512000Y-12420000D03*
X183512000Y-11920000D03*
X183512000Y-11420000D03*
X183512000Y-10920000D03*
X183512000Y-10420000D03*
X183512000Y-9920000D03*
X183512000Y-9420000D03*
X183512000Y-8920000D03*
X183512000Y-8420000D03*
X183512000Y-7920000D03*
X183512000Y-7420000D03*
D62*
X185250000Y-5682000D03*
X185750000Y-5682000D03*
X186250000Y-5682000D03*
X186750000Y-5682000D03*
X187250000Y-5682000D03*
X187750000Y-5682000D03*
X188250000Y-5682000D03*
X188750000Y-5682000D03*
X189250000Y-5682000D03*
X189750000Y-5682000D03*
X190250000Y-5682000D03*
X190750000Y-5682000D03*
X191250000Y-5682000D03*
X191750000Y-5682000D03*
X192250000Y-5682000D03*
X192750000Y-5682000D03*
X193250000Y-5682000D03*
X193750000Y-5682000D03*
X194250000Y-5682000D03*
X194750000Y-5682000D03*
X195250000Y-5682000D03*
X195750000Y-5682000D03*
X196250000Y-5682000D03*
X196750000Y-5682000D03*
X197250000Y-5682000D03*
%TD*%
D35*
%TO.C,R25*%
X204950000Y10552500D03*
X204950000Y8727500D03*
%TD*%
D39*
%TO.C,C3*%
X220200000Y-1090894D03*
X220200000Y-2990894D03*
%TD*%
D63*
%TO.C,D1*%
X177883501Y135287D03*
X177883501Y4135287D03*
%TD*%
D37*
%TO.C,C12*%
X189384363Y3545382D03*
X191284361Y3545382D03*
%TD*%
%TO.C,C13*%
X189484364Y5715382D03*
X191384362Y5715382D03*
%TD*%
D42*
%TO.C,C2*%
X222280000Y-2990894D03*
X222280000Y-1090894D03*
%TD*%
D19*
%TO.C,C21*%
X202704939Y-9210022D03*
X201154939Y-9210022D03*
%TD*%
D34*
%TO.C,C39*%
X202559939Y-335002D03*
X202559939Y-1885002D03*
%TD*%
D39*
%TO.C,C37*%
X206690894Y20000D03*
X206690894Y-1880000D03*
%TD*%
D42*
%TO.C,C1*%
X217910000Y-2990894D03*
X217910000Y-1090894D03*
%TD*%
D64*
%TO.C,U1*%
X221250000Y-6057500D03*
X221900000Y-6057500D03*
X222550000Y-6057500D03*
X223200000Y-6057500D03*
X223850000Y-6057500D03*
X224500000Y-6057500D03*
X225150000Y-6057500D03*
X225800000Y-6057500D03*
X226450000Y-6057500D03*
X227100000Y-6057500D03*
X227100000Y-11782500D03*
X226450000Y-11782500D03*
X225800000Y-11782500D03*
X225150000Y-11782500D03*
X224500000Y-11782500D03*
X223850000Y-11782500D03*
X223200000Y-11782500D03*
X222550000Y-11782500D03*
X221900000Y-11782500D03*
X221250000Y-11782500D03*
%TD*%
D65*
%TO.C,L2*%
X206380000Y-19707500D03*
X206380000Y-18132500D03*
%TD*%
D66*
%TO.C,X1*%
X205050000Y-12050000D03*
X205050000Y-14250000D03*
X203350000Y-14250000D03*
X203350000Y-12050000D03*
%TD*%
D67*
%TO.C,R14*%
X175048501Y1545287D03*
X173398501Y1545287D03*
%TD*%
D42*
%TO.C,C5*%
X228790000Y-2940894D03*
X228790000Y-1040894D03*
%TD*%
D41*
%TO.C,R19*%
X156872500Y-3860000D03*
X155047500Y-3860000D03*
%TD*%
D68*
%TO.C,U2*%
X175203501Y5050287D03*
X175203501Y4100287D03*
X175203501Y3150287D03*
X172905501Y3150287D03*
X172905501Y4100287D03*
X172905501Y5050287D03*
%TD*%
D69*
%TO.C,F1*%
X210537500Y3950000D03*
X208962500Y3950000D03*
%TD*%
%LPD*%
M02*
