M48
; DRILL file {KiCad 9.0.0} date 2025-04-11T20:43:28+0800
; FORMAT={-:-/ absolute / inch / decimal}
; #@! TF.CreationDate,2025-04-11T20:43:28+08:00
; #@! TF.GenerationSoftware,Kicad,Pcbnew,9.0.0
; #@! TF.FileFunction,Plated,1,2,PTH
FMAT,2
INCH
; #@! TA.AperFunction,Plated,PTH,ViaDrill
T1C0.0118
; #@! TA.AperFunction,Plated,PTH,ViaDrill
T2C0.0197
; #@! TA.AperFunction,Plated,PTH,ComponentDrill
T3C0.0236
; #@! TA.AperFunction,Plated,PTH,ComponentDrill
T4C0.0512
; #@! TA.AperFunction,Plated,PTH,ComponentDrill
T5C0.0591
%
G90
G05
T1
X6.1353Y0.1333
X6.1389Y-0.6672
X6.2657Y-1.5111
X6.348Y0.5364
X6.4567Y0.4429
X6.4567Y0.2756
X6.5059Y0.3937
X6.5945Y0.4134
X6.624Y-1.2303
X6.7028Y-1.2205
X6.7052Y-0.0615
X6.7224Y-1.0197
X6.7224Y-1.0728
X6.7626Y-0.9277
X6.7815Y-0.4724
X6.8012Y-0.3937
X6.8126Y-0.9277
X6.8491Y-1.2283
X6.8651Y-0.5717
X6.8661Y-1.5111
X6.8694Y-1.4068
X6.8715Y-1.3328
X6.8849Y-0.1041
X6.8863Y-0.0112
X6.9101Y-1.2283
X6.9783Y-0.2362
X6.9783Y-0.6299
X6.9882Y-0.3051
X7.0079Y-1.4764
X7.074Y-0.2199
X7.0866Y-1.2492
X7.1063Y-1.1713
X7.1063Y-1.2795
X7.1358Y-1.2106
X7.1358Y-1.3091
X7.1457Y-0.1083
X7.1472Y-0.2163
X7.1472Y-0.2774
X7.1962Y-1.1094
X7.2305Y-0.9161
X7.2317Y-0.9858
X7.2539Y-0.2067
X7.2835Y-0.1378
X7.2835Y-0.315
X7.2933Y-1.1417
X7.3376Y-0.3199
X7.3425Y-0.748
X7.3498Y-1.4201
X7.3622Y-0.0787
X7.3622Y-0.1181
X7.387Y-1.3221
X7.3967Y-0.3199
X7.4016Y0.0
X7.4016Y-0.7185
X7.4213Y0.0492
X7.4508Y-0.7185
X7.4665Y-1.5111
X7.5Y-0.6988
X7.5348Y0.225
X7.5787Y-1.0728
X7.5886Y-0.6988
X7.5984Y-1.0335
X7.6134Y-1.2554
X7.6378Y-1.0531
X7.687Y-0.6299
X7.687Y-1.0335
X7.7165Y-0.3445
X7.7165Y-0.5906
X7.7264Y-0.2953
X7.7362Y-0.4331
X7.7461Y-0.6201
X7.7756Y-0.6004
X7.7756Y-0.8366
X7.7915Y-0.9087
X7.8526Y-0.9087
X7.9154Y-0.7813
X7.9156Y-0.4353
X7.9232Y-0.6195
X7.9429Y-0.4134
X7.9724Y-0.6195
X7.9801Y-0.2949
X7.9823Y-0.2165
X7.9823Y-0.4134
X7.9839Y-0.7817
X7.9921Y-0.8366
X8.0217Y-0.6195
X8.0315Y-0.4134
X8.0413Y-0.3445
X8.0527Y-0.7805
X8.061Y-0.6102
X8.0669Y-1.5111
X8.0709Y-0.374
X8.0807Y-0.4134
X8.1004Y-0.6102
X8.1201Y-0.4134
X8.1299Y-0.4528
X8.1299Y-0.4921
X8.1299Y-0.5315
X8.1299Y-0.5807
X8.1432Y0.0937
X8.1988Y0.2657
X8.2037Y-0.8711
X8.2181Y0.0764
X8.2677Y0.2854
X8.2929Y0.0764
X8.3268Y-0.9941
X8.3957Y-0.7776
X8.4301Y-1.0974
X8.5039Y-0.7776
X8.5433Y-1.2106
X8.5791Y-0.0429
X8.5791Y-0.1178
X8.5795Y-0.5489
X8.6287Y-0.634
X8.7268Y0.5305
X8.7268Y0.1486
X8.7512Y-0.0429
X8.7543Y0.0378
X8.7795Y-0.4035
X8.8386Y-0.3051
X8.8681Y-0.4035
X8.9035Y-1.5111
X8.9321Y-0.3888
X8.9567Y-0.5807
X8.9764Y-0.6594
X8.9918Y0.0406
X9.0024Y0.4951
X9.0024Y0.2195
X9.0075Y-0.041
X9.0075Y-0.1158
X9.0157Y-0.6791
X9.0453Y-0.7087
X9.0748Y-0.7382
X9.1437Y-0.4626
X9.1437Y-0.561
X9.3957Y-1.5089
X9.7905Y-0.2819
T2
X6.1737Y-0.593
X6.5906Y-1.4911
X6.611Y0.1632
X6.6299Y-1.408
X6.6582Y0.0753
X6.7271Y0.1632
X6.8649Y0.1614
X7.2303Y-1.5
X7.2649Y-1.546
X7.4902Y0.0394
X7.8543Y-0.148
X7.8997Y-0.0158
X7.9221Y-0.1269
X8.3809Y-0.0443
X8.4154Y-0.0098
X8.4547Y0.0197
X8.4941Y-0.4724
T4
X9.3164Y0.3374
X9.3164Y-0.2335
X9.3183Y-0.7429
X9.3183Y-1.3138
X9.4164Y-0.2335
X9.4183Y-0.7429
X9.5164Y0.3374
X9.5164Y-0.2335
X9.5183Y-0.7429
X9.5183Y-1.3138
T3
G00X8.1506Y0.565
M15
G01X8.1506Y0.5335
M16
G05
G00X8.1506Y0.4055
M15
G01X8.1506Y0.3622
M16
G05
G00X8.4907Y0.565
M15
G01X8.4907Y0.5335
M16
G05
G00X8.4907Y0.4055
M15
G01X8.4907Y0.3622
M16
G05
T5
G00X9.1998Y0.0323
M15
G01X9.1998Y0.0913
M16
G05
G00X9.2018Y-1.0087
M15
G01X9.2018Y-1.0677
M16
G05
G00X9.6329Y0.0323
M15
G01X9.6329Y0.0913
M16
G05
G00X9.6348Y-1.0087
M15
G01X9.6348Y-1.0677
M16
G05
M30
