%TF.GenerationSoftware,KiCad,Pcbnew,9.0.0*%
%TF.CreationDate,2025-04-11T20:43:28+08:00*%
%TF.ProjectId,wgr,7767722e-6b69-4636-9164-5f7063625858,rev?*%
%TF.SameCoordinates,Original*%
%TF.FileFunction,Copper,L2,Bot*%
%TF.FilePolarity,Positive*%
%FSLAX46Y46*%
G04 Gerber Fmt 4.6, Leading zero omitted, Abs format (unit mm)*
G04 Created by KiCad (PCBNEW 9.0.0) date 2025-04-11 20:43:28*
%MOMM*%
%LPD*%
G01*
G04 APERTURE LIST*
G04 Aperture macros list*
%AMRoundRect*
0 Rectangle with rounded corners*
0 $1 Rounding radius*
0 $2 $3 $4 $5 $6 $7 $8 $9 X,Y pos of 4 corners*
0 Add a 4 corners polygon primitive as box body*
4,1,4,$2,$3,$4,$5,$6,$7,$8,$9,$2,$3,0*
0 Add four circle primitives for the rounded corners*
1,1,$1+$1,$2,$3*
1,1,$1+$1,$4,$5*
1,1,$1+$1,$6,$7*
1,1,$1+$1,$8,$9*
0 Add four rect primitives between the rounded corners*
20,1,$1+$1,$2,$3,$4,$5,0*
20,1,$1+$1,$4,$5,$6,$7,0*
20,1,$1+$1,$6,$7,$8,$9,0*
20,1,$1+$1,$8,$9,$2,$3,0*%
G04 Aperture macros list end*
%TA.AperFunction,SMDPad,CuDef*%
%ADD10RoundRect,0.250000X-0.262500X-0.450000X0.262500X-0.450000X0.262500X0.450000X-0.262500X0.450000X0*%
%TD*%
%TA.AperFunction,SMDPad,CuDef*%
%ADD11RoundRect,0.225000X0.225000X0.250000X-0.225000X0.250000X-0.225000X-0.250000X0.225000X-0.250000X0*%
%TD*%
%TA.AperFunction,SMDPad,CuDef*%
%ADD12RoundRect,0.225000X-0.225000X-0.250000X0.225000X-0.250000X0.225000X0.250000X-0.225000X0.250000X0*%
%TD*%
%TA.AperFunction,SMDPad,CuDef*%
%ADD13RoundRect,0.100000X0.637500X0.100000X-0.637500X0.100000X-0.637500X-0.100000X0.637500X-0.100000X0*%
%TD*%
%TA.AperFunction,SMDPad,CuDef*%
%ADD14RoundRect,0.250000X0.450000X-0.262500X0.450000X0.262500X-0.450000X0.262500X-0.450000X-0.262500X0*%
%TD*%
%TA.AperFunction,SMDPad,CuDef*%
%ADD15RoundRect,0.200000X-0.200000X-0.275000X0.200000X-0.275000X0.200000X0.275000X-0.200000X0.275000X0*%
%TD*%
%TA.AperFunction,SMDPad,CuDef*%
%ADD16RoundRect,0.200000X0.200000X-0.250000X0.200000X0.250000X-0.200000X0.250000X-0.200000X-0.250000X0*%
%TD*%
%TA.AperFunction,SMDPad,CuDef*%
%ADD17RoundRect,0.243750X-0.243750X-0.456250X0.243750X-0.456250X0.243750X0.456250X-0.243750X0.456250X0*%
%TD*%
%TA.AperFunction,SMDPad,CuDef*%
%ADD18RoundRect,0.243750X0.243750X0.456250X-0.243750X0.456250X-0.243750X-0.456250X0.243750X-0.456250X0*%
%TD*%
%TA.AperFunction,SMDPad,CuDef*%
%ADD19R,0.600000X1.550000*%
%TD*%
%TA.AperFunction,SMDPad,CuDef*%
%ADD20R,1.200000X1.800000*%
%TD*%
%TA.AperFunction,ComponentPad*%
%ADD21O,2.300000X4.000000*%
%TD*%
%TA.AperFunction,ComponentPad*%
%ADD22C,1.800000*%
%TD*%
%TA.AperFunction,SMDPad,CuDef*%
%ADD23R,1.550000X0.600000*%
%TD*%
%TA.AperFunction,SMDPad,CuDef*%
%ADD24R,1.800000X1.200000*%
%TD*%
%TA.AperFunction,SMDPad,CuDef*%
%ADD25RoundRect,0.225000X-0.250000X0.225000X-0.250000X-0.225000X0.250000X-0.225000X0.250000X0.225000X0*%
%TD*%
%TA.AperFunction,SMDPad,CuDef*%
%ADD26RoundRect,0.237500X-0.237500X0.250000X-0.237500X-0.250000X0.237500X-0.250000X0.237500X0.250000X0*%
%TD*%
%TA.AperFunction,SMDPad,CuDef*%
%ADD27RoundRect,0.225000X0.250000X-0.225000X0.250000X0.225000X-0.250000X0.225000X-0.250000X-0.225000X0*%
%TD*%
%TA.AperFunction,SMDPad,CuDef*%
%ADD28RoundRect,0.250000X-0.250000X-0.475000X0.250000X-0.475000X0.250000X0.475000X-0.250000X0.475000X0*%
%TD*%
%TA.AperFunction,SMDPad,CuDef*%
%ADD29RoundRect,0.250000X0.250000X0.475000X-0.250000X0.475000X-0.250000X-0.475000X0.250000X-0.475000X0*%
%TD*%
%TA.AperFunction,SMDPad,CuDef*%
%ADD30RoundRect,0.250000X-0.475000X0.250000X-0.475000X-0.250000X0.475000X-0.250000X0.475000X0.250000X0*%
%TD*%
%TA.AperFunction,SMDPad,CuDef*%
%ADD31RoundRect,0.250000X-0.450000X0.262500X-0.450000X-0.262500X0.450000X-0.262500X0.450000X0.262500X0*%
%TD*%
%TA.AperFunction,SMDPad,CuDef*%
%ADD32RoundRect,0.250000X0.262500X0.450000X-0.262500X0.450000X-0.262500X-0.450000X0.262500X-0.450000X0*%
%TD*%
%TA.AperFunction,SMDPad,CuDef*%
%ADD33RoundRect,0.250000X0.475000X-0.250000X0.475000X0.250000X-0.475000X0.250000X-0.475000X-0.250000X0*%
%TD*%
%TA.AperFunction,SMDPad,CuDef*%
%ADD34R,0.300000X1.300000*%
%TD*%
%TA.AperFunction,SMDPad,CuDef*%
%ADD35R,1.800000X2.200000*%
%TD*%
%TA.AperFunction,SMDPad,CuDef*%
%ADD36RoundRect,0.250000X0.325000X0.650000X-0.325000X0.650000X-0.325000X-0.650000X0.325000X-0.650000X0*%
%TD*%
%TA.AperFunction,SMDPad,CuDef*%
%ADD37RoundRect,0.125000X0.275000X0.125000X-0.275000X0.125000X-0.275000X-0.125000X0.275000X-0.125000X0*%
%TD*%
%TA.AperFunction,SMDPad,CuDef*%
%ADD38RoundRect,0.100000X0.300000X0.100000X-0.300000X0.100000X-0.300000X-0.100000X0.300000X-0.100000X0*%
%TD*%
%TA.AperFunction,SMDPad,CuDef*%
%ADD39RoundRect,0.162500X0.162500X-0.650000X0.162500X0.650000X-0.162500X0.650000X-0.162500X-0.650000X0*%
%TD*%
%TA.AperFunction,SMDPad,CuDef*%
%ADD40R,1.000000X2.500000*%
%TD*%
%TA.AperFunction,SMDPad,CuDef*%
%ADD41R,0.600000X1.240000*%
%TD*%
%TA.AperFunction,SMDPad,CuDef*%
%ADD42R,0.300000X1.240000*%
%TD*%
%TA.AperFunction,HeatsinkPad*%
%ADD43O,1.000000X1.800000*%
%TD*%
%TA.AperFunction,HeatsinkPad*%
%ADD44O,1.000000X2.100000*%
%TD*%
%TA.AperFunction,SMDPad,CuDef*%
%ADD45R,3.000000X1.500000*%
%TD*%
%TA.AperFunction,SMDPad,CuDef*%
%ADD46RoundRect,0.125000X0.125000X-0.275000X0.125000X0.275000X-0.125000X0.275000X-0.125000X-0.275000X0*%
%TD*%
%TA.AperFunction,SMDPad,CuDef*%
%ADD47RoundRect,0.100000X0.100000X-0.300000X0.100000X0.300000X-0.100000X0.300000X-0.100000X-0.300000X0*%
%TD*%
%TA.AperFunction,SMDPad,CuDef*%
%ADD48R,0.900000X1.400000*%
%TD*%
%TA.AperFunction,SMDPad,CuDef*%
%ADD49RoundRect,0.250001X-0.499999X-0.999999X0.499999X-0.999999X0.499999X0.999999X-0.499999X0.999999X0*%
%TD*%
%TA.AperFunction,SMDPad,CuDef*%
%ADD50RoundRect,0.200000X-0.250000X-0.200000X0.250000X-0.200000X0.250000X0.200000X-0.250000X0.200000X0*%
%TD*%
%TA.AperFunction,SMDPad,CuDef*%
%ADD51R,1.475000X0.300000*%
%TD*%
%TA.AperFunction,SMDPad,CuDef*%
%ADD52R,0.300000X1.475000*%
%TD*%
%TA.AperFunction,SMDPad,CuDef*%
%ADD53RoundRect,0.250000X0.650000X-1.000000X0.650000X1.000000X-0.650000X1.000000X-0.650000X-1.000000X0*%
%TD*%
%TA.AperFunction,SMDPad,CuDef*%
%ADD54RoundRect,0.100000X-0.100000X0.637500X-0.100000X-0.637500X0.100000X-0.637500X0.100000X0.637500X0*%
%TD*%
%TA.AperFunction,SMDPad,CuDef*%
%ADD55RoundRect,0.218750X0.256250X-0.218750X0.256250X0.218750X-0.256250X0.218750X-0.256250X-0.218750X0*%
%TD*%
%TA.AperFunction,SMDPad,CuDef*%
%ADD56RoundRect,0.250000X-0.350000X0.450000X-0.350000X-0.450000X0.350000X-0.450000X0.350000X0.450000X0*%
%TD*%
%TA.AperFunction,SMDPad,CuDef*%
%ADD57RoundRect,0.200000X0.200000X0.275000X-0.200000X0.275000X-0.200000X-0.275000X0.200000X-0.275000X0*%
%TD*%
%TA.AperFunction,SMDPad,CuDef*%
%ADD58R,1.072000X0.532000*%
%TD*%
%TA.AperFunction,SMDPad,CuDef*%
%ADD59RoundRect,0.218750X-0.218750X-0.256250X0.218750X-0.256250X0.218750X0.256250X-0.218750X0.256250X0*%
%TD*%
%TA.AperFunction,ViaPad*%
%ADD60C,1.000000*%
%TD*%
%TA.AperFunction,ViaPad*%
%ADD61C,0.600000*%
%TD*%
%TA.AperFunction,Conductor*%
%ADD62C,0.254000*%
%TD*%
%TA.AperFunction,Conductor*%
%ADD63C,0.200000*%
%TD*%
%TA.AperFunction,Conductor*%
%ADD64C,0.500000*%
%TD*%
%TA.AperFunction,Conductor*%
%ADD65C,0.127000*%
%TD*%
G04 APERTURE END LIST*
D10*
%TO.P,R3,1*%
%TO.N,+3.3V*%
X221665712Y-13910000D03*
%TO.P,R3,2*%
%TO.N,Net-(U1-XSMT)*%
X223490712Y-13910000D03*
%TD*%
D11*
%TO.P,C40,1*%
%TO.N,+3.3V*%
X182784106Y-28180000D03*
%TO.P,C40,2*%
%TO.N,GND*%
X181234106Y-28180000D03*
%TD*%
D12*
%TO.P,C41,2*%
%TO.N,+5V*%
X175515894Y-31200000D03*
%TO.P,C41,1*%
%TO.N,GND*%
X173965894Y-31200000D03*
%TD*%
D13*
%TO.P,U4,19,VCCB*%
%TO.N,+5V*%
X177537500Y-30430000D03*
%TO.P,U4,1,A1*%
%TO.N,/MCU.IRQ*%
X183262500Y-29780000D03*
%TO.P,U4,2,VCCA*%
%TO.N,+3.3V*%
X183262500Y-30430000D03*
%TO.P,U4,3,A2*%
%TO.N,/MCU.SCK*%
X183262500Y-31080000D03*
%TO.P,U4,4,A3*%
%TO.N,/MCU-DSP*%
X183262500Y-31730000D03*
%TO.P,U4,5,A4*%
%TO.N,/MCU.Config*%
X183262500Y-32380000D03*
%TO.P,U4,6,A5*%
%TO.N,/MCU.IRQ2*%
X183262500Y-33030000D03*
%TO.P,U4,7,A6*%
%TO.N,/MCU.SCK*%
X183262500Y-33680000D03*
%TO.P,U4,8,A7*%
%TO.N,/MCU-DSP*%
X183262500Y-34330000D03*
%TO.P,U4,9,A8*%
%TO.N,/MCU.Config2*%
X183262500Y-34980000D03*
%TO.P,U4,10,OE*%
%TO.N,Net-(U4-OE)*%
X183262500Y-35630000D03*
%TO.P,U4,11,GND*%
%TO.N,GND*%
X177537500Y-35630000D03*
%TO.P,U4,12,B8*%
%TO.N,Net-(U4-B8)*%
X177537500Y-34980000D03*
%TO.P,U4,13,B7*%
%TO.N,Net-(U4-B7)*%
X177537500Y-34330000D03*
%TO.P,U4,14,B6*%
%TO.N,Net-(U4-B6)*%
X177537500Y-33680000D03*
%TO.P,U4,15,B5*%
%TO.N,Net-(U4-B5)*%
X177537500Y-33030000D03*
%TO.P,U4,16,B4*%
%TO.N,Net-(U4-B4)*%
X177537500Y-32380000D03*
%TO.P,U4,17,B3*%
%TO.N,Net-(U4-B3)*%
X177537500Y-31730000D03*
%TO.P,U4,18,B2*%
%TO.N,Net-(U4-B2)*%
X177537500Y-31080000D03*
%TO.P,U4,20,B1*%
%TO.N,Net-(U4-B1)*%
X177537500Y-29780000D03*
%TD*%
D10*
%TO.P,R29,1*%
%TO.N,Net-(LED2-A)*%
X177467500Y-26810000D03*
%TO.P,R29,2*%
%TO.N,Net-(IC1-PB11)*%
X179292500Y-26810000D03*
%TD*%
%TO.P,R28,1*%
%TO.N,+3.3V*%
X201467500Y2320000D03*
%TO.P,R28,2*%
%TO.N,Net-(LED1-A)*%
X203292500Y2320000D03*
%TD*%
D14*
%TO.P,R27,1*%
%TO.N,+3.3V*%
X193380000Y-33712500D03*
%TO.P,R27,2*%
%TO.N,/MCU.CS2*%
X193380000Y-31887500D03*
%TD*%
%TO.P,R26,1*%
%TO.N,+5V*%
X187630000Y-33582500D03*
%TO.P,R26,2*%
%TO.N,Net-(Q2-D)*%
X187630000Y-31757500D03*
%TD*%
D15*
%TO.P,R16,1*%
%TO.N,Net-(U4-OE)*%
X185035000Y-36070000D03*
%TO.P,R16,2*%
%TO.N,+3.3V*%
X186685000Y-36070000D03*
%TD*%
D16*
%TO.P,Q2,1,G*%
%TO.N,+3.3V*%
X191450000Y-33680000D03*
%TO.P,Q2,2,S*%
%TO.N,/MCU.CS2*%
X189550000Y-33680000D03*
%TO.P,Q2,3,D*%
%TO.N,Net-(Q2-D)*%
X190500000Y-31680000D03*
%TD*%
D17*
%TO.P,LED2,1,K*%
%TO.N,GND*%
X173962500Y-26900000D03*
%TO.P,LED2,2,A*%
%TO.N,Net-(LED2-A)*%
X175837500Y-26900000D03*
%TD*%
D18*
%TO.P,LED1,1,K*%
%TO.N,GND*%
X206837500Y2380000D03*
%TO.P,LED1,2,A*%
%TO.N,Net-(LED1-A)*%
X204962500Y2380000D03*
%TD*%
D19*
%TO.P,J5,2,2*%
%TO.N,+5V*%
X184650000Y-38100340D03*
%TO.P,J5,1,1*%
%TO.N,Net-(Q2-D)*%
X185650000Y-38100340D03*
%TO.P,J5,3,3*%
%TO.N,GND*%
X183650000Y-38100340D03*
%TO.P,J5,4,4*%
%TO.N,Net-(U4-B8)*%
X182650000Y-38100340D03*
%TO.P,J5,5,5*%
%TO.N,Net-(U4-B5)*%
X181650000Y-38100340D03*
%TO.P,J5,6,6*%
%TO.N,Net-(U4-B6)*%
X180650000Y-38100340D03*
%TO.P,J5,7,7*%
%TO.N,Net-(U4-B7)*%
X179650000Y-38100340D03*
D20*
%TO.P,J5,8*%
%TO.N,N/C*%
X186950000Y-41975340D03*
%TO.P,J5,9*%
X178350000Y-41975340D03*
%TD*%
D21*
%TO.P,SW9,6*%
%TO.N,N/C*%
X244675500Y1570000D03*
%TO.P,SW9,7*%
X233675500Y1570000D03*
D22*
%TO.P,SW9,A,A*%
%TO.N,/ECA1*%
X236635500Y-5930000D03*
%TO.P,SW9,B,B*%
%TO.N,/ECA2*%
X241715500Y-5930000D03*
%TO.P,SW9,C,C*%
%TO.N,GND*%
X239175500Y-5930000D03*
%TO.P,SW9,S1,S1*%
X236635500Y8570000D03*
%TO.P,SW9,S2,S2*%
%TO.N,/BTN10*%
X241715500Y8570000D03*
%TD*%
D21*
%TO.P,SW10,6*%
%TO.N,N/C*%
X233724500Y-26370000D03*
%TO.P,SW10,7*%
X244724500Y-26370000D03*
D22*
%TO.P,SW10,A,A*%
%TO.N,/ECB1*%
X241764500Y-18870000D03*
%TO.P,SW10,B,B*%
%TO.N,/ECB2*%
X236684500Y-18870000D03*
%TO.P,SW10,C,C*%
%TO.N,GND*%
X239224500Y-18870000D03*
%TO.P,SW10,S1,S1*%
%TO.N,/BTN9*%
X241764500Y-33370000D03*
%TO.P,SW10,S2,S2*%
%TO.N,GND*%
X236684500Y-33370000D03*
%TD*%
D15*
%TO.P,R13,1*%
%TO.N,Net-(U2-FB)*%
X173261499Y-285287D03*
%TO.P,R13,2*%
%TO.N,GND*%
X174911499Y-285287D03*
%TD*%
D23*
%TO.P,J7,1,1*%
%TO.N,+3.3V*%
X155837000Y2387000D03*
%TO.P,J7,2,2*%
%TO.N,GND*%
X155837000Y3387000D03*
%TO.P,J7,3,3*%
%TO.N,/XY.SCL*%
X155837000Y4387000D03*
%TO.P,J7,4,4*%
%TO.N,/XY.SDA*%
X155837000Y5387000D03*
D24*
%TO.P,J7,MP1,MP1*%
%TO.N,unconnected-(J7-PadMP1)*%
X151962000Y1087000D03*
%TO.P,J7,MP2,MP2*%
%TO.N,unconnected-(J7-PadMP2)*%
X151962000Y6687000D03*
%TD*%
D25*
%TO.P,C34,1*%
%TO.N,GND*%
X201149695Y-10965018D03*
%TO.P,C34,2*%
%TO.N,/RCC_OSC_IN*%
X201149695Y-12515018D03*
%TD*%
D26*
%TO.P,R22,1*%
%TO.N,GND*%
X243550000Y-9787500D03*
%TO.P,R22,2*%
%TO.N,/BOOT0*%
X243550000Y-11612500D03*
%TD*%
D27*
%TO.P,C30,1*%
%TO.N,GND*%
X204539817Y-19825010D03*
%TO.P,C30,2*%
%TO.N,/VREF+*%
X204539817Y-18275010D03*
%TD*%
D28*
%TO.P,C17,1*%
%TO.N,/ECB2*%
X236232262Y-21500000D03*
%TO.P,C17,2*%
%TO.N,GND*%
X238132262Y-21500000D03*
%TD*%
D29*
%TO.P,C36,1*%
%TO.N,+5V*%
X210640894Y1940000D03*
%TO.P,C36,2*%
%TO.N,GND*%
X208740894Y1940000D03*
%TD*%
D30*
%TO.P,C38,1*%
%TO.N,+3.3V*%
X204440894Y-100000D03*
%TO.P,C38,2*%
%TO.N,GND*%
X204440894Y-2000000D03*
%TD*%
D11*
%TO.P,C23,1*%
%TO.N,GND*%
X185204939Y-23270014D03*
%TO.P,C23,2*%
%TO.N,+3.3V*%
X183654939Y-23270014D03*
%TD*%
D31*
%TO.P,R12,1*%
%TO.N,Net-(LCD1-D0)*%
X185687045Y6427882D03*
%TO.P,R12,2*%
%TO.N,/LCD.SCL*%
X185687045Y4602882D03*
%TD*%
D32*
%TO.P,R20,1*%
%TO.N,/LCD.BK*%
X170943498Y1911426D03*
%TO.P,R20,2*%
%TO.N,GND*%
X169118498Y1911426D03*
%TD*%
D31*
%TO.P,R11,1*%
%TO.N,Net-(LCD1-D3)*%
X183487044Y6347881D03*
%TO.P,R11,2*%
%TO.N,/LCD.SDA*%
X183487044Y4522881D03*
%TD*%
D29*
%TO.P,C18,1*%
%TO.N,Net-(U1-LDOO)*%
X221070000Y-16104470D03*
%TO.P,C18,2*%
%TO.N,GND*%
X219170000Y-16104470D03*
%TD*%
%TO.P,C16,1*%
%TO.N,/ECB1*%
X242132262Y-21420000D03*
%TO.P,C16,2*%
%TO.N,GND*%
X240232262Y-21420000D03*
%TD*%
D14*
%TO.P,R2,1*%
%TO.N,Net-(U1-OUTR)*%
X226680000Y-3012500D03*
%TO.P,R2,2*%
%TO.N,/R*%
X226680000Y-1187500D03*
%TD*%
%TO.P,R1,1*%
%TO.N,Net-(U1-OUTL)*%
X224430000Y-2942500D03*
%TO.P,R1,2*%
%TO.N,/L*%
X224430000Y-1117500D03*
%TD*%
%TO.P,R21,1*%
%TO.N,+5V*%
X168426316Y-35737500D03*
%TO.P,R21,2*%
%TO.N,Net-(Q1-D)*%
X168426316Y-33912500D03*
%TD*%
D23*
%TO.P,J9,1,1*%
%TO.N,/OCT+*%
X155987000Y-28163000D03*
%TO.P,J9,2,2*%
%TO.N,/OCT-*%
X155987000Y-27163000D03*
%TO.P,J9,3,3*%
%TO.N,unconnected-(J9-Pad3)*%
X155987000Y-26163000D03*
%TO.P,J9,4,4*%
%TO.N,unconnected-(J9-Pad4)*%
X155987000Y-25163000D03*
D24*
%TO.P,J9,MP1,MP1*%
%TO.N,unconnected-(J9-PadMP1)*%
X152112000Y-29463000D03*
%TO.P,J9,MP2,MP2*%
%TO.N,unconnected-(J9-PadMP2)*%
X152112000Y-23863000D03*
%TD*%
D33*
%TO.P,C9,1*%
%TO.N,/VB1-*%
X197574618Y4134364D03*
%TO.P,C9,2*%
%TO.N,/VB1+*%
X197574618Y6034362D03*
%TD*%
D34*
%TO.P,LCD1,1,GND*%
%TO.N,GND*%
X198000056Y9605382D03*
%TO.P,LCD1,2,VB0+*%
%TO.N,/VB0+*%
X197500056Y9605382D03*
%TO.P,LCD1,3,VB1+*%
%TO.N,/VB1+*%
X197000056Y9605382D03*
%TO.P,LCD1,4,VB1-*%
%TO.N,/VB1-*%
X196500056Y9605382D03*
%TO.P,LCD1,5,VB0-*%
%TO.N,/VB0-*%
X196000056Y9605382D03*
%TO.P,LCD1,6,VA0+*%
%TO.N,/VA0+*%
X195500056Y9605382D03*
%TO.P,LCD1,7,VA1+*%
%TO.N,/VA1+*%
X195000056Y9605382D03*
%TO.P,LCD1,8,VA1-*%
%TO.N,/VA1-*%
X194500056Y9605382D03*
%TO.P,LCD1,9,VA0-*%
%TO.N,/VA0-*%
X194000056Y9605382D03*
%TO.P,LCD1,10,VLCD*%
%TO.N,/VLCD*%
X193500056Y9605382D03*
%TO.P,LCD1,11,VCC*%
%TO.N,+3.3V*%
X193000056Y9605382D03*
%TO.P,LCD1,12,GND*%
%TO.N,GND*%
X192500056Y9605382D03*
%TO.P,LCD1,13,ID*%
X192000056Y9605382D03*
%TO.P,LCD1,14,BM0*%
X191500056Y9605382D03*
%TO.P,LCD1,15,BM1*%
X191000056Y9605382D03*
%TO.P,LCD1,16,WR1*%
X190500056Y9605382D03*
%TO.P,LCD1,17,WR0*%
X190000056Y9605382D03*
%TO.P,LCD1,18,DC*%
%TO.N,/LCD.DC*%
X189500056Y9605382D03*
%TO.P,LCD1,19,CS*%
%TO.N,/LCD.CS*%
X189000056Y9605382D03*
%TO.P,LCD1,20,RST*%
%TO.N,/LCD.RST*%
X188500056Y9605382D03*
%TO.P,LCD1,21,D0*%
%TO.N,Net-(LCD1-D0)*%
X188000056Y9605382D03*
%TO.P,LCD1,22,D1*%
%TO.N,GND*%
X187500056Y9605382D03*
%TO.P,LCD1,23,D2*%
X187000056Y9605382D03*
%TO.P,LCD1,24,D3*%
%TO.N,Net-(LCD1-D3)*%
X186500056Y9605382D03*
%TO.P,LCD1,25,D4*%
%TO.N,unconnected-(LCD1-D4-Pad25)*%
X186000056Y9605382D03*
%TO.P,LCD1,26,D5*%
%TO.N,unconnected-(LCD1-D5-Pad26)*%
X185500056Y9605382D03*
%TO.P,LCD1,27,D6*%
%TO.N,GND*%
X185000056Y9605382D03*
%TO.P,LCD1,28,D7*%
X184500056Y9605382D03*
%TO.P,LCD1,29,GND*%
X184000056Y9605382D03*
%TO.P,LCD1,30,GND*%
X183500056Y9605382D03*
%TO.P,LCD1,31,BK+*%
%TO.N,Net-(LCD1-BK+)*%
X183000056Y9605382D03*
%TO.P,LCD1,32,BK-*%
%TO.N,GND*%
X182500056Y9605382D03*
D35*
%TO.P,LCD1,MP*%
%TO.N,N/C*%
X180600056Y12855382D03*
X199900056Y12855382D03*
%TD*%
D28*
%TO.P,C6,1*%
%TO.N,GND*%
X222360000Y959106D03*
%TO.P,C6,2*%
%TO.N,/L*%
X224260000Y959106D03*
%TD*%
D26*
%TO.P,R24,1*%
%TO.N,Net-(J1-CC2)*%
X217700000Y10582500D03*
%TO.P,R24,2*%
%TO.N,GND*%
X217700000Y8757500D03*
%TD*%
D27*
%TO.P,C31,1*%
%TO.N,GND*%
X202789817Y-19855006D03*
%TO.P,C31,2*%
%TO.N,/VREF+*%
X202789817Y-18305006D03*
%TD*%
%TO.P,C33,1*%
%TO.N,GND*%
X201149695Y-15735022D03*
%TO.P,C33,2*%
%TO.N,/RCC_OSC_OUT*%
X201149695Y-14185022D03*
%TD*%
D36*
%TO.P,C19,1*%
%TO.N,+3.3V*%
X170869395Y4145287D03*
%TO.P,C19,2*%
%TO.N,GND*%
X167919395Y4145287D03*
%TD*%
D37*
%TO.P,RN1,1,R1.1*%
%TO.N,Net-(RN1-R1.1)*%
X221160000Y-18160000D03*
D38*
%TO.P,RN1,2,R2.1*%
%TO.N,Net-(RN1-R2.1)*%
X221160000Y-18960000D03*
%TO.P,RN1,3,R3.1*%
%TO.N,Net-(RN1-R3.1)*%
X221160000Y-19760000D03*
D37*
%TO.P,RN1,4,R4.1*%
%TO.N,Net-(RN1-R4.1)*%
X221160000Y-20560000D03*
%TO.P,RN1,5,R4.2*%
%TO.N,/SCK*%
X219360000Y-20560000D03*
D38*
%TO.P,RN1,6,R3.2*%
%TO.N,/BCK*%
X219360000Y-19760000D03*
%TO.P,RN1,7,R2.2*%
%TO.N,/DIN*%
X219360000Y-18960000D03*
D37*
%TO.P,RN1,8,R1.2*%
%TO.N,/LRCK*%
X219360000Y-18160000D03*
%TD*%
D33*
%TO.P,C10,1*%
%TO.N,/VA0-*%
X194494619Y534363D03*
%TO.P,C10,2*%
%TO.N,/VA0+*%
X194494619Y2434361D03*
%TD*%
D16*
%TO.P,Q1,1,G*%
%TO.N,+3.3V*%
X172376316Y-35865000D03*
%TO.P,Q1,2,S*%
%TO.N,/MCU.CS*%
X170476316Y-35865000D03*
%TO.P,Q1,3,D*%
%TO.N,Net-(Q1-D)*%
X171426316Y-33865000D03*
%TD*%
D33*
%TO.P,C11,1*%
%TO.N,/VA1-*%
X194534361Y4135383D03*
%TO.P,C11,2*%
%TO.N,/VA1+*%
X194534361Y6035381D03*
%TD*%
D27*
%TO.P,C24,1*%
%TO.N,GND*%
X201050010Y-19845061D03*
%TO.P,C24,2*%
%TO.N,+3.3V*%
X201050010Y-18295061D03*
%TD*%
D39*
%TO.P,U5,1,~{CS}*%
%TO.N,/PB12*%
X175580000Y-23562500D03*
%TO.P,U5,2,DO/IO_{1}*%
%TO.N,/PB14*%
X174310000Y-23562500D03*
%TO.P,U5,3,~{WP}/IO_{2}*%
%TO.N,+3.3V*%
X173040000Y-23562500D03*
%TO.P,U5,4,GND*%
%TO.N,GND*%
X171770000Y-23562500D03*
%TO.P,U5,5,DI/IO_{0}*%
%TO.N,/PB15*%
X171770000Y-16387500D03*
%TO.P,U5,6,CLK*%
%TO.N,/PB13*%
X173040000Y-16387500D03*
%TO.P,U5,7,~{HOLD}/~{RESET}/IO_{3}*%
%TO.N,+3.3V*%
X174310000Y-16387500D03*
%TO.P,U5,8,VCC*%
X175580000Y-16387500D03*
%TD*%
D27*
%TO.P,C29,1*%
%TO.N,+3.3V*%
X181539817Y-7045014D03*
%TO.P,C29,2*%
%TO.N,GND*%
X181539817Y-5495014D03*
%TD*%
D11*
%TO.P,C27,1*%
%TO.N,/VCAP_1*%
X185235183Y-25039978D03*
%TO.P,C27,2*%
%TO.N,GND*%
X183685183Y-25039978D03*
%TD*%
D12*
%TO.P,C28,1*%
%TO.N,+3.3V*%
X201144817Y-7490018D03*
%TO.P,C28,2*%
%TO.N,GND*%
X202694817Y-7490018D03*
%TD*%
D40*
%TO.P,J3,1,Pin_1*%
%TO.N,unconnected-(J3-Pin_1-Pad1)*%
X168860000Y13575000D03*
%TO.P,J3,2,Pin_2*%
%TO.N,/RX*%
X166320000Y13575000D03*
%TO.P,J3,3,Pin_3*%
%TO.N,/TX*%
X163780000Y13575000D03*
%TO.P,J3,4,Pin_4*%
%TO.N,GND*%
X161240000Y13575000D03*
%TO.P,J3,5,Pin_5*%
%TO.N,unconnected-(J3-Pin_5-Pad5)*%
X158700000Y13575000D03*
%TD*%
D29*
%TO.P,C15,1*%
%TO.N,/ECA2*%
X242167738Y-3460000D03*
%TO.P,C15,2*%
%TO.N,GND*%
X240267738Y-3460000D03*
%TD*%
D27*
%TO.P,C26,1*%
%TO.N,/VCAP_2*%
X179679939Y-7135002D03*
%TO.P,C26,2*%
%TO.N,GND*%
X179679939Y-5585002D03*
%TD*%
D41*
%TO.P,J1,A1,GND*%
%TO.N,GND*%
X208145000Y9150000D03*
%TO.P,J1,A4,VBUS*%
%TO.N,Net-(F1-Pad1)*%
X208945000Y9150000D03*
D42*
%TO.P,J1,A5,CC1*%
%TO.N,Net-(J1-CC1)*%
X210095000Y9150000D03*
%TO.P,J1,A6,D+*%
%TO.N,/D+*%
X211095000Y9150000D03*
%TO.P,J1,A7,D-*%
%TO.N,/D-*%
X211595000Y9150000D03*
%TO.P,J1,A8,SBU1*%
%TO.N,unconnected-(J1-SBU1-PadA8)*%
X212595000Y9150000D03*
D41*
%TO.P,J1,A9,VBUS*%
%TO.N,Net-(F1-Pad1)*%
X213745000Y9150000D03*
%TO.P,J1,A12,GND*%
%TO.N,GND*%
X214545000Y9150000D03*
%TO.P,J1,B1,GND*%
X214545000Y9150000D03*
%TO.P,J1,B4,VBUS*%
%TO.N,Net-(F1-Pad1)*%
X213745000Y9150000D03*
D42*
%TO.P,J1,B5,CC2*%
%TO.N,Net-(J1-CC2)*%
X213095000Y9150000D03*
%TO.P,J1,B6,D+*%
%TO.N,/D+*%
X212095000Y9150000D03*
%TO.P,J1,B7,D-*%
%TO.N,/D-*%
X210595000Y9150000D03*
%TO.P,J1,B8,SBU2*%
%TO.N,unconnected-(J1-SBU2-PadB8)*%
X209595000Y9150000D03*
D41*
%TO.P,J1,B9,VBUS*%
%TO.N,Net-(F1-Pad1)*%
X208945000Y9150000D03*
%TO.P,J1,B12,GND*%
%TO.N,GND*%
X208145000Y9150000D03*
D43*
%TO.P,J1,S1,SHIELD*%
X207025000Y13950000D03*
D44*
X207025000Y9750000D03*
D43*
X215665000Y13950000D03*
D44*
X215665000Y9750000D03*
%TD*%
D45*
%TO.P,PJ1,1,1*%
%TO.N,GND*%
X221660000Y13475000D03*
%TO.P,PJ1,2,2*%
%TO.N,/R*%
X221660000Y9875000D03*
%TO.P,PJ1,3,3*%
%TO.N,/L*%
X228660000Y5575000D03*
%TO.P,PJ1,4,4*%
X221660000Y3775000D03*
%TO.P,PJ1,5,5*%
%TO.N,GND*%
X228660000Y12575000D03*
%TD*%
D29*
%TO.P,C7,1*%
%TO.N,GND*%
X228390894Y1030000D03*
%TO.P,C7,2*%
%TO.N,/R*%
X226490894Y1030000D03*
%TD*%
D14*
%TO.P,R23,1*%
%TO.N,+3.3V*%
X174536316Y-35677500D03*
%TO.P,R23,2*%
%TO.N,/MCU.CS*%
X174536316Y-33852500D03*
%TD*%
D46*
%TO.P,RN2,1,R1.1*%
%TO.N,/ECA1*%
X231042208Y-9710000D03*
D47*
%TO.P,RN2,2,R2.1*%
%TO.N,/ECA2*%
X230242208Y-9710000D03*
%TO.P,RN2,3,R3.1*%
%TO.N,/ECB1*%
X229442208Y-9710000D03*
D46*
%TO.P,RN2,4,R4.1*%
%TO.N,/ECB2*%
X228642208Y-9710000D03*
%TO.P,RN2,5,R4.2*%
%TO.N,+3.3V*%
X228642208Y-7910000D03*
D47*
%TO.P,RN2,6,R3.2*%
X229442208Y-7910000D03*
%TO.P,RN2,7,R2.2*%
X230242208Y-7910000D03*
D46*
%TO.P,RN2,8,R1.2*%
X231042208Y-7910000D03*
%TD*%
D48*
%TO.P,SW7,1,1*%
%TO.N,/NRST*%
X245690000Y-16033000D03*
X245690000Y-22833000D03*
%TO.P,SW7,2,2*%
%TO.N,GND*%
X248690000Y-16033000D03*
X248690000Y-22833000D03*
%TD*%
D28*
%TO.P,C14,1*%
%TO.N,/ECA1*%
X235949526Y-3380000D03*
%TO.P,C14,2*%
%TO.N,GND*%
X237849526Y-3380000D03*
%TD*%
D11*
%TO.P,C25,1*%
%TO.N,GND*%
X199454939Y-23080006D03*
%TO.P,C25,2*%
%TO.N,+3.3V*%
X197904939Y-23080006D03*
%TD*%
D49*
%TO.P,L1,1*%
%TO.N,+3.3V*%
X172293501Y8330287D03*
%TO.P,L1,2*%
%TO.N,Net-(D1-A)*%
X175993501Y8330287D03*
%TD*%
D19*
%TO.P,J4,2,2*%
%TO.N,+5V*%
X168400000Y-37875000D03*
%TO.P,J4,1,1*%
%TO.N,Net-(Q1-D)*%
X169400000Y-37875000D03*
%TO.P,J4,3,3*%
%TO.N,GND*%
X167400000Y-37875000D03*
%TO.P,J4,4,4*%
%TO.N,Net-(U4-B4)*%
X166400000Y-37875000D03*
%TO.P,J4,5,5*%
%TO.N,Net-(U4-B1)*%
X165400000Y-37875000D03*
%TO.P,J4,6,6*%
%TO.N,Net-(U4-B2)*%
X164400000Y-37875000D03*
%TO.P,J4,7,7*%
%TO.N,Net-(U4-B3)*%
X163400000Y-37875000D03*
D20*
%TO.P,J4,8*%
%TO.N,N/C*%
X170700000Y-41750000D03*
%TO.P,J4,9*%
X162100000Y-41750000D03*
%TD*%
D25*
%TO.P,C32,1*%
%TO.N,/NRST*%
X243789817Y-16085002D03*
%TO.P,C32,2*%
%TO.N,GND*%
X243789817Y-17635002D03*
%TD*%
D48*
%TO.P,SW8,1,1*%
%TO.N,+3.3V*%
X248679000Y-13960000D03*
X248679000Y-7160000D03*
%TO.P,SW8,2,2*%
%TO.N,/BOOT0*%
X245679000Y-13960000D03*
X245679000Y-7160000D03*
%TD*%
D50*
%TO.P,U3,3,VIN*%
%TO.N,+5V*%
X210695000Y-900000D03*
%TO.P,U3,1,GND*%
%TO.N,GND*%
X208695000Y-1850000D03*
%TO.P,U3,2,Vout*%
%TO.N,+3.3V*%
X208695000Y50000D03*
%TD*%
D31*
%TO.P,R15,1*%
%TO.N,Net-(LCD1-BK+)*%
X181168724Y6413264D03*
%TO.P,R15,2*%
%TO.N,Net-(D1-K)*%
X181168724Y4588264D03*
%TD*%
D29*
%TO.P,C4,1*%
%TO.N,+3.3V*%
X219820000Y-13940894D03*
%TO.P,C4,2*%
%TO.N,GND*%
X217920000Y-13940894D03*
%TD*%
D36*
%TO.P,C20,1*%
%TO.N,Net-(D1-K)*%
X177827607Y-2644713D03*
%TO.P,C20,2*%
%TO.N,GND*%
X174877607Y-2644713D03*
%TD*%
D12*
%TO.P,C35,1*%
%TO.N,+3.3V*%
X174374695Y-14520014D03*
%TO.P,C35,2*%
%TO.N,GND*%
X175924695Y-14520014D03*
%TD*%
D33*
%TO.P,C8,1*%
%TO.N,/VB0-*%
X197634362Y645382D03*
%TO.P,C8,2*%
%TO.N,/VB0+*%
X197634362Y2545380D03*
%TD*%
D11*
%TO.P,C22,1*%
%TO.N,GND*%
X198845061Y-3759982D03*
%TO.P,C22,2*%
%TO.N,+3.3V*%
X197295061Y-3759982D03*
%TD*%
D32*
%TO.P,R18,1*%
%TO.N,+3.3V*%
X156872500Y-1580000D03*
%TO.P,R18,2*%
%TO.N,/XY.SCL*%
X155047500Y-1580000D03*
%TD*%
D23*
%TO.P,J8,1,1*%
%TO.N,/XY.SDA*%
X155927000Y-18947000D03*
%TO.P,J8,2,2*%
%TO.N,/XY.SCL*%
X155927000Y-17947000D03*
%TO.P,J8,3,3*%
%TO.N,GND*%
X155927000Y-16947000D03*
%TO.P,J8,4,4*%
%TO.N,+3.3V*%
X155927000Y-15947000D03*
D24*
%TO.P,J8,MP1,MP1*%
%TO.N,unconnected-(J8-PadMP1)*%
X152052000Y-20247000D03*
%TO.P,J8,MP2,MP2*%
%TO.N,unconnected-(J8-PadMP2)*%
X152052000Y-14647000D03*
%TD*%
D51*
%TO.P,IC1,1,PE2*%
%TO.N,unconnected-(IC1-PE2-Pad1)*%
X198988000Y-7420000D03*
%TO.P,IC1,2,PE3*%
%TO.N,unconnected-(IC1-PE3-Pad2)*%
X198988000Y-7920000D03*
%TO.P,IC1,3,PE4*%
%TO.N,unconnected-(IC1-PE4-Pad3)*%
X198988000Y-8420000D03*
%TO.P,IC1,4,PE5*%
%TO.N,/BTN10*%
X198988000Y-8920000D03*
%TO.P,IC1,5,PE6*%
%TO.N,/BTN9*%
X198988000Y-9420000D03*
%TO.P,IC1,6,VBAT*%
%TO.N,+3.3V*%
X198988000Y-9920000D03*
%TO.P,IC1,7,PC13*%
%TO.N,unconnected-(IC1-PC13-Pad7)*%
X198988000Y-10420000D03*
%TO.P,IC1,8,PC14-OSC32_IN*%
%TO.N,unconnected-(IC1-PC14-OSC32_IN-Pad8)*%
X198988000Y-10920000D03*
%TO.P,IC1,9,PC15-OSC32_OUT*%
%TO.N,unconnected-(IC1-PC15-OSC32_OUT-Pad9)*%
X198988000Y-11420000D03*
%TO.P,IC1,10,VSS_1*%
%TO.N,GND*%
X198988000Y-11920000D03*
%TO.P,IC1,11,VDD_1*%
%TO.N,+3.3V*%
X198988000Y-12420000D03*
%TO.P,IC1,12,PH0-OSC_IN*%
%TO.N,/RCC_OSC_IN*%
X198988000Y-12920000D03*
%TO.P,IC1,13,PH1-OSC_OUT*%
%TO.N,/RCC_OSC_OUT*%
X198988000Y-13420000D03*
%TO.P,IC1,14,NRST*%
%TO.N,/NRST*%
X198988000Y-13920000D03*
%TO.P,IC1,15,PC0*%
%TO.N,unconnected-(IC1-PC0-Pad15)*%
X198988000Y-14420000D03*
%TO.P,IC1,16,PC1*%
%TO.N,unconnected-(IC1-PC1-Pad16)*%
X198988000Y-14920000D03*
%TO.P,IC1,17,PC2_C*%
%TO.N,unconnected-(IC1-PC2_C-Pad17)*%
X198988000Y-15420000D03*
%TO.P,IC1,18,PC3_C*%
%TO.N,unconnected-(IC1-PC3_C-Pad18)*%
X198988000Y-15920000D03*
%TO.P,IC1,19,VSSA*%
%TO.N,GND*%
X198988000Y-16420000D03*
%TO.P,IC1,20,VREF+*%
%TO.N,/VREF+*%
X198988000Y-16920000D03*
%TO.P,IC1,21,VDDA*%
%TO.N,+3.3V*%
X198988000Y-17420000D03*
%TO.P,IC1,22,PA0*%
%TO.N,/ECB2*%
X198988000Y-17920000D03*
%TO.P,IC1,23,PA1*%
%TO.N,/ECB1*%
X198988000Y-18420000D03*
%TO.P,IC1,24,PA2*%
%TO.N,/ECA2*%
X198988000Y-18920000D03*
%TO.P,IC1,25,PA3*%
%TO.N,/ECA1*%
X198988000Y-19420000D03*
D52*
%TO.P,IC1,26,VSS_2*%
%TO.N,GND*%
X197250000Y-21158000D03*
%TO.P,IC1,27,VDD_2*%
%TO.N,+3.3V*%
X196750000Y-21158000D03*
%TO.P,IC1,28,PA4*%
%TO.N,/LRCK*%
X196250000Y-21158000D03*
%TO.P,IC1,29,PA5*%
%TO.N,/BCK*%
X195750000Y-21158000D03*
%TO.P,IC1,30,PA6*%
%TO.N,unconnected-(IC1-PA6-Pad30)*%
X195250000Y-21158000D03*
%TO.P,IC1,31,PA7*%
%TO.N,/DIN*%
X194750000Y-21158000D03*
%TO.P,IC1,32,PC4*%
%TO.N,/SCK*%
X194250000Y-21158000D03*
%TO.P,IC1,33,PC5*%
%TO.N,/MCU.CS*%
X193750000Y-21158000D03*
%TO.P,IC1,34,PB0*%
%TO.N,/MCU.IRQ*%
X193250000Y-21158000D03*
%TO.P,IC1,35,PB1*%
%TO.N,/MCU.CS2*%
X192750000Y-21158000D03*
%TO.P,IC1,36,PB2*%
%TO.N,/MCU.IRQ2*%
X192250000Y-21158000D03*
%TO.P,IC1,37,PE7*%
%TO.N,/BTN6*%
X191750000Y-21158000D03*
%TO.P,IC1,38,PE8*%
%TO.N,/BTN5*%
X191250000Y-21158000D03*
%TO.P,IC1,39,PE9*%
%TO.N,/BTN4*%
X190750000Y-21158000D03*
%TO.P,IC1,40,PE10*%
%TO.N,/BTN3*%
X190250000Y-21158000D03*
%TO.P,IC1,41,PE11*%
%TO.N,/BTN2*%
X189750000Y-21158000D03*
%TO.P,IC1,42,PE12*%
%TO.N,/BTN1*%
X189250000Y-21158000D03*
%TO.P,IC1,43,PE13*%
%TO.N,/OCT+*%
X188750000Y-21158000D03*
%TO.P,IC1,44,PE14*%
%TO.N,/OCT-*%
X188250000Y-21158000D03*
%TO.P,IC1,45,PE15*%
%TO.N,/MCU.Config2*%
X187750000Y-21158000D03*
%TO.P,IC1,46,PB10*%
%TO.N,/MCU.Config*%
X187250000Y-21158000D03*
%TO.P,IC1,47,PB11*%
%TO.N,Net-(IC1-PB11)*%
X186750000Y-21158000D03*
%TO.P,IC1,48,VCAP_1*%
%TO.N,/VCAP_1*%
X186250000Y-21158000D03*
%TO.P,IC1,49,VSS_3*%
%TO.N,GND*%
X185750000Y-21158000D03*
%TO.P,IC1,50,VDD_3*%
%TO.N,+3.3V*%
X185250000Y-21158000D03*
D51*
%TO.P,IC1,51,PB12*%
%TO.N,/PB12*%
X183512000Y-19420000D03*
%TO.P,IC1,52,PB13*%
%TO.N,/PB13*%
X183512000Y-18920000D03*
%TO.P,IC1,53,PB14*%
%TO.N,/PB14*%
X183512000Y-18420000D03*
%TO.P,IC1,54,PB15*%
%TO.N,/PB15*%
X183512000Y-17920000D03*
%TO.P,IC1,55,PD8*%
%TO.N,unconnected-(IC1-PD8-Pad55)*%
X183512000Y-17420000D03*
%TO.P,IC1,56,PD9*%
%TO.N,unconnected-(IC1-PD9-Pad56)*%
X183512000Y-16920000D03*
%TO.P,IC1,57,PD10*%
%TO.N,unconnected-(IC1-PD10-Pad57)*%
X183512000Y-16420000D03*
%TO.P,IC1,58,PD11*%
%TO.N,unconnected-(IC1-PD11-Pad58)*%
X183512000Y-15920000D03*
%TO.P,IC1,59,PD12*%
%TO.N,/XY.SCL*%
X183512000Y-15420000D03*
%TO.P,IC1,60,PD13*%
%TO.N,/XY.SDA*%
X183512000Y-14920000D03*
%TO.P,IC1,61,PD14*%
%TO.N,unconnected-(IC1-PD14-Pad61)*%
X183512000Y-14420000D03*
%TO.P,IC1,62,PD15*%
%TO.N,unconnected-(IC1-PD15-Pad62)*%
X183512000Y-13920000D03*
%TO.P,IC1,63,PC6*%
%TO.N,unconnected-(IC1-PC6-Pad63)*%
X183512000Y-13420000D03*
%TO.P,IC1,64,PC7*%
%TO.N,unconnected-(IC1-PC7-Pad64)*%
X183512000Y-12920000D03*
%TO.P,IC1,65,PC8*%
%TO.N,unconnected-(IC1-PC8-Pad65)*%
X183512000Y-12420000D03*
%TO.P,IC1,66,PC9*%
%TO.N,unconnected-(IC1-PC9-Pad66)*%
X183512000Y-11920000D03*
%TO.P,IC1,67,PA8*%
%TO.N,unconnected-(IC1-PA8-Pad67)*%
X183512000Y-11420000D03*
%TO.P,IC1,68,PA9*%
%TO.N,/RX*%
X183512000Y-10920000D03*
%TO.P,IC1,69,PA10*%
%TO.N,/TX*%
X183512000Y-10420000D03*
%TO.P,IC1,70,PA11*%
%TO.N,/D-*%
X183512000Y-9920000D03*
%TO.P,IC1,71,PA12*%
%TO.N,/D+*%
X183512000Y-9420000D03*
%TO.P,IC1,72,PA13*%
%TO.N,/SWD*%
X183512000Y-8920000D03*
%TO.P,IC1,73,VCAP_2*%
%TO.N,/VCAP_2*%
X183512000Y-8420000D03*
%TO.P,IC1,74,VSS_4*%
%TO.N,GND*%
X183512000Y-7920000D03*
%TO.P,IC1,75,VDD_4*%
%TO.N,+3.3V*%
X183512000Y-7420000D03*
D52*
%TO.P,IC1,76,PA14*%
%TO.N,/CLK*%
X185250000Y-5682000D03*
%TO.P,IC1,77,PA15*%
%TO.N,/LCD.CS*%
X185750000Y-5682000D03*
%TO.P,IC1,78,PC10*%
%TO.N,/LCD.SCL*%
X186250000Y-5682000D03*
%TO.P,IC1,79,PC11*%
%TO.N,/LCD.BK*%
X186750000Y-5682000D03*
%TO.P,IC1,80,PC12*%
%TO.N,/LCD.SDA*%
X187250000Y-5682000D03*
%TO.P,IC1,81,PD0*%
%TO.N,/LCD.DC*%
X187750000Y-5682000D03*
%TO.P,IC1,82,PD1*%
%TO.N,/LCD.RST*%
X188250000Y-5682000D03*
%TO.P,IC1,83,PD2*%
%TO.N,unconnected-(IC1-PD2-Pad83)*%
X188750000Y-5682000D03*
%TO.P,IC1,84,PD3*%
%TO.N,unconnected-(IC1-PD3-Pad84)*%
X189250000Y-5682000D03*
%TO.P,IC1,85,PD4*%
%TO.N,unconnected-(IC1-PD4-Pad85)*%
X189750000Y-5682000D03*
%TO.P,IC1,86,PD5*%
%TO.N,unconnected-(IC1-PD5-Pad86)*%
X190250000Y-5682000D03*
%TO.P,IC1,87,PD6*%
%TO.N,unconnected-(IC1-PD6-Pad87)*%
X190750000Y-5682000D03*
%TO.P,IC1,88,PD7*%
%TO.N,unconnected-(IC1-PD7-Pad88)*%
X191250000Y-5682000D03*
%TO.P,IC1,89,PB3*%
%TO.N,/MCU.SCK*%
X191750000Y-5682000D03*
%TO.P,IC1,90,PB4*%
%TO.N,/MCU-DSP*%
X192250000Y-5682000D03*
%TO.P,IC1,91,PB5*%
%TO.N,unconnected-(IC1-PB5-Pad91)*%
X192750000Y-5682000D03*
%TO.P,IC1,92,PB6*%
%TO.N,unconnected-(IC1-PB6-Pad92)*%
X193250000Y-5682000D03*
%TO.P,IC1,93,PB7*%
%TO.N,unconnected-(IC1-PB7-Pad93)*%
X193750000Y-5682000D03*
%TO.P,IC1,94,BOOT0*%
%TO.N,/BOOT0*%
X194250000Y-5682000D03*
%TO.P,IC1,95,PB8*%
%TO.N,unconnected-(IC1-PB8-Pad95)*%
X194750000Y-5682000D03*
%TO.P,IC1,96,PB9*%
%TO.N,unconnected-(IC1-PB9-Pad96)*%
X195250000Y-5682000D03*
%TO.P,IC1,97,PE0*%
%TO.N,unconnected-(IC1-PE0-Pad97)*%
X195750000Y-5682000D03*
%TO.P,IC1,98,PE1*%
%TO.N,unconnected-(IC1-PE1-Pad98)*%
X196250000Y-5682000D03*
%TO.P,IC1,99,VSS_5*%
%TO.N,GND*%
X196750000Y-5682000D03*
%TO.P,IC1,100,VDD_5*%
%TO.N,+3.3V*%
X197250000Y-5682000D03*
%TD*%
D26*
%TO.P,R25,1*%
%TO.N,Net-(J1-CC1)*%
X204950000Y10552500D03*
%TO.P,R25,2*%
%TO.N,GND*%
X204950000Y8727500D03*
%TD*%
D30*
%TO.P,C3,1*%
%TO.N,Net-(U1-CAPP)*%
X220200000Y-1090894D03*
%TO.P,C3,2*%
%TO.N,Net-(U1-CAPM)*%
X220200000Y-2990894D03*
%TD*%
D53*
%TO.P,D1,1,K*%
%TO.N,Net-(D1-K)*%
X177883501Y135287D03*
%TO.P,D1,2,A*%
%TO.N,Net-(D1-A)*%
X177883501Y4135287D03*
%TD*%
D28*
%TO.P,C12,1*%
%TO.N,GND*%
X189384363Y3545382D03*
%TO.P,C12,2*%
%TO.N,/VLCD*%
X191284361Y3545382D03*
%TD*%
%TO.P,C13,1*%
%TO.N,GND*%
X189484364Y5715382D03*
%TO.P,C13,2*%
%TO.N,+3.3V*%
X191384362Y5715382D03*
%TD*%
D33*
%TO.P,C2,1*%
%TO.N,Net-(U1-VNEG)*%
X222280000Y-2990894D03*
%TO.P,C2,2*%
%TO.N,GND*%
X222280000Y-1090894D03*
%TD*%
D11*
%TO.P,C21,1*%
%TO.N,GND*%
X202704939Y-9210022D03*
%TO.P,C21,2*%
%TO.N,+3.3V*%
X201154939Y-9210022D03*
%TD*%
D25*
%TO.P,C39,1*%
%TO.N,+3.3V*%
X202559939Y-335002D03*
%TO.P,C39,2*%
%TO.N,GND*%
X202559939Y-1885002D03*
%TD*%
D30*
%TO.P,C37,1*%
%TO.N,+3.3V*%
X206690894Y20000D03*
%TO.P,C37,2*%
%TO.N,GND*%
X206690894Y-1880000D03*
%TD*%
D33*
%TO.P,C1,1*%
%TO.N,+3.3V*%
X217910000Y-2990894D03*
%TO.P,C1,2*%
%TO.N,GND*%
X217910000Y-1090894D03*
%TD*%
D54*
%TO.P,U1,1,CPVDD*%
%TO.N,+3.3V*%
X221250000Y-6057500D03*
%TO.P,U1,2,CAPP*%
%TO.N,Net-(U1-CAPP)*%
X221900000Y-6057500D03*
%TO.P,U1,3,CPGND*%
%TO.N,GND*%
X222550000Y-6057500D03*
%TO.P,U1,4,CAPM*%
%TO.N,Net-(U1-CAPM)*%
X223200000Y-6057500D03*
%TO.P,U1,5,VNEG*%
%TO.N,Net-(U1-VNEG)*%
X223850000Y-6057500D03*
%TO.P,U1,6,OUTL*%
%TO.N,Net-(U1-OUTL)*%
X224500000Y-6057500D03*
%TO.P,U1,7,OUTR*%
%TO.N,Net-(U1-OUTR)*%
X225150000Y-6057500D03*
%TO.P,U1,8,AVDD*%
%TO.N,+3.3V*%
X225800000Y-6057500D03*
%TO.P,U1,9,AGND*%
%TO.N,GND*%
X226450000Y-6057500D03*
%TO.P,U1,10,DEMP*%
X227100000Y-6057500D03*
%TO.P,U1,11,FLT*%
X227100000Y-11782500D03*
%TO.P,U1,12,SCK*%
%TO.N,Net-(RN1-R4.1)*%
X226450000Y-11782500D03*
%TO.P,U1,13,BCK*%
%TO.N,Net-(RN1-R3.1)*%
X225800000Y-11782500D03*
%TO.P,U1,14,DIN*%
%TO.N,Net-(RN1-R2.1)*%
X225150000Y-11782500D03*
%TO.P,U1,15,LRCK*%
%TO.N,Net-(RN1-R1.1)*%
X224500000Y-11782500D03*
%TO.P,U1,16,FMT*%
%TO.N,GND*%
X223850000Y-11782500D03*
%TO.P,U1,17,XSMT*%
%TO.N,Net-(U1-XSMT)*%
X223200000Y-11782500D03*
%TO.P,U1,18,LDOO*%
%TO.N,Net-(U1-LDOO)*%
X222550000Y-11782500D03*
%TO.P,U1,19,DGND*%
%TO.N,GND*%
X221900000Y-11782500D03*
%TO.P,U1,20,DVDD*%
%TO.N,+3.3V*%
X221250000Y-11782500D03*
%TD*%
D55*
%TO.P,L2,1,1*%
%TO.N,+3.3V*%
X206380000Y-19707500D03*
%TO.P,L2,2,2*%
%TO.N,/VREF+*%
X206380000Y-18132500D03*
%TD*%
D56*
%TO.P,X1,1,1*%
%TO.N,/RCC_OSC_IN*%
X205050000Y-12050000D03*
%TO.P,X1,2,2*%
%TO.N,GND*%
X205050000Y-14250000D03*
%TO.P,X1,3,3*%
%TO.N,/RCC_OSC_OUT*%
X203350000Y-14250000D03*
%TO.P,X1,4,4*%
%TO.N,GND*%
X203350000Y-12050000D03*
%TD*%
D57*
%TO.P,R14,1*%
%TO.N,Net-(D1-K)*%
X175048501Y1545287D03*
%TO.P,R14,2*%
%TO.N,Net-(U2-FB)*%
X173398501Y1545287D03*
%TD*%
D33*
%TO.P,C5,1*%
%TO.N,+3.3V*%
X228790000Y-2940894D03*
%TO.P,C5,2*%
%TO.N,GND*%
X228790000Y-1040894D03*
%TD*%
D32*
%TO.P,R19,1*%
%TO.N,+3.3V*%
X156872500Y-3860000D03*
%TO.P,R19,2*%
%TO.N,/XY.SDA*%
X155047500Y-3860000D03*
%TD*%
D58*
%TO.P,U2,1,SW*%
%TO.N,Net-(D1-A)*%
X175203501Y5050287D03*
%TO.P,U2,2,GND*%
%TO.N,GND*%
X175203501Y4100287D03*
%TO.P,U2,3,FB*%
%TO.N,Net-(U2-FB)*%
X175203501Y3150287D03*
%TO.P,U2,4,EN*%
%TO.N,/LCD.BK*%
X172905501Y3150287D03*
%TO.P,U2,5,VIN*%
%TO.N,+3.3V*%
X172905501Y4100287D03*
%TO.P,U2,6,NC*%
%TO.N,unconnected-(U2-NC-Pad6)*%
X172905501Y5050287D03*
%TD*%
D59*
%TO.P,F1,2*%
%TO.N,+5V*%
X210537500Y3950000D03*
%TO.P,F1,1*%
%TO.N,Net-(F1-Pad1)*%
X208962500Y3950000D03*
%TD*%
D60*
%TO.N,GND*%
X199500000Y-3759982D03*
X201222470Y-3222470D03*
%TO.N,+5V*%
X184528527Y-39269433D03*
%TO.N,GND*%
X183650000Y-38100340D03*
%TO.N,+5V*%
X168400000Y-35763816D03*
%TO.N,GND*%
X167400000Y-37875000D03*
D61*
%TO.N,+5V*%
X168250000Y-31250000D03*
X175515894Y-31200000D03*
X187630000Y-33582500D03*
X210640894Y1940000D03*
%TO.N,+3.3V*%
X203000000Y-21250000D03*
X183654939Y-23270014D03*
%TO.N,/ECA1*%
X230500000Y-18750000D03*
%TO.N,/ECA2*%
X229750000Y-18000000D03*
%TO.N,/ECB1*%
X229000000Y-17250000D03*
%TO.N,/ECB2*%
X228000000Y-16750000D03*
%TO.N,/ECB1*%
X196750000Y-15750000D03*
%TO.N,/ECA1*%
X195250000Y-16000000D03*
%TO.N,/ECA2*%
X196000000Y-15000000D03*
%TO.N,/ECB2*%
X197500000Y-15250000D03*
%TO.N,GND*%
X180500000Y-29750000D03*
%TO.N,+3.3V*%
X182784106Y-28180000D03*
%TO.N,GND*%
X173965894Y-31200000D03*
X170250000Y-31000000D03*
X178000000Y-37500000D03*
%TO.N,+3.3V*%
X186685000Y-36070000D03*
X174481908Y-35731908D03*
%TO.N,/OCT+*%
X170750000Y-27250000D03*
%TO.N,/OCT-*%
X170750000Y-25900000D03*
%TO.N,/OCT+*%
X189250000Y-18250000D03*
%TO.N,/OCT-*%
X188000000Y-18250000D03*
%TO.N,/MCU.SCK*%
X190500000Y-17750000D03*
%TO.N,/MCU-DSP*%
X192750000Y-17750000D03*
%TO.N,/MCU.CS*%
X174536316Y-33852500D03*
%TO.N,/MCU.IRQ2*%
X192500000Y-27250000D03*
%TO.N,/MCU.CS2*%
X193000000Y-26250000D03*
%TO.N,/MCU.IRQ*%
X194000000Y-26750000D03*
%TO.N,/MCU.CS*%
X195250000Y-26250000D03*
%TO.N,/MCU.CS2*%
X193380000Y-31887500D03*
%TO.N,/MCU.IRQ2*%
X180500000Y-32500000D03*
%TO.N,/MCU-DSP*%
X180000000Y-31730000D03*
%TO.N,/MCU.SCK*%
X181250000Y-30750000D03*
X181250000Y-33250000D03*
%TO.N,/MCU.IRQ*%
X185250000Y-29000000D03*
%TO.N,GND*%
X206837500Y2380000D03*
D60*
%TO.N,+3.3V*%
X190250000Y1000000D03*
D61*
X170311250Y-1561250D03*
X217910000Y-2990894D03*
X174374695Y-14520014D03*
X248679000Y-7160000D03*
D60*
X200652522Y-402522D03*
D61*
X177250000Y-6000000D03*
X228790000Y-2940894D03*
D60*
X215750000Y-12000000D03*
D61*
X197904939Y-23080006D03*
X173040000Y-23562500D03*
D60*
X170869395Y4145287D03*
X156812000Y-15062000D03*
D61*
X191384362Y5715382D03*
X181539817Y-7045014D03*
X202750000Y-5500000D03*
%TO.N,GND*%
X222360000Y959106D03*
X202500000Y-15735022D03*
X202750000Y-10500000D03*
X206500000Y-13500000D03*
X202789817Y-19855006D03*
X197500000Y-21250000D03*
X206500000Y-12500000D03*
X223000000Y-10250000D03*
X161240000Y13625000D03*
X186500000Y-19000000D03*
X224500000Y-7750000D03*
X206500000Y-14750000D03*
X185000000Y-8000000D03*
X201050010Y-19845061D03*
X206250000Y-10500000D03*
D60*
X169118498Y1911426D03*
D61*
X201250000Y-15735022D03*
X219170000Y-16104470D03*
X228790000Y-1040894D03*
D60*
X212875000Y-1125000D03*
D61*
X177250000Y-16000000D03*
X196250000Y-7500000D03*
X208740894Y1940000D03*
D60*
X174368919Y4100287D03*
D61*
X227500000Y-14750000D03*
X199454939Y-23080006D03*
X201057357Y-11057357D03*
X217910000Y-1090894D03*
X217920000Y-13940894D03*
X171770000Y-23562500D03*
X221660000Y13475000D03*
X222280000Y-1090894D03*
X203750000Y-15735022D03*
X204539817Y-19825010D03*
D60*
X213750000Y-250000D03*
D61*
X204750000Y-15500000D03*
X205250000Y-10500000D03*
D60*
X167919395Y4145287D03*
D61*
X155927000Y-16947000D03*
X183685183Y-25039978D03*
X204000000Y-10500000D03*
X179679939Y-5585002D03*
X202694817Y-7490018D03*
X201750000Y-10500000D03*
X206500000Y-11500000D03*
X181539817Y-5495014D03*
D60*
X214750000Y500000D03*
D61*
X228390894Y1030000D03*
X228660000Y12575000D03*
X174911499Y-285287D03*
X205750000Y-15500000D03*
X155837000Y3387000D03*
X174877607Y-2644713D03*
%TO.N,/L*%
X228660000Y5575000D03*
X221660000Y3775000D03*
%TO.N,/NRST*%
X225250000Y-10250000D03*
X232250000Y-14250000D03*
X196500000Y-11000000D03*
X205000000Y-9500000D03*
%TO.N,/BTN5*%
X226150000Y-38381000D03*
%TO.N,/BTN6*%
X238650000Y-38327000D03*
%TO.N,/BTN1*%
X159150000Y-38381000D03*
%TO.N,/D+*%
X208250000Y6750000D03*
X186375000Y-8125000D03*
%TO.N,/BTN3*%
X189650000Y-38381000D03*
%TO.N,/LCD.BK*%
X187000000Y-3000000D03*
X181500000Y-2750000D03*
%TO.N,/BCK*%
X216000000Y-19750000D03*
X213250000Y-19750000D03*
%TO.N,/LCD.CS*%
X188000000Y0D03*
X185000000Y-3500000D03*
%TO.N,/BTN2*%
X174400000Y-38381000D03*
%TO.N,/BTN4*%
X204900000Y-38381000D03*
%TO.N,/XY.SDA*%
X172250000Y-12000000D03*
X172750000Y-10000000D03*
%TO.N,/BTN9*%
X208375000Y-22125000D03*
X214125000Y-27875000D03*
X217000000Y-30750000D03*
X211500000Y-25250000D03*
%TO.N,/D-*%
X187875000Y-8125000D03*
X210000000Y7250000D03*
%TO.N,/BOOT0*%
X226875000Y-9875000D03*
X232250000Y-11750000D03*
X204250000Y-8750000D03*
X196000000Y-8750000D03*
%TO.N,/LCD.DC*%
X187000000Y-2000000D03*
X188500000Y1250000D03*
%TO.N,/SWD*%
X165250000Y10000000D03*
%TO.N,/CLK*%
X184250000Y-5250000D03*
X177500000Y-7750000D03*
X164000000Y11250000D03*
%TO.N,/RX*%
X164000000Y7000000D03*
X167500000Y10500000D03*
%TD*%
D62*
%TO.N,Net-(D1-K)*%
X176473501Y1545287D02*
X177883501Y135287D01*
X175048501Y1545287D02*
X176473501Y1545287D01*
%TO.N,Net-(U2-FB)*%
X173398501Y1545287D02*
X173398501Y-148285D01*
X173398501Y-148285D02*
X173261499Y-285287D01*
X173598501Y1545287D02*
X175203501Y3150287D01*
X173398501Y1545287D02*
X173598501Y1545287D01*
D63*
%TO.N,/VLCD*%
X192571361Y4832382D02*
X191284361Y3545382D01*
X192571361Y6908658D02*
X192571361Y4832382D01*
X193500056Y7837354D02*
X192571361Y6908658D01*
X193500056Y9605382D02*
X193500056Y7837354D01*
D64*
%TO.N,GND*%
X199500000Y-3759982D02*
X200684959Y-3759982D01*
X201222470Y-3222470D02*
X202559939Y-1885002D01*
%TO.N,+5V*%
X184650000Y-39147960D02*
X184528527Y-39269433D01*
X184650000Y-38100340D02*
X184650000Y-39147960D01*
X168400000Y-37875000D02*
X168400000Y-35763816D01*
X168400000Y-35763816D02*
X168426316Y-35737500D01*
D63*
X169500000Y-30000000D02*
X168250000Y-31250000D01*
X172500000Y-30000000D02*
X169500000Y-30000000D01*
X174315894Y-30000000D02*
X172500000Y-30000000D01*
X175515894Y-31200000D02*
X174315894Y-30000000D01*
X175515894Y-30875000D02*
X175960894Y-30430000D01*
X175515894Y-31200000D02*
X175515894Y-30875000D01*
X175960894Y-30430000D02*
X177537500Y-30430000D01*
D64*
X210537500Y2043394D02*
X210640894Y1940000D01*
X210640894Y1940000D02*
X210640894Y-845894D01*
X210537500Y3950000D02*
X210537500Y2043394D01*
X210640894Y-845894D02*
X210695000Y-900000D01*
D63*
%TO.N,Net-(Q2-D)*%
X185736000Y-33651500D02*
X187630000Y-31757500D01*
X185650000Y-38100340D02*
X185736000Y-38014340D01*
X185736000Y-38014340D02*
X185736000Y-33651500D01*
%TO.N,+3.3V*%
X203000000Y-21250000D02*
X204837500Y-21250000D01*
X201986817Y-20315300D02*
X202921517Y-21250000D01*
X204837500Y-21250000D02*
X206380000Y-19707500D01*
X201986817Y-19231868D02*
X201986817Y-20315300D01*
X201050010Y-18295061D02*
X201986817Y-19231868D01*
X202921517Y-21250000D02*
X203000000Y-21250000D01*
%TO.N,/BTN9*%
X194500000Y-11500000D02*
X196580000Y-9420000D01*
X196000000Y-19500000D02*
X194500000Y-18000000D01*
X208250000Y-22000000D02*
X199750000Y-22000000D01*
X197250000Y-19500000D02*
X196000000Y-19500000D01*
X208375000Y-22125000D02*
X208250000Y-22000000D01*
X199750000Y-22000000D02*
X197250000Y-19500000D01*
X194500000Y-18000000D02*
X194500000Y-11500000D01*
X196580000Y-9420000D02*
X198988000Y-9420000D01*
%TO.N,GND*%
X185204939Y-23520222D02*
X183685183Y-25039978D01*
X185204939Y-23270014D02*
X185204939Y-23520222D01*
X185750000Y-22724953D02*
X185750000Y-21158000D01*
X185204939Y-23270014D02*
X185750000Y-22724953D01*
%TO.N,+3.3V*%
X183654939Y-22753061D02*
X183654939Y-23270014D01*
X185250000Y-21158000D02*
X183654939Y-22753061D01*
%TO.N,/ECA2*%
X242167738Y-1917738D02*
X242167738Y-3460000D01*
X241500000Y-1250000D02*
X242167738Y-1917738D01*
X235000000Y-1250000D02*
X241500000Y-1250000D01*
X233750000Y-2500000D02*
X235000000Y-1250000D01*
X233750000Y-7500000D02*
X233750000Y-2500000D01*
X232500000Y-8750000D02*
X233750000Y-7500000D01*
X230750000Y-8750000D02*
X232500000Y-8750000D01*
X230242208Y-9257792D02*
X230750000Y-8750000D01*
X230242208Y-9710000D02*
X230242208Y-9257792D01*
X242167738Y-5477762D02*
X241715500Y-5930000D01*
X242167738Y-3460000D02*
X242167738Y-5477762D01*
%TO.N,/ECA1*%
X235949526Y-5244026D02*
X236635500Y-5930000D01*
X235949526Y-3380000D02*
X235949526Y-5244026D01*
X232855500Y-9710000D02*
X231042208Y-9710000D01*
X236635500Y-5930000D02*
X232855500Y-9710000D01*
%TO.N,/ECB1*%
X235000000Y-17000000D02*
X239894500Y-17000000D01*
X234500000Y-17500000D02*
X235000000Y-17000000D01*
X234500000Y-19750000D02*
X234500000Y-17500000D01*
X233500000Y-20750000D02*
X234500000Y-19750000D01*
X239894500Y-17000000D02*
X241764500Y-18870000D01*
X229750000Y-20750000D02*
X233500000Y-20750000D01*
X229000000Y-20000000D02*
X229750000Y-20750000D01*
X229000000Y-17250000D02*
X229000000Y-20000000D01*
%TO.N,/ECB2*%
X228000000Y-20250000D02*
X228000000Y-16750000D01*
X229250000Y-21500000D02*
X228000000Y-20250000D01*
X236232262Y-21500000D02*
X229250000Y-21500000D01*
%TO.N,/ECA1*%
X231042208Y-18207792D02*
X230500000Y-18750000D01*
X231042208Y-9710000D02*
X231042208Y-18207792D01*
%TO.N,/ECA2*%
X230242208Y-17507792D02*
X229750000Y-18000000D01*
X230242208Y-9710000D02*
X230242208Y-17507792D01*
%TO.N,/ECB1*%
X229442208Y-16807792D02*
X229000000Y-17250000D01*
X229442208Y-9710000D02*
X229442208Y-16807792D01*
%TO.N,/ECB2*%
X228642208Y-16107792D02*
X228000000Y-16750000D01*
X228642208Y-9710000D02*
X228642208Y-16107792D01*
%TO.N,/ECB1*%
X197931400Y-18420000D02*
X196750000Y-17238600D01*
X196750000Y-17238600D02*
X196750000Y-15750000D01*
X198988000Y-18420000D02*
X197931400Y-18420000D01*
%TO.N,/ECA2*%
X197864300Y-18920000D02*
X198988000Y-18920000D01*
X196000000Y-17055700D02*
X197864300Y-18920000D01*
X196000000Y-15000000D02*
X196000000Y-17055700D01*
%TO.N,/ECA1*%
X195250000Y-16894716D02*
X197775284Y-19420000D01*
X197775284Y-19420000D02*
X198988000Y-19420000D01*
X195250000Y-16000000D02*
X195250000Y-16894716D01*
%TO.N,/ECB2*%
X197500000Y-17421500D02*
X197500000Y-15250000D01*
X197998500Y-17920000D02*
X197500000Y-17421500D01*
X198988000Y-17920000D02*
X197998500Y-17920000D01*
%TO.N,+3.3V*%
X221665712Y-13910000D02*
X219850894Y-13910000D01*
X219850894Y-13910000D02*
X219820000Y-13940894D01*
%TO.N,Net-(U1-XSMT)*%
X223200000Y-13619288D02*
X223490712Y-13910000D01*
X223200000Y-11782500D02*
X223200000Y-13619288D01*
D64*
%TO.N,+3.3V*%
X219129106Y-12000000D02*
X215750000Y-12000000D01*
D63*
X221070000Y-11962500D02*
X221250000Y-11782500D01*
D64*
X219820000Y-13940894D02*
X219820000Y-12690894D01*
D63*
X221070000Y-12690894D02*
X221070000Y-11962500D01*
D64*
X219820000Y-12690894D02*
X219129106Y-12000000D01*
D63*
X219820000Y-13940894D02*
X221070000Y-12690894D01*
%TO.N,GND*%
X181234106Y-29015894D02*
X180500000Y-29750000D01*
X181234106Y-28180000D02*
X181234106Y-29015894D01*
%TO.N,+3.3V*%
X181750000Y-29214106D02*
X182784106Y-28180000D01*
X181750000Y-30000000D02*
X181750000Y-29214106D01*
X182180000Y-30430000D02*
X181750000Y-30000000D01*
X183262500Y-30430000D02*
X182180000Y-30430000D01*
%TO.N,GND*%
X171770000Y-24707500D02*
X171770000Y-23562500D01*
X173962500Y-26900000D02*
X171770000Y-24707500D01*
D64*
X178000000Y-36092500D02*
X178000000Y-37500000D01*
X177537500Y-35630000D02*
X178000000Y-36092500D01*
D63*
%TO.N,Net-(U4-B1)*%
X177007500Y-29250000D02*
X177537500Y-29780000D01*
X165400000Y-32100000D02*
X168250000Y-29250000D01*
X165400000Y-37875000D02*
X165400000Y-32100000D01*
X168250000Y-29250000D02*
X177007500Y-29250000D01*
D64*
%TO.N,+3.3V*%
X191450000Y-34300000D02*
X191450000Y-33680000D01*
X190250000Y-35500000D02*
X191450000Y-34300000D01*
X187255000Y-35500000D02*
X190250000Y-35500000D01*
X186685000Y-36070000D02*
X187255000Y-35500000D01*
D63*
%TO.N,/OCT-*%
X165100000Y-25900000D02*
X170750000Y-25900000D01*
X163750000Y-27250000D02*
X165100000Y-25900000D01*
X156074000Y-27250000D02*
X163750000Y-27250000D01*
X155987000Y-27163000D02*
X156074000Y-27250000D01*
%TO.N,/OCT+*%
X165000000Y-27250000D02*
X170750000Y-27250000D01*
X164087000Y-28163000D02*
X165000000Y-27250000D01*
X155987000Y-28163000D02*
X164087000Y-28163000D01*
D64*
%TO.N,+3.3V*%
X174481908Y-35731908D02*
X174536316Y-35677500D01*
D63*
%TO.N,/OCT+*%
X188750000Y-18750000D02*
X189250000Y-18250000D01*
X188750000Y-21158000D02*
X188750000Y-18750000D01*
%TO.N,/OCT-*%
X188250000Y-18500000D02*
X188000000Y-18250000D01*
X188250000Y-21158000D02*
X188250000Y-18500000D01*
D64*
%TO.N,+3.3V*%
X193347500Y-33680000D02*
X193380000Y-33712500D01*
X191450000Y-33680000D02*
X193347500Y-33680000D01*
D63*
%TO.N,/MCU.CS2*%
X191742500Y-31887500D02*
X193380000Y-31887500D01*
X189950000Y-33680000D02*
X191742500Y-31887500D01*
X189550000Y-33680000D02*
X189950000Y-33680000D01*
%TO.N,Net-(Q2-D)*%
X188070000Y-31680000D02*
X190500000Y-31680000D01*
X187992500Y-31757500D02*
X188070000Y-31680000D01*
X187630000Y-31757500D02*
X187992500Y-31757500D01*
%TO.N,Net-(U4-OE)*%
X183702500Y-36070000D02*
X183262500Y-35630000D01*
X185035000Y-36070000D02*
X183702500Y-36070000D01*
%TO.N,/MCU-DSP*%
X192250000Y-7500000D02*
X192250000Y-5682000D01*
X192750000Y-8000000D02*
X192250000Y-7500000D01*
X192750000Y-17750000D02*
X192750000Y-8000000D01*
%TO.N,/MCU.SCK*%
X191750000Y-7500000D02*
X191750000Y-5682000D01*
X190500000Y-17750000D02*
X190500000Y-8750000D01*
X190500000Y-8750000D02*
X191750000Y-7500000D01*
%TO.N,/MCU.IRQ*%
X194000000Y-25750000D02*
X194000000Y-26750000D01*
X193500000Y-25250000D02*
X194000000Y-25750000D01*
%TO.N,/MCU.CS*%
X193750000Y-24750000D02*
X195250000Y-26250000D01*
X193750000Y-21158000D02*
X193750000Y-24750000D01*
%TO.N,/MCU.IRQ*%
X193250000Y-25000000D02*
X193500000Y-25250000D01*
X193250000Y-21158000D02*
X193250000Y-25000000D01*
%TO.N,/MCU.CS2*%
X192750000Y-26000000D02*
X193000000Y-26250000D01*
X192750000Y-21158000D02*
X192750000Y-26000000D01*
%TO.N,/MCU.IRQ2*%
X192250000Y-27000000D02*
X192500000Y-27250000D01*
X192250000Y-21158000D02*
X192250000Y-27000000D01*
%TO.N,/BTN6*%
X237327000Y-38327000D02*
X238650000Y-38327000D01*
X215688468Y-32545000D02*
X219393468Y-36250000D01*
X235250000Y-36250000D02*
X237327000Y-38327000D01*
X195750000Y-28000000D02*
X200295000Y-32545000D01*
X219393468Y-36250000D02*
X235250000Y-36250000D01*
X192000000Y-28000000D02*
X195750000Y-28000000D01*
X191750000Y-27750000D02*
X192000000Y-28000000D01*
X200295000Y-32545000D02*
X215688468Y-32545000D01*
X191750000Y-21158000D02*
X191750000Y-27750000D01*
%TO.N,/BTN5*%
X215500000Y-33000000D02*
X220881000Y-38381000D01*
X200106532Y-33000000D02*
X215500000Y-33000000D01*
X220881000Y-38381000D02*
X226150000Y-38381000D01*
X191500000Y-28500000D02*
X195606532Y-28500000D01*
X195606532Y-28500000D02*
X200106532Y-33000000D01*
X191250000Y-28250000D02*
X191500000Y-28500000D01*
X191250000Y-21158000D02*
X191250000Y-28250000D01*
%TO.N,/BTN4*%
X204246376Y-38381000D02*
X204900000Y-38381000D01*
X195000376Y-29135000D02*
X204246376Y-38381000D01*
X191385000Y-29135000D02*
X195000376Y-29135000D01*
X190750000Y-21158000D02*
X190750000Y-28500000D01*
X190750000Y-28500000D02*
X191385000Y-29135000D01*
%TO.N,/BTN3*%
X192369000Y-38381000D02*
X189650000Y-38381000D01*
X195750000Y-35000000D02*
X192369000Y-38381000D01*
X195750000Y-34893467D02*
X195750000Y-35000000D01*
X195750000Y-34733467D02*
X195750000Y-34893467D01*
X195750000Y-34516532D02*
X195750000Y-34733467D01*
X195750000Y-34356533D02*
X195750000Y-34516532D01*
X195750000Y-34139597D02*
X195750000Y-34356533D01*
X195750000Y-31376935D02*
X195750000Y-34139597D01*
X195750000Y-30623066D02*
X195750000Y-30999998D01*
X195750000Y-30999998D02*
X195750000Y-31000001D01*
X195750000Y-30623064D02*
X195750000Y-30623065D01*
X195750000Y-30623065D02*
X195750000Y-30623066D01*
X195313325Y-30186392D02*
X195483467Y-30356532D01*
X195250000Y-30123067D02*
X195313325Y-30186392D01*
X194983468Y-29856532D02*
X194983468Y-29856533D01*
X194983468Y-29856533D02*
X195068638Y-29941703D01*
X194869240Y-29742304D02*
X194983468Y-29856532D01*
X195068638Y-29941703D02*
X195238978Y-30112045D01*
X194716935Y-29589999D02*
X194716936Y-29590000D01*
X194339999Y-29589999D02*
X194340002Y-29590000D01*
X195750000Y-31000001D02*
X195750000Y-31376935D01*
X194339999Y-29590000D02*
X194339999Y-29589999D01*
X194716936Y-29590000D02*
X194869240Y-29742304D01*
X193963065Y-29590000D02*
X194339997Y-29590001D01*
X190295000Y-28758064D02*
X191126936Y-29590000D01*
X190295000Y-25442337D02*
X190295000Y-28758064D01*
X190295000Y-25442335D02*
X190295000Y-25442337D01*
X191126936Y-29590000D02*
X193963065Y-29590000D01*
X190295000Y-25065402D02*
X190295000Y-25065403D01*
X194339997Y-29590001D02*
X194339999Y-29590000D01*
X190295000Y-25065401D02*
X190295000Y-25065402D01*
X190295000Y-24750000D02*
X190295000Y-25065401D01*
X193963065Y-29590000D02*
X193963064Y-29590001D01*
X190295000Y-24688468D02*
X190295000Y-24750000D01*
X190295000Y-24688467D02*
X190295000Y-24688468D01*
X195238978Y-30112045D02*
X195250000Y-30123067D01*
X190295000Y-24688467D02*
X190295000Y-24688466D01*
X190295000Y-24311535D02*
X190295000Y-24688467D01*
X194716934Y-29590000D02*
X194716935Y-29589999D01*
X190295000Y-24311532D02*
X190295000Y-24311535D01*
X190295000Y-25065403D02*
X190295000Y-25126934D01*
X190295000Y-22246500D02*
X190295000Y-22623435D01*
X190295000Y-22223500D02*
X190295000Y-22246500D01*
X190272000Y-22035033D02*
X190272000Y-22223500D01*
X195483467Y-30356532D02*
X195750000Y-30623064D01*
X190295000Y-23934598D02*
X190295000Y-24311532D01*
X190272000Y-21180000D02*
X190272000Y-22035033D01*
X194340002Y-29590000D02*
X194716934Y-29590000D01*
X190295000Y-22623435D02*
X190295000Y-23934598D01*
X190250000Y-21158000D02*
X190272000Y-21180000D01*
X190272000Y-22223500D02*
X190295000Y-22223500D01*
X190295000Y-25126934D02*
X190295000Y-25442335D01*
%TO.N,/BTN2*%
X174400000Y-40150000D02*
X174400000Y-38381000D01*
X175000000Y-40750000D02*
X174400000Y-40150000D01*
X177422000Y-40750000D02*
X175000000Y-40750000D01*
X177480808Y-40747340D02*
X177422000Y-40747340D01*
X177422000Y-40747340D02*
X177422000Y-40750000D01*
X179278000Y-40750000D02*
X179278000Y-40747340D01*
X179278000Y-40747340D02*
X177480808Y-40747340D01*
X185500000Y-40750000D02*
X179278000Y-40750000D01*
X187625724Y-40747340D02*
X185502660Y-40747340D01*
X185502660Y-40747340D02*
X185500000Y-40750000D01*
X187997340Y-40747340D02*
X187625724Y-40747340D01*
X188000000Y-40750000D02*
X187997340Y-40747340D01*
X188705000Y-40045000D02*
X188002660Y-40747340D01*
X188750000Y-37750000D02*
X188750000Y-40000000D01*
X193250000Y-36750000D02*
X189750000Y-36750000D01*
X195295000Y-34705000D02*
X193366734Y-36633266D01*
X195295000Y-34545000D02*
X195295000Y-34705000D01*
X195295000Y-34328064D02*
X195295000Y-34545000D01*
X195295000Y-31188468D02*
X195295000Y-34328064D01*
X195295000Y-30811533D02*
X195295000Y-31188468D01*
X188002660Y-40747340D02*
X188000000Y-40750000D01*
X195028467Y-30545000D02*
X195295000Y-30811532D01*
X194795000Y-30311533D02*
X195028467Y-30545000D01*
X194528468Y-30045000D02*
X194795000Y-30311533D01*
X188750000Y-40000000D02*
X188705000Y-40045000D01*
X194151532Y-30045000D02*
X194528467Y-30045000D01*
X193366734Y-36633266D02*
X193250000Y-36750000D01*
X190938468Y-30045000D02*
X194151532Y-30045000D01*
X189840000Y-25253870D02*
X189840000Y-28946532D01*
X189750000Y-36750000D02*
X188750000Y-37750000D01*
X189840000Y-25253868D02*
X189840000Y-25253870D01*
X189840000Y-24876935D02*
X189840000Y-24938467D01*
X189840000Y-24938467D02*
X189840000Y-25253868D01*
X189840000Y-28946532D02*
X190938468Y-30045000D01*
X195295000Y-30811532D02*
X195295000Y-30811533D01*
X194528467Y-30045000D02*
X194528468Y-30045000D01*
%TO.N,/BTN1*%
X194340000Y-30500000D02*
X194840000Y-31000000D01*
X189385000Y-29135000D02*
X190750000Y-30500000D01*
X189385000Y-24750000D02*
X189385000Y-29135000D01*
X194840000Y-31000000D02*
X194840000Y-34516532D01*
X189385000Y-24750000D02*
X189385000Y-24688468D01*
X190750000Y-30500000D02*
X194340000Y-30500000D01*
X160519000Y-39750000D02*
X159150000Y-38381000D01*
X171500000Y-39750000D02*
X160519000Y-39750000D01*
X173500000Y-37750000D02*
X171500000Y-39750000D01*
X174750000Y-37750000D02*
X173500000Y-37750000D01*
X177292340Y-40292340D02*
X174750000Y-37750000D01*
X187814192Y-40292340D02*
X177292340Y-40292340D01*
X188250000Y-39856532D02*
X187814192Y-40292340D01*
X189571734Y-36178266D02*
X188250000Y-37500000D01*
X194840000Y-34516532D02*
X193178266Y-36178266D01*
X193178266Y-36178266D02*
X189571734Y-36178266D01*
X188250000Y-37500000D02*
X188250000Y-39856532D01*
%TO.N,/MCU-DSP*%
X179750000Y-33000000D02*
X181080000Y-34330000D01*
X181080000Y-34330000D02*
X183262500Y-34330000D01*
X180000000Y-31730000D02*
X179750000Y-31980000D01*
X179750000Y-31980000D02*
X179750000Y-33000000D01*
X180000000Y-31730000D02*
X183262500Y-31730000D01*
%TO.N,/MCU.SCK*%
X182430000Y-33680000D02*
X183262500Y-33680000D01*
X182000000Y-33250000D02*
X182430000Y-33680000D01*
X181250000Y-33250000D02*
X182000000Y-33250000D01*
%TO.N,/MCU.IRQ2*%
X181817100Y-32500000D02*
X180500000Y-32500000D01*
X182347100Y-33030000D02*
X181817100Y-32500000D01*
X183262500Y-33030000D02*
X182347100Y-33030000D01*
%TO.N,/MCU.Config2*%
X185000000Y-32000000D02*
X187750000Y-29250000D01*
X185000000Y-34500000D02*
X185000000Y-32000000D01*
X184520000Y-34980000D02*
X185000000Y-34500000D01*
X183262500Y-34980000D02*
X184520000Y-34980000D01*
X187750000Y-29250000D02*
X187750000Y-21158000D01*
%TO.N,/MCU.Config*%
X187250000Y-29129999D02*
X187250000Y-21158000D01*
X183999999Y-32380000D02*
X187250000Y-29129999D01*
X183262500Y-32380000D02*
X183999999Y-32380000D01*
%TO.N,/MCU.SCK*%
X181580000Y-31080000D02*
X181250000Y-30750000D01*
X183262500Y-31080000D02*
X181580000Y-31080000D01*
%TO.N,/MCU.IRQ*%
X184470000Y-29780000D02*
X185250000Y-29000000D01*
X183262500Y-29780000D02*
X184470000Y-29780000D01*
%TO.N,/BTN1*%
X189272000Y-21180000D02*
X189250000Y-21158000D01*
X189272000Y-22223500D02*
X189272000Y-21180000D01*
X189362000Y-22456967D02*
X189317000Y-22411967D01*
X189317000Y-22411967D02*
X189317000Y-22223500D01*
X189362000Y-22600435D02*
X189362000Y-22600434D01*
X189385000Y-22623434D02*
X189362000Y-22600435D01*
X189385000Y-24688468D02*
X189385000Y-24688466D01*
X189385000Y-23934598D02*
X189385000Y-22623434D01*
X189385000Y-25065402D02*
X189385000Y-25065401D01*
X189385000Y-24311535D02*
X189385000Y-24311532D01*
X189317000Y-22223500D02*
X189272000Y-22223500D01*
X189385000Y-24688466D02*
X189385000Y-24311535D01*
X189385000Y-25065403D02*
X189385000Y-25065402D01*
X189385000Y-25065401D02*
X189385000Y-24750000D01*
X189362000Y-22600434D02*
X189362000Y-22456967D01*
X189385000Y-24311532D02*
X189385000Y-23934598D01*
%TO.N,/BTN2*%
X189772000Y-21180000D02*
X189750000Y-21158000D01*
X189817000Y-22411967D02*
X189817000Y-22223500D01*
X189840000Y-24123065D02*
X189840000Y-22434967D01*
X189840000Y-24499999D02*
X189840000Y-24123065D01*
X189840000Y-24500002D02*
X189840000Y-24499999D01*
X189840000Y-24876934D02*
X189840000Y-24500002D01*
X189840000Y-24876935D02*
X189840000Y-24876934D01*
X189840000Y-24876935D02*
X189840000Y-24876936D01*
X189772000Y-22223500D02*
X189772000Y-21180000D01*
X189817000Y-22223500D02*
X189772000Y-22223500D01*
X189840000Y-22434967D02*
X189817000Y-22411967D01*
%TO.N,Net-(U4-B5)*%
X181650000Y-35900000D02*
X178780000Y-33030000D01*
X181650000Y-38100340D02*
X181650000Y-35900000D01*
X178780000Y-33030000D02*
X177537500Y-33030000D01*
%TO.N,Net-(U4-B6)*%
X178680000Y-33680000D02*
X177537500Y-33680000D01*
X180650000Y-35650000D02*
X178680000Y-33680000D01*
X180650000Y-38100340D02*
X180650000Y-35650000D01*
%TO.N,Net-(U4-B7)*%
X178580000Y-34330000D02*
X177537500Y-34330000D01*
X179650000Y-35400000D02*
X178580000Y-34330000D01*
X179650000Y-38100340D02*
X179650000Y-35400000D01*
%TO.N,Net-(LED2-A)*%
X175927500Y-26810000D02*
X175837500Y-26900000D01*
X177467500Y-26810000D02*
X175927500Y-26810000D01*
%TO.N,Net-(IC1-PB11)*%
X186190000Y-26810000D02*
X179292500Y-26810000D01*
X186750000Y-26250000D02*
X186190000Y-26810000D01*
X186750000Y-21158000D02*
X186750000Y-26250000D01*
%TO.N,Net-(Q1-D)*%
X169400000Y-37875000D02*
X169500000Y-37775000D01*
X169500000Y-33865000D02*
X168473816Y-33865000D01*
X169500000Y-37775000D02*
X169500000Y-33865000D01*
%TO.N,Net-(U4-B8)*%
X176000000Y-37000000D02*
X176250000Y-37250000D01*
X176000000Y-35500000D02*
X176000000Y-37000000D01*
X176520000Y-34980000D02*
X176000000Y-35500000D01*
X177537500Y-34980000D02*
X176520000Y-34980000D01*
%TO.N,Net-(U4-B4)*%
X167120000Y-32380000D02*
X177537500Y-32380000D01*
X166400000Y-37875000D02*
X166400000Y-33100000D01*
X166400000Y-33100000D02*
X167120000Y-32380000D01*
%TO.N,Net-(U4-B2)*%
X179250000Y-30500000D02*
X178670000Y-31080000D01*
X178500000Y-28750000D02*
X179250000Y-29500000D01*
X167750000Y-28750000D02*
X178500000Y-28750000D01*
X164400000Y-32100000D02*
X167750000Y-28750000D01*
X178670000Y-31080000D02*
X177537500Y-31080000D01*
X164400000Y-37875000D02*
X164400000Y-32100000D01*
X179250000Y-29500000D02*
X179250000Y-30500000D01*
%TO.N,Net-(U4-B3)*%
X179750000Y-30567100D02*
X178587100Y-31730000D01*
X179750000Y-29000000D02*
X179750000Y-30567100D01*
X178587100Y-31730000D02*
X177537500Y-31730000D01*
X167000000Y-28250000D02*
X179000000Y-28250000D01*
X179000000Y-28250000D02*
X179750000Y-29000000D01*
X163400000Y-31850000D02*
X167000000Y-28250000D01*
X163400000Y-37875000D02*
X163400000Y-31850000D01*
%TO.N,Net-(U4-B8)*%
X178750000Y-39750000D02*
X176250000Y-37250000D01*
X181677340Y-39750000D02*
X178750000Y-39750000D01*
X182650000Y-38777340D02*
X181677340Y-39750000D01*
X182650000Y-38100340D02*
X182650000Y-38777340D01*
%TO.N,Net-(LED1-A)*%
X204902500Y2320000D02*
X204962500Y2380000D01*
X203292500Y2320000D02*
X204902500Y2320000D01*
D64*
%TO.N,+3.3V*%
X200652522Y1505022D02*
X201467500Y2320000D01*
X200652522Y-402522D02*
X200652522Y1505022D01*
D63*
X228790000Y-7762208D02*
X228642208Y-7910000D01*
X200444961Y-9920000D02*
X198988000Y-9920000D01*
D64*
X174682585Y-6000000D02*
X177250000Y-6000000D01*
D63*
X181914803Y-7420000D02*
X181539817Y-7045014D01*
D64*
X174374695Y-16322805D02*
X174310000Y-16387500D01*
D63*
X196750000Y-21158000D02*
X196750000Y-22375067D01*
X202750000Y-5500000D02*
X201144817Y-7105183D01*
X191384362Y5715382D02*
X191384362Y6365126D01*
D64*
X156872500Y-15000000D02*
X156872500Y-15001500D01*
X170311250Y-1628665D02*
X174682585Y-6000000D01*
X172860501Y4145287D02*
X172905501Y4100287D01*
D63*
X191384362Y6365126D02*
X193000056Y7980820D01*
X201144817Y-7490018D02*
X201144817Y-7105183D01*
D64*
X156872500Y-15001500D02*
X156812000Y-15062000D01*
D63*
X197295061Y-3759982D02*
X197295061Y-5636939D01*
D64*
X206720894Y50000D02*
X206690894Y20000D01*
D63*
X201154939Y-9210022D02*
X200444961Y-9920000D01*
X197944500Y-9920000D02*
X197500000Y-10364500D01*
D64*
X208695000Y50000D02*
X206720894Y50000D01*
D63*
X197500000Y-11975500D02*
X197944500Y-12420000D01*
D64*
X206690894Y20000D02*
X204560894Y20000D01*
D63*
X226500000Y-4500000D02*
X228500000Y-4500000D01*
X198988000Y-17420000D02*
X200174949Y-17420000D01*
D64*
X155837000Y-544500D02*
X156872500Y-1580000D01*
D63*
X200174949Y-17420000D02*
X201050010Y-18295061D01*
D64*
X156872500Y-1580000D02*
X156872500Y-3860000D01*
D63*
X228500000Y-4500000D02*
X228790000Y-4210000D01*
D64*
X204560894Y20000D02*
X204440894Y-100000D01*
X174374695Y-14520014D02*
X174374695Y-16322805D01*
D63*
X201144817Y-9199900D02*
X201154939Y-9210022D01*
D64*
X172376316Y-35865000D02*
X174348816Y-35865000D01*
D63*
X197500000Y-10364500D02*
X197500000Y-11975500D01*
X225800000Y-5200000D02*
X226500000Y-4500000D01*
D64*
X170869395Y6906181D02*
X170869395Y4145287D01*
X206380000Y-19707500D02*
X208042500Y-19707500D01*
X175580000Y-16387500D02*
X174310000Y-16387500D01*
D63*
X228790000Y-4210000D02*
X228790000Y-2940894D01*
D64*
X195009982Y-3759982D02*
X190250000Y1000000D01*
X204440894Y-100000D02*
X202794941Y-100000D01*
X174348816Y-35865000D02*
X174481908Y-35731908D01*
X170869395Y4145287D02*
X172860501Y4145287D01*
D63*
X228790000Y-2940894D02*
X228790000Y-7762208D01*
X193000056Y7980820D02*
X193000056Y9605382D01*
D64*
X202559939Y-335002D02*
X200720041Y-335002D01*
X200720041Y-335002D02*
X200652522Y-402522D01*
X197295061Y-3759982D02*
X195009982Y-3759982D01*
X228642208Y-7910000D02*
X231042208Y-7910000D01*
X172293501Y8330287D02*
X170869395Y6906181D01*
D63*
X201144817Y-7105183D02*
X201144817Y-9199900D01*
D64*
X170311250Y-1561250D02*
X170311250Y-1628665D01*
D63*
X198988000Y-9920000D02*
X197944500Y-9920000D01*
D64*
X208042500Y-19707500D02*
X215750000Y-12000000D01*
D63*
X248679000Y-7160000D02*
X248679000Y-13960000D01*
X217910000Y-2990894D02*
X220976606Y-6057500D01*
X197295061Y-5636939D02*
X197250000Y-5682000D01*
X183512000Y-7420000D02*
X181914803Y-7420000D01*
X220976606Y-6057500D02*
X221250000Y-6057500D01*
D64*
X200652522Y-402522D02*
X197295061Y-3759982D01*
X155837000Y2387000D02*
X155837000Y-544500D01*
D63*
X225800000Y-6057500D02*
X225800000Y-5200000D01*
D64*
X156872500Y-1580000D02*
X156872500Y-15000000D01*
D63*
X196750000Y-22375067D02*
X197454939Y-23080006D01*
D64*
X156812000Y-15062000D02*
X155927000Y-15947000D01*
X202794941Y-100000D02*
X202559939Y-335002D01*
D63*
X197944500Y-12420000D02*
X198988000Y-12420000D01*
X197454939Y-23080006D02*
X197904939Y-23080006D01*
%TO.N,GND*%
X187000056Y9605382D02*
X187500056Y9605382D01*
X175924695Y-14674695D02*
X177250000Y-16000000D01*
X205050000Y-15200000D02*
X205050000Y-14250000D01*
X201750000Y-10500000D02*
X201614713Y-10500000D01*
X204750000Y-15500000D02*
X205050000Y-15200000D01*
X222550000Y-6057500D02*
X222550000Y-7050000D01*
X223200000Y-10250000D02*
X223000000Y-10250000D01*
X185750000Y-19750000D02*
X186500000Y-19000000D01*
X240187738Y-3380000D02*
X240267738Y-3460000D01*
D64*
X204950000Y8727500D02*
X206002500Y8727500D01*
D63*
X189484364Y5715382D02*
X191000056Y7231074D01*
D64*
X215065000Y9150000D02*
X215665000Y9750000D01*
D63*
X204514978Y-15735022D02*
X204750000Y-15500000D01*
X248690000Y-16033000D02*
X248690000Y-22833000D01*
X203500000Y-10500000D02*
X203000000Y-10500000D01*
X198988000Y-11920000D02*
X200194713Y-11920000D01*
D64*
X215665000Y9750000D02*
X216707500Y9750000D01*
D63*
X203750000Y-15735022D02*
X204514978Y-15735022D01*
X225750000Y-7750000D02*
X226450000Y-7050000D01*
X187500000Y11000000D02*
X192500000Y11000000D01*
X221900000Y-11045001D02*
X221900000Y-11782500D01*
X243789817Y-17635002D02*
X243789817Y-22210183D01*
X223250000Y-7750000D02*
X224500000Y-7750000D01*
X197561438Y11000000D02*
X198000056Y10561382D01*
D64*
X206690894Y-1880000D02*
X208665000Y-1880000D01*
D63*
X226450000Y-7050000D02*
X226450000Y-6057500D01*
X203000000Y-10500000D02*
X202750000Y-10500000D01*
X242750000Y-23250000D02*
X240750000Y-23250000D01*
D64*
X214545000Y9150000D02*
X215065000Y9150000D01*
D63*
X189484364Y5715382D02*
X189484364Y3645383D01*
D64*
X207025000Y9750000D02*
X207545000Y9750000D01*
X214750000Y500000D02*
X213125000Y-1125000D01*
D63*
X206500000Y-13500000D02*
X206500000Y-14750000D01*
X201250000Y-15735022D02*
X202500000Y-15735022D01*
X202500000Y-15735022D02*
X203750000Y-15735022D01*
X206500000Y-15250000D02*
X206250000Y-15500000D01*
X204072118Y9605382D02*
X204950000Y8727500D01*
X239224500Y-20412238D02*
X240232262Y-21420000D01*
X185000000Y11000000D02*
X187500000Y11000000D01*
X240750000Y-23250000D02*
X240232262Y-22732262D01*
X184920000Y-7920000D02*
X185000000Y-8000000D01*
X238132262Y-19962238D02*
X239224500Y-18870000D01*
X196750000Y-5682000D02*
X196750000Y-7000000D01*
X182500056Y9605382D02*
X182500056Y10561382D01*
X206500000Y-13500000D02*
X205750000Y-14250000D01*
D64*
X206570894Y-2000000D02*
X206690894Y-1880000D01*
D63*
X227100000Y-6057500D02*
X226450000Y-6057500D01*
X206500000Y-11500000D02*
X206500000Y-12500000D01*
D64*
X204440894Y-2000000D02*
X206570894Y-2000000D01*
D63*
X206500000Y-12500000D02*
X206500000Y-13500000D01*
X196750000Y-7000000D02*
X196250000Y-7500000D01*
D64*
X174368919Y4100287D02*
X175203501Y4100287D01*
D63*
X185750000Y-21158000D02*
X185750000Y-19750000D01*
D64*
X212875000Y-1125000D02*
X213750000Y-250000D01*
D63*
X198000056Y9605382D02*
X204072118Y9605382D01*
X224500000Y-7750000D02*
X225750000Y-7750000D01*
D64*
X204325896Y-1885002D02*
X204440894Y-2000000D01*
D63*
X200194713Y-11920000D02*
X201057357Y-11057357D01*
D64*
X208665000Y-1880000D02*
X208695000Y-1850000D01*
D63*
X175924695Y-14520014D02*
X175924695Y-14674695D01*
D64*
X207545000Y9750000D02*
X208145000Y9150000D01*
X202694817Y-7490018D02*
X202694817Y-9199900D01*
D63*
X239224500Y-18870000D02*
X239224500Y-20412238D01*
X204000000Y-10500000D02*
X205250000Y-10500000D01*
X182500056Y10561382D02*
X182938674Y11000000D01*
X183512000Y-7920000D02*
X184920000Y-7920000D01*
X205750000Y-15500000D02*
X204750000Y-15500000D01*
X223850000Y-11782500D02*
X223850000Y-10900000D01*
X201149695Y-10965018D02*
X201215018Y-10965018D01*
X205750000Y-14250000D02*
X205050000Y-14250000D01*
X192500056Y9605382D02*
X192500056Y10999944D01*
X206500000Y-14750000D02*
X206500000Y-15250000D01*
X239175500Y-8425500D02*
X240537500Y-9787500D01*
X237849526Y-3380000D02*
X240187738Y-3380000D01*
X201614713Y-10500000D02*
X201149695Y-10965018D01*
X243789817Y-17635002D02*
X247087998Y-17635002D01*
X187500056Y9605382D02*
X187500056Y10999944D01*
D64*
X200684959Y-3759982D02*
X201222470Y-3222470D01*
D63*
X185000056Y10999944D02*
X185000000Y11000000D01*
D64*
X202559939Y-1885002D02*
X204325896Y-1885002D01*
D63*
X185000056Y9605382D02*
X185000056Y10999944D01*
X239175500Y-5930000D02*
X239175500Y-8425500D01*
X190000056Y9605382D02*
X192500056Y9605382D01*
X187500056Y10999944D02*
X187500000Y11000000D01*
X200464717Y-16420000D02*
X201149695Y-15735022D01*
X227100000Y-11782500D02*
X227100000Y-14350000D01*
X201215018Y-10965018D02*
X202300000Y-12050000D01*
X206500000Y-10750000D02*
X206500000Y-11500000D01*
X240267738Y-3460000D02*
X240267738Y-4837762D01*
D64*
X202694817Y-9199900D02*
X202704939Y-9210022D01*
D63*
X238132262Y-21500000D02*
X238132262Y-19962238D01*
X240267738Y-4837762D02*
X239175500Y-5930000D01*
X182938674Y11000000D02*
X185000000Y11000000D01*
X247087998Y-17635002D02*
X248690000Y-16033000D01*
X222695001Y-10250000D02*
X221900000Y-11045001D01*
D64*
X216707500Y9750000D02*
X217700000Y8757500D01*
D63*
X203500000Y-10500000D02*
X204000000Y-10500000D01*
D64*
X206002500Y8727500D02*
X207025000Y9750000D01*
D63*
X240537500Y-9787500D02*
X243550000Y-9787500D01*
D64*
X213125000Y-1125000D02*
X212875000Y-1125000D01*
D63*
X243789817Y-22210183D02*
X242750000Y-23250000D01*
D64*
X208695000Y-1850000D02*
X212400000Y-1850000D01*
D63*
X202300000Y-12050000D02*
X203350000Y-12050000D01*
X189484364Y3645383D02*
X189384363Y3545382D01*
X227100000Y-14350000D02*
X227500000Y-14750000D01*
X240232262Y-22732262D02*
X240232262Y-21420000D01*
X192500056Y10999944D02*
X192500000Y11000000D01*
X198000056Y10561382D02*
X198000056Y9605382D01*
X201057357Y-11057357D02*
X201149695Y-10965018D01*
X201149695Y-15735022D02*
X201250000Y-15735022D01*
X222550000Y-7050000D02*
X223250000Y-7750000D01*
D64*
X198845061Y-3759982D02*
X199500000Y-3759982D01*
D63*
X202750000Y-10500000D02*
X201750000Y-10500000D01*
X198988000Y-16420000D02*
X200464717Y-16420000D01*
X183500056Y9605382D02*
X185000056Y9605382D01*
X205250000Y-10500000D02*
X206250000Y-10500000D01*
X206250000Y-10500000D02*
X206500000Y-10750000D01*
X223850000Y-10900000D02*
X223200000Y-10250000D01*
X206250000Y-15500000D02*
X205750000Y-15500000D01*
X191000056Y7231074D02*
X191000056Y9605382D01*
X192500000Y11000000D02*
X197561438Y11000000D01*
D64*
X212400000Y-1850000D02*
X214750000Y500000D01*
D63*
X223000000Y-10250000D02*
X222695001Y-10250000D01*
%TO.N,Net-(U1-VNEG)*%
X223850000Y-6057500D02*
X223850000Y-4850000D01*
X222280000Y-4030000D02*
X222280000Y-2990894D01*
X222500000Y-4250000D02*
X222280000Y-4030000D01*
X223250000Y-4250000D02*
X222500000Y-4250000D01*
X223850000Y-4850000D02*
X223250000Y-4250000D01*
%TO.N,Net-(U1-CAPM)*%
X222584999Y-4705000D02*
X221914106Y-4705000D01*
X223200000Y-5320001D02*
X222584999Y-4705000D01*
X221914106Y-4705000D02*
X220200000Y-2990894D01*
X223200000Y-6057500D02*
X223200000Y-5320001D01*
%TO.N,Net-(U1-CAPP)*%
X219147000Y-3487236D02*
X219147000Y-2143894D01*
X219147000Y-2143894D02*
X220200000Y-1090894D01*
X219478658Y-3818894D02*
X219147000Y-3487236D01*
X221900000Y-5361946D02*
X220356948Y-3818894D01*
X220356948Y-3818894D02*
X219478658Y-3818894D01*
X221900000Y-6057500D02*
X221900000Y-5361946D01*
%TO.N,/L*%
X224260000Y959106D02*
X224260000Y1175000D01*
X224260000Y1175000D02*
X221660000Y3775000D01*
X224260000Y959106D02*
X224260000Y-947500D01*
X224260000Y-947500D02*
X224430000Y-1117500D01*
%TO.N,/R*%
X221660000Y7340000D02*
X221660000Y9875000D01*
X226490894Y2509106D02*
X221660000Y7340000D01*
X226490894Y1030000D02*
X226490894Y2509106D01*
X226680000Y-1187500D02*
X226680000Y840894D01*
X226680000Y840894D02*
X226490894Y1030000D01*
%TO.N,/VB0+*%
X197500056Y9605382D02*
X197500056Y7658266D01*
X198627618Y3538636D02*
X197634362Y2545380D01*
X197500056Y7658266D02*
X198627618Y6530704D01*
X198627618Y6530704D02*
X198627618Y3538636D01*
%TO.N,/VB0-*%
X196000056Y8669687D02*
X196000056Y9605382D01*
X197634362Y645382D02*
X196042361Y2237383D01*
X196042361Y8627382D02*
X196000056Y8669687D01*
X196042361Y2237383D02*
X196042361Y8627382D01*
%TO.N,/VB1-*%
X196500056Y5208926D02*
X197574618Y4134364D01*
X196500056Y9605382D02*
X196500056Y5208926D01*
%TO.N,/VB1+*%
X197000056Y9605382D02*
X197000056Y6608924D01*
X197000056Y6608924D02*
X197574618Y6034362D01*
%TO.N,/VA0-*%
X193026361Y6720191D02*
X193026361Y2002621D01*
X194000056Y7693886D02*
X193026361Y6720191D01*
X194000056Y9605382D02*
X194000056Y7693886D01*
X193026361Y2002621D02*
X194494619Y534363D01*
%TO.N,/VA0+*%
X195587361Y3527103D02*
X194494619Y2434361D01*
X195500056Y9605382D02*
X195500056Y6619028D01*
X195500056Y6619028D02*
X195587361Y6531723D01*
X195587361Y6531723D02*
X195587361Y3527103D01*
%TO.N,/VA1+*%
X195000056Y6501076D02*
X194534361Y6035381D01*
X195000056Y9605382D02*
X195000056Y6501076D01*
%TO.N,/VA1-*%
X194500056Y9605382D02*
X194500056Y7550418D01*
X193481361Y6531723D02*
X193481361Y5188383D01*
X194500056Y9605382D02*
X194481361Y9586687D01*
X194500056Y7550418D02*
X193481361Y6531723D01*
X193481361Y5188383D02*
X194534361Y4135383D01*
%TO.N,Net-(U1-LDOO)*%
X222550000Y-11782500D02*
X222550000Y-14624470D01*
X222550000Y-14624470D02*
X221070000Y-16104470D01*
%TO.N,/ECB1*%
X241764500Y-21052238D02*
X242132262Y-21420000D01*
X241764500Y-18870000D02*
X241764500Y-21052238D01*
%TO.N,/ECB2*%
X236684500Y-21047762D02*
X236232262Y-21500000D01*
X236684500Y-18870000D02*
X236684500Y-21047762D01*
%TO.N,/VCAP_2*%
X183512000Y-8420000D02*
X180964937Y-8420000D01*
X180964937Y-8420000D02*
X179679939Y-7135002D01*
%TO.N,/VCAP_1*%
X186250000Y-24025161D02*
X185235183Y-25039978D01*
X186250000Y-21158000D02*
X186250000Y-24025161D01*
%TO.N,/NRST*%
X205000000Y-9500000D02*
X224500000Y-9500000D01*
X224500000Y-9500000D02*
X225250000Y-10250000D01*
X243841819Y-16033000D02*
X243789817Y-16085002D01*
X234085002Y-16085002D02*
X232250000Y-14250000D01*
X243789817Y-16085002D02*
X234085002Y-16085002D01*
X196500000Y-11000000D02*
X196500000Y-12475500D01*
X245690000Y-16033000D02*
X243841819Y-16033000D01*
X196500000Y-12475500D02*
X197944500Y-13920000D01*
X197944500Y-13920000D02*
X198988000Y-13920000D01*
D65*
%TO.N,/RCC_OSC_OUT*%
X201379956Y-14250000D02*
X203350000Y-14250000D01*
X201149695Y-14185022D02*
X201314978Y-14185022D01*
X201314978Y-14185022D02*
X201379956Y-14250000D01*
X200384673Y-13420000D02*
X201149695Y-14185022D01*
X198988000Y-13420000D02*
X200384673Y-13420000D01*
%TO.N,/RCC_OSC_IN*%
X198988000Y-12920000D02*
X200744713Y-12920000D01*
X201149695Y-12515018D02*
X201649177Y-13014500D01*
X204085500Y-13014500D02*
X205050000Y-12050000D01*
X200744713Y-12920000D02*
X201149695Y-12515018D01*
X201649177Y-13014500D02*
X204085500Y-13014500D01*
D64*
%TO.N,Net-(F1-Pad1)*%
X213745000Y6745000D02*
X212250000Y5250000D01*
X206750000Y5500000D02*
X208300000Y3950000D01*
X207250000Y7750000D02*
X206750000Y7250000D01*
X210250000Y5237500D02*
X208962500Y3950000D01*
X210250000Y5250000D02*
X210250000Y5237500D01*
X208945000Y8030000D02*
X208665000Y7750000D01*
X208300000Y3950000D02*
X208962500Y3950000D01*
X212250000Y5250000D02*
X210250000Y5250000D01*
X208665000Y7750000D02*
X207250000Y7750000D01*
X206750000Y7250000D02*
X206750000Y5500000D01*
X208945000Y9150000D02*
X208945000Y8030000D01*
X213745000Y9150000D02*
X213745000Y6745000D01*
D63*
%TO.N,/MCU.CS*%
X170476316Y-35865000D02*
X171536316Y-34805000D01*
X173248816Y-33852500D02*
X174536316Y-33852500D01*
X171536316Y-34805000D02*
X172296316Y-34805000D01*
X172296316Y-34805000D02*
X173248816Y-33852500D01*
%TO.N,/PB13*%
X178250000Y-21000000D02*
X180330000Y-18920000D01*
X180330000Y-18920000D02*
X183512000Y-18920000D01*
X173040000Y-19040000D02*
X175000000Y-21000000D01*
X173040000Y-16387500D02*
X173040000Y-19040000D01*
X175000000Y-21000000D02*
X178250000Y-21000000D01*
%TO.N,/D+*%
X211095000Y9150000D02*
X211095000Y8500000D01*
X212073000Y8202000D02*
X212095000Y8224000D01*
X185080000Y-9420000D02*
X183512000Y-9420000D01*
X211095000Y6595000D02*
X210750000Y6250000D01*
X211095000Y8500000D02*
X211095000Y8224000D01*
X210750000Y6250000D02*
X208750000Y6250000D01*
X211117000Y8202000D02*
X212073000Y8202000D01*
X186375000Y-8125000D02*
X185080000Y-9420000D01*
X211095000Y8224000D02*
X211117000Y8202000D01*
X208750000Y6250000D02*
X208250000Y6750000D01*
X212095000Y8224000D02*
X212095000Y9150000D01*
X211095000Y9150000D02*
X211097000Y9148000D01*
X211095000Y9150000D02*
X211095000Y6595000D01*
%TO.N,/LCD.BK*%
X170943498Y1911426D02*
X170943498Y-1443498D01*
X186750000Y-4000000D02*
X186750000Y-5682000D01*
X174250000Y-4750000D02*
X178250000Y-4750000D01*
X187000000Y-3750000D02*
X186750000Y-4000000D01*
X187000000Y-3000000D02*
X187000000Y-3750000D01*
X171666640Y1911426D02*
X172905501Y3150287D01*
X170943498Y-1443498D02*
X174250000Y-4750000D01*
X178250000Y-4750000D02*
X180250000Y-2750000D01*
X180250000Y-2750000D02*
X181500000Y-2750000D01*
X170943498Y1911426D02*
X171666640Y1911426D01*
%TO.N,/SCK*%
X209000000Y-26500000D02*
X196750000Y-26500000D01*
X194250000Y-24000000D02*
X194250000Y-21158000D01*
X214940000Y-20560000D02*
X209000000Y-26500000D01*
X196750000Y-26500000D02*
X194250000Y-24000000D01*
X219360000Y-20560000D02*
X214940000Y-20560000D01*
%TO.N,/BCK*%
X195750000Y-21158000D02*
X195750000Y-23500000D01*
X218000000Y-19750000D02*
X218010000Y-19760000D01*
X218010000Y-19760000D02*
X219360000Y-19760000D01*
X208000000Y-25000000D02*
X213250000Y-19750000D01*
X216000000Y-19750000D02*
X218000000Y-19750000D01*
X195750000Y-23500000D02*
X197250000Y-25000000D01*
X197250000Y-25000000D02*
X208000000Y-25000000D01*
%TO.N,/LCD.CS*%
X189000056Y9605382D02*
X189000056Y8143524D01*
X187545000Y6688467D02*
X187545000Y2000000D01*
X189000056Y8143524D02*
X187545000Y6688467D01*
X187545000Y455000D02*
X188000000Y0D01*
X185750000Y-4250000D02*
X185000000Y-3500000D01*
X187545000Y2000000D02*
X187545000Y455000D01*
X185750000Y-5682000D02*
X185750000Y-4250000D01*
%TO.N,/PB14*%
X179250000Y-25250000D02*
X184875000Y-19625000D01*
X184875000Y-19625000D02*
X184875000Y-18625000D01*
X174750000Y-25250000D02*
X179250000Y-25250000D01*
X184875000Y-18625000D02*
X184670000Y-18420000D01*
X184670000Y-18420000D02*
X183512000Y-18420000D01*
X174310000Y-24810000D02*
X174750000Y-25250000D01*
%TO.N,/XY.SDA*%
X165303000Y-18947000D02*
X155927000Y-18947000D01*
X177893468Y-12000000D02*
X174750000Y-12000000D01*
X153750000Y4329000D02*
X154808000Y5387000D01*
X155047500Y-3860000D02*
X153750000Y-2562500D01*
X160250000Y-3000000D02*
X160250000Y2750000D01*
X167250000Y-10000000D02*
X160250000Y-3000000D01*
X174750000Y-12000000D02*
X172750000Y-10000000D01*
X180813468Y-14920000D02*
X177893468Y-12000000D01*
X157613000Y5387000D02*
X155837000Y5387000D01*
X153750000Y-2562500D02*
X153750000Y4329000D01*
X160250000Y2750000D02*
X157613000Y5387000D01*
X172750000Y-10000000D02*
X167250000Y-10000000D01*
X183512000Y-14920000D02*
X180813468Y-14920000D01*
X172250000Y-12000000D02*
X165303000Y-18947000D01*
X154808000Y5387000D02*
X155837000Y5387000D01*
%TO.N,/XY.SCL*%
X154500000Y-250000D02*
X155047500Y-797500D01*
X159500000Y2500000D02*
X157613000Y4387000D01*
X167196734Y-10946734D02*
X159500000Y-3250000D01*
X174500000Y-12500000D02*
X177750000Y-12500000D01*
X155106000Y4387000D02*
X154500000Y3781000D01*
X172053266Y-10946734D02*
X172946734Y-10946734D01*
X154500000Y3781000D02*
X154500000Y-250000D01*
X165053000Y-17947000D02*
X172053266Y-10946734D01*
X177750000Y-12500000D02*
X180670000Y-15420000D01*
X157613000Y4387000D02*
X155837000Y4387000D01*
X172946734Y-10946734D02*
X174500000Y-12500000D01*
X155837000Y4387000D02*
X155106000Y4387000D01*
X159500000Y-3250000D02*
X159500000Y2500000D01*
X172053266Y-10946734D02*
X167196734Y-10946734D01*
X155047500Y-797500D02*
X155047500Y-1580000D01*
X155927000Y-17947000D02*
X165053000Y-17947000D01*
X180670000Y-15420000D02*
X183512000Y-15420000D01*
%TO.N,/PB15*%
X173500000Y-13250000D02*
X171770000Y-14980000D01*
X176580000Y-13250000D02*
X173500000Y-13250000D01*
X171770000Y-14980000D02*
X171770000Y-16387500D01*
X181250000Y-17920000D02*
X176580000Y-13250000D01*
X183512000Y-17920000D02*
X181250000Y-17920000D01*
%TO.N,/BTN9*%
X217000000Y-30750000D02*
X221500000Y-35250000D01*
X239884500Y-35250000D02*
X241764500Y-33370000D01*
X211500000Y-25250000D02*
X214125000Y-27875000D01*
X221500000Y-35250000D02*
X239884500Y-35250000D01*
%TO.N,/LCD.RST*%
X188500056Y8286991D02*
X187000000Y6786935D01*
X188250000Y-2000000D02*
X188250000Y-5682000D01*
X187000000Y-750000D02*
X188250000Y-2000000D01*
X188500056Y9605382D02*
X188500056Y8286991D01*
X187000000Y6786935D02*
X187000000Y-750000D01*
%TO.N,/LRCK*%
X207615000Y-24385000D02*
X213840000Y-18160000D01*
X197528468Y-24385000D02*
X207615000Y-24385000D01*
X196250000Y-23106532D02*
X197528468Y-24385000D01*
X196250000Y-21158000D02*
X196250000Y-23106532D01*
X213840000Y-18160000D02*
X219360000Y-18160000D01*
%TO.N,/D-*%
X187875000Y-8125000D02*
X186080000Y-9920000D01*
X211595000Y10076000D02*
X211595000Y9150000D01*
X210595000Y9150000D02*
X210595000Y10076000D01*
X210617000Y10098000D02*
X211573000Y10098000D01*
X210595000Y10076000D02*
X210617000Y10098000D01*
X211573000Y10098000D02*
X211595000Y10076000D01*
X210595000Y9150000D02*
X210595000Y7845000D01*
X186080000Y-9920000D02*
X183512000Y-9920000D01*
X210595000Y9150000D02*
X210593000Y9148000D01*
X210595000Y7845000D02*
X210000000Y7250000D01*
%TO.N,/VREF+*%
X204539817Y-18275010D02*
X206237490Y-18275010D01*
X201404811Y-16920000D02*
X202789817Y-18305006D01*
X198988000Y-16920000D02*
X201404811Y-16920000D01*
X204539817Y-18275010D02*
X202819813Y-18275010D01*
X206237490Y-18275010D02*
X206380000Y-18132500D01*
X202819813Y-18275010D02*
X202789817Y-18305006D01*
%TO.N,/BOOT0*%
X196000000Y-8750000D02*
X194250000Y-7000000D01*
X243550000Y-11612500D02*
X243550000Y-13050000D01*
X243550000Y-13050000D02*
X244460000Y-13960000D01*
X233550000Y-13050000D02*
X243550000Y-13050000D01*
X194250000Y-7000000D02*
X194250000Y-5682000D01*
X232250000Y-11750000D02*
X233550000Y-13050000D01*
X225750000Y-8750000D02*
X204250000Y-8750000D01*
X244460000Y-13960000D02*
X245679000Y-13960000D01*
X226875000Y-9875000D02*
X225750000Y-8750000D01*
X245679000Y-7160000D02*
X245679000Y-9483500D01*
X245679000Y-9483500D02*
X243550000Y-11612500D01*
%TO.N,/DIN*%
X194750000Y-23606532D02*
X196893468Y-25750000D01*
X196893468Y-25750000D02*
X208500000Y-25750000D01*
X194750000Y-21158000D02*
X194750000Y-23606532D01*
X215290000Y-18960000D02*
X219360000Y-18960000D01*
X208500000Y-25750000D02*
X215290000Y-18960000D01*
%TO.N,/BTN10*%
X200000000Y-4750000D02*
X212250000Y-4750000D01*
X220250000Y11250000D02*
X224250000Y11250000D01*
X219500000Y7250000D02*
X219500000Y10500000D01*
X216750000Y4500000D02*
X219500000Y7250000D01*
X197250000Y-7500000D02*
X200000000Y-4750000D01*
X197944500Y-8920000D02*
X197250000Y-8225500D01*
X219500000Y10500000D02*
X220250000Y11250000D01*
X225000000Y10500000D02*
X239785500Y10500000D01*
X239785500Y10500000D02*
X241715500Y8570000D01*
X198988000Y-8920000D02*
X197944500Y-8920000D01*
X216750000Y-250000D02*
X216750000Y4500000D01*
X212250000Y-4750000D02*
X216750000Y-250000D01*
X197250000Y-8225500D02*
X197250000Y-7500000D01*
X224250000Y11250000D02*
X225000000Y10500000D01*
%TO.N,/LCD.DC*%
X189500056Y8000056D02*
X188000000Y6500000D01*
X187750000Y-5682000D02*
X187750000Y-2750000D01*
X187750000Y-2750000D02*
X187000000Y-2000000D01*
X188000000Y1750000D02*
X188500000Y1250000D01*
X188000000Y6500000D02*
X188000000Y1750000D01*
X189500056Y9605382D02*
X189500056Y8000056D01*
%TO.N,Net-(LCD1-D3)*%
X186500056Y9605382D02*
X186500056Y8777735D01*
X186500056Y8777735D02*
X184070202Y6347881D01*
X184070202Y6347881D02*
X183487044Y6347881D01*
%TO.N,Net-(LCD1-D0)*%
X188000056Y9605382D02*
X188000056Y8740893D01*
X188000056Y8740893D02*
X185687045Y6427882D01*
%TO.N,Net-(U1-OUTL)*%
X224500000Y-3012500D02*
X224430000Y-2942500D01*
X224500000Y-6057500D02*
X224500000Y-3012500D01*
%TO.N,Net-(U1-OUTR)*%
X225150000Y-5100000D02*
X226680000Y-3570000D01*
X226680000Y-3570000D02*
X226680000Y-3012500D01*
X225150000Y-6057500D02*
X225150000Y-5100000D01*
%TO.N,Net-(RN1-R3.1)*%
X221559999Y-19760000D02*
X221160000Y-19760000D01*
X225800000Y-15519999D02*
X221559999Y-19760000D01*
X225800000Y-11782500D02*
X225800000Y-15519999D01*
%TO.N,Net-(RN1-R2.1)*%
X221559999Y-18960000D02*
X225150000Y-15369999D01*
X225150000Y-15369999D02*
X225150000Y-11782500D01*
X221160000Y-18960000D02*
X221559999Y-18960000D01*
%TO.N,Net-(RN1-R1.1)*%
X224500000Y-14820000D02*
X221160000Y-18160000D01*
X224500000Y-11782500D02*
X224500000Y-14820000D01*
%TO.N,Net-(RN1-R4.1)*%
X221559999Y-20560000D02*
X226450000Y-15669999D01*
X226450000Y-15669999D02*
X226450000Y-11782500D01*
X221160000Y-20560000D02*
X221559999Y-20560000D01*
D64*
%TO.N,Net-(D1-K)*%
X181168724Y4588264D02*
X181168724Y3420510D01*
X177827607Y-2644713D02*
X177827607Y79393D01*
X177827607Y79393D02*
X177883501Y135287D01*
X181168724Y3420510D02*
X177883501Y135287D01*
%TO.N,Net-(D1-A)*%
X175993501Y5840287D02*
X175203501Y5050287D01*
X177883501Y4135287D02*
X176968501Y5050287D01*
X176968501Y5050287D02*
X175203501Y5050287D01*
X175993501Y8330287D02*
X175993501Y5840287D01*
D63*
%TO.N,Net-(LCD1-BK+)*%
X183000056Y9605382D02*
X183000056Y8244596D01*
X183000056Y8244596D02*
X181168724Y6413264D01*
%TO.N,Net-(Q1-D)*%
X171426316Y-33865000D02*
X169500000Y-33865000D01*
X168473816Y-33865000D02*
X168426316Y-33912500D01*
%TO.N,/LCD.SDA*%
X183487044Y4522881D02*
X183487044Y-5487044D01*
X187250000Y-6750000D02*
X187250000Y-5682000D01*
X185000000Y-7000000D02*
X187000000Y-7000000D01*
X187000000Y-7000000D02*
X187250000Y-6750000D01*
X183487044Y-5487044D02*
X185000000Y-7000000D01*
%TO.N,/LCD.SCL*%
X186250000Y4039927D02*
X186250000Y-5682000D01*
X185687045Y4602882D02*
X186250000Y4039927D01*
%TO.N,/PB12*%
X182330000Y-19420000D02*
X183512000Y-19420000D01*
X175580000Y-23562500D02*
X178187500Y-23562500D01*
X178187500Y-23562500D02*
X182330000Y-19420000D01*
%TO.N,Net-(J1-CC2)*%
X214720808Y11750000D02*
X213095000Y10124192D01*
X213095000Y10124192D02*
X213095000Y9150000D01*
X217700000Y10582500D02*
X216532500Y11750000D01*
X216532500Y11750000D02*
X214720808Y11750000D01*
%TO.N,Net-(J1-CC1)*%
X208750000Y11750000D02*
X210095000Y10405000D01*
X210095000Y10405000D02*
X210095000Y9150000D01*
X204950000Y10552500D02*
X206147500Y11750000D01*
X206147500Y11750000D02*
X208750000Y11750000D01*
%TO.N,/SWD*%
X175170000Y-8920000D02*
X165250000Y1000000D01*
X183512000Y-8920000D02*
X175170000Y-8920000D01*
X165250000Y1000000D02*
X165250000Y10000000D01*
%TO.N,/CLK*%
X166000000Y1500000D02*
X166000000Y10750000D01*
X185250000Y-5682000D02*
X184682000Y-5682000D01*
X177500000Y-7750000D02*
X175250000Y-7750000D01*
X175250000Y-7750000D02*
X166000000Y1500000D01*
X165500000Y11250000D02*
X164000000Y11250000D01*
X184682000Y-5682000D02*
X184250000Y-5250000D01*
X166000000Y10750000D02*
X165500000Y11250000D01*
%TO.N,/RX*%
X166320000Y11680000D02*
X167500000Y10500000D01*
X175420000Y-10920000D02*
X164000000Y500000D01*
X164000000Y500000D02*
X164000000Y7000000D01*
X183512000Y-10920000D02*
X175420000Y-10920000D01*
X166320000Y13575000D02*
X166320000Y11680000D01*
%TO.N,/TX*%
X183512000Y-10420000D02*
X175670000Y-10420000D01*
X162750000Y9500000D02*
X162750000Y12545000D01*
X164750000Y500000D02*
X164750000Y7500000D01*
X175670000Y-10420000D02*
X164750000Y500000D01*
X162750000Y12545000D02*
X163780000Y13575000D01*
X164750000Y7500000D02*
X162750000Y9500000D01*
%TO.N,/PB14*%
X174310000Y-23562500D02*
X174310000Y-24810000D01*
%TO.N,GND*%
X173965894Y-31200000D02*
X170450000Y-31200000D01*
X170450000Y-31200000D02*
X170250000Y-31000000D01*
%TD*%
%TA.AperFunction,Conductor*%
%TO.N,GND*%
G36*
X199609592Y-3272832D02*
G01*
X200481736Y-3507651D01*
X200488833Y-3513110D01*
X200490393Y-3518948D01*
X200490393Y-4001015D01*
X200486966Y-4009288D01*
X200481735Y-4012313D01*
X199609598Y-4247129D01*
X199600718Y-4245971D01*
X199595258Y-4238873D01*
X199595088Y-4238152D01*
X199499463Y-3762286D01*
X199499463Y-3757677D01*
X199548609Y-3513110D01*
X199595086Y-3281825D01*
X199600075Y-3274391D01*
X199608861Y-3272661D01*
X199609592Y-3272832D01*
G37*
%TD.AperFunction*%
%TD*%
%TA.AperFunction,Conductor*%
%TO.N,GND*%
G36*
X201752346Y-2351721D02*
G01*
X202093219Y-2692593D01*
X202096646Y-2700866D01*
X202095086Y-2706704D01*
X201644433Y-3489437D01*
X201637335Y-3494897D01*
X201628455Y-3493739D01*
X201627812Y-3493340D01*
X201223720Y-3224479D01*
X201220460Y-3221219D01*
X200951599Y-2817127D01*
X200949869Y-2808341D01*
X200954859Y-2800905D01*
X200955475Y-2800522D01*
X201738237Y-2349853D01*
X201747115Y-2348696D01*
X201752346Y-2351721D01*
G37*
%TD.AperFunction*%
%TD*%
%TA.AperFunction,Conductor*%
%TO.N,+5V*%
G36*
X184898043Y-38292378D02*
G01*
X184901365Y-38299089D01*
X185017455Y-39161016D01*
X185015163Y-39169673D01*
X185008165Y-39174049D01*
X184530832Y-39269969D01*
X184526222Y-39269969D01*
X184052030Y-39174680D01*
X184044594Y-39169690D01*
X184042864Y-39160904D01*
X184043507Y-39158776D01*
X184109308Y-38998225D01*
X184110400Y-38996172D01*
X184138867Y-38953571D01*
X184149264Y-38901299D01*
X184149906Y-38899169D01*
X184397023Y-38296213D01*
X184403331Y-38289858D01*
X184407849Y-38288951D01*
X184889770Y-38288951D01*
X184898043Y-38292378D01*
G37*
%TD.AperFunction*%
%TD*%
%TA.AperFunction,Conductor*%
%TO.N,+5V*%
G36*
X168878155Y-35858901D02*
G01*
X168885590Y-35863891D01*
X168887320Y-35872677D01*
X168887147Y-35873414D01*
X168652331Y-36745551D01*
X168646871Y-36752649D01*
X168641033Y-36754209D01*
X168158967Y-36754209D01*
X168150694Y-36750782D01*
X168147669Y-36745551D01*
X167912852Y-35873414D01*
X167914010Y-35864534D01*
X167921108Y-35859074D01*
X167921822Y-35858906D01*
X168397696Y-35763279D01*
X168402304Y-35763279D01*
X168878155Y-35858901D01*
G37*
%TD.AperFunction*%
%TD*%
%TA.AperFunction,Conductor*%
%TO.N,+5V*%
G36*
X168605277Y-30764902D02*
G01*
X168735097Y-30894722D01*
X168738524Y-30902995D01*
X168737422Y-30907953D01*
X168505193Y-31404373D01*
X168498583Y-31410414D01*
X168489637Y-31410013D01*
X168488127Y-31409164D01*
X168251265Y-31252015D01*
X168247984Y-31248734D01*
X168090835Y-31011872D01*
X168089116Y-31003084D01*
X168094116Y-30995655D01*
X168095621Y-30994808D01*
X168592048Y-30762576D01*
X168600992Y-30762176D01*
X168605277Y-30764902D01*
G37*
%TD.AperFunction*%
%TD*%
%TA.AperFunction,Conductor*%
%TO.N,+5V*%
G36*
X175173843Y-30712576D02*
G01*
X175484607Y-30857953D01*
X175670267Y-30944806D01*
X175676308Y-30951416D01*
X175675907Y-30960362D01*
X175675058Y-30961872D01*
X175517909Y-31198734D01*
X175514628Y-31202015D01*
X175277766Y-31359164D01*
X175268978Y-31360883D01*
X175261549Y-31355883D01*
X175260700Y-31354373D01*
X175187891Y-31198734D01*
X175028470Y-30857951D01*
X175028070Y-30849007D01*
X175030794Y-30844724D01*
X175160617Y-30714901D01*
X175168889Y-30711475D01*
X175173843Y-30712576D01*
G37*
%TD.AperFunction*%
%TD*%
%TA.AperFunction,Conductor*%
%TO.N,+5V*%
G36*
X175643835Y-30622218D02*
G01*
X175644378Y-30622728D01*
X175773964Y-30752314D01*
X175777348Y-30759586D01*
X175809236Y-31131058D01*
X175806529Y-31139594D01*
X175799883Y-31143530D01*
X175519973Y-31199745D01*
X175511187Y-31198014D01*
X175511137Y-31197981D01*
X175277504Y-31040765D01*
X175272553Y-31033303D01*
X175274329Y-31024526D01*
X175275243Y-31023340D01*
X175627325Y-30623269D01*
X175635360Y-30619325D01*
X175643835Y-30622218D01*
G37*
%TD.AperFunction*%
%TD*%
%TA.AperFunction,Conductor*%
%TO.N,+5V*%
G36*
X210924933Y1883535D02*
G01*
X210932362Y1878535D01*
X210934273Y1871104D01*
X210891781Y1356501D01*
X210887685Y1348538D01*
X210880121Y1345764D01*
X210401667Y1345764D01*
X210393394Y1349191D01*
X210390007Y1356501D01*
X210347514Y1871104D01*
X210350248Y1879631D01*
X210356854Y1883535D01*
X210638574Y1940530D01*
X210643214Y1940530D01*
X210924933Y1883535D01*
G37*
%TD.AperFunction*%
%TD*%
%TA.AperFunction,Conductor*%
%TO.N,+5V*%
G36*
X210786945Y2512224D02*
G01*
X210789923Y2507163D01*
X210931655Y2010697D01*
X210930630Y2001801D01*
X210923616Y1996234D01*
X210922727Y1996017D01*
X210750078Y1961089D01*
X210640943Y1939010D01*
X210640868Y1938995D01*
X210359348Y1883954D01*
X210350573Y1885730D01*
X210345622Y1893192D01*
X210345458Y1894334D01*
X210288693Y2502864D01*
X210291336Y2511420D01*
X210299255Y2515600D01*
X210300342Y2515651D01*
X210778672Y2515651D01*
X210786945Y2512224D01*
G37*
%TD.AperFunction*%
%TD*%
%TA.AperFunction,Conductor*%
%TO.N,+3.3V*%
G36*
X203071282Y-20960389D02*
G01*
X203586525Y-21147204D01*
X203593134Y-21153244D01*
X203594236Y-21158202D01*
X203594236Y-21341797D01*
X203590809Y-21350070D01*
X203586524Y-21352796D01*
X203071290Y-21539608D01*
X203062344Y-21539207D01*
X203056303Y-21532597D01*
X203055837Y-21530939D01*
X202999469Y-21252318D01*
X202999469Y-21247680D01*
X203055835Y-20969067D01*
X203060834Y-20961641D01*
X203069622Y-20959922D01*
X203071282Y-20960389D01*
G37*
%TD.AperFunction*%
%TD*%
%TA.AperFunction,Conductor*%
%TO.N,+3.3V*%
G36*
X202618225Y-20800787D02*
G01*
X203048984Y-20952405D01*
X203055650Y-20958384D01*
X203056580Y-20965692D01*
X203001647Y-21245911D01*
X202996693Y-21253370D01*
X202996634Y-21253409D01*
X202760847Y-21409844D01*
X202752059Y-21411563D01*
X202744630Y-21406563D01*
X202744296Y-21406030D01*
X202650053Y-21245911D01*
X202474452Y-20947567D01*
X202473210Y-20938700D01*
X202476261Y-20933362D01*
X202606073Y-20803550D01*
X202614345Y-20800124D01*
X202618225Y-20800787D01*
G37*
%TD.AperFunction*%
%TD*%
%TA.AperFunction,Conductor*%
%TO.N,/BTN9*%
G36*
X208314261Y-21834524D02*
G01*
X208318648Y-21841518D01*
X208375030Y-22120210D01*
X208373311Y-22128998D01*
X208373272Y-22129057D01*
X208214918Y-22364638D01*
X208207459Y-22369592D01*
X208198681Y-22367821D01*
X208198589Y-22367759D01*
X207813379Y-22103485D01*
X207808496Y-22095979D01*
X207808298Y-22093837D01*
X207808298Y-21910214D01*
X207811725Y-21901941D01*
X207818418Y-21898621D01*
X208305601Y-21832245D01*
X208314261Y-21834524D01*
G37*
%TD.AperFunction*%
%TD*%
%TA.AperFunction,Conductor*%
%TO.N,GND*%
G36*
X184040460Y-24554880D02*
G01*
X184170280Y-24684700D01*
X184173707Y-24692973D01*
X184172605Y-24697931D01*
X183940376Y-25194351D01*
X183933766Y-25200392D01*
X183924820Y-25199991D01*
X183923310Y-25199142D01*
X183686448Y-25041993D01*
X183683167Y-25038712D01*
X183526018Y-24801850D01*
X183524299Y-24793062D01*
X183529299Y-24785633D01*
X183530804Y-24784786D01*
X184027231Y-24552554D01*
X184036175Y-24552154D01*
X184040460Y-24554880D01*
G37*
%TD.AperFunction*%
%TD*%
%TA.AperFunction,Conductor*%
%TO.N,+3.3V*%
G36*
X183647326Y-22637041D02*
G01*
X183650445Y-22639272D01*
X183778529Y-22767356D01*
X183781187Y-22771456D01*
X183944242Y-23198566D01*
X183943991Y-23207517D01*
X183937484Y-23213670D01*
X183935615Y-23214210D01*
X183659018Y-23269759D01*
X183650232Y-23268028D01*
X183650182Y-23267995D01*
X183500324Y-23167153D01*
X183413964Y-23109040D01*
X183409014Y-23101579D01*
X183409992Y-23094182D01*
X183631670Y-22642389D01*
X183638389Y-22636473D01*
X183647326Y-22637041D01*
G37*
%TD.AperFunction*%
%TD*%
%TA.AperFunction,Conductor*%
%TO.N,/ECA2*%
G36*
X242266619Y-4265315D02*
G01*
X242269769Y-4271059D01*
X242595625Y-5742759D01*
X242594068Y-5751577D01*
X242586731Y-5756711D01*
X242586497Y-5756761D01*
X241720264Y-5930046D01*
X241711479Y-5928308D01*
X241711460Y-5928295D01*
X240978659Y-5437674D01*
X240973691Y-5430224D01*
X240975446Y-5421443D01*
X240976644Y-5419939D01*
X241830034Y-4514178D01*
X242064274Y-4265565D01*
X242072442Y-4261893D01*
X242072790Y-4261888D01*
X242258346Y-4261888D01*
X242266619Y-4265315D01*
G37*
%TD.AperFunction*%
%TD*%
%TA.AperFunction,Conductor*%
%TO.N,/ECA1*%
G36*
X236052528Y-4433507D02*
G01*
X237126040Y-5175133D01*
X237130899Y-5182655D01*
X237129122Y-5191253D01*
X236639847Y-5924484D01*
X236632405Y-5929464D01*
X236627820Y-5929463D01*
X235762920Y-5756444D01*
X235755480Y-5751461D01*
X235753546Y-5744118D01*
X235848733Y-4442280D01*
X235852754Y-4434279D01*
X235860402Y-4431433D01*
X236045878Y-4431433D01*
X236052528Y-4433507D01*
G37*
%TD.AperFunction*%
%TD*%
%TA.AperFunction,Conductor*%
%TO.N,/ECA1*%
G36*
X236628524Y-5927772D02*
G01*
X236635973Y-5932739D01*
X236637728Y-5936976D01*
X236809070Y-6802550D01*
X236807315Y-6811331D01*
X236801245Y-6815938D01*
X235452483Y-7259028D01*
X235443553Y-7258354D01*
X235440558Y-7256185D01*
X235309314Y-7124941D01*
X235305887Y-7116668D01*
X235306469Y-7113022D01*
X235749562Y-5764252D01*
X235755399Y-5757464D01*
X235762947Y-5756429D01*
X236628524Y-5927772D01*
G37*
%TD.AperFunction*%
%TD*%
%TA.AperFunction,Conductor*%
%TO.N,/ECB1*%
G36*
X240581478Y-17540970D02*
G01*
X241930246Y-17984062D01*
X241937035Y-17989899D01*
X241938070Y-17997449D01*
X241766728Y-18863023D01*
X241761760Y-18870473D01*
X241757523Y-18872228D01*
X240891949Y-19043570D01*
X240883168Y-19041815D01*
X240878562Y-19035746D01*
X240435471Y-17686981D01*
X240436145Y-17678053D01*
X240438311Y-17675061D01*
X240569559Y-17543813D01*
X240577831Y-17540387D01*
X240581478Y-17540970D01*
G37*
%TD.AperFunction*%
%TD*%
%TA.AperFunction,Conductor*%
%TO.N,/ECB1*%
G36*
X229280930Y-17305835D02*
G01*
X229288358Y-17310834D01*
X229290077Y-17319622D01*
X229289608Y-17321290D01*
X229102796Y-17836524D01*
X229096755Y-17843134D01*
X229091797Y-17844236D01*
X228908203Y-17844236D01*
X228899930Y-17840809D01*
X228897204Y-17836524D01*
X228849544Y-17705078D01*
X228710391Y-17321288D01*
X228710792Y-17312344D01*
X228717402Y-17306303D01*
X228719056Y-17305837D01*
X228997682Y-17249469D01*
X229002318Y-17249469D01*
X229280930Y-17305835D01*
G37*
%TD.AperFunction*%
%TD*%
%TA.AperFunction,Conductor*%
%TO.N,/ECB2*%
G36*
X228280930Y-16805835D02*
G01*
X228288358Y-16810834D01*
X228290077Y-16819622D01*
X228289608Y-16821290D01*
X228102796Y-17336524D01*
X228096755Y-17343134D01*
X228091797Y-17344236D01*
X227908203Y-17344236D01*
X227899930Y-17340809D01*
X227897204Y-17336524D01*
X227849544Y-17205078D01*
X227710391Y-16821288D01*
X227710792Y-16812344D01*
X227717402Y-16806303D01*
X227719056Y-16805837D01*
X227997682Y-16749469D01*
X228002318Y-16749469D01*
X228280930Y-16805835D01*
G37*
%TD.AperFunction*%
%TD*%
%TA.AperFunction,Conductor*%
%TO.N,/ECA1*%
G36*
X230855277Y-18264902D02*
G01*
X230985097Y-18394722D01*
X230988524Y-18402995D01*
X230987422Y-18407953D01*
X230755193Y-18904373D01*
X230748583Y-18910414D01*
X230739637Y-18910013D01*
X230738127Y-18909164D01*
X230501265Y-18752015D01*
X230497984Y-18748734D01*
X230340835Y-18511872D01*
X230339116Y-18503084D01*
X230344116Y-18495655D01*
X230345621Y-18494808D01*
X230842048Y-18262576D01*
X230850992Y-18262176D01*
X230855277Y-18264902D01*
G37*
%TD.AperFunction*%
%TD*%
%TA.AperFunction,Conductor*%
%TO.N,/ECA2*%
G36*
X230105277Y-17514902D02*
G01*
X230235097Y-17644722D01*
X230238524Y-17652995D01*
X230237422Y-17657953D01*
X230005193Y-18154373D01*
X229998583Y-18160414D01*
X229989637Y-18160013D01*
X229988127Y-18159164D01*
X229751265Y-18002015D01*
X229747984Y-17998734D01*
X229590835Y-17761872D01*
X229589116Y-17753084D01*
X229594116Y-17745655D01*
X229595621Y-17744808D01*
X230092048Y-17512576D01*
X230100992Y-17512176D01*
X230105277Y-17514902D01*
G37*
%TD.AperFunction*%
%TD*%
%TA.AperFunction,Conductor*%
%TO.N,/ECB1*%
G36*
X229355277Y-16764902D02*
G01*
X229485097Y-16894722D01*
X229488524Y-16902995D01*
X229487422Y-16907953D01*
X229255193Y-17404373D01*
X229248583Y-17410414D01*
X229239637Y-17410013D01*
X229238127Y-17409164D01*
X229001265Y-17252015D01*
X228997984Y-17248734D01*
X228840835Y-17011872D01*
X228839116Y-17003084D01*
X228844116Y-16995655D01*
X228845621Y-16994808D01*
X229342048Y-16762576D01*
X229350992Y-16762176D01*
X229355277Y-16764902D01*
G37*
%TD.AperFunction*%
%TD*%
%TA.AperFunction,Conductor*%
%TO.N,/ECB2*%
G36*
X228355277Y-16264902D02*
G01*
X228485097Y-16394722D01*
X228488524Y-16402995D01*
X228487422Y-16407953D01*
X228255193Y-16904373D01*
X228248583Y-16910414D01*
X228239637Y-16910013D01*
X228238127Y-16909164D01*
X228001265Y-16752015D01*
X227997984Y-16748734D01*
X227840835Y-16511872D01*
X227839116Y-16503084D01*
X227844116Y-16495655D01*
X227845621Y-16494808D01*
X228342048Y-16262576D01*
X228350992Y-16262176D01*
X228355277Y-16264902D01*
G37*
%TD.AperFunction*%
%TD*%
%TA.AperFunction,Conductor*%
%TO.N,/ECB1*%
G36*
X197030930Y-15805835D02*
G01*
X197038358Y-15810834D01*
X197040077Y-15819622D01*
X197039608Y-15821290D01*
X196852796Y-16336524D01*
X196846755Y-16343134D01*
X196841797Y-16344236D01*
X196658203Y-16344236D01*
X196649930Y-16340809D01*
X196647204Y-16336524D01*
X196599544Y-16205078D01*
X196460391Y-15821288D01*
X196460792Y-15812344D01*
X196467402Y-15806303D01*
X196469056Y-15805837D01*
X196747682Y-15749469D01*
X196752318Y-15749469D01*
X197030930Y-15805835D01*
G37*
%TD.AperFunction*%
%TD*%
%TA.AperFunction,Conductor*%
%TO.N,/ECA2*%
G36*
X196280930Y-15055835D02*
G01*
X196288358Y-15060834D01*
X196290077Y-15069622D01*
X196289608Y-15071290D01*
X196102796Y-15586524D01*
X196096755Y-15593134D01*
X196091797Y-15594236D01*
X195908203Y-15594236D01*
X195899930Y-15590809D01*
X195897204Y-15586524D01*
X195849544Y-15455078D01*
X195710391Y-15071288D01*
X195710792Y-15062344D01*
X195717402Y-15056303D01*
X195719056Y-15055837D01*
X195997682Y-14999469D01*
X196002318Y-14999469D01*
X196280930Y-15055835D01*
G37*
%TD.AperFunction*%
%TD*%
%TA.AperFunction,Conductor*%
%TO.N,/ECA1*%
G36*
X195530930Y-16055835D02*
G01*
X195538358Y-16060834D01*
X195540077Y-16069622D01*
X195539608Y-16071290D01*
X195352796Y-16586524D01*
X195346755Y-16593134D01*
X195341797Y-16594236D01*
X195158203Y-16594236D01*
X195149930Y-16590809D01*
X195147204Y-16586524D01*
X195099544Y-16455078D01*
X194960391Y-16071288D01*
X194960792Y-16062344D01*
X194967402Y-16056303D01*
X194969056Y-16055837D01*
X195247682Y-15999469D01*
X195252318Y-15999469D01*
X195530930Y-16055835D01*
G37*
%TD.AperFunction*%
%TD*%
%TA.AperFunction,Conductor*%
%TO.N,/ECB2*%
G36*
X197780930Y-15305835D02*
G01*
X197788358Y-15310834D01*
X197790077Y-15319622D01*
X197789608Y-15321290D01*
X197602796Y-15836524D01*
X197596755Y-15843134D01*
X197591797Y-15844236D01*
X197408203Y-15844236D01*
X197399930Y-15840809D01*
X197397204Y-15836524D01*
X197349544Y-15705078D01*
X197210391Y-15321288D01*
X197210792Y-15312344D01*
X197217402Y-15306303D01*
X197219056Y-15305837D01*
X197497682Y-15249469D01*
X197502318Y-15249469D01*
X197780930Y-15305835D01*
G37*
%TD.AperFunction*%
%TD*%
%TA.AperFunction,Conductor*%
%TO.N,+3.3V*%
G36*
X215859592Y-11512850D02*
G01*
X216731736Y-11747669D01*
X216738833Y-11753128D01*
X216740393Y-11758966D01*
X216740393Y-12241033D01*
X216736966Y-12249306D01*
X216731735Y-12252331D01*
X215859598Y-12487147D01*
X215850718Y-12485989D01*
X215845258Y-12478891D01*
X215845088Y-12478170D01*
X215749463Y-12002304D01*
X215749463Y-11997695D01*
X215798609Y-11753128D01*
X215845086Y-11521843D01*
X215850075Y-11514409D01*
X215858861Y-11512679D01*
X215859592Y-11512850D01*
G37*
%TD.AperFunction*%
%TD*%
%TA.AperFunction,Conductor*%
%TO.N,GND*%
G36*
X180855277Y-29264902D02*
G01*
X180985097Y-29394722D01*
X180988524Y-29402995D01*
X180987422Y-29407953D01*
X180755193Y-29904373D01*
X180748583Y-29910414D01*
X180739637Y-29910013D01*
X180738127Y-29909164D01*
X180501265Y-29752015D01*
X180497984Y-29748734D01*
X180340835Y-29511872D01*
X180339116Y-29503084D01*
X180344116Y-29495655D01*
X180345621Y-29494808D01*
X180842048Y-29262576D01*
X180850992Y-29262176D01*
X180855277Y-29264902D01*
G37*
%TD.AperFunction*%
%TD*%
%TA.AperFunction,Conductor*%
%TO.N,+3.3V*%
G36*
X182544468Y-28019986D02*
G01*
X182545978Y-28020835D01*
X182782840Y-28177984D01*
X182786121Y-28181265D01*
X182943270Y-28418127D01*
X182944989Y-28426915D01*
X182939989Y-28434344D01*
X182938479Y-28435193D01*
X182442059Y-28667422D01*
X182433113Y-28667823D01*
X182428828Y-28665097D01*
X182299008Y-28535277D01*
X182295581Y-28527004D01*
X182296681Y-28522051D01*
X182528912Y-28025625D01*
X182535522Y-28019585D01*
X182544468Y-28019986D01*
G37*
%TD.AperFunction*%
%TD*%
%TA.AperFunction,Conductor*%
%TO.N,GND*%
G36*
X172050930Y-23618335D02*
G01*
X172058358Y-23623334D01*
X172060077Y-23632122D01*
X172059608Y-23633790D01*
X171872796Y-24149024D01*
X171866755Y-24155634D01*
X171861797Y-24156736D01*
X171678203Y-24156736D01*
X171669930Y-24153309D01*
X171667204Y-24149024D01*
X171619544Y-24017578D01*
X171480391Y-23633788D01*
X171480792Y-23624844D01*
X171487402Y-23618803D01*
X171489056Y-23618337D01*
X171767682Y-23561969D01*
X171772318Y-23561969D01*
X172050930Y-23618335D01*
G37*
%TD.AperFunction*%
%TD*%
%TA.AperFunction,Conductor*%
%TO.N,GND*%
G36*
X178247500Y-36909191D02*
G01*
X178250887Y-36916501D01*
X178293379Y-37431104D01*
X178290645Y-37439631D01*
X178284039Y-37443535D01*
X178002320Y-37500530D01*
X177997680Y-37500530D01*
X177715960Y-37443535D01*
X177708531Y-37438535D01*
X177706620Y-37431104D01*
X177749113Y-36916501D01*
X177753209Y-36908538D01*
X177760773Y-36905764D01*
X178239227Y-36905764D01*
X178247500Y-36909191D01*
G37*
%TD.AperFunction*%
%TD*%
%TA.AperFunction,Conductor*%
%TO.N,+3.3V*%
G36*
X186936029Y-35480654D02*
G01*
X187274345Y-35818970D01*
X187277772Y-35827243D01*
X187274998Y-35834807D01*
X186941166Y-36228734D01*
X186933203Y-36232830D01*
X186925772Y-36230919D01*
X186686265Y-36072015D01*
X186682984Y-36068734D01*
X186524080Y-35829227D01*
X186522361Y-35820439D01*
X186526264Y-35813834D01*
X186920192Y-35480000D01*
X186928719Y-35477267D01*
X186936029Y-35480654D01*
G37*
%TD.AperFunction*%
%TD*%
%TA.AperFunction,Conductor*%
%TO.N,/OCT-*%
G36*
X170687655Y-25610792D02*
G01*
X170693696Y-25617402D01*
X170694165Y-25619070D01*
X170750530Y-25897680D01*
X170750530Y-25902320D01*
X170694165Y-26180929D01*
X170689165Y-26188358D01*
X170680377Y-26190077D01*
X170678709Y-26189608D01*
X170163476Y-26002796D01*
X170156866Y-25996755D01*
X170155764Y-25991797D01*
X170155764Y-25808202D01*
X170159191Y-25799929D01*
X170163473Y-25797204D01*
X170678711Y-25610391D01*
X170687655Y-25610792D01*
G37*
%TD.AperFunction*%
%TD*%
%TA.AperFunction,Conductor*%
%TO.N,/OCT+*%
G36*
X170687655Y-26960792D02*
G01*
X170693696Y-26967402D01*
X170694165Y-26969070D01*
X170750530Y-27247680D01*
X170750530Y-27252320D01*
X170694165Y-27530929D01*
X170689165Y-27538358D01*
X170680377Y-27540077D01*
X170678709Y-27539608D01*
X170163476Y-27352796D01*
X170156866Y-27346755D01*
X170155764Y-27341797D01*
X170155764Y-27158202D01*
X170159191Y-27149929D01*
X170163473Y-27147204D01*
X170678711Y-26960391D01*
X170687655Y-26960792D01*
G37*
%TD.AperFunction*%
%TD*%
%TA.AperFunction,Conductor*%
%TO.N,/OCT+*%
G36*
X189010362Y-18089986D02*
G01*
X189011872Y-18090835D01*
X189248734Y-18247984D01*
X189252015Y-18251265D01*
X189409164Y-18488127D01*
X189410883Y-18496915D01*
X189405883Y-18504344D01*
X189404373Y-18505193D01*
X188907953Y-18737422D01*
X188899007Y-18737823D01*
X188894722Y-18735097D01*
X188764902Y-18605277D01*
X188761475Y-18597004D01*
X188762575Y-18592051D01*
X188994806Y-18095625D01*
X189001416Y-18089585D01*
X189010362Y-18089986D01*
G37*
%TD.AperFunction*%
%TD*%
%TA.AperFunction,Conductor*%
%TO.N,/OCT-*%
G36*
X188290423Y-18195710D02*
G01*
X188295374Y-18203172D01*
X188295531Y-18204235D01*
X188348692Y-18727800D01*
X188346119Y-18736377D01*
X188338234Y-18740622D01*
X188337052Y-18740682D01*
X188153949Y-18740682D01*
X188146859Y-18738289D01*
X187842060Y-18506092D01*
X187837555Y-18498353D01*
X187839410Y-18490303D01*
X187997295Y-18253064D01*
X188004731Y-18248075D01*
X188004727Y-18248075D01*
X188281647Y-18193934D01*
X188290423Y-18195710D01*
G37*
%TD.AperFunction*%
%TD*%
%TA.AperFunction,Conductor*%
%TO.N,/MCU.CS2*%
G36*
X193317655Y-31598292D02*
G01*
X193323696Y-31604902D01*
X193324165Y-31606570D01*
X193380530Y-31885180D01*
X193380530Y-31889820D01*
X193324165Y-32168429D01*
X193319165Y-32175858D01*
X193310377Y-32177577D01*
X193308709Y-32177108D01*
X192793476Y-31990296D01*
X192786866Y-31984255D01*
X192785764Y-31979297D01*
X192785764Y-31795702D01*
X192789191Y-31787429D01*
X192793473Y-31784704D01*
X193308711Y-31597891D01*
X193317655Y-31598292D01*
G37*
%TD.AperFunction*%
%TD*%
%TA.AperFunction,Conductor*%
%TO.N,/MCU-DSP*%
G36*
X192850070Y-17159191D02*
G01*
X192852796Y-17163476D01*
X193039608Y-17678709D01*
X193039207Y-17687655D01*
X193032597Y-17693696D01*
X193030929Y-17694165D01*
X192752320Y-17750530D01*
X192747680Y-17750530D01*
X192469070Y-17694165D01*
X192461641Y-17689165D01*
X192459922Y-17680377D01*
X192460387Y-17678720D01*
X192647204Y-17163476D01*
X192653245Y-17156866D01*
X192658203Y-17155764D01*
X192841797Y-17155764D01*
X192850070Y-17159191D01*
G37*
%TD.AperFunction*%
%TD*%
%TA.AperFunction,Conductor*%
%TO.N,/MCU.SCK*%
G36*
X190600070Y-17159191D02*
G01*
X190602796Y-17163476D01*
X190789608Y-17678709D01*
X190789207Y-17687655D01*
X190782597Y-17693696D01*
X190780929Y-17694165D01*
X190502320Y-17750530D01*
X190497680Y-17750530D01*
X190219070Y-17694165D01*
X190211641Y-17689165D01*
X190209922Y-17680377D01*
X190210387Y-17678720D01*
X190397204Y-17163476D01*
X190403245Y-17156866D01*
X190408203Y-17155764D01*
X190591797Y-17155764D01*
X190600070Y-17159191D01*
G37*
%TD.AperFunction*%
%TD*%
%TA.AperFunction,Conductor*%
%TO.N,/MCU.IRQ*%
G36*
X194100070Y-26159191D02*
G01*
X194102796Y-26163476D01*
X194289608Y-26678709D01*
X194289207Y-26687655D01*
X194282597Y-26693696D01*
X194280929Y-26694165D01*
X194002320Y-26750530D01*
X193997680Y-26750530D01*
X193719070Y-26694165D01*
X193711641Y-26689165D01*
X193709922Y-26680377D01*
X193710387Y-26678720D01*
X193897204Y-26163476D01*
X193903245Y-26156866D01*
X193908203Y-26155764D01*
X194091797Y-26155764D01*
X194100070Y-26159191D01*
G37*
%TD.AperFunction*%
%TD*%
%TA.AperFunction,Conductor*%
%TO.N,/MCU.CS*%
G36*
X194907949Y-25762576D02*
G01*
X195218713Y-25907953D01*
X195404373Y-25994806D01*
X195410414Y-26001416D01*
X195410013Y-26010362D01*
X195409164Y-26011872D01*
X195252015Y-26248734D01*
X195248734Y-26252015D01*
X195011872Y-26409164D01*
X195003084Y-26410883D01*
X194995655Y-26405883D01*
X194994806Y-26404373D01*
X194921997Y-26248734D01*
X194762576Y-25907951D01*
X194762176Y-25899007D01*
X194764900Y-25894724D01*
X194894723Y-25764901D01*
X194902995Y-25761475D01*
X194907949Y-25762576D01*
G37*
%TD.AperFunction*%
%TD*%
%TA.AperFunction,Conductor*%
%TO.N,/MCU.CS2*%
G36*
X192853141Y-25761711D02*
G01*
X193157939Y-25993907D01*
X193162444Y-26001646D01*
X193160589Y-26009696D01*
X193002704Y-26246935D01*
X192995268Y-26251924D01*
X192995209Y-26251936D01*
X192718353Y-26306065D01*
X192709576Y-26304289D01*
X192704625Y-26296827D01*
X192704468Y-26295764D01*
X192651308Y-25772200D01*
X192653881Y-25763623D01*
X192661766Y-25759378D01*
X192662948Y-25759318D01*
X192846051Y-25759318D01*
X192853141Y-25761711D01*
G37*
%TD.AperFunction*%
%TD*%
%TA.AperFunction,Conductor*%
%TO.N,/MCU.IRQ2*%
G36*
X192353141Y-26761711D02*
G01*
X192657939Y-26993907D01*
X192662444Y-27001646D01*
X192660589Y-27009696D01*
X192502704Y-27246935D01*
X192495268Y-27251924D01*
X192495209Y-27251936D01*
X192218353Y-27306065D01*
X192209576Y-27304289D01*
X192204625Y-27296827D01*
X192204468Y-27295764D01*
X192151308Y-26772200D01*
X192153881Y-26763623D01*
X192161766Y-26759378D01*
X192162948Y-26759318D01*
X192346051Y-26759318D01*
X192353141Y-26761711D01*
G37*
%TD.AperFunction*%
%TD*%
%TA.AperFunction,Conductor*%
%TO.N,/BTN6*%
G36*
X238587655Y-38037792D02*
G01*
X238593696Y-38044402D01*
X238594165Y-38046070D01*
X238650530Y-38324680D01*
X238650530Y-38329320D01*
X238594165Y-38607929D01*
X238589165Y-38615358D01*
X238580377Y-38617077D01*
X238578709Y-38616608D01*
X238063476Y-38429796D01*
X238056866Y-38423755D01*
X238055764Y-38418797D01*
X238055764Y-38235202D01*
X238059191Y-38226929D01*
X238063473Y-38224204D01*
X238578711Y-38037391D01*
X238587655Y-38037792D01*
G37*
%TD.AperFunction*%
%TD*%
%TA.AperFunction,Conductor*%
%TO.N,/BTN5*%
G36*
X226087655Y-38091792D02*
G01*
X226093696Y-38098402D01*
X226094165Y-38100070D01*
X226150530Y-38378680D01*
X226150530Y-38383320D01*
X226094165Y-38661929D01*
X226089165Y-38669358D01*
X226080377Y-38671077D01*
X226078709Y-38670608D01*
X225563476Y-38483796D01*
X225556866Y-38477755D01*
X225555764Y-38472797D01*
X225555764Y-38289202D01*
X225559191Y-38280929D01*
X225563473Y-38278204D01*
X226078711Y-38091391D01*
X226087655Y-38091792D01*
G37*
%TD.AperFunction*%
%TD*%
%TA.AperFunction,Conductor*%
%TO.N,/BTN4*%
G36*
X204837655Y-38091792D02*
G01*
X204843696Y-38098402D01*
X204844165Y-38100070D01*
X204900530Y-38378680D01*
X204900530Y-38383320D01*
X204844165Y-38661929D01*
X204839165Y-38669358D01*
X204830377Y-38671077D01*
X204828709Y-38670608D01*
X204313476Y-38483796D01*
X204306866Y-38477755D01*
X204305764Y-38472797D01*
X204305764Y-38289202D01*
X204309191Y-38280929D01*
X204313473Y-38278204D01*
X204828711Y-38091391D01*
X204837655Y-38091792D01*
G37*
%TD.AperFunction*%
%TD*%
%TA.AperFunction,Conductor*%
%TO.N,/BTN3*%
G36*
X189721282Y-38091389D02*
G01*
X190236525Y-38278204D01*
X190243134Y-38284244D01*
X190244236Y-38289202D01*
X190244236Y-38472797D01*
X190240809Y-38481070D01*
X190236524Y-38483796D01*
X189721290Y-38670608D01*
X189712344Y-38670207D01*
X189706303Y-38663597D01*
X189705837Y-38661939D01*
X189649469Y-38383318D01*
X189649469Y-38378680D01*
X189705835Y-38100067D01*
X189710834Y-38092641D01*
X189719622Y-38090922D01*
X189721282Y-38091389D01*
G37*
%TD.AperFunction*%
%TD*%
%TA.AperFunction,Conductor*%
%TO.N,/BTN2*%
G36*
X174680930Y-38436835D02*
G01*
X174688358Y-38441834D01*
X174690077Y-38450622D01*
X174689608Y-38452290D01*
X174502796Y-38967524D01*
X174496755Y-38974134D01*
X174491797Y-38975236D01*
X174308203Y-38975236D01*
X174299930Y-38971809D01*
X174297204Y-38967524D01*
X174249544Y-38836078D01*
X174110391Y-38452288D01*
X174110792Y-38443344D01*
X174117402Y-38437303D01*
X174119056Y-38436837D01*
X174397682Y-38380469D01*
X174402318Y-38380469D01*
X174680930Y-38436835D01*
G37*
%TD.AperFunction*%
%TD*%
%TA.AperFunction,Conductor*%
%TO.N,/BTN1*%
G36*
X159404344Y-38225116D02*
G01*
X159405193Y-38226626D01*
X159477080Y-38380293D01*
X159596791Y-38636193D01*
X159637422Y-38723046D01*
X159637823Y-38731992D01*
X159635097Y-38736277D01*
X159505277Y-38866097D01*
X159497004Y-38869524D01*
X159492047Y-38868422D01*
X159341428Y-38797961D01*
X158995626Y-38636193D01*
X158989585Y-38629583D01*
X158989986Y-38620637D01*
X158990835Y-38619127D01*
X159147985Y-38382263D01*
X159151263Y-38378985D01*
X159388127Y-38221834D01*
X159396915Y-38220116D01*
X159404344Y-38225116D01*
G37*
%TD.AperFunction*%
%TD*%
%TA.AperFunction,Conductor*%
%TO.N,/MCU-DSP*%
G36*
X179718346Y-31673933D02*
G01*
X179995209Y-31728063D01*
X180002671Y-31733014D01*
X180002704Y-31733064D01*
X180160589Y-31970303D01*
X180162320Y-31979089D01*
X180157939Y-31986092D01*
X179853141Y-32218289D01*
X179846051Y-32220682D01*
X179662948Y-32220682D01*
X179654675Y-32217255D01*
X179651248Y-32208982D01*
X179651308Y-32207800D01*
X179704468Y-31684235D01*
X179708713Y-31676350D01*
X179717290Y-31673777D01*
X179718346Y-31673933D01*
G37*
%TD.AperFunction*%
%TD*%
%TA.AperFunction,Conductor*%
%TO.N,/MCU-DSP*%
G36*
X180071282Y-31440389D02*
G01*
X180586525Y-31627204D01*
X180593134Y-31633244D01*
X180594236Y-31638202D01*
X180594236Y-31821797D01*
X180590809Y-31830070D01*
X180586524Y-31832796D01*
X180071290Y-32019608D01*
X180062344Y-32019207D01*
X180056303Y-32012597D01*
X180055837Y-32010939D01*
X179999469Y-31732318D01*
X179999469Y-31727680D01*
X180055835Y-31449067D01*
X180060834Y-31441641D01*
X180069622Y-31439922D01*
X180071282Y-31440389D01*
G37*
%TD.AperFunction*%
%TD*%
%TA.AperFunction,Conductor*%
%TO.N,/MCU.SCK*%
G36*
X181321282Y-32960389D02*
G01*
X181836525Y-33147204D01*
X181843134Y-33153244D01*
X181844236Y-33158202D01*
X181844236Y-33341797D01*
X181840809Y-33350070D01*
X181836524Y-33352796D01*
X181321290Y-33539608D01*
X181312344Y-33539207D01*
X181306303Y-33532597D01*
X181305837Y-33530939D01*
X181249469Y-33252318D01*
X181249469Y-33247680D01*
X181305835Y-32969067D01*
X181310834Y-32961641D01*
X181319622Y-32959922D01*
X181321282Y-32960389D01*
G37*
%TD.AperFunction*%
%TD*%
%TA.AperFunction,Conductor*%
%TO.N,/MCU.IRQ2*%
G36*
X180571282Y-32210389D02*
G01*
X181086525Y-32397204D01*
X181093134Y-32403244D01*
X181094236Y-32408202D01*
X181094236Y-32591797D01*
X181090809Y-32600070D01*
X181086524Y-32602796D01*
X180571290Y-32789608D01*
X180562344Y-32789207D01*
X180556303Y-32782597D01*
X180555837Y-32780939D01*
X180499469Y-32502318D01*
X180499469Y-32497680D01*
X180555835Y-32219067D01*
X180560834Y-32211641D01*
X180569622Y-32209922D01*
X180571282Y-32210389D01*
G37*
%TD.AperFunction*%
%TD*%
%TA.AperFunction,Conductor*%
%TO.N,/MCU.SCK*%
G36*
X181504852Y-30593781D02*
G01*
X181505473Y-30594827D01*
X181706206Y-30977447D01*
X181707545Y-30982883D01*
X181707545Y-31164823D01*
X181704118Y-31173096D01*
X181695845Y-31176523D01*
X181692868Y-31176138D01*
X181202084Y-31047027D01*
X181194955Y-31041608D01*
X181193578Y-31033467D01*
X181203468Y-30982883D01*
X181248063Y-30754788D01*
X181253013Y-30747329D01*
X181488631Y-30590522D01*
X181497416Y-30588792D01*
X181504852Y-30593781D01*
G37*
%TD.AperFunction*%
%TD*%
%TA.AperFunction,Conductor*%
%TO.N,/MCU.IRQ*%
G36*
X185010362Y-28839986D02*
G01*
X185011872Y-28840835D01*
X185248734Y-28997984D01*
X185252015Y-29001265D01*
X185409164Y-29238127D01*
X185410883Y-29246915D01*
X185405883Y-29254344D01*
X185404373Y-29255193D01*
X184907953Y-29487422D01*
X184899007Y-29487823D01*
X184894722Y-29485097D01*
X184764902Y-29355277D01*
X184761475Y-29347004D01*
X184762575Y-29342051D01*
X184994806Y-28845625D01*
X185001416Y-28839585D01*
X185010362Y-28839986D01*
G37*
%TD.AperFunction*%
%TD*%
%TA.AperFunction,Conductor*%
%TO.N,+3.3V*%
G36*
X200901828Y584444D02*
G01*
X200904853Y579213D01*
X201139669Y-292923D01*
X201138511Y-301803D01*
X201131413Y-307263D01*
X201130676Y-307436D01*
X200654827Y-403058D01*
X200650217Y-403058D01*
X200174367Y-307436D01*
X200166931Y-302446D01*
X200165201Y-293660D01*
X200165374Y-292923D01*
X200400191Y579213D01*
X200405651Y586311D01*
X200411489Y587871D01*
X200893555Y587871D01*
X200901828Y584444D01*
G37*
%TD.AperFunction*%
%TD*%
%TA.AperFunction,Conductor*%
%TO.N,+3.3V*%
G36*
X177189631Y-5709354D02*
G01*
X177193535Y-5715960D01*
X177250530Y-5997680D01*
X177250530Y-6002320D01*
X177193535Y-6284039D01*
X177188535Y-6291468D01*
X177181104Y-6293379D01*
X176666501Y-6250886D01*
X176658538Y-6246790D01*
X176655764Y-6239226D01*
X176655764Y-5760773D01*
X176659191Y-5752500D01*
X176666499Y-5749113D01*
X177181104Y-5706620D01*
X177189631Y-5709354D01*
G37*
%TD.AperFunction*%
%TD*%
%TA.AperFunction,Conductor*%
%TO.N,+3.3V*%
G36*
X181793784Y-6889384D02*
G01*
X181794796Y-6891253D01*
X181977780Y-7317790D01*
X181978728Y-7322403D01*
X181978728Y-7503299D01*
X181975301Y-7511572D01*
X181967028Y-7514999D01*
X181963032Y-7514296D01*
X181490697Y-7342668D01*
X181484092Y-7336621D01*
X181483210Y-7329428D01*
X181537880Y-7049802D01*
X181542830Y-7042343D01*
X181777563Y-6886125D01*
X181786348Y-6884395D01*
X181793784Y-6889384D01*
G37*
%TD.AperFunction*%
%TD*%
%TA.AperFunction,Conductor*%
%TO.N,+3.3V*%
G36*
X202510362Y-5339986D02*
G01*
X202511872Y-5340835D01*
X202748734Y-5497984D01*
X202752015Y-5501265D01*
X202909164Y-5738127D01*
X202910883Y-5746915D01*
X202905883Y-5754344D01*
X202904373Y-5755193D01*
X202407953Y-5987422D01*
X202399007Y-5987823D01*
X202394722Y-5985097D01*
X202264902Y-5855277D01*
X202261475Y-5847004D01*
X202262575Y-5842051D01*
X202494806Y-5345625D01*
X202501416Y-5339585D01*
X202510362Y-5339986D01*
G37*
%TD.AperFunction*%
%TD*%
%TA.AperFunction,Conductor*%
%TO.N,+3.3V*%
G36*
X191484432Y6306191D02*
G01*
X191487158Y6301906D01*
X191673970Y5786672D01*
X191673569Y5777726D01*
X191666959Y5771685D01*
X191665301Y5771219D01*
X191386680Y5714851D01*
X191382044Y5714851D01*
X191103429Y5771217D01*
X191096003Y5776216D01*
X191094284Y5785004D01*
X191094751Y5786664D01*
X191281566Y6301906D01*
X191287607Y6308516D01*
X191292565Y6309618D01*
X191476159Y6309618D01*
X191484432Y6306191D01*
G37*
%TD.AperFunction*%
%TD*%
%TA.AperFunction,Conductor*%
%TO.N,+3.3V*%
G36*
X170567247Y-1403850D02*
G01*
X170610894Y-1465575D01*
X170653834Y-1526300D01*
X170655582Y-1530027D01*
X170663475Y-1559485D01*
X170663477Y-1559489D01*
X170703035Y-1628005D01*
X170703039Y-1628010D01*
X170779900Y-1704871D01*
X170781180Y-1706389D01*
X170868812Y-1830315D01*
X170870791Y-1839048D01*
X170867532Y-1845343D01*
X170529271Y-2183604D01*
X170520998Y-2187031D01*
X170512725Y-2183604D01*
X170512681Y-2183561D01*
X170071750Y-1737967D01*
X170068367Y-1729675D01*
X170071837Y-1721420D01*
X170073532Y-1720031D01*
X170310543Y-1560543D01*
X170310546Y-1560548D01*
X170310597Y-1560507D01*
X170551229Y-1400856D01*
X170560015Y-1399138D01*
X170567247Y-1403850D01*
G37*
%TD.AperFunction*%
%TD*%
%TA.AperFunction,Conductor*%
%TO.N,+3.3V*%
G36*
X174658734Y-14576478D02*
G01*
X174666163Y-14581478D01*
X174668074Y-14588909D01*
X174625582Y-15103513D01*
X174621486Y-15111476D01*
X174613922Y-15114250D01*
X174135468Y-15114250D01*
X174127195Y-15110823D01*
X174123808Y-15103513D01*
X174081315Y-14588909D01*
X174084049Y-14580382D01*
X174090654Y-14576478D01*
X174372377Y-14519483D01*
X174377013Y-14519483D01*
X174658734Y-14576478D01*
G37*
%TD.AperFunction*%
%TD*%
%TA.AperFunction,Conductor*%
%TO.N,+3.3V*%
G36*
X174419642Y-35442618D02*
G01*
X174425617Y-35449287D01*
X174426046Y-35450845D01*
X174482908Y-35731908D01*
X174482923Y-35731983D01*
X174538072Y-36014058D01*
X174536296Y-36022835D01*
X174528834Y-36027786D01*
X174528244Y-36027885D01*
X173931913Y-36113091D01*
X173923238Y-36110869D01*
X173918676Y-36103164D01*
X173918558Y-36101509D01*
X173918558Y-35623291D01*
X173921985Y-35615018D01*
X173926378Y-35612252D01*
X174410701Y-35442126D01*
X174419642Y-35442618D01*
G37*
%TD.AperFunction*%
%TD*%
%TA.AperFunction,Conductor*%
%TO.N,+3.3V*%
G36*
X171118701Y5132253D02*
G01*
X171121726Y5127022D01*
X171356542Y4254885D01*
X171355384Y4246005D01*
X171348286Y4240545D01*
X171347565Y4240375D01*
X170871699Y4144750D01*
X170867091Y4144750D01*
X170391238Y4240373D01*
X170383804Y4245362D01*
X170382074Y4254148D01*
X170382247Y4254885D01*
X170617064Y5127022D01*
X170622524Y5134120D01*
X170628362Y5135680D01*
X171110428Y5135680D01*
X171118701Y5132253D01*
G37*
%TD.AperFunction*%
%TD*%
%TA.AperFunction,Conductor*%
%TO.N,+3.3V*%
G36*
X229070930Y-2996729D02*
G01*
X229078358Y-3001728D01*
X229080077Y-3010516D01*
X229079608Y-3012184D01*
X228892796Y-3527418D01*
X228886755Y-3534028D01*
X228881797Y-3535130D01*
X228698203Y-3535130D01*
X228689930Y-3531703D01*
X228687204Y-3527418D01*
X228639544Y-3395972D01*
X228500391Y-3012182D01*
X228500792Y-3003238D01*
X228507402Y-2997197D01*
X228509056Y-2996731D01*
X228787682Y-2940363D01*
X228792318Y-2940363D01*
X229070930Y-2996729D01*
G37*
%TD.AperFunction*%
%TD*%
%TA.AperFunction,Conductor*%
%TO.N,+3.3V*%
G36*
X190671564Y1267610D02*
G01*
X190671963Y1266967D01*
X191122616Y484234D01*
X191123774Y475354D01*
X191120749Y470123D01*
X190779876Y129250D01*
X190771603Y125823D01*
X190765768Y127382D01*
X189983030Y578038D01*
X189977572Y585134D01*
X189978730Y594014D01*
X189979129Y594657D01*
X190247990Y998749D01*
X190251250Y1002009D01*
X190655342Y1270870D01*
X190664128Y1272600D01*
X190671564Y1267610D01*
G37*
%TD.AperFunction*%
%TD*%
%TA.AperFunction,Conductor*%
%TO.N,+3.3V*%
G36*
X170978993Y4632434D02*
G01*
X171851130Y4397618D01*
X171858228Y4392158D01*
X171859788Y4386320D01*
X171859788Y3904253D01*
X171856361Y3895980D01*
X171851132Y3892956D01*
X170978992Y3658139D01*
X170970113Y3659297D01*
X170964653Y3666395D01*
X170964485Y3667109D01*
X170868858Y4142982D01*
X170868858Y4147592D01*
X170964480Y4623442D01*
X170969470Y4630877D01*
X170978256Y4632607D01*
X170978993Y4632434D01*
G37*
%TD.AperFunction*%
%TD*%
%TA.AperFunction,Conductor*%
%TO.N,+3.3V*%
G36*
X229070930Y-2996729D02*
G01*
X229078358Y-3001728D01*
X229080077Y-3010516D01*
X229079608Y-3012184D01*
X228892796Y-3527418D01*
X228886755Y-3534028D01*
X228881797Y-3535130D01*
X228698203Y-3535130D01*
X228689930Y-3531703D01*
X228687204Y-3527418D01*
X228639544Y-3395972D01*
X228500391Y-3012182D01*
X228500792Y-3003238D01*
X228507402Y-2997197D01*
X228509056Y-2996731D01*
X228787682Y-2940363D01*
X228792318Y-2940363D01*
X229070930Y-2996729D01*
G37*
%TD.AperFunction*%
%TD*%
%TA.AperFunction,Conductor*%
%TO.N,+3.3V*%
G36*
X201361838Y-30579D02*
G01*
X201633439Y-83167D01*
X201640910Y-88104D01*
X201642915Y-94654D01*
X201642915Y-576660D01*
X201639488Y-584933D01*
X201635029Y-587721D01*
X200762715Y-888552D01*
X200753777Y-888009D01*
X200747840Y-881305D01*
X200747432Y-879806D01*
X200651985Y-404826D01*
X200651985Y-400217D01*
X200747778Y76480D01*
X200752768Y83916D01*
X200761473Y85662D01*
X201361838Y-30579D01*
G37*
%TD.AperFunction*%
%TD*%
%TA.AperFunction,Conductor*%
%TO.N,+3.3V*%
G36*
X215344014Y-11728730D02*
G01*
X215344657Y-11729129D01*
X215748749Y-11997990D01*
X215752009Y-12001250D01*
X216020870Y-12405342D01*
X216022600Y-12414128D01*
X216017610Y-12421564D01*
X216016967Y-12421963D01*
X215234234Y-12872616D01*
X215225354Y-12873774D01*
X215220123Y-12870749D01*
X214879250Y-12529876D01*
X214875823Y-12521603D01*
X214877382Y-12515768D01*
X215328038Y-11733030D01*
X215335134Y-11727572D01*
X215344014Y-11728730D01*
G37*
%TD.AperFunction*%
%TD*%
%TA.AperFunction,Conductor*%
%TO.N,+3.3V*%
G36*
X248959930Y-7215835D02*
G01*
X248967358Y-7220834D01*
X248969077Y-7229622D01*
X248968608Y-7231290D01*
X248781796Y-7746524D01*
X248775755Y-7753134D01*
X248770797Y-7754236D01*
X248587203Y-7754236D01*
X248578930Y-7750809D01*
X248576204Y-7746524D01*
X248528544Y-7615078D01*
X248389391Y-7231288D01*
X248389792Y-7222344D01*
X248396402Y-7216303D01*
X248398056Y-7215837D01*
X248676682Y-7159469D01*
X248681318Y-7159469D01*
X248959930Y-7215835D01*
G37*
%TD.AperFunction*%
%TD*%
%TA.AperFunction,Conductor*%
%TO.N,+3.3V*%
G36*
X218164344Y-2835010D02*
G01*
X218165193Y-2836520D01*
X218237080Y-2990187D01*
X218356791Y-3246087D01*
X218397422Y-3332940D01*
X218397823Y-3341886D01*
X218395097Y-3346171D01*
X218265277Y-3475991D01*
X218257004Y-3479418D01*
X218252047Y-3478316D01*
X218101428Y-3407855D01*
X217755626Y-3246087D01*
X217749585Y-3239477D01*
X217749986Y-3230531D01*
X217750835Y-3229021D01*
X217907985Y-2992157D01*
X217911263Y-2988879D01*
X218148127Y-2831728D01*
X218156915Y-2830010D01*
X218164344Y-2835010D01*
G37*
%TD.AperFunction*%
%TD*%
%TA.AperFunction,Conductor*%
%TO.N,+3.3V*%
G36*
X200246536Y-131252D02*
G01*
X200247179Y-131651D01*
X200651271Y-400512D01*
X200654531Y-403772D01*
X200923392Y-807864D01*
X200925122Y-816650D01*
X200920132Y-824086D01*
X200919489Y-824485D01*
X200136756Y-1275138D01*
X200127876Y-1276296D01*
X200122645Y-1273271D01*
X199781772Y-932398D01*
X199778345Y-924125D01*
X199779904Y-918290D01*
X200230560Y-135552D01*
X200237656Y-130094D01*
X200246536Y-131252D01*
G37*
%TD.AperFunction*%
%TD*%
%TA.AperFunction,Conductor*%
%TO.N,+3.3V*%
G36*
X157121195Y-14075034D02*
G01*
X157124392Y-14080996D01*
X157300080Y-14952979D01*
X157298354Y-14961766D01*
X157290921Y-14966760D01*
X157290915Y-14966761D01*
X156814305Y-15062536D01*
X156809695Y-15062536D01*
X156334631Y-14967072D01*
X156327195Y-14962082D01*
X156325465Y-14953296D01*
X156325845Y-14951877D01*
X156619816Y-14079570D01*
X156625705Y-14072825D01*
X156630903Y-14071607D01*
X157112922Y-14071607D01*
X157121195Y-14075034D01*
G37*
%TD.AperFunction*%
%TD*%
%TA.AperFunction,Conductor*%
%TO.N,+3.3V*%
G36*
X156406014Y-14790730D02*
G01*
X156406657Y-14791129D01*
X156810749Y-15059990D01*
X156814009Y-15063250D01*
X157082870Y-15467342D01*
X157084600Y-15476128D01*
X157079610Y-15483564D01*
X157078967Y-15483963D01*
X156296234Y-15934616D01*
X156287354Y-15935774D01*
X156282123Y-15932749D01*
X155941250Y-15591876D01*
X155937823Y-15583603D01*
X155939382Y-15577768D01*
X156390038Y-14795030D01*
X156397134Y-14789572D01*
X156406014Y-14790730D01*
G37*
%TD.AperFunction*%
%TD*%
%TA.AperFunction,Conductor*%
%TO.N,+3.3V*%
G36*
X197843106Y-22790286D02*
G01*
X197848686Y-22797290D01*
X197848912Y-22798219D01*
X197904684Y-23075926D01*
X197902953Y-23084712D01*
X197902920Y-23084762D01*
X197744540Y-23320125D01*
X197737078Y-23325076D01*
X197728700Y-23323557D01*
X197586865Y-23236247D01*
X197294850Y-23056490D01*
X197289602Y-23049235D01*
X197291020Y-23040394D01*
X197292707Y-23038258D01*
X197421524Y-22909441D01*
X197426559Y-22906472D01*
X197834209Y-22789278D01*
X197843106Y-22790286D01*
G37*
%TD.AperFunction*%
%TD*%
%TA.AperFunction,Conductor*%
%TO.N,GND*%
G36*
X176907949Y-15512576D02*
G01*
X177218713Y-15657953D01*
X177404373Y-15744806D01*
X177410414Y-15751416D01*
X177410013Y-15760362D01*
X177409164Y-15761872D01*
X177252015Y-15998734D01*
X177248734Y-16002015D01*
X177011872Y-16159164D01*
X177003084Y-16160883D01*
X176995655Y-16155883D01*
X176994806Y-16154373D01*
X176921997Y-15998734D01*
X176762576Y-15657951D01*
X176762176Y-15649007D01*
X176764900Y-15644724D01*
X176894723Y-15514901D01*
X176902995Y-15511475D01*
X176907949Y-15512576D01*
G37*
%TD.AperFunction*%
%TD*%
%TA.AperFunction,Conductor*%
%TO.N,GND*%
G36*
X205143999Y-15033455D02*
G01*
X205147426Y-15041728D01*
X205147199Y-15044024D01*
X205046521Y-15547104D01*
X205041537Y-15554544D01*
X205032803Y-15556291D01*
X204754790Y-15501936D01*
X204747328Y-15496985D01*
X204747295Y-15496935D01*
X204590114Y-15260754D01*
X204588383Y-15251968D01*
X204593372Y-15244532D01*
X204593796Y-15244263D01*
X204947217Y-15031702D01*
X204953247Y-15030028D01*
X205135726Y-15030028D01*
X205143999Y-15033455D01*
G37*
%TD.AperFunction*%
%TD*%
%TA.AperFunction,Conductor*%
%TO.N,GND*%
G36*
X186260362Y-18839986D02*
G01*
X186261872Y-18840835D01*
X186498734Y-18997984D01*
X186502015Y-19001265D01*
X186659164Y-19238127D01*
X186660883Y-19246915D01*
X186655883Y-19254344D01*
X186654373Y-19255193D01*
X186157953Y-19487422D01*
X186149007Y-19487823D01*
X186144722Y-19485097D01*
X186014902Y-19355277D01*
X186011475Y-19347004D01*
X186012575Y-19342051D01*
X186244806Y-18845625D01*
X186251416Y-18839585D01*
X186260362Y-18839986D01*
G37*
%TD.AperFunction*%
%TD*%
%TA.AperFunction,Conductor*%
%TO.N,GND*%
G36*
X215174012Y10021461D02*
G01*
X215656330Y9755335D01*
X215661918Y9748338D01*
X215661231Y9740039D01*
X215266228Y8914917D01*
X215259565Y8908935D01*
X215255856Y8908270D01*
X214718295Y8900178D01*
X214709973Y8903480D01*
X214706422Y8911701D01*
X214706421Y8911877D01*
X214706421Y9396174D01*
X214708680Y9403085D01*
X214966543Y9755335D01*
X215158920Y10018128D01*
X215166571Y10022779D01*
X215174012Y10021461D01*
G37*
%TD.AperFunction*%
%TD*%
%TA.AperFunction,Conductor*%
%TO.N,GND*%
G36*
X204509371Y-15339193D02*
G01*
X204682731Y-15454566D01*
X204746935Y-15497295D01*
X204751924Y-15504731D01*
X204751936Y-15504790D01*
X204805995Y-15781288D01*
X204804219Y-15790065D01*
X204796757Y-15795016D01*
X204795369Y-15795202D01*
X204265671Y-15834099D01*
X204257169Y-15831287D01*
X204253145Y-15823287D01*
X204253114Y-15822430D01*
X204253114Y-15639206D01*
X204255768Y-15631786D01*
X204493846Y-15341513D01*
X204501741Y-15337291D01*
X204509371Y-15339193D01*
G37*
%TD.AperFunction*%
%TD*%
%TA.AperFunction,Conductor*%
%TO.N,GND*%
G36*
X202821282Y-10210389D02*
G01*
X203336525Y-10397204D01*
X203343134Y-10403244D01*
X203344236Y-10408202D01*
X203344236Y-10591797D01*
X203340809Y-10600070D01*
X203336524Y-10602796D01*
X202821290Y-10789608D01*
X202812344Y-10789207D01*
X202806303Y-10782597D01*
X202805837Y-10780939D01*
X202749469Y-10502318D01*
X202749469Y-10497680D01*
X202805835Y-10219067D01*
X202810834Y-10211641D01*
X202819622Y-10209922D01*
X202821282Y-10210389D01*
G37*
%TD.AperFunction*%
%TD*%
%TA.AperFunction,Conductor*%
%TO.N,GND*%
G36*
X216172534Y10246232D02*
G01*
X216658532Y10003234D01*
X216664400Y9996469D01*
X216665000Y9992769D01*
X216665000Y9507231D01*
X216661573Y9498958D01*
X216658532Y9496766D01*
X216172534Y9253767D01*
X216163602Y9253132D01*
X216159037Y9255951D01*
X215914500Y9500000D01*
X215672296Y9741719D01*
X215668862Y9749988D01*
X215672280Y9758264D01*
X215914500Y10000000D01*
X216159037Y10244048D01*
X216167314Y10247467D01*
X216172534Y10246232D01*
G37*
%TD.AperFunction*%
%TD*%
%TA.AperFunction,Conductor*%
%TO.N,GND*%
G36*
X203821282Y-15445411D02*
G01*
X204336525Y-15632226D01*
X204343134Y-15638266D01*
X204344236Y-15643224D01*
X204344236Y-15826819D01*
X204340809Y-15835092D01*
X204336524Y-15837818D01*
X203821290Y-16024630D01*
X203812344Y-16024229D01*
X203806303Y-16017619D01*
X203805837Y-16015961D01*
X203749469Y-15737340D01*
X203749469Y-15732702D01*
X203805835Y-15454089D01*
X203810834Y-15446663D01*
X203819622Y-15444944D01*
X203821282Y-15445411D01*
G37*
%TD.AperFunction*%
%TD*%
%TA.AperFunction,Conductor*%
%TO.N,GND*%
G36*
X224437655Y-7460792D02*
G01*
X224443696Y-7467402D01*
X224444165Y-7469070D01*
X224500530Y-7747680D01*
X224500530Y-7752320D01*
X224444165Y-8030929D01*
X224439165Y-8038358D01*
X224430377Y-8040077D01*
X224428709Y-8039608D01*
X223913476Y-7852796D01*
X223906866Y-7846755D01*
X223905764Y-7841797D01*
X223905764Y-7658202D01*
X223909191Y-7649929D01*
X223913473Y-7647204D01*
X224428711Y-7460391D01*
X224437655Y-7460792D01*
G37*
%TD.AperFunction*%
%TD*%
%TA.AperFunction,Conductor*%
%TO.N,GND*%
G36*
X207531826Y10083978D02*
G01*
X208052377Y9595630D01*
X208056066Y9587470D01*
X208052905Y9579092D01*
X208052645Y9578824D01*
X207707818Y9233997D01*
X207707445Y9233640D01*
X207495885Y9039992D01*
X207487468Y9036933D01*
X207479355Y9040722D01*
X207478141Y9042299D01*
X207030439Y9741112D01*
X207028863Y9749926D01*
X207033724Y9757105D01*
X207517253Y10085127D01*
X207526023Y10086936D01*
X207531826Y10083978D01*
G37*
%TD.AperFunction*%
%TD*%
%TA.AperFunction,Conductor*%
%TO.N,GND*%
G36*
X213730085Y-171180D02*
G01*
X213733588Y-173590D01*
X214053877Y-493879D01*
X214057304Y-502152D01*
X214053877Y-510425D01*
X214045604Y-513852D01*
X214043178Y-513598D01*
X213298364Y-355758D01*
X213290981Y-350690D01*
X213289344Y-341886D01*
X213294412Y-334503D01*
X213296603Y-333388D01*
X213721134Y-170936D01*
X213730085Y-171180D01*
G37*
%TD.AperFunction*%
%TD*%
%TA.AperFunction,Conductor*%
%TO.N,GND*%
G36*
X213502417Y-399035D02*
G01*
X213505425Y-401211D01*
X213846200Y-741986D01*
X213849627Y-750259D01*
X213846788Y-757899D01*
X213297479Y-1394963D01*
X213289481Y-1398991D01*
X213282137Y-1397064D01*
X212878348Y-1128405D01*
X212873359Y-1120970D01*
X212779453Y-644741D01*
X212781215Y-635964D01*
X212787263Y-631371D01*
X213493488Y-398373D01*
X213502417Y-399035D01*
G37*
%TD.AperFunction*%
%TD*%
%TA.AperFunction,Conductor*%
%TO.N,GND*%
G36*
X214344014Y771269D02*
G01*
X214344657Y770870D01*
X214748749Y502009D01*
X214752009Y498749D01*
X215020870Y94657D01*
X215022600Y85871D01*
X215017610Y78435D01*
X215016980Y78044D01*
X214576982Y-175281D01*
X214234234Y-372616D01*
X214225354Y-373774D01*
X214220123Y-370749D01*
X213879250Y-29876D01*
X213875823Y-21603D01*
X213877382Y-15768D01*
X214328037Y766967D01*
X214335134Y772427D01*
X214344014Y771269D01*
G37*
%TD.AperFunction*%
%TD*%
%TA.AperFunction,Conductor*%
%TO.N,GND*%
G36*
X206600070Y-14159191D02*
G01*
X206602796Y-14163476D01*
X206789608Y-14678709D01*
X206789207Y-14687655D01*
X206782597Y-14693696D01*
X206780929Y-14694165D01*
X206502320Y-14750530D01*
X206497680Y-14750530D01*
X206219070Y-14694165D01*
X206211641Y-14689165D01*
X206209922Y-14680377D01*
X206210387Y-14678720D01*
X206397204Y-14163476D01*
X206403245Y-14156866D01*
X206408203Y-14155764D01*
X206591797Y-14155764D01*
X206600070Y-14159191D01*
G37*
%TD.AperFunction*%
%TD*%
%TA.AperFunction,Conductor*%
%TO.N,GND*%
G36*
X206780930Y-13555835D02*
G01*
X206788358Y-13560834D01*
X206790077Y-13569622D01*
X206789608Y-13571290D01*
X206602796Y-14086524D01*
X206596755Y-14093134D01*
X206591797Y-14094236D01*
X206408203Y-14094236D01*
X206399930Y-14090809D01*
X206397204Y-14086524D01*
X206349544Y-13955078D01*
X206210391Y-13571288D01*
X206210792Y-13562344D01*
X206217402Y-13556303D01*
X206219056Y-13555837D01*
X206497682Y-13499469D01*
X206502318Y-13499469D01*
X206780930Y-13555835D01*
G37*
%TD.AperFunction*%
%TD*%
%TA.AperFunction,Conductor*%
%TO.N,GND*%
G36*
X201321282Y-15445411D02*
G01*
X201836525Y-15632226D01*
X201843134Y-15638266D01*
X201844236Y-15643224D01*
X201844236Y-15826819D01*
X201840809Y-15835092D01*
X201836524Y-15837818D01*
X201321290Y-16024630D01*
X201312344Y-16024229D01*
X201306303Y-16017619D01*
X201305837Y-16015961D01*
X201249469Y-15737340D01*
X201249469Y-15732702D01*
X201305835Y-15454089D01*
X201310834Y-15446663D01*
X201319622Y-15444944D01*
X201321282Y-15445411D01*
G37*
%TD.AperFunction*%
%TD*%
%TA.AperFunction,Conductor*%
%TO.N,GND*%
G36*
X202437655Y-15445814D02*
G01*
X202443696Y-15452424D01*
X202444165Y-15454092D01*
X202500530Y-15732702D01*
X202500530Y-15737342D01*
X202444165Y-16015951D01*
X202439165Y-16023380D01*
X202430377Y-16025099D01*
X202428709Y-16024630D01*
X201913476Y-15837818D01*
X201906866Y-15831777D01*
X201905764Y-15826819D01*
X201905764Y-15643224D01*
X201909191Y-15634951D01*
X201913473Y-15632226D01*
X202428711Y-15445413D01*
X202437655Y-15445814D01*
G37*
%TD.AperFunction*%
%TD*%
%TA.AperFunction,Conductor*%
%TO.N,GND*%
G36*
X203687655Y-15445814D02*
G01*
X203693696Y-15452424D01*
X203694165Y-15454092D01*
X203750530Y-15732702D01*
X203750530Y-15737342D01*
X203694165Y-16015951D01*
X203689165Y-16023380D01*
X203680377Y-16025099D01*
X203678709Y-16024630D01*
X203163476Y-15837818D01*
X203156866Y-15831777D01*
X203155764Y-15826819D01*
X203155764Y-15643224D01*
X203159191Y-15634951D01*
X203163473Y-15632226D01*
X203678711Y-15445413D01*
X203687655Y-15445814D01*
G37*
%TD.AperFunction*%
%TD*%
%TA.AperFunction,Conductor*%
%TO.N,GND*%
G36*
X202571282Y-15445411D02*
G01*
X203086525Y-15632226D01*
X203093134Y-15638266D01*
X203094236Y-15643224D01*
X203094236Y-15826819D01*
X203090809Y-15835092D01*
X203086524Y-15837818D01*
X202571290Y-16024630D01*
X202562344Y-16024229D01*
X202556303Y-16017619D01*
X202555837Y-16015961D01*
X202499469Y-15737340D01*
X202499469Y-15732702D01*
X202555835Y-15454089D01*
X202560834Y-15446663D01*
X202569622Y-15444944D01*
X202571282Y-15445411D01*
G37*
%TD.AperFunction*%
%TD*%
%TA.AperFunction,Conductor*%
%TO.N,GND*%
G36*
X239216819Y-18867481D02*
G01*
X239224270Y-18872448D01*
X239226025Y-18876679D01*
X239398158Y-19743032D01*
X239396409Y-19751814D01*
X239390869Y-19756237D01*
X238234284Y-20199512D01*
X238230097Y-20200287D01*
X238046611Y-20200287D01*
X238038338Y-20196860D01*
X238034911Y-20188587D01*
X238035151Y-20186231D01*
X238124262Y-19752707D01*
X238339455Y-18705792D01*
X238344476Y-18698381D01*
X238353184Y-18696672D01*
X239216819Y-18867481D01*
G37*
%TD.AperFunction*%
%TD*%
%TA.AperFunction,Conductor*%
%TO.N,GND*%
G36*
X206260362Y-13339986D02*
G01*
X206261872Y-13340835D01*
X206498734Y-13497984D01*
X206502015Y-13501265D01*
X206659164Y-13738127D01*
X206660883Y-13746915D01*
X206655883Y-13754344D01*
X206654373Y-13755193D01*
X206157953Y-13987422D01*
X206149007Y-13987823D01*
X206144722Y-13985097D01*
X206014902Y-13855277D01*
X206011475Y-13847004D01*
X206012575Y-13842051D01*
X206244806Y-13345625D01*
X206251416Y-13339585D01*
X206260362Y-13339986D01*
G37*
%TD.AperFunction*%
%TD*%
%TA.AperFunction,Conductor*%
%TO.N,GND*%
G36*
X206600070Y-11909191D02*
G01*
X206602796Y-11913476D01*
X206789608Y-12428709D01*
X206789207Y-12437655D01*
X206782597Y-12443696D01*
X206780929Y-12444165D01*
X206502320Y-12500530D01*
X206497680Y-12500530D01*
X206219070Y-12444165D01*
X206211641Y-12439165D01*
X206209922Y-12430377D01*
X206210387Y-12428720D01*
X206397204Y-11913476D01*
X206403245Y-11906866D01*
X206408203Y-11905764D01*
X206591797Y-11905764D01*
X206600070Y-11909191D01*
G37*
%TD.AperFunction*%
%TD*%
%TA.AperFunction,Conductor*%
%TO.N,GND*%
G36*
X206780930Y-11555835D02*
G01*
X206788358Y-11560834D01*
X206790077Y-11569622D01*
X206789608Y-11571290D01*
X206602796Y-12086524D01*
X206596755Y-12093134D01*
X206591797Y-12094236D01*
X206408203Y-12094236D01*
X206399930Y-12090809D01*
X206397204Y-12086524D01*
X206349544Y-11955078D01*
X206210391Y-11571288D01*
X206210792Y-11562344D01*
X206217402Y-11556303D01*
X206219056Y-11555837D01*
X206497682Y-11499469D01*
X206502318Y-11499469D01*
X206780930Y-11555835D01*
G37*
%TD.AperFunction*%
%TD*%
%TA.AperFunction,Conductor*%
%TO.N,GND*%
G36*
X206780930Y-12555835D02*
G01*
X206788358Y-12560834D01*
X206790077Y-12569622D01*
X206789608Y-12571290D01*
X206602796Y-13086524D01*
X206596755Y-13093134D01*
X206591797Y-13094236D01*
X206408203Y-13094236D01*
X206399930Y-13090809D01*
X206397204Y-13086524D01*
X206349544Y-12955078D01*
X206210391Y-12571288D01*
X206210792Y-12562344D01*
X206217402Y-12556303D01*
X206219056Y-12555837D01*
X206497682Y-12499469D01*
X206502318Y-12499469D01*
X206780930Y-12555835D01*
G37*
%TD.AperFunction*%
%TD*%
%TA.AperFunction,Conductor*%
%TO.N,GND*%
G36*
X206600070Y-12909191D02*
G01*
X206602796Y-12913476D01*
X206789608Y-13428709D01*
X206789207Y-13437655D01*
X206782597Y-13443696D01*
X206780929Y-13444165D01*
X206502320Y-13500530D01*
X206497680Y-13500530D01*
X206219070Y-13444165D01*
X206211641Y-13439165D01*
X206209922Y-13430377D01*
X206210387Y-13428720D01*
X206397204Y-12913476D01*
X206403245Y-12906866D01*
X206408203Y-12905764D01*
X206591797Y-12905764D01*
X206600070Y-12909191D01*
G37*
%TD.AperFunction*%
%TD*%
%TA.AperFunction,Conductor*%
%TO.N,GND*%
G36*
X196605277Y-7014902D02*
G01*
X196735097Y-7144722D01*
X196738524Y-7152995D01*
X196737422Y-7157953D01*
X196505193Y-7654373D01*
X196498583Y-7660414D01*
X196489637Y-7660013D01*
X196488127Y-7659164D01*
X196251265Y-7502015D01*
X196247984Y-7498734D01*
X196090835Y-7261872D01*
X196089116Y-7253084D01*
X196094116Y-7245655D01*
X196095621Y-7244808D01*
X196592048Y-7012576D01*
X196600992Y-7012176D01*
X196605277Y-7014902D01*
G37*
%TD.AperFunction*%
%TD*%
%TA.AperFunction,Conductor*%
%TO.N,GND*%
G36*
X174478971Y4586600D02*
G01*
X175195429Y4352919D01*
X175202232Y4347096D01*
X175203501Y4341796D01*
X175203501Y3858777D01*
X175200074Y3850504D01*
X175195429Y3847654D01*
X174478970Y3613973D01*
X174470043Y3614665D01*
X174464220Y3621468D01*
X174463872Y3622791D01*
X174416450Y3858777D01*
X174368382Y4097982D01*
X174368382Y4102592D01*
X174417516Y4347096D01*
X174463872Y4577782D01*
X174468862Y4585218D01*
X174477648Y4586948D01*
X174478971Y4586600D01*
G37*
%TD.AperFunction*%
%TD*%
%TA.AperFunction,Conductor*%
%TO.N,GND*%
G36*
X213344014Y21269D02*
G01*
X213344657Y20870D01*
X213748749Y-247990D01*
X213752009Y-251250D01*
X214020870Y-655342D01*
X214022600Y-664128D01*
X214017610Y-671564D01*
X214016967Y-671963D01*
X213234234Y-1122616D01*
X213225354Y-1123774D01*
X213220123Y-1120749D01*
X212879250Y-779876D01*
X212875823Y-771603D01*
X212877382Y-765768D01*
X213328037Y16967D01*
X213335134Y22427D01*
X213344014Y21269D01*
G37*
%TD.AperFunction*%
%TD*%
%TA.AperFunction,Conductor*%
%TO.N,GND*%
G36*
X213404876Y-254250D02*
G01*
X213745749Y-595123D01*
X213749176Y-603396D01*
X213747616Y-609234D01*
X213296963Y-1391967D01*
X213289865Y-1397427D01*
X213280985Y-1396269D01*
X213280342Y-1395870D01*
X212876250Y-1127009D01*
X212872990Y-1123749D01*
X212604129Y-719657D01*
X212602399Y-710871D01*
X212607389Y-703435D01*
X212608005Y-703052D01*
X213390767Y-252382D01*
X213399645Y-251225D01*
X213404876Y-254250D01*
G37*
%TD.AperFunction*%
%TD*%
%TA.AperFunction,Conductor*%
%TO.N,GND*%
G36*
X224571282Y-7460389D02*
G01*
X225086525Y-7647204D01*
X225093134Y-7653244D01*
X225094236Y-7658202D01*
X225094236Y-7841797D01*
X225090809Y-7850070D01*
X225086524Y-7852796D01*
X224571290Y-8039608D01*
X224562344Y-8039207D01*
X224556303Y-8032597D01*
X224555837Y-8030939D01*
X224499469Y-7752318D01*
X224499469Y-7747680D01*
X224555835Y-7469067D01*
X224560834Y-7461641D01*
X224569622Y-7459922D01*
X224571282Y-7460389D01*
G37*
%TD.AperFunction*%
%TD*%
%TA.AperFunction,Conductor*%
%TO.N,GND*%
G36*
X200817719Y-10897343D02*
G01*
X200819229Y-10898192D01*
X201056091Y-11055341D01*
X201059372Y-11058622D01*
X201216521Y-11295484D01*
X201218240Y-11304272D01*
X201213240Y-11311701D01*
X201211730Y-11312550D01*
X200715310Y-11544779D01*
X200706364Y-11545180D01*
X200702079Y-11542454D01*
X200572259Y-11412634D01*
X200568832Y-11404361D01*
X200569932Y-11399408D01*
X200802163Y-10902982D01*
X200808773Y-10896942D01*
X200817719Y-10897343D01*
G37*
%TD.AperFunction*%
%TD*%
%TA.AperFunction,Conductor*%
%TO.N,GND*%
G36*
X202978856Y-7546482D02*
G01*
X202986285Y-7551482D01*
X202988196Y-7558913D01*
X202945704Y-8073517D01*
X202941608Y-8081480D01*
X202934044Y-8084254D01*
X202455590Y-8084254D01*
X202447317Y-8080827D01*
X202443930Y-8073517D01*
X202401437Y-7558913D01*
X202404171Y-7550386D01*
X202410776Y-7546482D01*
X202692499Y-7489487D01*
X202697135Y-7489487D01*
X202978856Y-7546482D01*
G37*
%TD.AperFunction*%
%TD*%
%TA.AperFunction,Conductor*%
%TO.N,GND*%
G36*
X239230298Y-18873642D02*
G01*
X239963143Y-19363542D01*
X239964630Y-19364536D01*
X239969604Y-19371983D01*
X239968819Y-19379017D01*
X239466128Y-20509581D01*
X239463710Y-20513100D01*
X239333960Y-20642850D01*
X239325687Y-20646277D01*
X239317414Y-20642850D01*
X239315925Y-20641027D01*
X238482586Y-19379713D01*
X238480885Y-19370921D01*
X238485835Y-19363544D01*
X239217289Y-18873648D01*
X239226069Y-18871892D01*
X239230298Y-18873642D01*
G37*
%TD.AperFunction*%
%TD*%
%TA.AperFunction,Conductor*%
%TO.N,GND*%
G36*
X204071282Y-10210389D02*
G01*
X204586525Y-10397204D01*
X204593134Y-10403244D01*
X204594236Y-10408202D01*
X204594236Y-10591797D01*
X204590809Y-10600070D01*
X204586524Y-10602796D01*
X204071290Y-10789608D01*
X204062344Y-10789207D01*
X204056303Y-10782597D01*
X204055837Y-10780939D01*
X203999469Y-10502318D01*
X203999469Y-10497680D01*
X204055835Y-10219067D01*
X204060834Y-10211641D01*
X204069622Y-10209922D01*
X204071282Y-10210389D01*
G37*
%TD.AperFunction*%
%TD*%
%TA.AperFunction,Conductor*%
%TO.N,GND*%
G36*
X205187655Y-10210792D02*
G01*
X205193696Y-10217402D01*
X205194165Y-10219070D01*
X205250530Y-10497680D01*
X205250530Y-10502320D01*
X205194165Y-10780929D01*
X205189165Y-10788358D01*
X205180377Y-10790077D01*
X205178709Y-10789608D01*
X204663476Y-10602796D01*
X204656866Y-10596755D01*
X204655764Y-10591797D01*
X204655764Y-10408202D01*
X204659191Y-10399929D01*
X204663473Y-10397204D01*
X205178711Y-10210391D01*
X205187655Y-10210792D01*
G37*
%TD.AperFunction*%
%TD*%
%TA.AperFunction,Conductor*%
%TO.N,GND*%
G36*
X184938689Y-7709874D02*
G01*
X184943791Y-7717233D01*
X184943825Y-7717392D01*
X185000030Y-7995210D01*
X184998311Y-8003998D01*
X184998272Y-8004057D01*
X184839290Y-8240572D01*
X184831831Y-8245526D01*
X184823957Y-8244305D01*
X184420735Y-8023330D01*
X184415127Y-8016349D01*
X184414658Y-8013070D01*
X184414658Y-7829434D01*
X184418085Y-7821161D01*
X184423877Y-7818000D01*
X184929878Y-7708278D01*
X184938689Y-7709874D01*
G37*
%TD.AperFunction*%
%TD*%
%TA.AperFunction,Conductor*%
%TO.N,GND*%
G36*
X204821282Y-15210389D02*
G01*
X205336525Y-15397204D01*
X205343134Y-15403244D01*
X205344236Y-15408202D01*
X205344236Y-15591797D01*
X205340809Y-15600070D01*
X205336524Y-15602796D01*
X204821290Y-15789608D01*
X204812344Y-15789207D01*
X204806303Y-15782597D01*
X204805837Y-15780939D01*
X204749469Y-15502318D01*
X204749469Y-15497680D01*
X204805835Y-15219067D01*
X204810834Y-15211641D01*
X204819622Y-15209922D01*
X204821282Y-15210389D01*
G37*
%TD.AperFunction*%
%TD*%
%TA.AperFunction,Conductor*%
%TO.N,GND*%
G36*
X205687655Y-15210792D02*
G01*
X205693696Y-15217402D01*
X205694165Y-15219070D01*
X205750530Y-15497680D01*
X205750530Y-15502320D01*
X205694165Y-15780929D01*
X205689165Y-15788358D01*
X205680377Y-15790077D01*
X205678709Y-15789608D01*
X205163476Y-15602796D01*
X205156866Y-15596755D01*
X205155764Y-15591797D01*
X205155764Y-15408202D01*
X205159191Y-15399929D01*
X205163473Y-15397204D01*
X205678711Y-15210391D01*
X205687655Y-15210792D01*
G37*
%TD.AperFunction*%
%TD*%
%TA.AperFunction,Conductor*%
%TO.N,GND*%
G36*
X206504706Y-14751985D02*
G01*
X206504756Y-14752018D01*
X206580968Y-14803302D01*
X206740762Y-14910831D01*
X206745713Y-14918292D01*
X206744605Y-14925946D01*
X206511446Y-15373204D01*
X206504583Y-15378956D01*
X206495662Y-15378170D01*
X206492798Y-15376068D01*
X206364509Y-15247779D01*
X206361769Y-15243456D01*
X206247881Y-14925946D01*
X206210338Y-14821279D01*
X206210770Y-14812336D01*
X206217401Y-14806317D01*
X206219042Y-14805860D01*
X206495920Y-14750254D01*
X206504706Y-14751985D01*
G37*
%TD.AperFunction*%
%TD*%
%TA.AperFunction,Conductor*%
%TO.N,GND*%
G36*
X201412634Y-10572258D02*
G01*
X201542454Y-10702078D01*
X201545881Y-10710351D01*
X201544779Y-10715309D01*
X201312550Y-11211730D01*
X201305940Y-11217771D01*
X201296994Y-11217370D01*
X201295484Y-11216521D01*
X201058622Y-11059372D01*
X201055341Y-11056091D01*
X200898192Y-10819229D01*
X200896473Y-10810441D01*
X200901473Y-10803012D01*
X200902979Y-10802165D01*
X201399406Y-10569932D01*
X201408349Y-10569532D01*
X201412634Y-10572258D01*
G37*
%TD.AperFunction*%
%TD*%
%TA.AperFunction,Conductor*%
%TO.N,GND*%
G36*
X201510186Y-10339716D02*
G01*
X201746634Y-10496591D01*
X201751633Y-10504017D01*
X201751646Y-10504087D01*
X201751647Y-10504088D01*
X201806397Y-10783373D01*
X201804626Y-10792151D01*
X201797798Y-10796963D01*
X201350205Y-10910738D01*
X201341343Y-10909455D01*
X201339050Y-10907672D01*
X201209187Y-10777809D01*
X201205760Y-10769536D01*
X201207790Y-10762950D01*
X201494052Y-10342876D01*
X201501542Y-10337970D01*
X201510186Y-10339716D01*
G37*
%TD.AperFunction*%
%TD*%
%TA.AperFunction,Conductor*%
%TO.N,GND*%
G36*
X200816473Y-2951181D02*
G01*
X200816736Y-2951352D01*
X201219419Y-3219770D01*
X201224403Y-3227209D01*
X201224410Y-3227244D01*
X201318043Y-3702850D01*
X201316278Y-3711629D01*
X201310363Y-3716176D01*
X200470222Y-4004659D01*
X200461284Y-4004105D01*
X200455356Y-3997393D01*
X200454722Y-3993593D01*
X200454722Y-3513327D01*
X200456490Y-3507142D01*
X200630784Y-3227244D01*
X200800357Y-2954927D01*
X200807638Y-2949717D01*
X200816473Y-2951181D01*
G37*
%TD.AperFunction*%
%TD*%
%TA.AperFunction,Conductor*%
%TO.N,GND*%
G36*
X239182005Y-5933355D02*
G01*
X239915219Y-6424252D01*
X239920187Y-6431702D01*
X239919152Y-6439252D01*
X239278746Y-7706285D01*
X239271956Y-7712123D01*
X239268304Y-7712707D01*
X239082696Y-7712707D01*
X239074423Y-7709280D01*
X239072254Y-7706285D01*
X238431847Y-6439252D01*
X238431173Y-6430322D01*
X238435778Y-6424254D01*
X239168992Y-5933356D01*
X239177772Y-5931602D01*
X239182005Y-5933355D01*
G37*
%TD.AperFunction*%
%TD*%
%TA.AperFunction,Conductor*%
%TO.N,GND*%
G36*
X201010310Y-15574825D02*
G01*
X201010562Y-15574988D01*
X201246634Y-15731613D01*
X201251633Y-15739039D01*
X201251646Y-15739109D01*
X201251647Y-15739110D01*
X201306512Y-16018984D01*
X201304741Y-16027762D01*
X201298540Y-16032397D01*
X200860768Y-16170009D01*
X200851848Y-16169220D01*
X200848986Y-16167120D01*
X200719151Y-16037285D01*
X200715724Y-16029012D01*
X200717491Y-16022830D01*
X200994195Y-15578568D01*
X201001475Y-15573360D01*
X201010310Y-15574825D01*
G37*
%TD.AperFunction*%
%TD*%
%TA.AperFunction,Conductor*%
%TO.N,GND*%
G36*
X201313559Y-10897957D02*
G01*
X201626751Y-11234752D01*
X201629875Y-11243144D01*
X201626456Y-11250992D01*
X201496766Y-11380682D01*
X201488493Y-11384109D01*
X201487717Y-11384083D01*
X201012092Y-11352474D01*
X201004064Y-11348506D01*
X201001194Y-11340024D01*
X201001387Y-11338549D01*
X201055710Y-11061442D01*
X201060661Y-11053988D01*
X201298525Y-10896174D01*
X201307311Y-10894456D01*
X201313559Y-10897957D01*
G37*
%TD.AperFunction*%
%TD*%
%TA.AperFunction,Conductor*%
%TO.N,GND*%
G36*
X206600070Y-10909191D02*
G01*
X206602796Y-10913476D01*
X206789608Y-11428709D01*
X206789207Y-11437655D01*
X206782597Y-11443696D01*
X206780929Y-11444165D01*
X206502320Y-11500530D01*
X206497680Y-11500530D01*
X206219070Y-11444165D01*
X206211641Y-11439165D01*
X206209922Y-11430377D01*
X206210387Y-11428720D01*
X206397204Y-10913476D01*
X206403245Y-10906866D01*
X206408203Y-10905764D01*
X206591797Y-10905764D01*
X206600070Y-10909191D01*
G37*
%TD.AperFunction*%
%TD*%
%TA.AperFunction,Conductor*%
%TO.N,GND*%
G36*
X240361662Y-4603140D02*
G01*
X240365089Y-4611413D01*
X240364849Y-4613766D01*
X240247971Y-5182377D01*
X240060545Y-6094205D01*
X240055523Y-6101618D01*
X240046815Y-6103327D01*
X239183180Y-5932518D01*
X239175729Y-5927551D01*
X239173974Y-5923320D01*
X239001841Y-5056967D01*
X239003590Y-5048185D01*
X239009128Y-5043763D01*
X240165716Y-4600488D01*
X240169903Y-4599713D01*
X240353389Y-4599713D01*
X240361662Y-4603140D01*
G37*
%TD.AperFunction*%
%TD*%
%TA.AperFunction,Conductor*%
%TO.N,GND*%
G36*
X203937655Y-10210792D02*
G01*
X203943696Y-10217402D01*
X203944165Y-10219070D01*
X204000530Y-10497680D01*
X204000530Y-10502320D01*
X203944165Y-10780929D01*
X203939165Y-10788358D01*
X203930377Y-10790077D01*
X203928709Y-10789608D01*
X203413476Y-10602796D01*
X203406866Y-10596755D01*
X203405764Y-10591797D01*
X203405764Y-10408202D01*
X203409191Y-10399929D01*
X203413473Y-10397204D01*
X203928711Y-10210391D01*
X203937655Y-10210792D01*
G37*
%TD.AperFunction*%
%TD*%
%TA.AperFunction,Conductor*%
%TO.N,GND*%
G36*
X206534310Y9953267D02*
G01*
X207016163Y9754641D01*
X207022506Y9748320D01*
X207022992Y9740747D01*
X206762781Y8786070D01*
X206757299Y8778989D01*
X206753152Y8777566D01*
X206354015Y8720498D01*
X206345340Y8722719D01*
X206344093Y8723800D01*
X206001128Y9066765D01*
X205997702Y9075037D01*
X205999368Y9081054D01*
X206519818Y9948470D01*
X206527013Y9953801D01*
X206534310Y9953267D01*
G37*
%TD.AperFunction*%
%TD*%
%TA.AperFunction,Conductor*%
%TO.N,GND*%
G36*
X227201985Y-14322193D02*
G01*
X227549223Y-14452278D01*
X227555768Y-14458389D01*
X227556595Y-14465509D01*
X227500946Y-14746223D01*
X227495975Y-14753672D01*
X227495942Y-14753694D01*
X227262332Y-14908851D01*
X227253545Y-14910574D01*
X227246113Y-14905578D01*
X227245075Y-14903644D01*
X227181953Y-14753694D01*
X227006836Y-14337689D01*
X227006785Y-14328735D01*
X227013081Y-14322366D01*
X227017620Y-14321450D01*
X227197881Y-14321450D01*
X227201985Y-14322193D01*
G37*
%TD.AperFunction*%
%TD*%
%TA.AperFunction,Conductor*%
%TO.N,GND*%
G36*
X199227670Y-3352382D02*
G01*
X199496630Y-3753466D01*
X199498392Y-3762246D01*
X199496630Y-3766498D01*
X199227670Y-4167581D01*
X199220216Y-4172544D01*
X199213246Y-4171776D01*
X199128178Y-4134393D01*
X198852054Y-4013054D01*
X198845859Y-4006589D01*
X198845061Y-4002343D01*
X198845061Y-3517620D01*
X198848488Y-3509347D01*
X198852054Y-3506909D01*
X199213249Y-3348186D01*
X199222199Y-3347996D01*
X199227670Y-3352382D01*
G37*
%TD.AperFunction*%
%TD*%
%TA.AperFunction,Conductor*%
%TO.N,GND*%
G36*
X202687655Y-10210792D02*
G01*
X202693696Y-10217402D01*
X202694165Y-10219070D01*
X202750530Y-10497680D01*
X202750530Y-10502320D01*
X202694165Y-10780929D01*
X202689165Y-10788358D01*
X202680377Y-10790077D01*
X202678709Y-10789608D01*
X202163476Y-10602796D01*
X202156866Y-10596755D01*
X202155764Y-10591797D01*
X202155764Y-10408202D01*
X202159191Y-10399929D01*
X202163473Y-10397204D01*
X202678711Y-10210391D01*
X202687655Y-10210792D01*
G37*
%TD.AperFunction*%
%TD*%
%TA.AperFunction,Conductor*%
%TO.N,GND*%
G36*
X201821282Y-10210389D02*
G01*
X202336525Y-10397204D01*
X202343134Y-10403244D01*
X202344236Y-10408202D01*
X202344236Y-10591797D01*
X202340809Y-10600070D01*
X202336524Y-10602796D01*
X201821290Y-10789608D01*
X201812344Y-10789207D01*
X201806303Y-10782597D01*
X201805837Y-10780939D01*
X201749469Y-10502318D01*
X201749469Y-10497680D01*
X201805835Y-10219067D01*
X201810834Y-10211641D01*
X201819622Y-10209922D01*
X201821282Y-10210389D01*
G37*
%TD.AperFunction*%
%TD*%
%TA.AperFunction,Conductor*%
%TO.N,GND*%
G36*
X206187655Y-10210792D02*
G01*
X206193696Y-10217402D01*
X206194165Y-10219070D01*
X206250530Y-10497680D01*
X206250530Y-10502320D01*
X206194165Y-10780929D01*
X206189165Y-10788358D01*
X206180377Y-10790077D01*
X206178709Y-10789608D01*
X205663476Y-10602796D01*
X205656866Y-10596755D01*
X205655764Y-10591797D01*
X205655764Y-10408202D01*
X205659191Y-10399929D01*
X205663473Y-10397204D01*
X206178711Y-10210391D01*
X206187655Y-10210792D01*
G37*
%TD.AperFunction*%
%TD*%
%TA.AperFunction,Conductor*%
%TO.N,GND*%
G36*
X205321282Y-10210389D02*
G01*
X205836525Y-10397204D01*
X205843134Y-10403244D01*
X205844236Y-10408202D01*
X205844236Y-10591797D01*
X205840809Y-10600070D01*
X205836524Y-10602796D01*
X205321290Y-10789608D01*
X205312344Y-10789207D01*
X205306303Y-10782597D01*
X205305837Y-10780939D01*
X205249469Y-10502318D01*
X205249469Y-10497680D01*
X205305835Y-10219067D01*
X205310834Y-10211641D01*
X205319622Y-10209922D01*
X205321282Y-10210389D01*
G37*
%TD.AperFunction*%
%TD*%
%TA.AperFunction,Conductor*%
%TO.N,GND*%
G36*
X206540423Y-10445710D02*
G01*
X206545374Y-10453172D01*
X206545531Y-10454235D01*
X206598692Y-10977800D01*
X206596119Y-10986377D01*
X206588234Y-10990622D01*
X206587052Y-10990682D01*
X206403949Y-10990682D01*
X206396859Y-10988289D01*
X206092060Y-10756092D01*
X206087555Y-10748353D01*
X206089410Y-10740303D01*
X206247295Y-10503064D01*
X206254731Y-10498075D01*
X206254727Y-10498075D01*
X206531647Y-10443934D01*
X206540423Y-10445710D01*
G37*
%TD.AperFunction*%
%TD*%
%TA.AperFunction,Conductor*%
%TO.N,GND*%
G36*
X223256135Y-10091600D02*
G01*
X223559992Y-10467011D01*
X223562534Y-10475598D01*
X223559171Y-10482645D01*
X223429368Y-10612448D01*
X223421095Y-10615875D01*
X223419364Y-10615746D01*
X222953577Y-10546047D01*
X222945902Y-10541434D01*
X222943737Y-10532745D01*
X222943822Y-10532251D01*
X222998353Y-10254085D01*
X223003304Y-10246631D01*
X223240574Y-10089211D01*
X223249361Y-10087493D01*
X223256135Y-10091600D01*
G37*
%TD.AperFunction*%
%TD*%
%TA.AperFunction,Conductor*%
%TO.N,GND*%
G36*
X205821275Y-15210336D02*
G01*
X206243457Y-15361769D01*
X206247779Y-15364509D01*
X206376068Y-15492798D01*
X206379495Y-15501071D01*
X206376068Y-15509344D01*
X206373204Y-15511446D01*
X205925946Y-15744605D01*
X205917025Y-15745391D01*
X205910831Y-15740763D01*
X205803302Y-15580968D01*
X205752018Y-15504756D01*
X205750242Y-15495980D01*
X205805859Y-15219046D01*
X205810848Y-15211611D01*
X205819634Y-15209880D01*
X205821275Y-15210336D01*
G37*
%TD.AperFunction*%
%TD*%
%TA.AperFunction,Conductor*%
%TO.N,GND*%
G36*
X213670473Y-231134D02*
G01*
X213673124Y-233122D01*
X213988493Y-548491D01*
X213991920Y-556764D01*
X213988493Y-565037D01*
X213980220Y-568464D01*
X213976783Y-567948D01*
X213296930Y-359015D01*
X213290029Y-353309D01*
X213289183Y-344394D01*
X213294889Y-337493D01*
X213297085Y-336600D01*
X213661572Y-230164D01*
X213670473Y-231134D01*
G37*
%TD.AperFunction*%
%TD*%
%TA.AperFunction,Conductor*%
%TO.N,GND*%
G36*
X212795473Y-1106134D02*
G01*
X212798124Y-1108122D01*
X213113493Y-1423491D01*
X213116920Y-1431764D01*
X213113493Y-1440037D01*
X213105220Y-1443464D01*
X213101783Y-1442948D01*
X212421930Y-1234015D01*
X212415029Y-1228309D01*
X212414183Y-1219394D01*
X212419889Y-1212493D01*
X212422085Y-1211600D01*
X212786572Y-1105164D01*
X212795473Y-1106134D01*
G37*
%TD.AperFunction*%
%TD*%
%TA.AperFunction,Conductor*%
%TO.N,GND*%
G36*
X214344014Y771269D02*
G01*
X214344657Y770870D01*
X214748749Y502009D01*
X214752009Y498749D01*
X215020870Y94657D01*
X215022600Y85871D01*
X215017610Y78435D01*
X215016980Y78044D01*
X214576982Y-175281D01*
X214234234Y-372616D01*
X214225354Y-373774D01*
X214220123Y-370749D01*
X213879250Y-29876D01*
X213875823Y-21603D01*
X213877382Y-15768D01*
X214328037Y766967D01*
X214335134Y772427D01*
X214344014Y771269D01*
G37*
%TD.AperFunction*%
%TD*%
%TA.AperFunction,Conductor*%
%TO.N,GND*%
G36*
X222839836Y-10010480D02*
G01*
X222840961Y-10011901D01*
X222997981Y-10245243D01*
X222999757Y-10254020D01*
X222999745Y-10254079D01*
X222943458Y-10534351D01*
X222938469Y-10541787D01*
X222931403Y-10543732D01*
X222565692Y-10525456D01*
X222558003Y-10522044D01*
X222428363Y-10392404D01*
X222424936Y-10384131D01*
X222428363Y-10375858D01*
X222428683Y-10375549D01*
X222823302Y-10009850D01*
X222831699Y-10006741D01*
X222839836Y-10010480D01*
G37*
%TD.AperFunction*%
%TD*%
%TA.AperFunction,Conductor*%
%TO.N,/L*%
G36*
X221914344Y3930883D02*
G01*
X221915193Y3929373D01*
X222147422Y3432953D01*
X222147823Y3424007D01*
X222145097Y3419722D01*
X222015277Y3289902D01*
X222007004Y3286475D01*
X222002051Y3287575D01*
X221505625Y3519806D01*
X221499585Y3526416D01*
X221499986Y3535362D01*
X221500835Y3536872D01*
X221657984Y3773734D01*
X221661265Y3777015D01*
X221898127Y3934164D01*
X221906915Y3935883D01*
X221914344Y3930883D01*
G37*
%TD.AperFunction*%
%TD*%
%TA.AperFunction,Conductor*%
%TO.N,/ECB1*%
G36*
X241771005Y-18873355D02*
G01*
X242504219Y-19364252D01*
X242509187Y-19371702D01*
X242508152Y-19379252D01*
X241867746Y-20646285D01*
X241860956Y-20652123D01*
X241857304Y-20652707D01*
X241671696Y-20652707D01*
X241663423Y-20649280D01*
X241661254Y-20646285D01*
X241020847Y-19379252D01*
X241020173Y-19370322D01*
X241024778Y-19364254D01*
X241757992Y-18873356D01*
X241766772Y-18871602D01*
X241771005Y-18873355D01*
G37*
%TD.AperFunction*%
%TD*%
%TA.AperFunction,Conductor*%
%TO.N,/ECB2*%
G36*
X236691005Y-18873355D02*
G01*
X237424219Y-19364252D01*
X237429187Y-19371702D01*
X237428152Y-19379252D01*
X236787746Y-20646285D01*
X236780956Y-20652123D01*
X236777304Y-20652707D01*
X236591696Y-20652707D01*
X236583423Y-20649280D01*
X236581254Y-20646285D01*
X235940847Y-19379252D01*
X235940173Y-19370322D01*
X235944778Y-19364254D01*
X236677992Y-18873356D01*
X236686772Y-18871602D01*
X236691005Y-18873355D01*
G37*
%TD.AperFunction*%
%TD*%
%TA.AperFunction,Conductor*%
%TO.N,/NRST*%
G36*
X205071282Y-9210389D02*
G01*
X205586525Y-9397204D01*
X205593134Y-9403244D01*
X205594236Y-9408202D01*
X205594236Y-9591797D01*
X205590809Y-9600070D01*
X205586524Y-9602796D01*
X205071290Y-9789608D01*
X205062344Y-9789207D01*
X205056303Y-9782597D01*
X205055837Y-9780939D01*
X204999469Y-9502318D01*
X204999469Y-9497680D01*
X205055835Y-9219067D01*
X205060834Y-9211641D01*
X205069622Y-9209922D01*
X205071282Y-9210389D01*
G37*
%TD.AperFunction*%
%TD*%
%TA.AperFunction,Conductor*%
%TO.N,/NRST*%
G36*
X224907949Y-9762576D02*
G01*
X225218713Y-9907953D01*
X225404373Y-9994806D01*
X225410414Y-10001416D01*
X225410013Y-10010362D01*
X225409164Y-10011872D01*
X225252015Y-10248734D01*
X225248734Y-10252015D01*
X225011872Y-10409164D01*
X225003084Y-10410883D01*
X224995655Y-10405883D01*
X224994806Y-10404373D01*
X224921997Y-10248734D01*
X224762576Y-9907951D01*
X224762176Y-9899007D01*
X224764900Y-9894724D01*
X224894723Y-9764901D01*
X224902995Y-9761475D01*
X224907949Y-9762576D01*
G37*
%TD.AperFunction*%
%TD*%
%TA.AperFunction,Conductor*%
%TO.N,/NRST*%
G36*
X232504344Y-14094116D02*
G01*
X232505193Y-14095626D01*
X232577080Y-14249293D01*
X232696791Y-14505193D01*
X232737422Y-14592046D01*
X232737823Y-14600992D01*
X232735097Y-14605277D01*
X232605277Y-14735097D01*
X232597004Y-14738524D01*
X232592047Y-14737422D01*
X232441428Y-14666961D01*
X232095626Y-14505193D01*
X232089585Y-14498583D01*
X232089986Y-14489637D01*
X232090835Y-14488127D01*
X232247985Y-14251263D01*
X232251263Y-14247985D01*
X232488127Y-14090834D01*
X232496915Y-14089116D01*
X232504344Y-14094116D01*
G37*
%TD.AperFunction*%
%TD*%
%TA.AperFunction,Conductor*%
%TO.N,/NRST*%
G36*
X196780930Y-11055835D02*
G01*
X196788358Y-11060834D01*
X196790077Y-11069622D01*
X196789608Y-11071290D01*
X196602796Y-11586524D01*
X196596755Y-11593134D01*
X196591797Y-11594236D01*
X196408203Y-11594236D01*
X196399930Y-11590809D01*
X196397204Y-11586524D01*
X196349544Y-11455078D01*
X196210391Y-11071288D01*
X196210792Y-11062344D01*
X196217402Y-11056303D01*
X196219056Y-11055837D01*
X196497682Y-10999469D01*
X196502318Y-10999469D01*
X196780930Y-11055835D01*
G37*
%TD.AperFunction*%
%TD*%
%TA.AperFunction,Conductor*%
%TO.N,/MCU.CS*%
G36*
X174473971Y-33563292D02*
G01*
X174480012Y-33569902D01*
X174480481Y-33571570D01*
X174536846Y-33850180D01*
X174536846Y-33854820D01*
X174480481Y-34133429D01*
X174475481Y-34140858D01*
X174466693Y-34142577D01*
X174465025Y-34142108D01*
X173949792Y-33955296D01*
X173943182Y-33949255D01*
X173942080Y-33944297D01*
X173942080Y-33760702D01*
X173945507Y-33752429D01*
X173949789Y-33749704D01*
X174465027Y-33562891D01*
X174473971Y-33563292D01*
G37*
%TD.AperFunction*%
%TD*%
%TA.AperFunction,Conductor*%
%TO.N,/D+*%
G36*
X186135362Y-7964986D02*
G01*
X186136872Y-7965835D01*
X186373734Y-8122984D01*
X186377015Y-8126265D01*
X186534164Y-8363127D01*
X186535883Y-8371915D01*
X186530883Y-8379344D01*
X186529373Y-8380193D01*
X186032953Y-8612422D01*
X186024007Y-8612823D01*
X186019722Y-8610097D01*
X185889902Y-8480277D01*
X185886475Y-8472004D01*
X185887575Y-8467051D01*
X186119806Y-7970625D01*
X186126416Y-7964585D01*
X186135362Y-7964986D01*
G37*
%TD.AperFunction*%
%TD*%
%TA.AperFunction,Conductor*%
%TO.N,/D+*%
G36*
X208504344Y6905883D02*
G01*
X208505193Y6904373D01*
X208737422Y6407953D01*
X208737823Y6399007D01*
X208735097Y6394722D01*
X208605277Y6264902D01*
X208597004Y6261475D01*
X208592051Y6262575D01*
X208095625Y6494806D01*
X208089585Y6501416D01*
X208089986Y6510362D01*
X208090835Y6511872D01*
X208247984Y6748734D01*
X208251265Y6752015D01*
X208488127Y6909164D01*
X208496915Y6910883D01*
X208504344Y6905883D01*
G37*
%TD.AperFunction*%
%TD*%
%TA.AperFunction,Conductor*%
%TO.N,/LCD.BK*%
G36*
X187280930Y-3055835D02*
G01*
X187288358Y-3060834D01*
X187290077Y-3069622D01*
X187289608Y-3071290D01*
X187102796Y-3586524D01*
X187096755Y-3593134D01*
X187091797Y-3594236D01*
X186908203Y-3594236D01*
X186899930Y-3590809D01*
X186897204Y-3586524D01*
X186849544Y-3455078D01*
X186710391Y-3071288D01*
X186710792Y-3062344D01*
X186717402Y-3056303D01*
X186719056Y-3055837D01*
X186997682Y-2999469D01*
X187002318Y-2999469D01*
X187280930Y-3055835D01*
G37*
%TD.AperFunction*%
%TD*%
%TA.AperFunction,Conductor*%
%TO.N,/LCD.BK*%
G36*
X181437655Y-2460792D02*
G01*
X181443696Y-2467402D01*
X181444165Y-2469070D01*
X181500530Y-2747680D01*
X181500530Y-2752320D01*
X181444165Y-3030929D01*
X181439165Y-3038358D01*
X181430377Y-3040077D01*
X181428709Y-3039608D01*
X180913476Y-2852796D01*
X180906866Y-2846755D01*
X180905764Y-2841797D01*
X180905764Y-2658202D01*
X180909191Y-2649929D01*
X180913473Y-2647204D01*
X181428711Y-2460391D01*
X181437655Y-2460792D01*
G37*
%TD.AperFunction*%
%TD*%
%TA.AperFunction,Conductor*%
%TO.N,/BCK*%
G36*
X213010362Y-19589986D02*
G01*
X213011872Y-19590835D01*
X213248734Y-19747984D01*
X213252015Y-19751265D01*
X213409164Y-19988127D01*
X213410883Y-19996915D01*
X213405883Y-20004344D01*
X213404373Y-20005193D01*
X212907953Y-20237422D01*
X212899007Y-20237823D01*
X212894722Y-20235097D01*
X212764902Y-20105277D01*
X212761475Y-20097004D01*
X212762575Y-20092051D01*
X212994806Y-19595625D01*
X213001416Y-19589585D01*
X213010362Y-19589986D01*
G37*
%TD.AperFunction*%
%TD*%
%TA.AperFunction,Conductor*%
%TO.N,/BCK*%
G36*
X216071282Y-19460389D02*
G01*
X216586525Y-19647204D01*
X216593134Y-19653244D01*
X216594236Y-19658202D01*
X216594236Y-19841797D01*
X216590809Y-19850070D01*
X216586524Y-19852796D01*
X216071290Y-20039608D01*
X216062344Y-20039207D01*
X216056303Y-20032597D01*
X216055837Y-20030939D01*
X215999469Y-19752318D01*
X215999469Y-19747680D01*
X216055835Y-19469067D01*
X216060834Y-19461641D01*
X216069622Y-19459922D01*
X216071282Y-19460389D01*
G37*
%TD.AperFunction*%
%TD*%
%TA.AperFunction,Conductor*%
%TO.N,/LCD.CS*%
G36*
X187657953Y487422D02*
G01*
X188154373Y255193D01*
X188160414Y248583D01*
X188160013Y239637D01*
X188159164Y238127D01*
X188002015Y1265D01*
X187998734Y-2016D01*
X187761872Y-159164D01*
X187753084Y-160883D01*
X187745655Y-155883D01*
X187744806Y-154373D01*
X187672920Y-707D01*
X187512576Y342048D01*
X187512176Y350992D01*
X187514902Y355277D01*
X187644722Y485097D01*
X187652995Y488524D01*
X187657953Y487422D01*
G37*
%TD.AperFunction*%
%TD*%
%TA.AperFunction,Conductor*%
%TO.N,/LCD.CS*%
G36*
X185254344Y-3344116D02*
G01*
X185255193Y-3345626D01*
X185327080Y-3499293D01*
X185446791Y-3755193D01*
X185487422Y-3842046D01*
X185487823Y-3850992D01*
X185485097Y-3855277D01*
X185355277Y-3985097D01*
X185347004Y-3988524D01*
X185342047Y-3987422D01*
X185191428Y-3916961D01*
X184845626Y-3755193D01*
X184839585Y-3748583D01*
X184839986Y-3739637D01*
X184840835Y-3738127D01*
X184997985Y-3501263D01*
X185001263Y-3497985D01*
X185238127Y-3340834D01*
X185246915Y-3339116D01*
X185254344Y-3344116D01*
G37*
%TD.AperFunction*%
%TD*%
%TA.AperFunction,Conductor*%
%TO.N,/XY.SDA*%
G36*
X173004344Y-9844116D02*
G01*
X173005193Y-9845626D01*
X173077080Y-9999293D01*
X173196791Y-10255193D01*
X173237422Y-10342046D01*
X173237823Y-10350992D01*
X173235097Y-10355277D01*
X173105277Y-10485097D01*
X173097004Y-10488524D01*
X173092047Y-10487422D01*
X172941428Y-10416961D01*
X172595626Y-10255193D01*
X172589585Y-10248583D01*
X172589986Y-10239637D01*
X172590835Y-10238127D01*
X172747985Y-10001263D01*
X172751263Y-9997985D01*
X172988127Y-9840834D01*
X172996915Y-9839116D01*
X173004344Y-9844116D01*
G37*
%TD.AperFunction*%
%TD*%
%TA.AperFunction,Conductor*%
%TO.N,/XY.SDA*%
G36*
X172687655Y-9710792D02*
G01*
X172693696Y-9717402D01*
X172694165Y-9719070D01*
X172750530Y-9997680D01*
X172750530Y-10002320D01*
X172694165Y-10280929D01*
X172689165Y-10288358D01*
X172680377Y-10290077D01*
X172678709Y-10289608D01*
X172163476Y-10102796D01*
X172156866Y-10096755D01*
X172155764Y-10091797D01*
X172155764Y-9908202D01*
X172159191Y-9899929D01*
X172163473Y-9897204D01*
X172678711Y-9710391D01*
X172687655Y-9710792D01*
G37*
%TD.AperFunction*%
%TD*%
%TA.AperFunction,Conductor*%
%TO.N,/XY.SDA*%
G36*
X172010362Y-11839986D02*
G01*
X172011872Y-11840835D01*
X172248734Y-11997984D01*
X172252015Y-12001265D01*
X172409164Y-12238127D01*
X172410883Y-12246915D01*
X172405883Y-12254344D01*
X172404373Y-12255193D01*
X171907953Y-12487422D01*
X171899007Y-12487823D01*
X171894722Y-12485097D01*
X171764902Y-12355277D01*
X171761475Y-12347004D01*
X171762575Y-12342051D01*
X171994806Y-11845625D01*
X172001416Y-11839585D01*
X172010362Y-11839986D01*
G37*
%TD.AperFunction*%
%TD*%
%TA.AperFunction,Conductor*%
%TO.N,/BTN9*%
G36*
X217254344Y-30594116D02*
G01*
X217255193Y-30595626D01*
X217327080Y-30749293D01*
X217446791Y-31005193D01*
X217487422Y-31092046D01*
X217487823Y-31100992D01*
X217485097Y-31105277D01*
X217355277Y-31235097D01*
X217347004Y-31238524D01*
X217342047Y-31237422D01*
X217191428Y-31166961D01*
X216845626Y-31005193D01*
X216839585Y-30998583D01*
X216839986Y-30989637D01*
X216840835Y-30988127D01*
X216997985Y-30751263D01*
X217001263Y-30747985D01*
X217238127Y-30590834D01*
X217246915Y-30589116D01*
X217254344Y-30594116D01*
G37*
%TD.AperFunction*%
%TD*%
%TA.AperFunction,Conductor*%
%TO.N,/BTN9*%
G36*
X241757524Y-33367772D02*
G01*
X241764973Y-33372739D01*
X241766728Y-33376976D01*
X241938070Y-34242550D01*
X241936315Y-34251331D01*
X241930245Y-34255938D01*
X240581483Y-34699028D01*
X240572553Y-34698354D01*
X240569558Y-34696185D01*
X240438314Y-34564941D01*
X240434887Y-34556668D01*
X240435469Y-34553022D01*
X240878562Y-33204252D01*
X240884399Y-33197464D01*
X240891947Y-33196429D01*
X241757524Y-33367772D01*
G37*
%TD.AperFunction*%
%TD*%
%TA.AperFunction,Conductor*%
%TO.N,/BTN9*%
G36*
X213782949Y-27387576D02*
G01*
X214093713Y-27532953D01*
X214279373Y-27619806D01*
X214285414Y-27626416D01*
X214285013Y-27635362D01*
X214284164Y-27636872D01*
X214127015Y-27873734D01*
X214123734Y-27877015D01*
X213886872Y-28034164D01*
X213878084Y-28035883D01*
X213870655Y-28030883D01*
X213869806Y-28029373D01*
X213796997Y-27873734D01*
X213637576Y-27532951D01*
X213637176Y-27524007D01*
X213639900Y-27519724D01*
X213769723Y-27389901D01*
X213777995Y-27386475D01*
X213782949Y-27387576D01*
G37*
%TD.AperFunction*%
%TD*%
%TA.AperFunction,Conductor*%
%TO.N,/BTN9*%
G36*
X211754344Y-25094116D02*
G01*
X211755193Y-25095626D01*
X211827080Y-25249293D01*
X211946791Y-25505193D01*
X211987422Y-25592046D01*
X211987823Y-25600992D01*
X211985097Y-25605277D01*
X211855277Y-25735097D01*
X211847004Y-25738524D01*
X211842047Y-25737422D01*
X211691428Y-25666961D01*
X211345626Y-25505193D01*
X211339585Y-25498583D01*
X211339986Y-25489637D01*
X211340835Y-25488127D01*
X211497985Y-25251263D01*
X211501263Y-25247985D01*
X211738127Y-25090834D01*
X211746915Y-25089116D01*
X211754344Y-25094116D01*
G37*
%TD.AperFunction*%
%TD*%
%TA.AperFunction,Conductor*%
%TO.N,/D-*%
G36*
X187635362Y-7964986D02*
G01*
X187636872Y-7965835D01*
X187873734Y-8122984D01*
X187877015Y-8126265D01*
X188034164Y-8363127D01*
X188035883Y-8371915D01*
X188030883Y-8379344D01*
X188029373Y-8380193D01*
X187532953Y-8612422D01*
X187524007Y-8612823D01*
X187519722Y-8610097D01*
X187389902Y-8480277D01*
X187386475Y-8472004D01*
X187387575Y-8467051D01*
X187619806Y-7970625D01*
X187626416Y-7964585D01*
X187635362Y-7964986D01*
G37*
%TD.AperFunction*%
%TD*%
%TA.AperFunction,Conductor*%
%TO.N,/D-*%
G36*
X210355277Y7735097D02*
G01*
X210485097Y7605277D01*
X210488524Y7597004D01*
X210487422Y7592047D01*
X210446394Y7504344D01*
X210255193Y7095626D01*
X210248583Y7089585D01*
X210239637Y7089986D01*
X210238131Y7090832D01*
X210001263Y7247985D01*
X209997985Y7251263D01*
X209840834Y7488127D01*
X209839116Y7496915D01*
X209844116Y7504344D01*
X209845626Y7505193D01*
X210191428Y7666961D01*
X210342046Y7737422D01*
X210350992Y7737823D01*
X210355277Y7735097D01*
G37*
%TD.AperFunction*%
%TD*%
%TA.AperFunction,Conductor*%
%TO.N,/BOOT0*%
G36*
X195657949Y-8262576D02*
G01*
X195968713Y-8407953D01*
X196154373Y-8494806D01*
X196160414Y-8501416D01*
X196160013Y-8510362D01*
X196159164Y-8511872D01*
X196002015Y-8748734D01*
X195998734Y-8752015D01*
X195761872Y-8909164D01*
X195753084Y-8910883D01*
X195745655Y-8905883D01*
X195744806Y-8904373D01*
X195671997Y-8748734D01*
X195512576Y-8407951D01*
X195512176Y-8399007D01*
X195514900Y-8394724D01*
X195644723Y-8264901D01*
X195652995Y-8261475D01*
X195657949Y-8262576D01*
G37*
%TD.AperFunction*%
%TD*%
%TA.AperFunction,Conductor*%
%TO.N,/BOOT0*%
G36*
X232504344Y-11594116D02*
G01*
X232505193Y-11595626D01*
X232577080Y-11749293D01*
X232696791Y-12005193D01*
X232737422Y-12092046D01*
X232737823Y-12100992D01*
X232735097Y-12105277D01*
X232605277Y-12235097D01*
X232597004Y-12238524D01*
X232592047Y-12237422D01*
X232441428Y-12166961D01*
X232095626Y-12005193D01*
X232089585Y-11998583D01*
X232089986Y-11989637D01*
X232090835Y-11988127D01*
X232247985Y-11751263D01*
X232251263Y-11747985D01*
X232488127Y-11590834D01*
X232496915Y-11589116D01*
X232504344Y-11594116D01*
G37*
%TD.AperFunction*%
%TD*%
%TA.AperFunction,Conductor*%
%TO.N,/BOOT0*%
G36*
X204321282Y-8460389D02*
G01*
X204836525Y-8647204D01*
X204843134Y-8653244D01*
X204844236Y-8658202D01*
X204844236Y-8841797D01*
X204840809Y-8850070D01*
X204836524Y-8852796D01*
X204321290Y-9039608D01*
X204312344Y-9039207D01*
X204306303Y-9032597D01*
X204305837Y-9030939D01*
X204249469Y-8752318D01*
X204249469Y-8747680D01*
X204305835Y-8469067D01*
X204310834Y-8461641D01*
X204319622Y-8459922D01*
X204321282Y-8460389D01*
G37*
%TD.AperFunction*%
%TD*%
%TA.AperFunction,Conductor*%
%TO.N,/BOOT0*%
G36*
X226532949Y-9387576D02*
G01*
X226843713Y-9532953D01*
X227029373Y-9619806D01*
X227035414Y-9626416D01*
X227035013Y-9635362D01*
X227034164Y-9636872D01*
X226877015Y-9873734D01*
X226873734Y-9877015D01*
X226636872Y-10034164D01*
X226628084Y-10035883D01*
X226620655Y-10030883D01*
X226619806Y-10029373D01*
X226546997Y-9873734D01*
X226387576Y-9532951D01*
X226387176Y-9524007D01*
X226389900Y-9519724D01*
X226519723Y-9389901D01*
X226527995Y-9386475D01*
X226532949Y-9387576D01*
G37*
%TD.AperFunction*%
%TD*%
%TA.AperFunction,Conductor*%
%TO.N,/BTN10*%
G36*
X240532483Y9899028D02*
G01*
X241881245Y9455938D01*
X241888035Y9450100D01*
X241889070Y9442550D01*
X241717728Y8576976D01*
X241712760Y8569526D01*
X241708527Y8567772D01*
X240842947Y8396429D01*
X240834168Y8398184D01*
X240829562Y8404251D01*
X240386471Y9753018D01*
X240387145Y9761946D01*
X240389314Y9764941D01*
X240520558Y9896185D01*
X240528831Y9899612D01*
X240532483Y9899028D01*
G37*
%TD.AperFunction*%
%TD*%
%TA.AperFunction,Conductor*%
%TO.N,/LCD.DC*%
G36*
X187254344Y-1844116D02*
G01*
X187255193Y-1845626D01*
X187327080Y-1999293D01*
X187446791Y-2255193D01*
X187487422Y-2342046D01*
X187487823Y-2350992D01*
X187485097Y-2355277D01*
X187355277Y-2485097D01*
X187347004Y-2488524D01*
X187342047Y-2487422D01*
X187191428Y-2416961D01*
X186845626Y-2255193D01*
X186839585Y-2248583D01*
X186839986Y-2239637D01*
X186840835Y-2238127D01*
X186997985Y-2001263D01*
X187001263Y-1997985D01*
X187238127Y-1840834D01*
X187246915Y-1839116D01*
X187254344Y-1844116D01*
G37*
%TD.AperFunction*%
%TD*%
%TA.AperFunction,Conductor*%
%TO.N,/LCD.DC*%
G36*
X188157953Y1737422D02*
G01*
X188654373Y1505193D01*
X188660414Y1498583D01*
X188660013Y1489637D01*
X188659164Y1488127D01*
X188502015Y1251265D01*
X188498734Y1247984D01*
X188261872Y1090835D01*
X188253084Y1089116D01*
X188245655Y1094116D01*
X188244806Y1095626D01*
X188173532Y1247984D01*
X188012576Y1592048D01*
X188012176Y1600992D01*
X188014902Y1605277D01*
X188144722Y1735097D01*
X188152995Y1738524D01*
X188157953Y1737422D01*
G37*
%TD.AperFunction*%
%TD*%
%TA.AperFunction,Conductor*%
%TO.N,/SWD*%
G36*
X165530929Y9944165D02*
G01*
X165538358Y9939165D01*
X165540077Y9930377D01*
X165539608Y9928709D01*
X165352796Y9413476D01*
X165346755Y9406866D01*
X165341797Y9405764D01*
X165158203Y9405764D01*
X165149930Y9409191D01*
X165147204Y9413476D01*
X165114759Y9502958D01*
X164960391Y9928711D01*
X164960792Y9937655D01*
X164967402Y9943696D01*
X164969070Y9944165D01*
X165247680Y10000530D01*
X165252320Y10000530D01*
X165530929Y9944165D01*
G37*
%TD.AperFunction*%
%TD*%
%TA.AperFunction,Conductor*%
%TO.N,/CLK*%
G36*
X177437655Y-7460792D02*
G01*
X177443696Y-7467402D01*
X177444165Y-7469070D01*
X177500530Y-7747680D01*
X177500530Y-7752320D01*
X177444165Y-8030929D01*
X177439165Y-8038358D01*
X177430377Y-8040077D01*
X177428709Y-8039608D01*
X176913476Y-7852796D01*
X176906866Y-7846755D01*
X176905764Y-7841797D01*
X176905764Y-7658202D01*
X176909191Y-7649929D01*
X176913473Y-7647204D01*
X177428711Y-7460391D01*
X177437655Y-7460792D01*
G37*
%TD.AperFunction*%
%TD*%
%TA.AperFunction,Conductor*%
%TO.N,/CLK*%
G36*
X164071290Y11539608D02*
G01*
X164586524Y11352796D01*
X164593134Y11346755D01*
X164594236Y11341797D01*
X164594236Y11158202D01*
X164590809Y11149929D01*
X164586526Y11147204D01*
X164071288Y10960391D01*
X164062344Y10960792D01*
X164056303Y10967402D01*
X164055837Y10969056D01*
X163999469Y11247681D01*
X163999469Y11252320D01*
X164017571Y11341797D01*
X164055835Y11530930D01*
X164060834Y11538358D01*
X164069622Y11540077D01*
X164071290Y11539608D01*
G37*
%TD.AperFunction*%
%TD*%
%TA.AperFunction,Conductor*%
%TO.N,/CLK*%
G36*
X184504344Y-5094116D02*
G01*
X184505193Y-5095626D01*
X184577080Y-5249293D01*
X184696791Y-5505193D01*
X184737422Y-5592046D01*
X184737823Y-5600992D01*
X184735097Y-5605277D01*
X184605277Y-5735097D01*
X184597004Y-5738524D01*
X184592047Y-5737422D01*
X184441428Y-5666961D01*
X184095626Y-5505193D01*
X184089585Y-5498583D01*
X184089986Y-5489637D01*
X184090835Y-5488127D01*
X184247985Y-5251263D01*
X184251263Y-5247985D01*
X184488127Y-5090834D01*
X184496915Y-5089116D01*
X184504344Y-5094116D01*
G37*
%TD.AperFunction*%
%TD*%
%TA.AperFunction,Conductor*%
%TO.N,/RX*%
G36*
X167157953Y10987422D02*
G01*
X167654373Y10755193D01*
X167660414Y10748583D01*
X167660013Y10739637D01*
X167659164Y10738127D01*
X167502015Y10501265D01*
X167498734Y10497984D01*
X167261872Y10340835D01*
X167253084Y10339116D01*
X167245655Y10344116D01*
X167244806Y10345626D01*
X167173532Y10497984D01*
X167012576Y10842048D01*
X167012176Y10850992D01*
X167014902Y10855277D01*
X167144722Y10985097D01*
X167152995Y10988524D01*
X167157953Y10987422D01*
G37*
%TD.AperFunction*%
%TD*%
%TA.AperFunction,Conductor*%
%TO.N,/RX*%
G36*
X164280929Y6944165D02*
G01*
X164288358Y6939165D01*
X164290077Y6930377D01*
X164289608Y6928709D01*
X164102796Y6413476D01*
X164096755Y6406866D01*
X164091797Y6405764D01*
X163908203Y6405764D01*
X163899930Y6409191D01*
X163897204Y6413476D01*
X163864759Y6502958D01*
X163710391Y6928711D01*
X163710792Y6937655D01*
X163717402Y6943696D01*
X163719070Y6944165D01*
X163997680Y7000530D01*
X164002320Y7000530D01*
X164280929Y6944165D01*
G37*
%TD.AperFunction*%
%TD*%
%TA.AperFunction,Conductor*%
%TO.N,GND*%
G36*
X170424977Y-30759174D02*
G01*
X170426723Y-30760611D01*
X170762685Y-31096573D01*
X170766112Y-31104846D01*
X170766112Y-31288182D01*
X170762685Y-31296455D01*
X170754412Y-31299882D01*
X170754295Y-31299881D01*
X170205537Y-31294377D01*
X170197298Y-31290868D01*
X170193955Y-31282561D01*
X170194170Y-31280440D01*
X170248547Y-31002314D01*
X170250317Y-30998040D01*
X170408740Y-30762356D01*
X170416199Y-30757403D01*
X170424977Y-30759174D01*
G37*
%TD.AperFunction*%
%TD*%
%TA.AperFunction,Conductor*%
%TO.N,GND*%
G36*
X173903549Y-30910792D02*
G01*
X173909590Y-30917402D01*
X173910059Y-30919070D01*
X173966424Y-31197680D01*
X173966424Y-31202320D01*
X173910059Y-31480929D01*
X173905059Y-31488358D01*
X173896271Y-31490077D01*
X173894603Y-31489608D01*
X173379370Y-31302796D01*
X173372760Y-31296755D01*
X173371658Y-31291797D01*
X173371658Y-31108202D01*
X173375085Y-31099929D01*
X173379367Y-31097204D01*
X173894605Y-30910391D01*
X173903549Y-30910792D01*
G37*
%TD.AperFunction*%
%TD*%
M02*
