%TF.GenerationSoftware,KiCad,Pcbnew,9.0.0*%
%TF.CreationDate,2025-04-11T20:43:28+08:00*%
%TF.ProjectId,wgr,7767722e-6b69-4636-9164-5f7063625858,rev?*%
%TF.SameCoordinates,Original*%
%TF.FileFunction,Legend,Top*%
%TF.FilePolarity,Positive*%
%FSLAX46Y46*%
G04 Gerber Fmt 4.6, Leading zero omitted, Abs format (unit mm)*
G04 Created by KiCad (PCBNEW 9.0.0) date 2025-04-11 20:43:28*
%MOMM*%
%LPD*%
G01*
G04 APERTURE LIST*
%ADD10C,0.100000*%
%ADD11C,0.254000*%
%ADD12C,0.120000*%
%ADD13R,0.760000X6.000000*%
%ADD14C,3.200000*%
%ADD15R,2.100000X2.000000*%
%ADD16O,2.300000X4.000000*%
%ADD17C,1.800000*%
%ADD18R,1.000000X2.500000*%
%ADD19C,0.650000*%
%ADD20O,1.000000X1.800000*%
%ADD21O,1.000000X2.100000*%
G04 APERTURE END LIST*
D10*
X152000000Y9400000D02*
X231000000Y9400000D01*
X231000000Y-33600000D01*
X152000000Y-33600000D01*
X152000000Y9400000D01*
X171053884Y13627580D02*
X171053884Y14294247D01*
X171053884Y14103771D02*
X171101503Y14199009D01*
X171101503Y14199009D02*
X171149122Y14246628D01*
X171149122Y14246628D02*
X171244360Y14294247D01*
X171244360Y14294247D02*
X171339598Y14294247D01*
X171625313Y13675200D02*
X171720551Y13627580D01*
X171720551Y13627580D02*
X171911027Y13627580D01*
X171911027Y13627580D02*
X172006265Y13675200D01*
X172006265Y13675200D02*
X172053884Y13770438D01*
X172053884Y13770438D02*
X172053884Y13818057D01*
X172053884Y13818057D02*
X172006265Y13913295D01*
X172006265Y13913295D02*
X171911027Y13960914D01*
X171911027Y13960914D02*
X171768170Y13960914D01*
X171768170Y13960914D02*
X171672932Y14008533D01*
X171672932Y14008533D02*
X171625313Y14103771D01*
X171625313Y14103771D02*
X171625313Y14151390D01*
X171625313Y14151390D02*
X171672932Y14246628D01*
X171672932Y14246628D02*
X171768170Y14294247D01*
X171768170Y14294247D02*
X171911027Y14294247D01*
X171911027Y14294247D02*
X172006265Y14246628D01*
X172339599Y14294247D02*
X172720551Y14294247D01*
X172482456Y14627580D02*
X172482456Y13770438D01*
X172482456Y13770438D02*
X172530075Y13675200D01*
X172530075Y13675200D02*
X172625313Y13627580D01*
X172625313Y13627580D02*
X172720551Y13627580D01*
X174244361Y14294247D02*
X174244361Y13484723D01*
X174244361Y13484723D02*
X174196742Y13389485D01*
X174196742Y13389485D02*
X174149123Y13341866D01*
X174149123Y13341866D02*
X174053885Y13294247D01*
X174053885Y13294247D02*
X173911028Y13294247D01*
X173911028Y13294247D02*
X173815790Y13341866D01*
X174244361Y13675200D02*
X174149123Y13627580D01*
X174149123Y13627580D02*
X173958647Y13627580D01*
X173958647Y13627580D02*
X173863409Y13675200D01*
X173863409Y13675200D02*
X173815790Y13722819D01*
X173815790Y13722819D02*
X173768171Y13818057D01*
X173768171Y13818057D02*
X173768171Y14103771D01*
X173768171Y14103771D02*
X173815790Y14199009D01*
X173815790Y14199009D02*
X173863409Y14246628D01*
X173863409Y14246628D02*
X173958647Y14294247D01*
X173958647Y14294247D02*
X174149123Y14294247D01*
X174149123Y14294247D02*
X174244361Y14246628D01*
X174720552Y14294247D02*
X174720552Y13627580D01*
X174720552Y14199009D02*
X174768171Y14246628D01*
X174768171Y14246628D02*
X174863409Y14294247D01*
X174863409Y14294247D02*
X175006266Y14294247D01*
X175006266Y14294247D02*
X175101504Y14246628D01*
X175101504Y14246628D02*
X175149123Y14151390D01*
X175149123Y14151390D02*
X175149123Y13627580D01*
X176053885Y13627580D02*
X176053885Y14627580D01*
X176053885Y13675200D02*
X175958647Y13627580D01*
X175958647Y13627580D02*
X175768171Y13627580D01*
X175768171Y13627580D02*
X175672933Y13675200D01*
X175672933Y13675200D02*
X175625314Y13722819D01*
X175625314Y13722819D02*
X175577695Y13818057D01*
X175577695Y13818057D02*
X175577695Y14103771D01*
X175577695Y14103771D02*
X175625314Y14199009D01*
X175625314Y14199009D02*
X175672933Y14246628D01*
X175672933Y14246628D02*
X175768171Y14294247D01*
X175768171Y14294247D02*
X175958647Y14294247D01*
X175958647Y14294247D02*
X176053885Y14246628D01*
X177720552Y13675200D02*
X177625314Y13627580D01*
X177625314Y13627580D02*
X177434838Y13627580D01*
X177434838Y13627580D02*
X177339600Y13675200D01*
X177339600Y13675200D02*
X177291981Y13722819D01*
X177291981Y13722819D02*
X177244362Y13818057D01*
X177244362Y13818057D02*
X177244362Y14103771D01*
X177244362Y14103771D02*
X177291981Y14199009D01*
X177291981Y14199009D02*
X177339600Y14246628D01*
X177339600Y14246628D02*
X177434838Y14294247D01*
X177434838Y14294247D02*
X177625314Y14294247D01*
X177625314Y14294247D02*
X177720552Y14246628D01*
X178291981Y13627580D02*
X178196743Y13675200D01*
X178196743Y13675200D02*
X178149124Y13770438D01*
X178149124Y13770438D02*
X178149124Y14627580D01*
X178672934Y13627580D02*
X178672934Y14627580D01*
X178768172Y14008533D02*
X179053886Y13627580D01*
X179053886Y14294247D02*
X178672934Y13913295D01*
X180196744Y13675200D02*
X180291982Y13627580D01*
X180291982Y13627580D02*
X180482458Y13627580D01*
X180482458Y13627580D02*
X180577696Y13675200D01*
X180577696Y13675200D02*
X180625315Y13770438D01*
X180625315Y13770438D02*
X180625315Y13818057D01*
X180625315Y13818057D02*
X180577696Y13913295D01*
X180577696Y13913295D02*
X180482458Y13960914D01*
X180482458Y13960914D02*
X180339601Y13960914D01*
X180339601Y13960914D02*
X180244363Y14008533D01*
X180244363Y14008533D02*
X180196744Y14103771D01*
X180196744Y14103771D02*
X180196744Y14151390D01*
X180196744Y14151390D02*
X180244363Y14246628D01*
X180244363Y14246628D02*
X180339601Y14294247D01*
X180339601Y14294247D02*
X180482458Y14294247D01*
X180482458Y14294247D02*
X180577696Y14246628D01*
X180958649Y14294247D02*
X181149125Y13627580D01*
X181149125Y13627580D02*
X181339601Y14103771D01*
X181339601Y14103771D02*
X181530077Y13627580D01*
X181530077Y13627580D02*
X181720553Y14294247D01*
X182530077Y13627580D02*
X182530077Y14627580D01*
X182530077Y13675200D02*
X182434839Y13627580D01*
X182434839Y13627580D02*
X182244363Y13627580D01*
X182244363Y13627580D02*
X182149125Y13675200D01*
X182149125Y13675200D02*
X182101506Y13722819D01*
X182101506Y13722819D02*
X182053887Y13818057D01*
X182053887Y13818057D02*
X182053887Y14103771D01*
X182053887Y14103771D02*
X182101506Y14199009D01*
X182101506Y14199009D02*
X182149125Y14246628D01*
X182149125Y14246628D02*
X182244363Y14294247D01*
X182244363Y14294247D02*
X182434839Y14294247D01*
X182434839Y14294247D02*
X182530077Y14246628D01*
X247205752Y-28541353D02*
X247872419Y-28303258D01*
X247872419Y-28303258D02*
X247205752Y-28065163D01*
X247872419Y-27255639D02*
X247348609Y-27255639D01*
X247348609Y-27255639D02*
X247253371Y-27303258D01*
X247253371Y-27303258D02*
X247205752Y-27398496D01*
X247205752Y-27398496D02*
X247205752Y-27588972D01*
X247205752Y-27588972D02*
X247253371Y-27684210D01*
X247824800Y-27255639D02*
X247872419Y-27350877D01*
X247872419Y-27350877D02*
X247872419Y-27588972D01*
X247872419Y-27588972D02*
X247824800Y-27684210D01*
X247824800Y-27684210D02*
X247729561Y-27731829D01*
X247729561Y-27731829D02*
X247634323Y-27731829D01*
X247634323Y-27731829D02*
X247539085Y-27684210D01*
X247539085Y-27684210D02*
X247491466Y-27588972D01*
X247491466Y-27588972D02*
X247491466Y-27350877D01*
X247491466Y-27350877D02*
X247443847Y-27255639D01*
X247872419Y-26636591D02*
X247824800Y-26731829D01*
X247824800Y-26731829D02*
X247729561Y-26779448D01*
X247729561Y-26779448D02*
X246872419Y-26779448D01*
X247205752Y-25827067D02*
X247872419Y-25827067D01*
X247205752Y-26255638D02*
X247729561Y-26255638D01*
X247729561Y-26255638D02*
X247824800Y-26208019D01*
X247824800Y-26208019D02*
X247872419Y-26112781D01*
X247872419Y-26112781D02*
X247872419Y-25969924D01*
X247872419Y-25969924D02*
X247824800Y-25874686D01*
X247824800Y-25874686D02*
X247777180Y-25827067D01*
X247824800Y-24969924D02*
X247872419Y-25065162D01*
X247872419Y-25065162D02*
X247872419Y-25255638D01*
X247872419Y-25255638D02*
X247824800Y-25350876D01*
X247824800Y-25350876D02*
X247729561Y-25398495D01*
X247729561Y-25398495D02*
X247348609Y-25398495D01*
X247348609Y-25398495D02*
X247253371Y-25350876D01*
X247253371Y-25350876D02*
X247205752Y-25255638D01*
X247205752Y-25255638D02*
X247205752Y-25065162D01*
X247205752Y-25065162D02*
X247253371Y-24969924D01*
X247253371Y-24969924D02*
X247348609Y-24922305D01*
X247348609Y-24922305D02*
X247443847Y-24922305D01*
X247443847Y-24922305D02*
X247539085Y-25398495D01*
X247205752Y-946115D02*
X248205752Y-946115D01*
X247253371Y-946115D02*
X247205752Y-850877D01*
X247205752Y-850877D02*
X247205752Y-660401D01*
X247205752Y-660401D02*
X247253371Y-565163D01*
X247253371Y-565163D02*
X247300990Y-517544D01*
X247300990Y-517544D02*
X247396228Y-469925D01*
X247396228Y-469925D02*
X247681942Y-469925D01*
X247681942Y-469925D02*
X247777180Y-517544D01*
X247777180Y-517544D02*
X247824800Y-565163D01*
X247824800Y-565163D02*
X247872419Y-660401D01*
X247872419Y-660401D02*
X247872419Y-850877D01*
X247872419Y-850877D02*
X247824800Y-946115D01*
X247872419Y387217D02*
X247348609Y387217D01*
X247348609Y387217D02*
X247253371Y339598D01*
X247253371Y339598D02*
X247205752Y244360D01*
X247205752Y244360D02*
X247205752Y53884D01*
X247205752Y53884D02*
X247253371Y-41353D01*
X247824800Y387217D02*
X247872419Y291979D01*
X247872419Y291979D02*
X247872419Y53884D01*
X247872419Y53884D02*
X247824800Y-41353D01*
X247824800Y-41353D02*
X247729561Y-88972D01*
X247729561Y-88972D02*
X247634323Y-88972D01*
X247634323Y-88972D02*
X247539085Y-41353D01*
X247539085Y-41353D02*
X247491466Y53884D01*
X247491466Y53884D02*
X247491466Y291979D01*
X247491466Y291979D02*
X247443847Y387217D01*
X247872419Y863408D02*
X247205752Y863408D01*
X247396228Y863408D02*
X247300990Y911027D01*
X247300990Y911027D02*
X247253371Y958646D01*
X247253371Y958646D02*
X247205752Y1053884D01*
X247205752Y1053884D02*
X247205752Y1149122D01*
X247872419Y1911027D02*
X247348609Y1911027D01*
X247348609Y1911027D02*
X247253371Y1863408D01*
X247253371Y1863408D02*
X247205752Y1768170D01*
X247205752Y1768170D02*
X247205752Y1577694D01*
X247205752Y1577694D02*
X247253371Y1482456D01*
X247824800Y1911027D02*
X247872419Y1815789D01*
X247872419Y1815789D02*
X247872419Y1577694D01*
X247872419Y1577694D02*
X247824800Y1482456D01*
X247824800Y1482456D02*
X247729561Y1434837D01*
X247729561Y1434837D02*
X247634323Y1434837D01*
X247634323Y1434837D02*
X247539085Y1482456D01*
X247539085Y1482456D02*
X247491466Y1577694D01*
X247491466Y1577694D02*
X247491466Y1815789D01*
X247491466Y1815789D02*
X247443847Y1911027D01*
X247872419Y2387218D02*
X247205752Y2387218D01*
X247300990Y2387218D02*
X247253371Y2434837D01*
X247253371Y2434837D02*
X247205752Y2530075D01*
X247205752Y2530075D02*
X247205752Y2672932D01*
X247205752Y2672932D02*
X247253371Y2768170D01*
X247253371Y2768170D02*
X247348609Y2815789D01*
X247348609Y2815789D02*
X247872419Y2815789D01*
X247348609Y2815789D02*
X247253371Y2863408D01*
X247253371Y2863408D02*
X247205752Y2958646D01*
X247205752Y2958646D02*
X247205752Y3101503D01*
X247205752Y3101503D02*
X247253371Y3196742D01*
X247253371Y3196742D02*
X247348609Y3244361D01*
X247348609Y3244361D02*
X247872419Y3244361D01*
D11*
%TO.C,SW6*%
X232650000Y-35327000D02*
X232650000Y-37096000D01*
X232650000Y-39558000D02*
X232650000Y-41327000D01*
X232650000Y-41327000D02*
X238650000Y-41327000D01*
X238650000Y-35327000D02*
X232650000Y-35327000D01*
X238650000Y-37096000D02*
X238650000Y-35327000D01*
X238650000Y-41327000D02*
X238650000Y-39558000D01*
X236355000Y-38278500D02*
G75*
G02*
X234857000Y-38278500I-749000J0D01*
G01*
X234857000Y-38278500D02*
G75*
G02*
X236355000Y-38278500I749000J0D01*
G01*
X237356000Y-38278500D02*
G75*
G02*
X233856000Y-38278500I-1750000J0D01*
G01*
X233856000Y-38278500D02*
G75*
G02*
X237356000Y-38278500I1750000J0D01*
G01*
%TO.C,SW9*%
X233275500Y7570000D02*
X233275500Y3742000D01*
X233275500Y7570000D02*
X233275500Y3742000D01*
X233275500Y7570000D02*
X236109500Y7570000D01*
X233275500Y-601500D02*
X233275500Y-4430000D01*
X233275500Y-601500D02*
X233275500Y-4430000D01*
X234387500Y-462000D02*
X235365500Y-462000D01*
X235124000Y3602000D02*
X234387500Y3602000D01*
X236381500Y2586000D02*
X241969500Y2586000D01*
X237161000Y7570000D02*
X241189500Y7570000D01*
X242241000Y7570000D02*
X245075500Y7570000D01*
X243963500Y3602000D02*
X243150500Y3602000D01*
X243963500Y-462000D02*
X243150500Y-462000D01*
X245075500Y3742000D02*
X245075500Y7570000D01*
X245075500Y-4430000D02*
X233275500Y-4430000D01*
X245075500Y-4430000D02*
X245075500Y-602000D01*
X240953500Y2586000D02*
G75*
G02*
X237397500Y2586000I-1778000J-994000D01*
G01*
X242223500Y1570000D02*
G75*
G02*
X236127500Y1570000I-3048000J0D01*
G01*
X236127500Y1570000D02*
G75*
G02*
X242223500Y1570000I3048000J0D01*
G01*
X242528000Y1570000D02*
G75*
G02*
X235823000Y1570000I-3352500J0D01*
G01*
X235823000Y1570000D02*
G75*
G02*
X242528000Y1570000I3352500J0D01*
G01*
X243500500Y1570000D02*
G75*
G02*
X234850500Y1570000I-4325000J0D01*
G01*
X234850500Y1570000D02*
G75*
G02*
X243500500Y1570000I4325000J0D01*
G01*
D12*
%TO.C,J2*%
X157310000Y20045000D02*
X170250000Y20045000D01*
X157310000Y17305000D02*
X157310000Y20045000D01*
X157880000Y12055000D02*
X157880000Y13625000D01*
X158260000Y26045000D02*
X159140000Y26045000D01*
X158260000Y20045000D02*
X158260000Y26045000D01*
X158260000Y15195000D02*
X158260000Y17305000D01*
X158700000Y12055000D02*
X157880000Y12055000D01*
X159140000Y26045000D02*
X159140000Y20045000D01*
X159140000Y15195000D02*
X159140000Y17305000D01*
X160800000Y26045000D02*
X161680000Y26045000D01*
X160800000Y20045000D02*
X160800000Y26045000D01*
X160800000Y15195000D02*
X160800000Y17305000D01*
X161680000Y26045000D02*
X161680000Y20045000D01*
X161680000Y15195000D02*
X161680000Y17305000D01*
X163340000Y26045000D02*
X164220000Y26045000D01*
X163340000Y20045000D02*
X163340000Y26045000D01*
X163340000Y15195000D02*
X163340000Y17305000D01*
X164220000Y26045000D02*
X164220000Y20045000D01*
X164220000Y15195000D02*
X164220000Y17305000D01*
X165880000Y26045000D02*
X166760000Y26045000D01*
X165880000Y20045000D02*
X165880000Y26045000D01*
X165880000Y15195000D02*
X165880000Y17305000D01*
X166760000Y26045000D02*
X166760000Y20045000D01*
X166760000Y15195000D02*
X166760000Y17305000D01*
X168420000Y26045000D02*
X169300000Y26045000D01*
X168420000Y20045000D02*
X168420000Y26045000D01*
X168420000Y15195000D02*
X168420000Y17305000D01*
X169300000Y26045000D02*
X169300000Y20045000D01*
X169300000Y15195000D02*
X169300000Y17305000D01*
X170250000Y20045000D02*
X170250000Y17305000D01*
X170250000Y17305000D02*
X157310000Y17305000D01*
D11*
%TO.C,SW1*%
X159150000Y-35381000D02*
X159150000Y-37150000D01*
X159150000Y-39612000D02*
X159150000Y-41381000D01*
X159150000Y-41381000D02*
X165150000Y-41381000D01*
X165150000Y-35381000D02*
X159150000Y-35381000D01*
X165150000Y-37150000D02*
X165150000Y-35381000D01*
X165150000Y-41381000D02*
X165150000Y-39612000D01*
X162855000Y-38332500D02*
G75*
G02*
X161357000Y-38332500I-749000J0D01*
G01*
X161357000Y-38332500D02*
G75*
G02*
X162855000Y-38332500I749000J0D01*
G01*
X163856000Y-38332500D02*
G75*
G02*
X160356000Y-38332500I-1750000J0D01*
G01*
X160356000Y-38332500D02*
G75*
G02*
X163856000Y-38332500I1750000J0D01*
G01*
%TO.C,SW2*%
X174400000Y-35381000D02*
X174400000Y-37150000D01*
X174400000Y-39612000D02*
X174400000Y-41381000D01*
X174400000Y-41381000D02*
X180400000Y-41381000D01*
X180400000Y-35381000D02*
X174400000Y-35381000D01*
X180400000Y-37150000D02*
X180400000Y-35381000D01*
X180400000Y-41381000D02*
X180400000Y-39612000D01*
X178105000Y-38332500D02*
G75*
G02*
X176607000Y-38332500I-749000J0D01*
G01*
X176607000Y-38332500D02*
G75*
G02*
X178105000Y-38332500I749000J0D01*
G01*
X179106000Y-38332500D02*
G75*
G02*
X175606000Y-38332500I-1750000J0D01*
G01*
X175606000Y-38332500D02*
G75*
G02*
X179106000Y-38332500I1750000J0D01*
G01*
%TO.C,SW3*%
X189650000Y-35381000D02*
X189650000Y-37150000D01*
X189650000Y-39612000D02*
X189650000Y-41381000D01*
X189650000Y-41381000D02*
X195650000Y-41381000D01*
X195650000Y-35381000D02*
X189650000Y-35381000D01*
X195650000Y-37150000D02*
X195650000Y-35381000D01*
X195650000Y-41381000D02*
X195650000Y-39612000D01*
X193355000Y-38332500D02*
G75*
G02*
X191857000Y-38332500I-749000J0D01*
G01*
X191857000Y-38332500D02*
G75*
G02*
X193355000Y-38332500I749000J0D01*
G01*
X194356000Y-38332500D02*
G75*
G02*
X190856000Y-38332500I-1750000J0D01*
G01*
X190856000Y-38332500D02*
G75*
G02*
X194356000Y-38332500I1750000J0D01*
G01*
%TO.C,SW10*%
X233324500Y-20370000D02*
X233324500Y-24198000D01*
X233324500Y-20370000D02*
X245124500Y-20370000D01*
X233324500Y-28542000D02*
X233324500Y-32370000D01*
X234436500Y-24338000D02*
X235249500Y-24338000D01*
X234436500Y-28402000D02*
X235249500Y-28402000D01*
X236159000Y-32370000D02*
X233324500Y-32370000D01*
X241239000Y-32370000D02*
X237210500Y-32370000D01*
X242018500Y-27386000D02*
X236430500Y-27386000D01*
X243276000Y-28402000D02*
X244012500Y-28402000D01*
X244012500Y-24338000D02*
X243034500Y-24338000D01*
X245124500Y-24198500D02*
X245124500Y-20370000D01*
X245124500Y-24198500D02*
X245124500Y-20370000D01*
X245124500Y-32370000D02*
X242290500Y-32370000D01*
X245124500Y-32370000D02*
X245124500Y-28542000D01*
X245124500Y-32370000D02*
X245124500Y-28542000D01*
X237446500Y-27386000D02*
G75*
G02*
X241002500Y-27386000I1778000J994000D01*
G01*
X243549500Y-26370000D02*
G75*
G02*
X234899500Y-26370000I-4325000J0D01*
G01*
X234899500Y-26370000D02*
G75*
G02*
X243549500Y-26370000I4325000J0D01*
G01*
X242577000Y-26370000D02*
G75*
G02*
X235872000Y-26370000I-3352500J0D01*
G01*
X235872000Y-26370000D02*
G75*
G02*
X242577000Y-26370000I3352500J0D01*
G01*
X242272500Y-26370000D02*
G75*
G02*
X236176500Y-26370000I-3048000J0D01*
G01*
X236176500Y-26370000D02*
G75*
G02*
X242272500Y-26370000I3048000J0D01*
G01*
%TO.C,SW5*%
X220150000Y-35381000D02*
X220150000Y-37150000D01*
X220150000Y-39612000D02*
X220150000Y-41381000D01*
X220150000Y-41381000D02*
X226150000Y-41381000D01*
X226150000Y-35381000D02*
X220150000Y-35381000D01*
X226150000Y-37150000D02*
X226150000Y-35381000D01*
X226150000Y-41381000D02*
X226150000Y-39612000D01*
X223855000Y-38332500D02*
G75*
G02*
X222357000Y-38332500I-749000J0D01*
G01*
X222357000Y-38332500D02*
G75*
G02*
X223855000Y-38332500I749000J0D01*
G01*
X224856000Y-38332500D02*
G75*
G02*
X221356000Y-38332500I-1750000J0D01*
G01*
X221356000Y-38332500D02*
G75*
G02*
X224856000Y-38332500I1750000J0D01*
G01*
%TO.C,SW4*%
X204900000Y-35381000D02*
X204900000Y-37150000D01*
X204900000Y-39612000D02*
X204900000Y-41381000D01*
X204900000Y-41381000D02*
X210900000Y-41381000D01*
X210900000Y-35381000D02*
X204900000Y-35381000D01*
X210900000Y-37150000D02*
X210900000Y-35381000D01*
X210900000Y-41381000D02*
X210900000Y-39612000D01*
X208605000Y-38332500D02*
G75*
G02*
X207107000Y-38332500I-749000J0D01*
G01*
X207107000Y-38332500D02*
G75*
G02*
X208605000Y-38332500I749000J0D01*
G01*
X209606000Y-38332500D02*
G75*
G02*
X206106000Y-38332500I-1750000J0D01*
G01*
X206106000Y-38332500D02*
G75*
G02*
X209606000Y-38332500I1750000J0D01*
G01*
%TD*%
D13*
%TO.C,J2*%
X158700000Y23045000D03*
%TD*%
%LPC*%
D14*
%TO.C,H2*%
X246475000Y13575000D03*
%TD*%
D15*
%TO.C,SW6*%
X232650000Y-38327000D03*
X238650000Y-38327000D03*
%TD*%
D16*
%TO.C,SW9*%
X244675500Y1570000D03*
X233675500Y1570000D03*
D17*
X236635500Y-5930000D03*
X241715500Y-5930000D03*
X239175500Y-5930000D03*
X236635500Y8570000D03*
X241715500Y8570000D03*
%TD*%
D18*
%TO.C,J2*%
X158700000Y13625000D03*
X161240000Y13625000D03*
X163780000Y13625000D03*
X166320000Y13625000D03*
X168860000Y13625000D03*
%TD*%
D14*
%TO.C,H4*%
X153475000Y-39325000D03*
%TD*%
D15*
%TO.C,SW1*%
X159150000Y-38381000D03*
X165150000Y-38381000D03*
%TD*%
%TO.C,SW2*%
X174400000Y-38381000D03*
X180400000Y-38381000D03*
%TD*%
%TO.C,SW3*%
X189650000Y-38381000D03*
X195650000Y-38381000D03*
%TD*%
D16*
%TO.C,SW10*%
X233724500Y-26370000D03*
X244724500Y-26370000D03*
D17*
X241764500Y-18870000D03*
X236684500Y-18870000D03*
X239224500Y-18870000D03*
X241764500Y-33370000D03*
X236684500Y-33370000D03*
%TD*%
D15*
%TO.C,SW5*%
X220150000Y-38381000D03*
X226150000Y-38381000D03*
%TD*%
D14*
%TO.C,H3*%
X153475000Y13625000D03*
%TD*%
D15*
%TO.C,SW4*%
X204900000Y-38381000D03*
X210900000Y-38381000D03*
%TD*%
D14*
%TO.C,H1*%
X246475000Y-39275000D03*
%TD*%
D19*
%TO.C,J1*%
X208455000Y10270000D03*
X214235000Y10270000D03*
D20*
X207025000Y13950000D03*
D21*
X207025000Y9750000D03*
D20*
X215665000Y13950000D03*
D21*
X215665000Y9750000D03*
%TD*%
%LPD*%
M02*
