%TF.GenerationSoftware,KiCad,Pcbnew,9.0.0*%
%TF.CreationDate,2025-04-11T20:43:28+08:00*%
%TF.ProjectId,wgr,7767722e-6b69-4636-9164-5f7063625858,rev?*%
%TF.SameCoordinates,Original*%
%TF.FileFunction,Soldermask,Bot*%
%TF.FilePolarity,Negative*%
%FSLAX46Y46*%
G04 Gerber Fmt 4.6, Leading zero omitted, Abs format (unit mm)*
G04 Created by KiCad (PCBNEW 9.0.0) date 2025-04-11 20:43:28*
%MOMM*%
%LPD*%
G01*
G04 APERTURE LIST*
G04 Aperture macros list*
%AMRoundRect*
0 Rectangle with rounded corners*
0 $1 Rounding radius*
0 $2 $3 $4 $5 $6 $7 $8 $9 X,Y pos of 4 corners*
0 Add a 4 corners polygon primitive as box body*
4,1,4,$2,$3,$4,$5,$6,$7,$8,$9,$2,$3,0*
0 Add four circle primitives for the rounded corners*
1,1,$1+$1,$2,$3*
1,1,$1+$1,$4,$5*
1,1,$1+$1,$6,$7*
1,1,$1+$1,$8,$9*
0 Add four rect primitives between the rounded corners*
20,1,$1+$1,$2,$3,$4,$5,0*
20,1,$1+$1,$4,$5,$6,$7,0*
20,1,$1+$1,$6,$7,$8,$9,0*
20,1,$1+$1,$8,$9,$2,$3,0*%
G04 Aperture macros list end*
%ADD10RoundRect,0.250000X-0.262500X-0.450000X0.262500X-0.450000X0.262500X0.450000X-0.262500X0.450000X0*%
%ADD11RoundRect,0.225000X0.225000X0.250000X-0.225000X0.250000X-0.225000X-0.250000X0.225000X-0.250000X0*%
%ADD12RoundRect,0.225000X-0.225000X-0.250000X0.225000X-0.250000X0.225000X0.250000X-0.225000X0.250000X0*%
%ADD13RoundRect,0.100000X0.637500X0.100000X-0.637500X0.100000X-0.637500X-0.100000X0.637500X-0.100000X0*%
%ADD14RoundRect,0.250000X0.450000X-0.262500X0.450000X0.262500X-0.450000X0.262500X-0.450000X-0.262500X0*%
%ADD15RoundRect,0.200000X-0.200000X-0.275000X0.200000X-0.275000X0.200000X0.275000X-0.200000X0.275000X0*%
%ADD16RoundRect,0.200000X0.200000X-0.250000X0.200000X0.250000X-0.200000X0.250000X-0.200000X-0.250000X0*%
%ADD17RoundRect,0.243750X-0.243750X-0.456250X0.243750X-0.456250X0.243750X0.456250X-0.243750X0.456250X0*%
%ADD18RoundRect,0.243750X0.243750X0.456250X-0.243750X0.456250X-0.243750X-0.456250X0.243750X-0.456250X0*%
%ADD19R,0.600000X1.550000*%
%ADD20R,1.200000X1.800000*%
%ADD21C,3.200000*%
%ADD22O,2.300000X4.000000*%
%ADD23C,1.800000*%
%ADD24R,1.550000X0.600000*%
%ADD25R,1.800000X1.200000*%
%ADD26RoundRect,0.225000X-0.250000X0.225000X-0.250000X-0.225000X0.250000X-0.225000X0.250000X0.225000X0*%
%ADD27RoundRect,0.237500X-0.237500X0.250000X-0.237500X-0.250000X0.237500X-0.250000X0.237500X0.250000X0*%
%ADD28RoundRect,0.225000X0.250000X-0.225000X0.250000X0.225000X-0.250000X0.225000X-0.250000X-0.225000X0*%
%ADD29RoundRect,0.250000X-0.250000X-0.475000X0.250000X-0.475000X0.250000X0.475000X-0.250000X0.475000X0*%
%ADD30RoundRect,0.250000X0.250000X0.475000X-0.250000X0.475000X-0.250000X-0.475000X0.250000X-0.475000X0*%
%ADD31RoundRect,0.250000X-0.475000X0.250000X-0.475000X-0.250000X0.475000X-0.250000X0.475000X0.250000X0*%
%ADD32RoundRect,0.250000X-0.450000X0.262500X-0.450000X-0.262500X0.450000X-0.262500X0.450000X0.262500X0*%
%ADD33RoundRect,0.250000X0.262500X0.450000X-0.262500X0.450000X-0.262500X-0.450000X0.262500X-0.450000X0*%
%ADD34RoundRect,0.250000X0.475000X-0.250000X0.475000X0.250000X-0.475000X0.250000X-0.475000X-0.250000X0*%
%ADD35R,0.300000X1.300000*%
%ADD36R,1.800000X2.200000*%
%ADD37RoundRect,0.250000X0.325000X0.650000X-0.325000X0.650000X-0.325000X-0.650000X0.325000X-0.650000X0*%
%ADD38RoundRect,0.125000X0.275000X0.125000X-0.275000X0.125000X-0.275000X-0.125000X0.275000X-0.125000X0*%
%ADD39RoundRect,0.100000X0.300000X0.100000X-0.300000X0.100000X-0.300000X-0.100000X0.300000X-0.100000X0*%
%ADD40RoundRect,0.162500X0.162500X-0.650000X0.162500X0.650000X-0.162500X0.650000X-0.162500X-0.650000X0*%
%ADD41R,1.000000X2.500000*%
%ADD42C,0.650000*%
%ADD43R,0.600000X1.240000*%
%ADD44R,0.300000X1.240000*%
%ADD45O,1.000000X1.800000*%
%ADD46O,1.000000X2.100000*%
%ADD47R,3.000000X1.500000*%
%ADD48RoundRect,0.125000X0.125000X-0.275000X0.125000X0.275000X-0.125000X0.275000X-0.125000X-0.275000X0*%
%ADD49RoundRect,0.100000X0.100000X-0.300000X0.100000X0.300000X-0.100000X0.300000X-0.100000X-0.300000X0*%
%ADD50R,0.900000X1.400000*%
%ADD51RoundRect,0.250001X-0.499999X-0.999999X0.499999X-0.999999X0.499999X0.999999X-0.499999X0.999999X0*%
%ADD52RoundRect,0.200000X-0.250000X-0.200000X0.250000X-0.200000X0.250000X0.200000X-0.250000X0.200000X0*%
%ADD53R,1.475000X0.300000*%
%ADD54R,0.300000X1.475000*%
%ADD55RoundRect,0.250000X0.650000X-1.000000X0.650000X1.000000X-0.650000X1.000000X-0.650000X-1.000000X0*%
%ADD56RoundRect,0.100000X-0.100000X0.637500X-0.100000X-0.637500X0.100000X-0.637500X0.100000X0.637500X0*%
%ADD57RoundRect,0.218750X0.256250X-0.218750X0.256250X0.218750X-0.256250X0.218750X-0.256250X-0.218750X0*%
%ADD58RoundRect,0.250000X-0.350000X0.450000X-0.350000X-0.450000X0.350000X-0.450000X0.350000X0.450000X0*%
%ADD59RoundRect,0.200000X0.200000X0.275000X-0.200000X0.275000X-0.200000X-0.275000X0.200000X-0.275000X0*%
%ADD60R,1.072000X0.532000*%
%ADD61RoundRect,0.218750X-0.218750X-0.256250X0.218750X-0.256250X0.218750X0.256250X-0.218750X0.256250X0*%
G04 APERTURE END LIST*
D10*
%TO.C,R3*%
X221665712Y-13910000D03*
X223490712Y-13910000D03*
%TD*%
D11*
%TO.C,C40*%
X182784106Y-28180000D03*
X181234106Y-28180000D03*
%TD*%
D12*
%TO.C,C41*%
X175515894Y-31200000D03*
X173965894Y-31200000D03*
%TD*%
D13*
%TO.C,U4*%
X177537500Y-30430000D03*
X183262500Y-29780000D03*
X183262500Y-30430000D03*
X183262500Y-31080000D03*
X183262500Y-31730000D03*
X183262500Y-32380000D03*
X183262500Y-33030000D03*
X183262500Y-33680000D03*
X183262500Y-34330000D03*
X183262500Y-34980000D03*
X183262500Y-35630000D03*
X177537500Y-35630000D03*
X177537500Y-34980000D03*
X177537500Y-34330000D03*
X177537500Y-33680000D03*
X177537500Y-33030000D03*
X177537500Y-32380000D03*
X177537500Y-31730000D03*
X177537500Y-31080000D03*
X177537500Y-29780000D03*
%TD*%
D10*
%TO.C,R29*%
X177467500Y-26810000D03*
X179292500Y-26810000D03*
%TD*%
%TO.C,R28*%
X201467500Y2320000D03*
X203292500Y2320000D03*
%TD*%
D14*
%TO.C,R27*%
X193380000Y-33712500D03*
X193380000Y-31887500D03*
%TD*%
%TO.C,R26*%
X187630000Y-33582500D03*
X187630000Y-31757500D03*
%TD*%
D15*
%TO.C,R16*%
X185035000Y-36070000D03*
X186685000Y-36070000D03*
%TD*%
D16*
%TO.C,Q2*%
X191450000Y-33680000D03*
X189550000Y-33680000D03*
X190500000Y-31680000D03*
%TD*%
D17*
%TO.C,LED2*%
X173962500Y-26900000D03*
X175837500Y-26900000D03*
%TD*%
D18*
%TO.C,LED1*%
X206837500Y2380000D03*
X204962500Y2380000D03*
%TD*%
D19*
%TO.C,J5*%
X184650000Y-38100340D03*
X185650000Y-38100340D03*
X183650000Y-38100340D03*
X182650000Y-38100340D03*
X181650000Y-38100340D03*
X180650000Y-38100340D03*
X179650000Y-38100340D03*
D20*
X186950000Y-41975340D03*
X178350000Y-41975340D03*
%TD*%
D21*
%TO.C,H2*%
X246475000Y13575000D03*
%TD*%
D22*
%TO.C,SW9*%
X244675500Y1570000D03*
X233675500Y1570000D03*
D23*
X236635500Y-5930000D03*
X241715500Y-5930000D03*
X239175500Y-5930000D03*
X236635500Y8570000D03*
X241715500Y8570000D03*
%TD*%
D21*
%TO.C,H4*%
X153475000Y-39325000D03*
%TD*%
D22*
%TO.C,SW10*%
X233724500Y-26370000D03*
X244724500Y-26370000D03*
D23*
X241764500Y-18870000D03*
X236684500Y-18870000D03*
X239224500Y-18870000D03*
X241764500Y-33370000D03*
X236684500Y-33370000D03*
%TD*%
D21*
%TO.C,H3*%
X153475000Y13625000D03*
%TD*%
%TO.C,H1*%
X246475000Y-39275000D03*
%TD*%
D15*
%TO.C,R13*%
X173261499Y-285287D03*
X174911499Y-285287D03*
%TD*%
D24*
%TO.C,J7*%
X155837000Y2387000D03*
X155837000Y3387000D03*
X155837000Y4387000D03*
X155837000Y5387000D03*
D25*
X151962000Y1087000D03*
X151962000Y6687000D03*
%TD*%
D26*
%TO.C,C34*%
X201149695Y-10965018D03*
X201149695Y-12515018D03*
%TD*%
D27*
%TO.C,R22*%
X243550000Y-9787500D03*
X243550000Y-11612500D03*
%TD*%
D28*
%TO.C,C30*%
X204539817Y-19825010D03*
X204539817Y-18275010D03*
%TD*%
D29*
%TO.C,C17*%
X236232262Y-21500000D03*
X238132262Y-21500000D03*
%TD*%
D30*
%TO.C,C36*%
X210640894Y1940000D03*
X208740894Y1940000D03*
%TD*%
D31*
%TO.C,C38*%
X204440894Y-100000D03*
X204440894Y-2000000D03*
%TD*%
D11*
%TO.C,C23*%
X185204939Y-23270014D03*
X183654939Y-23270014D03*
%TD*%
D32*
%TO.C,R12*%
X185687045Y6427882D03*
X185687045Y4602882D03*
%TD*%
D33*
%TO.C,R20*%
X170943498Y1911426D03*
X169118498Y1911426D03*
%TD*%
D32*
%TO.C,R11*%
X183487044Y6347881D03*
X183487044Y4522881D03*
%TD*%
D30*
%TO.C,C18*%
X221070000Y-16104470D03*
X219170000Y-16104470D03*
%TD*%
%TO.C,C16*%
X242132262Y-21420000D03*
X240232262Y-21420000D03*
%TD*%
D14*
%TO.C,R2*%
X226680000Y-3012500D03*
X226680000Y-1187500D03*
%TD*%
%TO.C,R1*%
X224430000Y-2942500D03*
X224430000Y-1117500D03*
%TD*%
%TO.C,R21*%
X168426316Y-35737500D03*
X168426316Y-33912500D03*
%TD*%
D24*
%TO.C,J9*%
X155987000Y-28163000D03*
X155987000Y-27163000D03*
X155987000Y-26163000D03*
X155987000Y-25163000D03*
D25*
X152112000Y-29463000D03*
X152112000Y-23863000D03*
%TD*%
D34*
%TO.C,C9*%
X197574618Y4134364D03*
X197574618Y6034362D03*
%TD*%
D35*
%TO.C,LCD1*%
X198000056Y9605382D03*
X197500056Y9605382D03*
X197000056Y9605382D03*
X196500056Y9605382D03*
X196000056Y9605382D03*
X195500056Y9605382D03*
X195000056Y9605382D03*
X194500056Y9605382D03*
X194000056Y9605382D03*
X193500056Y9605382D03*
X193000056Y9605382D03*
X192500056Y9605382D03*
X192000056Y9605382D03*
X191500056Y9605382D03*
X191000056Y9605382D03*
X190500056Y9605382D03*
X190000056Y9605382D03*
X189500056Y9605382D03*
X189000056Y9605382D03*
X188500056Y9605382D03*
X188000056Y9605382D03*
X187500056Y9605382D03*
X187000056Y9605382D03*
X186500056Y9605382D03*
X186000056Y9605382D03*
X185500056Y9605382D03*
X185000056Y9605382D03*
X184500056Y9605382D03*
X184000056Y9605382D03*
X183500056Y9605382D03*
X183000056Y9605382D03*
X182500056Y9605382D03*
D36*
X180600056Y12855382D03*
X199900056Y12855382D03*
%TD*%
D29*
%TO.C,C6*%
X222360000Y959106D03*
X224260000Y959106D03*
%TD*%
D27*
%TO.C,R24*%
X217700000Y10582500D03*
X217700000Y8757500D03*
%TD*%
D28*
%TO.C,C31*%
X202789817Y-19855006D03*
X202789817Y-18305006D03*
%TD*%
%TO.C,C33*%
X201149695Y-15735022D03*
X201149695Y-14185022D03*
%TD*%
D37*
%TO.C,C19*%
X170869395Y4145287D03*
X167919395Y4145287D03*
%TD*%
D38*
%TO.C,RN1*%
X221160000Y-18160000D03*
D39*
X221160000Y-18960000D03*
X221160000Y-19760000D03*
D38*
X221160000Y-20560000D03*
X219360000Y-20560000D03*
D39*
X219360000Y-19760000D03*
X219360000Y-18960000D03*
D38*
X219360000Y-18160000D03*
%TD*%
D34*
%TO.C,C10*%
X194494619Y534363D03*
X194494619Y2434361D03*
%TD*%
D16*
%TO.C,Q1*%
X172376316Y-35865000D03*
X170476316Y-35865000D03*
X171426316Y-33865000D03*
%TD*%
D34*
%TO.C,C11*%
X194534361Y4135383D03*
X194534361Y6035381D03*
%TD*%
D28*
%TO.C,C24*%
X201050010Y-19845061D03*
X201050010Y-18295061D03*
%TD*%
D40*
%TO.C,U5*%
X175580000Y-23562500D03*
X174310000Y-23562500D03*
X173040000Y-23562500D03*
X171770000Y-23562500D03*
X171770000Y-16387500D03*
X173040000Y-16387500D03*
X174310000Y-16387500D03*
X175580000Y-16387500D03*
%TD*%
D28*
%TO.C,C29*%
X181539817Y-7045014D03*
X181539817Y-5495014D03*
%TD*%
D11*
%TO.C,C27*%
X185235183Y-25039978D03*
X183685183Y-25039978D03*
%TD*%
D12*
%TO.C,C28*%
X201144817Y-7490018D03*
X202694817Y-7490018D03*
%TD*%
D41*
%TO.C,J3*%
X168860000Y13575000D03*
X166320000Y13575000D03*
X163780000Y13575000D03*
X161240000Y13575000D03*
X158700000Y13575000D03*
%TD*%
D30*
%TO.C,C15*%
X242167738Y-3460000D03*
X240267738Y-3460000D03*
%TD*%
D28*
%TO.C,C26*%
X179679939Y-7135002D03*
X179679939Y-5585002D03*
%TD*%
D42*
%TO.C,J1*%
X208455000Y10270000D03*
X214235000Y10270000D03*
D43*
X208145000Y9150000D03*
X208945000Y9150000D03*
D44*
X210095000Y9150000D03*
X211095000Y9150000D03*
X211595000Y9150000D03*
X212595000Y9150000D03*
D43*
X213745000Y9150000D03*
X214545000Y9150000D03*
X214545000Y9150000D03*
X213745000Y9150000D03*
D44*
X213095000Y9150000D03*
X212095000Y9150000D03*
X210595000Y9150000D03*
X209595000Y9150000D03*
D43*
X208945000Y9150000D03*
X208145000Y9150000D03*
D45*
X207025000Y13950000D03*
D46*
X207025000Y9750000D03*
D45*
X215665000Y13950000D03*
D46*
X215665000Y9750000D03*
%TD*%
D47*
%TO.C,PJ1*%
X221660000Y13475000D03*
X221660000Y9875000D03*
X228660000Y5575000D03*
X221660000Y3775000D03*
X228660000Y12575000D03*
%TD*%
D30*
%TO.C,C7*%
X228390894Y1030000D03*
X226490894Y1030000D03*
%TD*%
D14*
%TO.C,R23*%
X174536316Y-35677500D03*
X174536316Y-33852500D03*
%TD*%
D48*
%TO.C,RN2*%
X231042208Y-9710000D03*
D49*
X230242208Y-9710000D03*
X229442208Y-9710000D03*
D48*
X228642208Y-9710000D03*
X228642208Y-7910000D03*
D49*
X229442208Y-7910000D03*
X230242208Y-7910000D03*
D48*
X231042208Y-7910000D03*
%TD*%
D50*
%TO.C,SW7*%
X245690000Y-16033000D03*
X245690000Y-22833000D03*
X248690000Y-16033000D03*
X248690000Y-22833000D03*
%TD*%
D29*
%TO.C,C14*%
X235949526Y-3380000D03*
X237849526Y-3380000D03*
%TD*%
D11*
%TO.C,C25*%
X199454939Y-23080006D03*
X197904939Y-23080006D03*
%TD*%
D51*
%TO.C,L1*%
X172293501Y8330287D03*
X175993501Y8330287D03*
%TD*%
D19*
%TO.C,J4*%
X168400000Y-37875000D03*
X169400000Y-37875000D03*
X167400000Y-37875000D03*
X166400000Y-37875000D03*
X165400000Y-37875000D03*
X164400000Y-37875000D03*
X163400000Y-37875000D03*
D20*
X170700000Y-41750000D03*
X162100000Y-41750000D03*
%TD*%
D26*
%TO.C,C32*%
X243789817Y-16085002D03*
X243789817Y-17635002D03*
%TD*%
D50*
%TO.C,SW8*%
X248679000Y-13960000D03*
X248679000Y-7160000D03*
X245679000Y-13960000D03*
X245679000Y-7160000D03*
%TD*%
D52*
%TO.C,U3*%
X210695000Y-900000D03*
X208695000Y-1850000D03*
X208695000Y50000D03*
%TD*%
D32*
%TO.C,R15*%
X181168724Y6413264D03*
X181168724Y4588264D03*
%TD*%
D30*
%TO.C,C4*%
X219820000Y-13940894D03*
X217920000Y-13940894D03*
%TD*%
D37*
%TO.C,C20*%
X177827607Y-2644713D03*
X174877607Y-2644713D03*
%TD*%
D12*
%TO.C,C35*%
X174374695Y-14520014D03*
X175924695Y-14520014D03*
%TD*%
D34*
%TO.C,C8*%
X197634362Y645382D03*
X197634362Y2545380D03*
%TD*%
D11*
%TO.C,C22*%
X198845061Y-3759982D03*
X197295061Y-3759982D03*
%TD*%
D33*
%TO.C,R18*%
X156872500Y-1580000D03*
X155047500Y-1580000D03*
%TD*%
D24*
%TO.C,J8*%
X155927000Y-18947000D03*
X155927000Y-17947000D03*
X155927000Y-16947000D03*
X155927000Y-15947000D03*
D25*
X152052000Y-20247000D03*
X152052000Y-14647000D03*
%TD*%
D53*
%TO.C,IC1*%
X198988000Y-7420000D03*
X198988000Y-7920000D03*
X198988000Y-8420000D03*
X198988000Y-8920000D03*
X198988000Y-9420000D03*
X198988000Y-9920000D03*
X198988000Y-10420000D03*
X198988000Y-10920000D03*
X198988000Y-11420000D03*
X198988000Y-11920000D03*
X198988000Y-12420000D03*
X198988000Y-12920000D03*
X198988000Y-13420000D03*
X198988000Y-13920000D03*
X198988000Y-14420000D03*
X198988000Y-14920000D03*
X198988000Y-15420000D03*
X198988000Y-15920000D03*
X198988000Y-16420000D03*
X198988000Y-16920000D03*
X198988000Y-17420000D03*
X198988000Y-17920000D03*
X198988000Y-18420000D03*
X198988000Y-18920000D03*
X198988000Y-19420000D03*
D54*
X197250000Y-21158000D03*
X196750000Y-21158000D03*
X196250000Y-21158000D03*
X195750000Y-21158000D03*
X195250000Y-21158000D03*
X194750000Y-21158000D03*
X194250000Y-21158000D03*
X193750000Y-21158000D03*
X193250000Y-21158000D03*
X192750000Y-21158000D03*
X192250000Y-21158000D03*
X191750000Y-21158000D03*
X191250000Y-21158000D03*
X190750000Y-21158000D03*
X190250000Y-21158000D03*
X189750000Y-21158000D03*
X189250000Y-21158000D03*
X188750000Y-21158000D03*
X188250000Y-21158000D03*
X187750000Y-21158000D03*
X187250000Y-21158000D03*
X186750000Y-21158000D03*
X186250000Y-21158000D03*
X185750000Y-21158000D03*
X185250000Y-21158000D03*
D53*
X183512000Y-19420000D03*
X183512000Y-18920000D03*
X183512000Y-18420000D03*
X183512000Y-17920000D03*
X183512000Y-17420000D03*
X183512000Y-16920000D03*
X183512000Y-16420000D03*
X183512000Y-15920000D03*
X183512000Y-15420000D03*
X183512000Y-14920000D03*
X183512000Y-14420000D03*
X183512000Y-13920000D03*
X183512000Y-13420000D03*
X183512000Y-12920000D03*
X183512000Y-12420000D03*
X183512000Y-11920000D03*
X183512000Y-11420000D03*
X183512000Y-10920000D03*
X183512000Y-10420000D03*
X183512000Y-9920000D03*
X183512000Y-9420000D03*
X183512000Y-8920000D03*
X183512000Y-8420000D03*
X183512000Y-7920000D03*
X183512000Y-7420000D03*
D54*
X185250000Y-5682000D03*
X185750000Y-5682000D03*
X186250000Y-5682000D03*
X186750000Y-5682000D03*
X187250000Y-5682000D03*
X187750000Y-5682000D03*
X188250000Y-5682000D03*
X188750000Y-5682000D03*
X189250000Y-5682000D03*
X189750000Y-5682000D03*
X190250000Y-5682000D03*
X190750000Y-5682000D03*
X191250000Y-5682000D03*
X191750000Y-5682000D03*
X192250000Y-5682000D03*
X192750000Y-5682000D03*
X193250000Y-5682000D03*
X193750000Y-5682000D03*
X194250000Y-5682000D03*
X194750000Y-5682000D03*
X195250000Y-5682000D03*
X195750000Y-5682000D03*
X196250000Y-5682000D03*
X196750000Y-5682000D03*
X197250000Y-5682000D03*
%TD*%
D27*
%TO.C,R25*%
X204950000Y10552500D03*
X204950000Y8727500D03*
%TD*%
D31*
%TO.C,C3*%
X220200000Y-1090894D03*
X220200000Y-2990894D03*
%TD*%
D55*
%TO.C,D1*%
X177883501Y135287D03*
X177883501Y4135287D03*
%TD*%
D29*
%TO.C,C12*%
X189384363Y3545382D03*
X191284361Y3545382D03*
%TD*%
%TO.C,C13*%
X189484364Y5715382D03*
X191384362Y5715382D03*
%TD*%
D34*
%TO.C,C2*%
X222280000Y-2990894D03*
X222280000Y-1090894D03*
%TD*%
D11*
%TO.C,C21*%
X202704939Y-9210022D03*
X201154939Y-9210022D03*
%TD*%
D26*
%TO.C,C39*%
X202559939Y-335002D03*
X202559939Y-1885002D03*
%TD*%
D31*
%TO.C,C37*%
X206690894Y20000D03*
X206690894Y-1880000D03*
%TD*%
D34*
%TO.C,C1*%
X217910000Y-2990894D03*
X217910000Y-1090894D03*
%TD*%
D56*
%TO.C,U1*%
X221250000Y-6057500D03*
X221900000Y-6057500D03*
X222550000Y-6057500D03*
X223200000Y-6057500D03*
X223850000Y-6057500D03*
X224500000Y-6057500D03*
X225150000Y-6057500D03*
X225800000Y-6057500D03*
X226450000Y-6057500D03*
X227100000Y-6057500D03*
X227100000Y-11782500D03*
X226450000Y-11782500D03*
X225800000Y-11782500D03*
X225150000Y-11782500D03*
X224500000Y-11782500D03*
X223850000Y-11782500D03*
X223200000Y-11782500D03*
X222550000Y-11782500D03*
X221900000Y-11782500D03*
X221250000Y-11782500D03*
%TD*%
D57*
%TO.C,L2*%
X206380000Y-19707500D03*
X206380000Y-18132500D03*
%TD*%
D58*
%TO.C,X1*%
X205050000Y-12050000D03*
X205050000Y-14250000D03*
X203350000Y-14250000D03*
X203350000Y-12050000D03*
%TD*%
D59*
%TO.C,R14*%
X175048501Y1545287D03*
X173398501Y1545287D03*
%TD*%
D34*
%TO.C,C5*%
X228790000Y-2940894D03*
X228790000Y-1040894D03*
%TD*%
D33*
%TO.C,R19*%
X156872500Y-3860000D03*
X155047500Y-3860000D03*
%TD*%
D60*
%TO.C,U2*%
X175203501Y5050287D03*
X175203501Y4100287D03*
X175203501Y3150287D03*
X172905501Y3150287D03*
X172905501Y4100287D03*
X172905501Y5050287D03*
%TD*%
D61*
%TO.C,F1*%
X210537500Y3950000D03*
X208962500Y3950000D03*
%TD*%
M02*
