%TF.GenerationSoftware,KiCad,Pcbnew,9.0.0*%
%TF.CreationDate,2025-04-11T20:43:28+08:00*%
%TF.ProjectId,wgr,7767722e-6b69-4636-9164-5f7063625858,rev?*%
%TF.SameCoordinates,Original*%
%TF.FileFunction,Profile,NP*%
%FSLAX46Y46*%
G04 Gerber Fmt 4.6, Leading zero omitted, Abs format (unit mm)*
G04 Created by KiCad (PCBNEW 9.0.0) date 2025-04-11 20:43:28*
%MOMM*%
%LPD*%
G01*
G04 APERTURE LIST*
%TA.AperFunction,Profile*%
%ADD10C,0.050000*%
%TD*%
%TA.AperFunction,Profile*%
%ADD11C,0.000000*%
%TD*%
G04 APERTURE END LIST*
D10*
X150000000Y17200000D02*
X250000000Y17200000D01*
X250000000Y-43800000D01*
X150000000Y-43800000D01*
X150000000Y17200000D01*
D11*
%TA.AperFunction,Profile*%
%TO.C,PJ1*%
G36*
X225300866Y12554746D02*
G01*
X225430320Y12495627D01*
X225537875Y12402430D01*
X225614816Y12282708D01*
X225654911Y12146157D01*
X225654911Y12003843D01*
X225614816Y11867292D01*
X225537875Y11747570D01*
X225430320Y11654373D01*
X225300866Y11595254D01*
X225160000Y11575000D01*
X225019134Y11595254D01*
X224889680Y11654373D01*
X224782125Y11747570D01*
X224705184Y11867292D01*
X224665089Y12003843D01*
X224665089Y12146157D01*
X224705184Y12282708D01*
X224782125Y12402430D01*
X224889680Y12495627D01*
X225019134Y12554746D01*
X225160000Y12575000D01*
X225300866Y12554746D01*
G37*
%TD.AperFunction*%
%TA.AperFunction,Profile*%
G36*
X225300866Y6554746D02*
G01*
X225430320Y6495627D01*
X225537875Y6402430D01*
X225614816Y6282708D01*
X225654911Y6146157D01*
X225654911Y6003843D01*
X225614816Y5867292D01*
X225537875Y5747570D01*
X225430320Y5654373D01*
X225300866Y5595254D01*
X225160000Y5575000D01*
X225019134Y5595254D01*
X224889680Y5654373D01*
X224782125Y5747570D01*
X224705184Y5867292D01*
X224665089Y6003843D01*
X224665089Y6146157D01*
X224705184Y6282708D01*
X224782125Y6402430D01*
X224889680Y6495627D01*
X225019134Y6554746D01*
X225160000Y6575000D01*
X225300866Y6554746D01*
G37*
%TD.AperFunction*%
%TD*%
M02*
